<?xml version="1.0" standalone="no"?>
 <!DOCTYPE svg PUBLIC "-//W3C//DTD SVG 1.1//EN" 
 "http://www.w3.org/Graphics/SVG/1.1/DTD/svg11.dtd"> 
<svg xmlns="http://www.w3.org/2000/svg" version="1.1" 
    width="29.7002cm" height="21.0007cm" viewBox="0 0 116930 82680 ">
<title>SVG Picture created as ddr-ps2-controller-F_Paste.svg date 2019/09/07 10:36:07 </title>
  <desc>Picture generated by PCBNEW </desc>
<g style="fill:#000000; fill-opacity:1;stroke:#000000; stroke-opacity:1;
stroke-linecap:round; stroke-linejoin:round; "
 transform="translate(0 0) scale(1 1)">
</g>
<g style="fill:#000000; fill-opacity:0.0; 
stroke:#000000; stroke-width:-0.000393701; stroke-opacity:1; 
stroke-linecap:round; stroke-linejoin:round;">
<g >
</g>
<g >
</g>
<g >
</g>
<g >
</g>
<g >
</g>
<g >
</g>
<g >
</g>
<g >
</g>
<g >
</g>
<g >
</g>
<g >
</g>
<g >
</g>
<g >
</g>
<g style="fill:#000000; fill-opacity:0.0; 
stroke:#000000; stroke-width:-0.000393701; stroke-opacity:1; 
stroke-linecap:round; stroke-linejoin:round;">
</g>
<g style="fill:#000000; fill-opacity:0.0; 
stroke:#000000; stroke-width:0; stroke-opacity:1; 
stroke-linecap:round; stroke-linejoin:round;">
</g>
<g style="fill:#000000; fill-opacity:1.0; 
stroke:#000000; stroke-width:0; stroke-opacity:1; 
stroke-linecap:round; stroke-linejoin:round;">
<path style="fill:#000000; fill-opacity:1.0; 
stroke:#000000; stroke-width:0; stroke-opacity:1; 
stroke-linecap:round; stroke-linejoin:round;fill-rule:evenodd;"
d="M 44685,32066
44685,31712
45078,31712
45078,32066
44685,32066
Z" /> 
<path style="fill:#000000; fill-opacity:1.0; 
stroke:#000000; stroke-width:0; stroke-opacity:1; 
stroke-linecap:round; stroke-linejoin:round;fill-rule:evenodd;"
d="M 44133,32066
44133,31830
44448,31830
44448,32066
44133,32066
Z" /> 
<path style="fill:#000000; fill-opacity:1.0; 
stroke:#000000; stroke-width:0; stroke-opacity:1; 
stroke-linecap:round; stroke-linejoin:round;fill-rule:evenodd;"
d="M 43503,32066
43503,31712
43897,31712
43897,32066
43503,32066
Z" /> 
</g>
<g >
</g>
<g style="fill:#000000; fill-opacity:1.0; 
stroke:#000000; stroke-width:0; stroke-opacity:1; 
stroke-linecap:round; stroke-linejoin:round;">
<path style="fill:#000000; fill-opacity:1.0; 
stroke:#000000; stroke-width:0; stroke-opacity:1; 
stroke-linecap:round; stroke-linejoin:round;fill-rule:evenodd;"
d="M 54527,32066
54527,31712
54921,31712
54921,32066
54527,32066
Z" /> 
<path style="fill:#000000; fill-opacity:1.0; 
stroke:#000000; stroke-width:0; stroke-opacity:1; 
stroke-linecap:round; stroke-linejoin:round;fill-rule:evenodd;"
d="M 53976,32066
53976,31830
54291,31830
54291,32066
53976,32066
Z" /> 
<path style="fill:#000000; fill-opacity:1.0; 
stroke:#000000; stroke-width:0; stroke-opacity:1; 
stroke-linecap:round; stroke-linejoin:round;fill-rule:evenodd;"
d="M 53346,32066
53346,31712
53740,31712
53740,32066
53346,32066
Z" /> 
</g>
<g >
</g>
<g style="fill:#000000; fill-opacity:1.0; 
stroke:#000000; stroke-width:0; stroke-opacity:1; 
stroke-linecap:round; stroke-linejoin:round;">
<path style="fill:#000000; fill-opacity:1.0; 
stroke:#000000; stroke-width:0; stroke-opacity:1; 
stroke-linecap:round; stroke-linejoin:round;fill-rule:evenodd;"
d="M 64370,32066
64370,31712
64763,31712
64763,32066
64370,32066
Z" /> 
<path style="fill:#000000; fill-opacity:1.0; 
stroke:#000000; stroke-width:0; stroke-opacity:1; 
stroke-linecap:round; stroke-linejoin:round;fill-rule:evenodd;"
d="M 63818,32066
63818,31830
64133,31830
64133,32066
63818,32066
Z" /> 
<path style="fill:#000000; fill-opacity:1.0; 
stroke:#000000; stroke-width:0; stroke-opacity:1; 
stroke-linecap:round; stroke-linejoin:round;fill-rule:evenodd;"
d="M 63188,32066
63188,31712
63582,31712
63582,32066
63188,32066
Z" /> 
</g>
<g >
</g>
<g style="fill:#000000; fill-opacity:1.0; 
stroke:#000000; stroke-width:0; stroke-opacity:1; 
stroke-linecap:round; stroke-linejoin:round;">
<path style="fill:#000000; fill-opacity:1.0; 
stroke:#000000; stroke-width:0; stroke-opacity:1; 
stroke-linecap:round; stroke-linejoin:round;fill-rule:evenodd;"
d="M 74212,32066
74212,31712
74606,31712
74606,32066
74212,32066
Z" /> 
<path style="fill:#000000; fill-opacity:1.0; 
stroke:#000000; stroke-width:0; stroke-opacity:1; 
stroke-linecap:round; stroke-linejoin:round;fill-rule:evenodd;"
d="M 73661,32066
73661,31830
73976,31830
73976,32066
73661,32066
Z" /> 
<path style="fill:#000000; fill-opacity:1.0; 
stroke:#000000; stroke-width:0; stroke-opacity:1; 
stroke-linecap:round; stroke-linejoin:round;fill-rule:evenodd;"
d="M 73031,32066
73031,31712
73425,31712
73425,32066
73031,32066
Z" /> 
</g>
<g >
</g>
<g >
</g>
<g >
</g>
<g >
</g>
<g >
</g>
<g >
</g>
<g >
</g>
<g >
</g>
<g >
</g>
<g >
</g>
<g >
</g>
<g >
</g>
<g >
</g>
<g >
</g>
<g >
</g>
<g >
</g>
<g >
</g>
<g >
</g>
<g >
</g>
<g >
</g>
<g >
</g>
<g >
</g>
<g >
</g>
<g >
</g>
<g >
</g>
<g >
</g>
<g >
</g>
<g style="fill:#000000; fill-opacity:1.0; 
stroke:#000000; stroke-width:0; stroke-opacity:1; 
stroke-linecap:round; stroke-linejoin:round;">
<path style="fill:#000000; fill-opacity:1.0; 
stroke:#000000; stroke-width:0; stroke-opacity:1; 
stroke-linecap:round; stroke-linejoin:round;fill-rule:evenodd;"
d="M 52737,41939
52745,41940
52753,41942
52761,41945
52769,41949
52776,41953
52783,41958
52789,41964
52795,41970
52800,41977
52804,41984
52808,41992
52811,42000
52813,42008
52814,42016
52814,42025
52814,42226
52814,42235
52813,42243
52811,42251
52808,42259
52804,42267
52800,42274
52795,42281
52789,42287
52783,42293
52776,42298
52769,42302
52761,42306
52753,42309
52745,42311
52737,42312
52728,42312
52556,42312
52548,42312
52539,42311
52531,42309
52523,42306
52515,42302
52508,42298
52501,42293
52495,42287
52490,42281
52484,42274
52480,42267
52477,42259
52474,42251
52472,42243
52470,42235
52470,42226
52470,42025
52470,42016
52472,42008
52474,42000
52477,41992
52480,41984
52484,41977
52490,41970
52495,41964
52501,41958
52508,41953
52515,41949
52523,41945
52531,41942
52539,41940
52548,41939
52556,41938
52728,41938
52737,41939
Z" /> 
<path style="fill:#000000; fill-opacity:1.0; 
stroke:#000000; stroke-width:0; stroke-opacity:1; 
stroke-linecap:round; stroke-linejoin:round;fill-rule:evenodd;"
d="M 53357,41939
53365,41940
53373,41942
53381,41945
53389,41949
53396,41953
53403,41958
53409,41964
53415,41970
53420,41977
53424,41984
53428,41992
53431,42000
53433,42008
53434,42016
53435,42025
53435,42226
53434,42235
53433,42243
53431,42251
53428,42259
53424,42267
53420,42274
53415,42281
53409,42287
53403,42293
53396,42298
53389,42302
53381,42306
53373,42309
53365,42311
53357,42312
53348,42312
53176,42312
53168,42312
53159,42311
53151,42309
53143,42306
53136,42302
53128,42298
53122,42293
53115,42287
53110,42281
53105,42274
53100,42267
53097,42259
53094,42251
53092,42243
53090,42235
53090,42226
53090,42025
53090,42016
53092,42008
53094,42000
53097,41992
53100,41984
53105,41977
53110,41970
53115,41964
53122,41958
53128,41953
53136,41949
53143,41945
53151,41942
53159,41940
53168,41939
53176,41938
53348,41938
53357,41939
Z" /> 
</g>
<g >
</g>
<g style="fill:#000000; fill-opacity:1.0; 
stroke:#000000; stroke-width:0; stroke-opacity:1; 
stroke-linecap:round; stroke-linejoin:round;">
<path style="fill:#000000; fill-opacity:1.0; 
stroke:#000000; stroke-width:0; stroke-opacity:1; 
stroke-linecap:round; stroke-linejoin:round;fill-rule:evenodd;"
d="M 53207,41409
53213,41410
53218,41411
53223,41413
53229,41416
53234,41419
53238,41422
53242,41426
53246,41430
53250,41435
53252,41440
53255,41445
53257,41450
53258,41456
53259,41461
53259,41467
53259,41603
53259,41609
53258,41614
53257,41620
53255,41625
53252,41630
53250,41635
53246,41640
53242,41644
53238,41648
53234,41651
53229,41654
53223,41656
53218,41658
53213,41660
53207,41661
53201,41661
53085,41661
53079,41661
53074,41660
53068,41658
53063,41656
53058,41654
53053,41651
53048,41648
53044,41644
53040,41640
53037,41635
53034,41630
53031,41625
53030,41620
53028,41614
53027,41609
53027,41603
53027,41467
53027,41461
53028,41456
53030,41450
53031,41445
53034,41440
53037,41435
53040,41430
53044,41426
53048,41422
53053,41419
53058,41416
53063,41413
53068,41411
53074,41410
53079,41409
53085,41409
53201,41409
53207,41409
Z" /> 
<path style="fill:#000000; fill-opacity:1.0; 
stroke:#000000; stroke-width:0; stroke-opacity:1; 
stroke-linecap:round; stroke-linejoin:round;fill-rule:evenodd;"
d="M 52825,41409
52831,41410
52836,41411
52842,41413
52847,41416
52852,41419
52856,41422
52860,41426
52864,41430
52868,41435
52871,41440
52873,41445
52875,41450
52876,41456
52877,41461
52877,41467
52877,41603
52877,41609
52876,41614
52875,41620
52873,41625
52871,41630
52868,41635
52864,41640
52860,41644
52856,41648
52852,41651
52847,41654
52842,41656
52836,41658
52831,41660
52825,41661
52819,41661
52703,41661
52698,41661
52692,41660
52686,41658
52681,41656
52676,41654
52671,41651
52666,41648
52662,41644
52658,41640
52655,41635
52652,41630
52650,41625
52648,41620
52646,41614
52645,41609
52645,41603
52645,41467
52645,41461
52646,41456
52648,41450
52650,41445
52652,41440
52655,41435
52658,41430
52662,41426
52666,41422
52671,41419
52676,41416
52681,41413
52686,41411
52692,41410
52698,41409
52703,41409
52819,41409
52825,41409
Z" /> 
</g>
<g >
</g>
<g style="fill:#000000; fill-opacity:1.0; 
stroke:#000000; stroke-width:0; stroke-opacity:1; 
stroke-linecap:round; stroke-linejoin:round;">
<path style="fill:#000000; fill-opacity:1.0; 
stroke:#000000; stroke-width:0; stroke-opacity:1; 
stroke-linecap:round; stroke-linejoin:round;fill-rule:evenodd;"
d="M 49664,34323
49669,34323
49675,34325
49680,34327
49685,34329
49690,34332
49695,34336
49699,34339
49703,34344
49706,34348
49709,34353
49712,34358
49714,34364
49715,34369
49716,34375
49716,34380
49716,34516
49716,34522
49715,34528
49714,34533
49712,34538
49709,34544
49706,34548
49703,34553
49699,34557
49695,34561
49690,34565
49685,34567
49680,34570
49675,34572
49669,34573
49664,34574
49658,34574
49542,34574
49536,34574
49530,34573
49525,34572
49520,34570
49514,34567
49510,34565
49505,34561
49501,34557
49497,34553
49494,34548
49491,34544
49488,34538
49486,34533
49485,34528
49484,34522
49484,34516
49484,34380
49484,34375
49485,34369
49486,34364
49488,34358
49491,34353
49494,34348
49497,34344
49501,34339
49505,34336
49510,34332
49514,34329
49520,34327
49525,34325
49530,34323
49536,34323
49542,34322
49658,34322
49664,34323
Z" /> 
<path style="fill:#000000; fill-opacity:1.0; 
stroke:#000000; stroke-width:0; stroke-opacity:1; 
stroke-linecap:round; stroke-linejoin:round;fill-rule:evenodd;"
d="M 49282,34323
49287,34323
49293,34325
49298,34327
49303,34329
49308,34332
49313,34336
49317,34339
49321,34344
49324,34348
49327,34353
49330,34358
49332,34364
49333,34369
49334,34375
49334,34380
49334,34516
49334,34522
49333,34528
49332,34533
49330,34538
49327,34544
49324,34548
49321,34553
49317,34557
49313,34561
49308,34565
49303,34567
49298,34570
49293,34572
49287,34573
49282,34574
49276,34574
49160,34574
49154,34574
49149,34573
49143,34572
49138,34570
49133,34567
49128,34565
49123,34561
49119,34557
49115,34553
49112,34548
49109,34544
49106,34538
49104,34533
49103,34528
49102,34522
49102,34516
49102,34380
49102,34375
49103,34369
49104,34364
49106,34358
49109,34353
49112,34348
49115,34344
49119,34339
49123,34336
49128,34332
49133,34329
49138,34327
49143,34325
49149,34323
49154,34323
49160,34322
49276,34322
49282,34323
Z" /> 
</g>
<g >
</g>
<g style="fill:#000000; fill-opacity:1.0; 
stroke:#000000; stroke-width:0; stroke-opacity:1; 
stroke-linecap:round; stroke-linejoin:round;">
<path style="fill:#000000; fill-opacity:1.0; 
stroke:#000000; stroke-width:0; stroke-opacity:1; 
stroke-linecap:round; stroke-linejoin:round;fill-rule:evenodd;"
d="M 68967,34323
68972,34323
68978,34325
68983,34327
68988,34329
68993,34332
68998,34336
69002,34339
69006,34344
69009,34348
69012,34353
69015,34358
69017,34364
69018,34369
69019,34375
69019,34380
69019,34516
69019,34522
69018,34528
69017,34533
69015,34538
69012,34544
69009,34548
69006,34553
69002,34557
68998,34561
68993,34565
68988,34567
68983,34570
68978,34572
68972,34573
68967,34574
68961,34574
68845,34574
68839,34574
68834,34573
68828,34572
68823,34570
68818,34567
68813,34565
68808,34561
68804,34557
68800,34553
68797,34548
68794,34544
68791,34538
68789,34533
68788,34528
68787,34522
68787,34516
68787,34380
68787,34375
68788,34369
68789,34364
68791,34358
68794,34353
68797,34348
68800,34344
68804,34339
68808,34336
68813,34332
68818,34329
68823,34327
68828,34325
68834,34323
68839,34323
68845,34322
68961,34322
68967,34323
Z" /> 
<path style="fill:#000000; fill-opacity:1.0; 
stroke:#000000; stroke-width:0; stroke-opacity:1; 
stroke-linecap:round; stroke-linejoin:round;fill-rule:evenodd;"
d="M 69349,34323
69354,34323
69360,34325
69365,34327
69370,34329
69375,34332
69380,34336
69384,34339
69388,34344
69391,34348
69394,34353
69397,34358
69399,34364
69400,34369
69401,34375
69401,34380
69401,34516
69401,34522
69400,34528
69399,34533
69397,34538
69394,34544
69391,34548
69388,34553
69384,34557
69380,34561
69375,34565
69370,34567
69365,34570
69360,34572
69354,34573
69349,34574
69343,34574
69227,34574
69221,34574
69216,34573
69210,34572
69205,34570
69199,34567
69195,34565
69190,34561
69186,34557
69182,34553
69179,34548
69176,34544
69173,34538
69171,34533
69170,34528
69169,34522
69169,34516
69169,34380
69169,34375
69170,34369
69171,34364
69173,34358
69176,34353
69179,34348
69182,34344
69186,34339
69190,34336
69195,34332
69199,34329
69205,34327
69210,34325
69216,34323
69221,34323
69227,34322
69343,34322
69349,34323
Z" /> 
</g>
<g >
</g>
<g style="fill:#000000; fill-opacity:1.0; 
stroke:#000000; stroke-width:0; stroke-opacity:1; 
stroke-linecap:round; stroke-linejoin:round;">
<path style="fill:#000000; fill-opacity:1.0; 
stroke:#000000; stroke-width:0; stroke-opacity:1; 
stroke-linecap:round; stroke-linejoin:round;fill-rule:evenodd;"
d="M 69409,41014
69418,41015
69428,41018
69437,41021
69446,41025
69454,41030
69462,41036
69469,41042
69475,41049
69481,41057
69486,41065
69490,41074
69493,41083
69496,41093
69497,41102
69498,41112
69498,41958
69497,41968
69496,41977
69493,41987
69490,41996
69486,42005
69481,42013
69475,42021
69469,42028
69462,42034
69454,42040
69446,42045
69437,42049
69428,42052
69418,42055
69409,42056
69399,42057
69104,42057
69094,42056
69085,42055
69075,42052
69066,42049
69057,42045
69049,42040
69041,42034
69034,42028
69028,42021
69022,42013
69017,42005
69013,41996
69010,41987
69007,41977
69006,41968
69005,41958
69005,41112
69006,41102
69007,41093
69010,41083
69013,41074
69017,41065
69022,41057
69028,41049
69034,41042
69041,41036
69049,41030
69057,41025
69066,41021
69075,41018
69085,41015
69094,41014
69104,41013
69399,41013
69409,41014
Z" /> 
<path style="fill:#000000; fill-opacity:1.0; 
stroke:#000000; stroke-width:0; stroke-opacity:1; 
stroke-linecap:round; stroke-linejoin:round;fill-rule:evenodd;"
d="M 68306,41014
68316,41015
68325,41018
68334,41021
68343,41025
68351,41030
68359,41036
68366,41042
68373,41049
68379,41057
68384,41065
68388,41074
68391,41083
68393,41093
68395,41102
68395,41112
68395,41958
68395,41968
68393,41977
68391,41987
68388,41996
68384,42005
68379,42013
68373,42021
68366,42028
68359,42034
68351,42040
68343,42045
68334,42049
68325,42052
68316,42055
68306,42056
68297,42057
68001,42057
67992,42056
67982,42055
67973,42052
67964,42049
67955,42045
67947,42040
67939,42034
67932,42028
67925,42021
67920,42013
67915,42005
67911,41996
67907,41987
67905,41977
67904,41968
67903,41958
67903,41112
67904,41102
67905,41093
67907,41083
67911,41074
67915,41065
67920,41057
67925,41049
67932,41042
67939,41036
67947,41030
67955,41025
67964,41021
67973,41018
67982,41015
67992,41014
68001,41013
68297,41013
68306,41014
Z" /> 
</g>
<g >
</g>
<g style="fill:#000000; fill-opacity:1.0; 
stroke:#000000; stroke-width:0; stroke-opacity:1; 
stroke-linecap:round; stroke-linejoin:round;">
<path style="fill:#000000; fill-opacity:1.0; 
stroke:#000000; stroke-width:0; stroke-opacity:1; 
stroke-linecap:round; stroke-linejoin:round;fill-rule:evenodd;"
d="M 59369,42392
59379,42393
59388,42395
59397,42399
59406,42403
59414,42408
59422,42414
59429,42420
59436,42427
59442,42435
59447,42443
59451,42452
59454,42461
59456,42470
59458,42480
59458,42490
59458,43336
59458,43346
59456,43355
59454,43365
59451,43374
59447,43383
59442,43391
59436,43399
59429,43406
59422,43412
59414,43418
59406,43423
59397,43427
59388,43430
59379,43433
59369,43434
59360,43435
59064,43435
59055,43434
59045,43433
59036,43430
59027,43427
59018,43423
59010,43418
59002,43412
58995,43406
58988,43399
58983,43391
58978,43383
58974,43374
58970,43365
58968,43355
58967,43346
58966,43336
58966,42490
58967,42480
58968,42470
58970,42461
58974,42452
58978,42443
58983,42435
58988,42427
58995,42420
59002,42414
59010,42408
59018,42403
59027,42399
59036,42395
59045,42393
59055,42392
59064,42391
59360,42391
59369,42392
Z" /> 
<path style="fill:#000000; fill-opacity:1.0; 
stroke:#000000; stroke-width:0; stroke-opacity:1; 
stroke-linecap:round; stroke-linejoin:round;fill-rule:evenodd;"
d="M 58267,42392
58277,42393
58286,42395
58295,42399
58304,42403
58312,42408
58320,42414
58327,42420
58333,42427
58339,42435
58344,42443
58348,42452
58352,42461
58354,42470
58355,42480
58356,42490
58356,43336
58355,43346
58354,43355
58352,43365
58348,43374
58344,43383
58339,43391
58333,43399
58327,43406
58320,43412
58312,43418
58304,43423
58295,43427
58286,43430
58277,43433
58267,43434
58257,43435
57962,43435
57952,43434
57943,43433
57934,43430
57924,43427
57916,43423
57907,43418
57900,43412
57893,43406
57886,43399
57880,43391
57875,43383
57871,43374
57868,43365
57866,43355
57864,43346
57864,43336
57864,42490
57864,42480
57866,42470
57868,42461
57871,42452
57875,42443
57880,42435
57886,42427
57893,42420
57900,42414
57907,42408
57916,42403
57924,42399
57934,42395
57943,42393
57952,42392
57962,42391
58257,42391
58267,42392
Z" /> 
</g>
<g >
</g>
<g style="fill:#000000; fill-opacity:1.0; 
stroke:#000000; stroke-width:0; stroke-opacity:1; 
stroke-linecap:round; stroke-linejoin:round;">
<path style="fill:#000000; fill-opacity:1.0; 
stroke:#000000; stroke-width:0; stroke-opacity:1; 
stroke-linecap:round; stroke-linejoin:round;fill-rule:evenodd;"
d="M 56858,36594
57251,36594
57251,37834
56858,37834
56858,36594
Z" /> 
<path style="fill:#000000; fill-opacity:1.0; 
stroke:#000000; stroke-width:0; stroke-opacity:1; 
stroke-linecap:round; stroke-linejoin:round;fill-rule:evenodd;"
d="M 56858,34606
57251,34606
57251,35846
56858,35846
56858,34606
Z" /> 
<path style="fill:#000000; fill-opacity:1.0; 
stroke:#000000; stroke-width:0; stroke-opacity:1; 
stroke-linecap:round; stroke-linejoin:round;fill-rule:evenodd;"
d="M 57858,36594
58251,36594
58251,37834
57858,37834
57858,36594
Z" /> 
<path style="fill:#000000; fill-opacity:1.0; 
stroke:#000000; stroke-width:0; stroke-opacity:1; 
stroke-linecap:round; stroke-linejoin:round;fill-rule:evenodd;"
d="M 57858,34606
58251,34606
58251,35846
57858,35846
57858,34606
Z" /> 
<path style="fill:#000000; fill-opacity:1.0; 
stroke:#000000; stroke-width:0; stroke-opacity:1; 
stroke-linecap:round; stroke-linejoin:round;fill-rule:evenodd;"
d="M 58858,36594
59251,36594
59251,37834
58858,37834
58858,36594
Z" /> 
<path style="fill:#000000; fill-opacity:1.0; 
stroke:#000000; stroke-width:0; stroke-opacity:1; 
stroke-linecap:round; stroke-linejoin:round;fill-rule:evenodd;"
d="M 58858,34606
59251,34606
59251,35846
58858,35846
58858,34606
Z" /> 
<path style="fill:#000000; fill-opacity:1.0; 
stroke:#000000; stroke-width:0; stroke-opacity:1; 
stroke-linecap:round; stroke-linejoin:round;fill-rule:evenodd;"
d="M 59858,36594
60251,36594
60251,37834
59858,37834
59858,36594
Z" /> 
<path style="fill:#000000; fill-opacity:1.0; 
stroke:#000000; stroke-width:0; stroke-opacity:1; 
stroke-linecap:round; stroke-linejoin:round;fill-rule:evenodd;"
d="M 59858,34606
60251,34606
60251,35846
59858,35846
59858,34606
Z" /> 
<path style="fill:#000000; fill-opacity:1.0; 
stroke:#000000; stroke-width:0; stroke-opacity:1; 
stroke-linecap:round; stroke-linejoin:round;fill-rule:evenodd;"
d="M 60858,36594
61251,36594
61251,37834
60858,37834
60858,36594
Z" /> 
<path style="fill:#000000; fill-opacity:1.0; 
stroke:#000000; stroke-width:0; stroke-opacity:1; 
stroke-linecap:round; stroke-linejoin:round;fill-rule:evenodd;"
d="M 60858,34606
61251,34606
61251,35846
60858,35846
60858,34606
Z" /> 
</g>
<g >
</g>
<g >
</g>
<g style="fill:#000000; fill-opacity:1.0; 
stroke:#000000; stroke-width:0; stroke-opacity:1; 
stroke-linecap:round; stroke-linejoin:round;">
<path style="fill:#000000; fill-opacity:1.0; 
stroke:#000000; stroke-width:0; stroke-opacity:1; 
stroke-linecap:round; stroke-linejoin:round;fill-rule:evenodd;"
d="M 55659,41909
55659,42066
55403,42066
55403,41909
55659,41909
Z" /> 
<path style="fill:#000000; fill-opacity:1.0; 
stroke:#000000; stroke-width:0; stroke-opacity:1; 
stroke-linecap:round; stroke-linejoin:round;fill-rule:evenodd;"
d="M 55659,41397
55659,41555
55403,41555
55403,41397
55659,41397
Z" /> 
<path style="fill:#000000; fill-opacity:1.0; 
stroke:#000000; stroke-width:0; stroke-opacity:1; 
stroke-linecap:round; stroke-linejoin:round;fill-rule:evenodd;"
d="M 56407,41653
56407,41811
56151,41811
56151,41653
56407,41653
Z" /> 
<path style="fill:#000000; fill-opacity:1.0; 
stroke:#000000; stroke-width:0; stroke-opacity:1; 
stroke-linecap:round; stroke-linejoin:round;fill-rule:evenodd;"
d="M 55659,41653
55659,41811
55403,41811
55403,41653
55659,41653
Z" /> 
<path style="fill:#000000; fill-opacity:1.0; 
stroke:#000000; stroke-width:0; stroke-opacity:1; 
stroke-linecap:round; stroke-linejoin:round;fill-rule:evenodd;"
d="M 56407,41397
56407,41555
56151,41555
56151,41397
56407,41397
Z" /> 
<path style="fill:#000000; fill-opacity:1.0; 
stroke:#000000; stroke-width:0; stroke-opacity:1; 
stroke-linecap:round; stroke-linejoin:round;fill-rule:evenodd;"
d="M 56407,41909
56407,42066
56151,42066
56151,41909
56407,41909
Z" /> 
</g>
<g >
</g>
<g style="fill:#000000; fill-opacity:1.0; 
stroke:#000000; stroke-width:0; stroke-opacity:1; 
stroke-linecap:round; stroke-linejoin:round;">
<path style="fill:#000000; fill-opacity:1.0; 
stroke:#000000; stroke-width:0; stroke-opacity:1; 
stroke-linecap:round; stroke-linejoin:round;fill-rule:evenodd;"
d="M 44758,34917
44764,34918
44769,34919
44775,34921
44780,34924
44785,34927
44789,34930
44794,34934
44797,34938
44801,34943
44804,34948
44806,34953
44808,34958
44809,34964
44810,34969
44811,34975
44811,35091
44810,35097
44809,35102
44808,35108
44806,35113
44804,35118
44801,35123
44797,35128
44794,35132
44789,35136
44785,35139
44780,35142
44775,35145
44769,35147
44764,35148
44758,35149
44752,35149
44617,35149
44611,35149
44605,35148
44600,35147
44594,35145
44589,35142
44584,35139
44580,35136
44576,35132
44572,35128
44568,35123
44565,35118
44563,35113
44561,35108
44560,35102
44559,35097
44559,35091
44559,34975
44559,34969
44560,34964
44561,34958
44563,34953
44565,34948
44568,34943
44572,34938
44576,34934
44580,34930
44584,34927
44589,34924
44594,34921
44600,34919
44605,34918
44611,34917
44617,34917
44752,34917
44758,34917
Z" /> 
<path style="fill:#000000; fill-opacity:1.0; 
stroke:#000000; stroke-width:0; stroke-opacity:1; 
stroke-linecap:round; stroke-linejoin:round;fill-rule:evenodd;"
d="M 44758,34535
44764,34536
44769,34537
44775,34539
44780,34542
44785,34545
44789,34548
44794,34552
44797,34556
44801,34561
44804,34566
44806,34571
44808,34576
44809,34582
44810,34587
44811,34593
44811,34709
44810,34715
44809,34720
44808,34726
44806,34731
44804,34737
44801,34741
44797,34746
44794,34750
44789,34754
44785,34757
44780,34760
44775,34763
44769,34765
44764,34766
44758,34767
44752,34767
44617,34767
44611,34767
44605,34766
44600,34765
44594,34763
44589,34760
44584,34757
44580,34754
44576,34750
44572,34746
44568,34741
44565,34737
44563,34731
44561,34726
44560,34720
44559,34715
44559,34709
44559,34593
44559,34587
44560,34582
44561,34576
44563,34571
44565,34566
44568,34561
44572,34556
44576,34552
44580,34548
44584,34545
44589,34542
44594,34539
44600,34537
44605,34536
44611,34535
44617,34535
44752,34535
44758,34535
Z" /> 
</g>
<g >
</g>
<g style="fill:#000000; fill-opacity:1.0; 
stroke:#000000; stroke-width:0; stroke-opacity:1; 
stroke-linecap:round; stroke-linejoin:round;">
<path style="fill:#000000; fill-opacity:1.0; 
stroke:#000000; stroke-width:0; stroke-opacity:1; 
stroke-linecap:round; stroke-linejoin:round;fill-rule:evenodd;"
d="M 44758,42409
44764,42410
44769,42411
44775,42413
44780,42416
44785,42419
44789,42422
44794,42426
44797,42430
44801,42435
44804,42440
44806,42445
44808,42450
44809,42456
44810,42461
44811,42467
44811,42583
44810,42589
44809,42594
44808,42600
44806,42605
44804,42611
44801,42615
44797,42620
44794,42624
44789,42628
44785,42631
44780,42634
44775,42637
44769,42639
44764,42640
44758,42641
44752,42641
44617,42641
44611,42641
44605,42640
44600,42639
44594,42637
44589,42634
44584,42631
44580,42628
44576,42624
44572,42620
44568,42615
44565,42611
44563,42605
44561,42600
44560,42594
44559,42589
44559,42583
44559,42467
44559,42461
44560,42456
44561,42450
44563,42445
44565,42440
44568,42435
44572,42430
44576,42426
44580,42422
44584,42419
44589,42416
44594,42413
44600,42411
44605,42410
44611,42409
44617,42409
44752,42409
44758,42409
Z" /> 
<path style="fill:#000000; fill-opacity:1.0; 
stroke:#000000; stroke-width:0; stroke-opacity:1; 
stroke-linecap:round; stroke-linejoin:round;fill-rule:evenodd;"
d="M 44758,42791
44764,42792
44769,42793
44775,42795
44780,42798
44785,42801
44789,42804
44794,42808
44797,42812
44801,42817
44804,42822
44806,42827
44808,42832
44809,42838
44810,42843
44811,42849
44811,42965
44810,42971
44809,42976
44808,42982
44806,42987
44804,42992
44801,42997
44797,43002
44794,43006
44789,43010
44785,43013
44780,43016
44775,43019
44769,43021
44764,43022
44758,43023
44752,43023
44617,43023
44611,43023
44605,43022
44600,43021
44594,43019
44589,43016
44584,43013
44580,43010
44576,43006
44572,43002
44568,42997
44565,42992
44563,42987
44561,42982
44560,42976
44559,42971
44559,42965
44559,42849
44559,42843
44560,42838
44561,42832
44563,42827
44565,42822
44568,42817
44572,42812
44576,42808
44580,42804
44584,42801
44589,42798
44594,42795
44600,42793
44605,42792
44611,42791
44617,42791
44752,42791
44758,42791
Z" /> 
</g>
<g >
</g>
<g style="fill:#000000; fill-opacity:1.0; 
stroke:#000000; stroke-width:0; stroke-opacity:1; 
stroke-linecap:round; stroke-linejoin:round;">
<path style="fill:#000000; fill-opacity:1.0; 
stroke:#000000; stroke-width:0; stroke-opacity:1; 
stroke-linecap:round; stroke-linejoin:round;fill-rule:evenodd;"
d="M 73498,35716
73504,35717
73509,35719
73515,35720
73520,35723
73525,35726
73529,35729
73534,35733
73537,35737
73541,35742
73544,35747
73546,35752
73548,35757
73550,35763
73550,35768
73551,35774
73551,35890
73550,35896
73550,35902
73548,35907
73546,35912
73544,35918
73541,35923
73537,35927
73534,35931
73529,35935
73525,35939
73520,35941
73515,35944
73509,35946
73504,35947
73498,35948
73493,35948
73357,35948
73351,35948
73345,35947
73340,35946
73335,35944
73329,35941
73325,35939
73320,35935
73316,35931
73312,35927
73308,35923
73306,35918
73303,35912
73301,35907
73300,35902
73299,35896
73299,35890
73299,35774
73299,35768
73300,35763
73301,35757
73303,35752
73306,35747
73308,35742
73312,35737
73316,35733
73320,35729
73325,35726
73329,35723
73335,35720
73340,35719
73345,35717
73351,35716
73357,35716
73493,35716
73498,35716
Z" /> 
<path style="fill:#000000; fill-opacity:1.0; 
stroke:#000000; stroke-width:0; stroke-opacity:1; 
stroke-linecap:round; stroke-linejoin:round;fill-rule:evenodd;"
d="M 73498,36098
73504,36099
73509,36100
73515,36102
73520,36105
73525,36108
73529,36111
73534,36115
73537,36119
73541,36124
73544,36129
73546,36134
73548,36139
73550,36145
73550,36150
73551,36156
73551,36272
73550,36278
73550,36283
73548,36289
73546,36294
73544,36300
73541,36304
73537,36309
73534,36313
73529,36317
73525,36320
73520,36323
73515,36326
73509,36328
73504,36329
73498,36330
73493,36330
73357,36330
73351,36330
73345,36329
73340,36328
73335,36326
73329,36323
73325,36320
73320,36317
73316,36313
73312,36309
73308,36304
73306,36300
73303,36294
73301,36289
73300,36283
73299,36278
73299,36272
73299,36156
73299,36150
73300,36145
73301,36139
73303,36134
73306,36129
73308,36124
73312,36119
73316,36115
73320,36111
73325,36108
73329,36105
73335,36102
73340,36100
73345,36099
73351,36098
73357,36098
73493,36098
73498,36098
Z" /> 
</g>
<g >
</g>
<g style="fill:#000000; fill-opacity:1.0; 
stroke:#000000; stroke-width:0; stroke-opacity:1; 
stroke-linecap:round; stroke-linejoin:round;">
<path style="fill:#000000; fill-opacity:1.0; 
stroke:#000000; stroke-width:0; stroke-opacity:1; 
stroke-linecap:round; stroke-linejoin:round;fill-rule:evenodd;"
d="M 73498,43972
73504,43973
73509,43974
73515,43976
73520,43979
73525,43982
73529,43985
73534,43989
73537,43993
73541,43998
73544,44003
73546,44008
73548,44013
73550,44019
73550,44024
73551,44030
73551,44146
73550,44152
73550,44157
73548,44163
73546,44168
73544,44174
73541,44178
73537,44183
73534,44187
73529,44191
73525,44194
73520,44197
73515,44200
73509,44202
73504,44203
73498,44204
73493,44204
73357,44204
73351,44204
73345,44203
73340,44202
73335,44200
73329,44197
73325,44194
73320,44191
73316,44187
73312,44183
73308,44178
73306,44174
73303,44168
73301,44163
73300,44157
73299,44152
73299,44146
73299,44030
73299,44024
73300,44019
73301,44013
73303,44008
73306,44003
73308,43998
73312,43993
73316,43989
73320,43985
73325,43982
73329,43979
73335,43976
73340,43974
73345,43973
73351,43972
73357,43972
73493,43972
73498,43972
Z" /> 
<path style="fill:#000000; fill-opacity:1.0; 
stroke:#000000; stroke-width:0; stroke-opacity:1; 
stroke-linecap:round; stroke-linejoin:round;fill-rule:evenodd;"
d="M 73498,43590
73504,43591
73509,43593
73515,43594
73520,43597
73525,43600
73529,43603
73534,43607
73537,43611
73541,43616
73544,43621
73546,43626
73548,43631
73550,43637
73550,43642
73551,43648
73551,43764
73550,43770
73550,43776
73548,43781
73546,43786
73544,43792
73541,43797
73537,43801
73534,43805
73529,43809
73525,43813
73520,43815
73515,43818
73509,43820
73504,43821
73498,43822
73493,43822
73357,43822
73351,43822
73345,43821
73340,43820
73335,43818
73329,43815
73325,43813
73320,43809
73316,43805
73312,43801
73308,43797
73306,43792
73303,43786
73301,43781
73300,43776
73299,43770
73299,43764
73299,43648
73299,43642
73300,43637
73301,43631
73303,43626
73306,43621
73308,43616
73312,43611
73316,43607
73320,43603
73325,43600
73329,43597
73335,43594
73340,43593
73345,43591
73351,43590
73357,43590
73493,43590
73498,43590
Z" /> 
</g>
<g >
</g>
<g style="fill:#000000; fill-opacity:1.0; 
stroke:#000000; stroke-width:0; stroke-opacity:1; 
stroke-linecap:round; stroke-linejoin:round;">
<path style="fill:#000000; fill-opacity:1.0; 
stroke:#000000; stroke-width:0; stroke-opacity:1; 
stroke-linecap:round; stroke-linejoin:round;fill-rule:evenodd;"
d="M 54675,39638
54681,39638
54687,39640
54692,39642
54697,39644
54702,39647
54707,39650
54711,39654
54715,39659
54718,39663
54721,39668
54723,39673
54725,39679
54727,39684
54728,39690
54728,39695
54728,39831
54728,39837
54727,39843
54725,39848
54723,39853
54721,39859
54718,39863
54715,39868
54711,39872
54707,39876
54702,39879
54697,39882
54692,39885
54687,39887
54681,39888
54675,39889
54670,39889
54554,39889
54548,39889
54542,39888
54537,39887
54531,39885
54526,39882
54521,39879
54517,39876
54513,39872
54509,39868
54505,39863
54502,39859
54500,39853
54498,39848
54497,39843
54496,39837
54496,39831
54496,39695
54496,39690
54497,39684
54498,39679
54500,39673
54502,39668
54505,39663
54509,39659
54513,39654
54517,39650
54521,39647
54526,39644
54531,39642
54537,39640
54542,39638
54548,39638
54554,39637
54670,39637
54675,39638
Z" /> 
<path style="fill:#000000; fill-opacity:1.0; 
stroke:#000000; stroke-width:0; stroke-opacity:1; 
stroke-linecap:round; stroke-linejoin:round;fill-rule:evenodd;"
d="M 55057,39638
55063,39638
55069,39640
55074,39642
55079,39644
55084,39647
55089,39650
55093,39654
55097,39659
55100,39663
55103,39668
55105,39673
55107,39679
55109,39684
55109,39690
55110,39695
55110,39831
55109,39837
55109,39843
55107,39848
55105,39853
55103,39859
55100,39863
55097,39868
55093,39872
55089,39876
55084,39879
55079,39882
55074,39885
55069,39887
55063,39888
55057,39889
55052,39889
54936,39889
54930,39889
54924,39888
54919,39887
54913,39885
54908,39882
54903,39879
54899,39876
54894,39872
54891,39868
54887,39863
54884,39859
54882,39853
54880,39848
54879,39843
54878,39837
54877,39831
54877,39695
54878,39690
54879,39684
54880,39679
54882,39673
54884,39668
54887,39663
54891,39659
54894,39654
54899,39650
54903,39647
54908,39644
54913,39642
54919,39640
54924,39638
54930,39638
54936,39637
55052,39637
55057,39638
Z" /> 
</g>
<g >
</g>
<g style="fill:#000000; fill-opacity:1.0; 
stroke:#000000; stroke-width:0; stroke-opacity:1; 
stroke-linecap:round; stroke-linejoin:round;">
<path style="fill:#000000; fill-opacity:1.0; 
stroke:#000000; stroke-width:0; stroke-opacity:1; 
stroke-linecap:round; stroke-linejoin:round;fill-rule:evenodd;"
d="M 54675,40228
54681,40229
54687,40230
54692,40232
54697,40235
54702,40238
54707,40241
54711,40245
54715,40249
54718,40254
54721,40259
54723,40264
54725,40269
54727,40275
54728,40280
54728,40286
54728,40422
54728,40427
54727,40433
54725,40439
54723,40444
54721,40449
54718,40454
54715,40459
54711,40463
54707,40467
54702,40470
54697,40473
54692,40475
54687,40477
54681,40479
54675,40480
54670,40480
54554,40480
54548,40480
54542,40479
54537,40477
54531,40475
54526,40473
54521,40470
54517,40467
54513,40463
54509,40459
54505,40454
54502,40449
54500,40444
54498,40439
54497,40433
54496,40427
54496,40422
54496,40286
54496,40280
54497,40275
54498,40269
54500,40264
54502,40259
54505,40254
54509,40249
54513,40245
54517,40241
54521,40238
54526,40235
54531,40232
54537,40230
54542,40229
54548,40228
54554,40228
54670,40228
54675,40228
Z" /> 
<path style="fill:#000000; fill-opacity:1.0; 
stroke:#000000; stroke-width:0; stroke-opacity:1; 
stroke-linecap:round; stroke-linejoin:round;fill-rule:evenodd;"
d="M 55057,40228
55063,40229
55069,40230
55074,40232
55079,40235
55084,40238
55089,40241
55093,40245
55097,40249
55100,40254
55103,40259
55105,40264
55107,40269
55109,40275
55109,40280
55110,40286
55110,40422
55109,40427
55109,40433
55107,40439
55105,40444
55103,40449
55100,40454
55097,40459
55093,40463
55089,40467
55084,40470
55079,40473
55074,40475
55069,40477
55063,40479
55057,40480
55052,40480
54936,40480
54930,40480
54924,40479
54919,40477
54913,40475
54908,40473
54903,40470
54899,40467
54894,40463
54891,40459
54887,40454
54884,40449
54882,40444
54880,40439
54879,40433
54878,40427
54877,40422
54877,40286
54878,40280
54879,40275
54880,40269
54882,40264
54884,40259
54887,40254
54891,40249
54894,40245
54899,40241
54903,40238
54908,40235
54913,40232
54919,40230
54924,40229
54930,40228
54936,40228
55052,40228
55057,40228
Z" /> 
</g>
<g >
</g>
<g style="fill:#000000; fill-opacity:1.0; 
stroke:#000000; stroke-width:0; stroke-opacity:1; 
stroke-linecap:round; stroke-linejoin:round;">
<path style="fill:#000000; fill-opacity:1.0; 
stroke:#000000; stroke-width:0; stroke-opacity:1; 
stroke-linecap:round; stroke-linejoin:round;fill-rule:evenodd;"
d="M 57341,41606
57346,41607
57352,41608
57357,41610
57363,41613
57367,41616
57372,41619
57376,41623
57380,41627
57383,41632
57386,41636
57389,41642
57391,41647
57392,41653
57393,41658
57393,41664
57393,41800
57393,41805
57392,41811
57391,41817
57389,41822
57386,41827
57383,41832
57380,41837
57376,41841
57372,41845
57367,41848
57363,41851
57357,41853
57352,41855
57346,41857
57341,41857
57335,41858
57219,41858
57213,41857
57208,41857
57202,41855
57197,41853
57192,41851
57187,41848
57182,41845
57178,41841
57174,41837
57171,41832
57168,41827
57165,41822
57163,41817
57162,41811
57161,41805
57161,41800
57161,41664
57161,41658
57162,41653
57163,41647
57165,41642
57168,41636
57171,41632
57174,41627
57178,41623
57182,41619
57187,41616
57192,41613
57197,41610
57202,41608
57208,41607
57213,41606
57219,41606
57335,41606
57341,41606
Z" /> 
<path style="fill:#000000; fill-opacity:1.0; 
stroke:#000000; stroke-width:0; stroke-opacity:1; 
stroke-linecap:round; stroke-linejoin:round;fill-rule:evenodd;"
d="M 56959,41606
56965,41607
56970,41608
56975,41610
56981,41613
56986,41616
56990,41619
56994,41623
56998,41627
57002,41632
57004,41636
57007,41642
57009,41647
57010,41653
57011,41658
57011,41664
57011,41800
57011,41805
57010,41811
57009,41817
57007,41822
57004,41827
57002,41832
56998,41837
56994,41841
56990,41845
56986,41848
56981,41851
56975,41853
56970,41855
56965,41857
56959,41857
56953,41858
56837,41858
56831,41857
56826,41857
56820,41855
56815,41853
56810,41851
56805,41848
56800,41845
56796,41841
56792,41837
56789,41832
56786,41827
56783,41822
56782,41817
56780,41811
56779,41805
56779,41800
56779,41664
56779,41658
56780,41653
56782,41647
56783,41642
56786,41636
56789,41632
56792,41627
56796,41623
56800,41619
56805,41616
56810,41613
56815,41610
56820,41608
56826,41607
56831,41606
56837,41606
56953,41606
56959,41606
Z" /> 
</g>
<g >
</g>
<g style="fill:#000000; fill-opacity:1.0; 
stroke:#000000; stroke-width:0; stroke-opacity:1; 
stroke-linecap:round; stroke-linejoin:round;">
<path style="fill:#000000; fill-opacity:1.0; 
stroke:#000000; stroke-width:0; stroke-opacity:1; 
stroke-linecap:round; stroke-linejoin:round;fill-rule:evenodd;"
d="M 54979,41606
54984,41607
54990,41608
54995,41610
55000,41613
55005,41616
55010,41619
55014,41623
55018,41627
55021,41632
55024,41636
55027,41642
55028,41647
55030,41653
55031,41658
55031,41664
55031,41800
55031,41805
55030,41811
55028,41817
55027,41822
55024,41827
55021,41832
55018,41837
55014,41841
55010,41845
55005,41848
55000,41851
54995,41853
54990,41855
54984,41857
54979,41857
54973,41858
54857,41858
54851,41857
54845,41857
54840,41855
54835,41853
54829,41851
54825,41848
54820,41845
54816,41841
54812,41837
54808,41832
54806,41827
54803,41822
54801,41817
54800,41811
54799,41805
54799,41800
54799,41664
54799,41658
54800,41653
54801,41647
54803,41642
54806,41636
54808,41632
54812,41627
54816,41623
54820,41619
54825,41616
54829,41613
54835,41610
54840,41608
54845,41607
54851,41606
54857,41606
54973,41606
54979,41606
Z" /> 
<path style="fill:#000000; fill-opacity:1.0; 
stroke:#000000; stroke-width:0; stroke-opacity:1; 
stroke-linecap:round; stroke-linejoin:round;fill-rule:evenodd;"
d="M 54597,41606
54602,41607
54608,41608
54613,41610
54618,41613
54623,41616
54628,41619
54632,41623
54636,41627
54639,41632
54642,41636
54645,41642
54647,41647
54648,41653
54649,41658
54649,41664
54649,41800
54649,41805
54648,41811
54647,41817
54645,41822
54642,41827
54639,41832
54636,41837
54632,41841
54628,41845
54623,41848
54618,41851
54613,41853
54608,41855
54602,41857
54597,41857
54591,41858
54475,41858
54469,41857
54464,41857
54458,41855
54453,41853
54448,41851
54443,41848
54438,41845
54434,41841
54430,41837
54427,41832
54424,41827
54421,41822
54419,41817
54418,41811
54417,41805
54417,41800
54417,41664
54417,41658
54418,41653
54419,41647
54421,41642
54424,41636
54427,41632
54430,41627
54434,41623
54438,41619
54443,41616
54448,41613
54453,41610
54458,41608
54464,41607
54469,41606
54475,41606
54591,41606
54597,41606
Z" /> 
</g>
<g >
</g>
<g style="fill:#000000; fill-opacity:1.0; 
stroke:#000000; stroke-width:0; stroke-opacity:1; 
stroke-linecap:round; stroke-linejoin:round;">
<path style="fill:#000000; fill-opacity:1.0; 
stroke:#000000; stroke-width:0; stroke-opacity:1; 
stroke-linecap:round; stroke-linejoin:round;fill-rule:evenodd;"
d="M 69955,33157
69961,33158
69966,33159
69972,33161
69977,33164
69982,33167
69986,33170
69990,33174
69994,33178
69998,33183
70001,33188
70003,33193
70005,33198
70006,33204
70007,33209
70007,33215
70007,33331
70007,33337
70006,33343
70005,33348
70003,33353
70001,33359
69998,33363
69994,33368
69990,33372
69986,33376
69982,33379
69977,33382
69972,33385
69966,33387
69961,33388
69955,33389
69949,33389
69813,33389
69808,33389
69802,33388
69797,33387
69791,33385
69786,33382
69781,33379
69777,33376
69772,33372
69769,33368
69765,33363
69762,33359
69760,33353
69758,33348
69757,33343
69756,33337
69755,33331
69755,33215
69756,33209
69757,33204
69758,33198
69760,33193
69762,33188
69765,33183
69769,33178
69772,33174
69777,33170
69781,33167
69786,33164
69791,33161
69797,33159
69802,33158
69808,33157
69813,33157
69949,33157
69955,33157
Z" /> 
<path style="fill:#000000; fill-opacity:1.0; 
stroke:#000000; stroke-width:0; stroke-opacity:1; 
stroke-linecap:round; stroke-linejoin:round;fill-rule:evenodd;"
d="M 69955,33539
69961,33540
69966,33541
69972,33543
69977,33546
69982,33549
69986,33552
69990,33556
69994,33560
69998,33565
70001,33570
70003,33575
70005,33580
70006,33586
70007,33591
70007,33597
70007,33713
70007,33719
70006,33724
70005,33730
70003,33735
70001,33740
69998,33745
69994,33750
69990,33754
69986,33758
69982,33761
69977,33764
69972,33767
69966,33769
69961,33770
69955,33771
69949,33771
69813,33771
69808,33771
69802,33770
69797,33769
69791,33767
69786,33764
69781,33761
69777,33758
69772,33754
69769,33750
69765,33745
69762,33740
69760,33735
69758,33730
69757,33724
69756,33719
69755,33713
69755,33597
69756,33591
69757,33586
69758,33580
69760,33575
69762,33570
69765,33565
69769,33560
69772,33556
69777,33552
69781,33549
69786,33546
69791,33543
69797,33541
69802,33540
69808,33539
69813,33539
69949,33539
69955,33539
Z" /> 
</g>
<g >
</g>
<g style="fill:#000000; fill-opacity:1.0; 
stroke:#000000; stroke-width:0; stroke-opacity:1; 
stroke-linecap:round; stroke-linejoin:round;">
<path style="fill:#000000; fill-opacity:1.0; 
stroke:#000000; stroke-width:0; stroke-opacity:1; 
stroke-linecap:round; stroke-linejoin:round;fill-rule:evenodd;"
d="M 50270,33157
50276,33158
50281,33159
50286,33161
50292,33164
50297,33167
50301,33170
50305,33174
50309,33178
50313,33183
50315,33188
50318,33193
50320,33198
50321,33204
50322,33209
50322,33215
50322,33331
50322,33337
50321,33343
50320,33348
50318,33353
50315,33359
50313,33363
50309,33368
50305,33372
50301,33376
50297,33379
50292,33382
50286,33385
50281,33387
50276,33388
50270,33389
50264,33389
50128,33389
50123,33389
50117,33388
50112,33387
50106,33385
50101,33382
50096,33379
50092,33376
50087,33372
50084,33368
50080,33363
50077,33359
50075,33353
50073,33348
50071,33343
50071,33337
50070,33331
50070,33215
50071,33209
50071,33204
50073,33198
50075,33193
50077,33188
50080,33183
50084,33178
50087,33174
50092,33170
50096,33167
50101,33164
50106,33161
50112,33159
50117,33158
50123,33157
50128,33157
50264,33157
50270,33157
Z" /> 
<path style="fill:#000000; fill-opacity:1.0; 
stroke:#000000; stroke-width:0; stroke-opacity:1; 
stroke-linecap:round; stroke-linejoin:round;fill-rule:evenodd;"
d="M 50270,33539
50276,33540
50281,33541
50286,33543
50292,33546
50297,33549
50301,33552
50305,33556
50309,33560
50313,33565
50315,33570
50318,33575
50320,33580
50321,33586
50322,33591
50322,33597
50322,33713
50322,33719
50321,33724
50320,33730
50318,33735
50315,33740
50313,33745
50309,33750
50305,33754
50301,33758
50297,33761
50292,33764
50286,33767
50281,33769
50276,33770
50270,33771
50264,33771
50128,33771
50123,33771
50117,33770
50112,33769
50106,33767
50101,33764
50096,33761
50092,33758
50087,33754
50084,33750
50080,33745
50077,33740
50075,33735
50073,33730
50071,33724
50071,33719
50070,33713
50070,33597
50071,33591
50071,33586
50073,33580
50075,33575
50077,33570
50080,33565
50084,33560
50087,33556
50092,33552
50096,33549
50101,33546
50106,33543
50112,33541
50117,33540
50123,33539
50128,33539
50264,33539
50270,33539
Z" /> 
</g>
<g >
</g>
<g style="fill:#000000; fill-opacity:1.0; 
stroke:#000000; stroke-width:0; stroke-opacity:1; 
stroke-linecap:round; stroke-linejoin:round;">
<path style="fill:#000000; fill-opacity:1.0; 
stroke:#000000; stroke-width:0; stroke-opacity:1; 
stroke-linecap:round; stroke-linejoin:round;fill-rule:evenodd;"
d="M 63262,43197
63268,43197
63273,43199
63279,43201
63284,43203
63289,43206
63293,43210
63297,43213
63301,43218
63305,43222
63308,43227
63310,43232
63312,43238
63313,43243
63314,43249
63314,43254
63314,43371
63314,43376
63313,43382
63312,43387
63310,43393
63308,43398
63305,43403
63301,43407
63297,43412
63293,43415
63289,43419
63284,43422
63279,43424
63273,43426
63268,43428
63262,43428
63256,43429
63121,43429
63115,43428
63109,43428
63104,43426
63098,43424
63093,43422
63088,43419
63084,43415
63080,43412
63076,43407
63072,43403
63069,43398
63067,43393
63065,43387
63064,43382
63063,43376
63062,43371
63062,43254
63063,43249
63064,43243
63065,43238
63067,43232
63069,43227
63072,43222
63076,43218
63080,43213
63084,43210
63088,43206
63093,43203
63098,43201
63104,43199
63109,43197
63115,43197
63121,43196
63256,43196
63262,43197
Z" /> 
<path style="fill:#000000; fill-opacity:1.0; 
stroke:#000000; stroke-width:0; stroke-opacity:1; 
stroke-linecap:round; stroke-linejoin:round;fill-rule:evenodd;"
d="M 63262,43579
63268,43579
63273,43581
63279,43583
63284,43585
63289,43588
63293,43591
63297,43595
63301,43599
63305,43604
63308,43609
63310,43614
63312,43619
63313,43625
63314,43631
63314,43636
63314,43752
63314,43758
63313,43764
63312,43769
63310,43775
63308,43780
63305,43785
63301,43789
63297,43794
63293,43797
63289,43801
63284,43804
63279,43806
63273,43808
63268,43809
63262,43810
63256,43811
63121,43811
63115,43810
63109,43809
63104,43808
63098,43806
63093,43804
63088,43801
63084,43797
63080,43794
63076,43789
63072,43785
63069,43780
63067,43775
63065,43769
63064,43764
63063,43758
63062,43752
63062,43636
63063,43631
63064,43625
63065,43619
63067,43614
63069,43609
63072,43604
63076,43599
63080,43595
63084,43591
63088,43588
63093,43585
63098,43583
63104,43581
63109,43579
63115,43579
63121,43578
63256,43578
63262,43579
Z" /> 
</g>
<g >
</g>
<g style="fill:#000000; fill-opacity:1.0; 
stroke:#000000; stroke-width:0; stroke-opacity:1; 
stroke-linecap:round; stroke-linejoin:round;">
<path style="fill:#000000; fill-opacity:1.0; 
stroke:#000000; stroke-width:0; stroke-opacity:1; 
stroke-linecap:round; stroke-linejoin:round;fill-rule:evenodd;"
d="M 54979,42197
54984,42197
54990,42199
54995,42201
55000,42203
55005,42206
55010,42210
55014,42213
55018,42218
55021,42222
55024,42227
55027,42232
55028,42238
55030,42243
55031,42249
55031,42254
55031,42390
55031,42396
55030,42402
55028,42407
55027,42412
55024,42418
55021,42423
55018,42427
55014,42431
55010,42435
55005,42439
55000,42441
54995,42444
54990,42446
54984,42447
54979,42448
54973,42448
54857,42448
54851,42448
54845,42447
54840,42446
54835,42444
54829,42441
54825,42439
54820,42435
54816,42431
54812,42427
54808,42423
54806,42418
54803,42412
54801,42407
54800,42402
54799,42396
54799,42390
54799,42254
54799,42249
54800,42243
54801,42238
54803,42232
54806,42227
54808,42222
54812,42218
54816,42213
54820,42210
54825,42206
54829,42203
54835,42201
54840,42199
54845,42197
54851,42197
54857,42196
54973,42196
54979,42197
Z" /> 
<path style="fill:#000000; fill-opacity:1.0; 
stroke:#000000; stroke-width:0; stroke-opacity:1; 
stroke-linecap:round; stroke-linejoin:round;fill-rule:evenodd;"
d="M 54597,42197
54602,42197
54608,42199
54613,42201
54618,42203
54623,42206
54628,42210
54632,42213
54636,42218
54639,42222
54642,42227
54645,42232
54647,42238
54648,42243
54649,42249
54649,42254
54649,42390
54649,42396
54648,42402
54647,42407
54645,42412
54642,42418
54639,42423
54636,42427
54632,42431
54628,42435
54623,42439
54618,42441
54613,42444
54608,42446
54602,42447
54597,42448
54591,42448
54475,42448
54469,42448
54464,42447
54458,42446
54453,42444
54448,42441
54443,42439
54438,42435
54434,42431
54430,42427
54427,42423
54424,42418
54421,42412
54419,42407
54418,42402
54417,42396
54417,42390
54417,42254
54417,42249
54418,42243
54419,42238
54421,42232
54424,42227
54427,42222
54430,42218
54434,42213
54438,42210
54443,42206
54448,42203
54453,42201
54458,42199
54464,42197
54469,42197
54475,42196
54591,42196
54597,42197
Z" /> 
</g>
<g >
</g>
<g style="fill:#000000; fill-opacity:1.0; 
stroke:#000000; stroke-width:0; stroke-opacity:1; 
stroke-linecap:round; stroke-linejoin:round;">
<path style="fill:#000000; fill-opacity:1.0; 
stroke:#000000; stroke-width:0; stroke-opacity:1; 
stroke-linecap:round; stroke-linejoin:round;fill-rule:evenodd;"
d="M 67002,42004
67008,42005
67013,42006
67019,42008
67024,42010
67029,42013
67033,42017
67038,42020
67041,42025
67045,42029
67048,42034
67050,42039
67052,42045
67054,42050
67054,42056
67055,42062
67055,42178
67054,42183
67054,42189
67052,42195
67050,42200
67048,42205
67045,42210
67041,42214
67038,42219
67033,42223
67029,42226
67024,42229
67019,42231
67013,42233
67008,42235
67002,42235
66997,42236
66861,42236
66855,42235
66849,42235
66844,42233
66838,42231
66833,42229
66828,42226
66824,42223
66820,42219
66816,42214
66812,42210
66810,42205
66807,42200
66805,42195
66804,42189
66803,42183
66803,42178
66803,42062
66803,42056
66804,42050
66805,42045
66807,42039
66810,42034
66812,42029
66816,42025
66820,42020
66824,42017
66828,42013
66833,42010
66838,42008
66844,42006
66849,42005
66855,42004
66861,42003
66997,42003
67002,42004
Z" /> 
<path style="fill:#000000; fill-opacity:1.0; 
stroke:#000000; stroke-width:0; stroke-opacity:1; 
stroke-linecap:round; stroke-linejoin:round;fill-rule:evenodd;"
d="M 67002,41622
67008,41623
67013,41624
67019,41626
67024,41628
67029,41631
67033,41635
67038,41639
67041,41643
67045,41647
67048,41652
67050,41657
67052,41663
67054,41668
67054,41674
67055,41680
67055,41796
67054,41801
67054,41807
67052,41813
67050,41818
67048,41823
67045,41828
67041,41833
67038,41837
67033,41841
67029,41844
67024,41847
67019,41849
67013,41851
67008,41853
67002,41854
66997,41854
66861,41854
66855,41854
66849,41853
66844,41851
66838,41849
66833,41847
66828,41844
66824,41841
66820,41837
66816,41833
66812,41828
66810,41823
66807,41818
66805,41813
66804,41807
66803,41801
66803,41796
66803,41680
66803,41674
66804,41668
66805,41663
66807,41657
66810,41652
66812,41647
66816,41643
66820,41639
66824,41635
66828,41631
66833,41628
66838,41626
66844,41624
66849,41623
66855,41622
66861,41622
66997,41622
67002,41622
Z" /> 
</g>
<g >
</g>
<g style="fill:#000000; fill-opacity:1.0; 
stroke:#000000; stroke-width:0; stroke-opacity:1; 
stroke-linecap:round; stroke-linejoin:round;">
<path style="fill:#000000; fill-opacity:1.0; 
stroke:#000000; stroke-width:0; stroke-opacity:1; 
stroke-linecap:round; stroke-linejoin:round;fill-rule:evenodd;"
d="M 48679,41803
48685,41804
48691,41805
48696,41807
48701,41810
48706,41812
48711,41816
48715,41820
48719,41824
48722,41828
48725,41833
48727,41838
48729,41844
48731,41849
48732,41855
48732,41861
48732,41997
48732,42002
48731,42008
48729,42013
48727,42019
48725,42024
48722,42029
48719,42033
48715,42038
48711,42041
48706,42045
48701,42048
48696,42050
48691,42052
48685,42054
48679,42054
48674,42055
48558,42055
48552,42054
48546,42054
48541,42052
48535,42050
48530,42048
48525,42045
48521,42041
48517,42038
48513,42033
48509,42029
48506,42024
48504,42019
48502,42013
48501,42008
48500,42002
48500,41997
48500,41861
48500,41855
48501,41849
48502,41844
48504,41838
48506,41833
48509,41828
48513,41824
48517,41820
48521,41816
48525,41812
48530,41810
48535,41807
48541,41805
48546,41804
48552,41803
48558,41803
48674,41803
48679,41803
Z" /> 
<path style="fill:#000000; fill-opacity:1.0; 
stroke:#000000; stroke-width:0; stroke-opacity:1; 
stroke-linecap:round; stroke-linejoin:round;fill-rule:evenodd;"
d="M 48298,41803
48303,41804
48309,41805
48314,41807
48319,41810
48324,41812
48329,41816
48333,41820
48337,41824
48340,41828
48343,41833
48345,41838
48347,41844
48349,41849
48350,41855
48350,41861
48350,41997
48350,42002
48349,42008
48347,42013
48345,42019
48343,42024
48340,42029
48337,42033
48333,42038
48329,42041
48324,42045
48319,42048
48314,42050
48309,42052
48303,42054
48298,42054
48292,42055
48176,42055
48170,42054
48164,42054
48159,42052
48153,42050
48148,42048
48143,42045
48139,42041
48135,42038
48131,42033
48127,42029
48124,42024
48122,42019
48120,42013
48119,42008
48118,42002
48118,41997
48118,41861
48118,41855
48119,41849
48120,41844
48122,41838
48124,41833
48127,41828
48131,41824
48135,41820
48139,41816
48143,41812
48148,41810
48153,41807
48159,41805
48164,41804
48170,41803
48176,41803
48292,41803
48298,41803
Z" /> 
</g>
<g >
</g>
<g style="fill:#000000; fill-opacity:1.0; 
stroke:#000000; stroke-width:0; stroke-opacity:1; 
stroke-linecap:round; stroke-linejoin:round;">
<path style="fill:#000000; fill-opacity:1.0; 
stroke:#000000; stroke-width:0; stroke-opacity:1; 
stroke-linecap:round; stroke-linejoin:round;fill-rule:evenodd;"
d="M 52592,39380
52596,39381
52599,39383
52602,39385
52604,39388
52606,39392
52607,39395
52608,39399
52608,39694
52607,39698
52606,39702
52604,39705
52602,39708
52599,39711
52596,39713
52592,39714
52588,39714
52577,39714
52573,39714
52569,39713
52566,39711
52563,39708
52515,39661
52513,39658
52511,39654
52510,39651
52509,39647
52509,39399
52510,39395
52511,39392
52513,39388
52515,39385
52518,39383
52521,39381
52525,39380
52529,39379
52588,39379
52592,39380
Z" /> 
<path style="fill:#000000; fill-opacity:1.0; 
stroke:#000000; stroke-width:0; stroke-opacity:1; 
stroke-linecap:round; stroke-linejoin:round;fill-rule:evenodd;"
d="M 52763,39380
52765,39380
52767,39380
52770,39381
52772,39382
52774,39384
52776,39385
52778,39387
52779,39388
52781,39390
52782,39392
52783,39395
52784,39397
52784,39399
52785,39402
52785,39404
52785,39689
52785,39692
52784,39694
52784,39697
52783,39699
52782,39701
52781,39703
52779,39705
52778,39707
52776,39708
52774,39710
52772,39711
52770,39712
52767,39713
52765,39714
52763,39714
52760,39714
52711,39714
52709,39714
52706,39714
52704,39713
52702,39712
52700,39711
52697,39710
52696,39708
52694,39707
52692,39705
52691,39703
52689,39701
52688,39699
52688,39697
52687,39694
52687,39692
52687,39689
52687,39404
52687,39402
52687,39399
52688,39397
52688,39395
52689,39392
52691,39390
52692,39388
52694,39387
52696,39385
52697,39384
52700,39382
52702,39381
52704,39380
52706,39380
52709,39380
52711,39379
52760,39379
52763,39380
Z" /> 
<path style="fill:#000000; fill-opacity:1.0; 
stroke:#000000; stroke-width:0; stroke-opacity:1; 
stroke-linecap:round; stroke-linejoin:round;fill-rule:evenodd;"
d="M 52940,39380
52942,39380
52945,39380
52947,39381
52949,39382
52951,39384
52953,39385
52955,39387
52957,39388
52958,39390
52959,39392
52960,39395
52961,39397
52962,39399
52962,39402
52962,39404
52962,39689
52962,39692
52962,39694
52961,39697
52960,39699
52959,39701
52958,39703
52957,39705
52955,39707
52953,39708
52951,39710
52949,39711
52947,39712
52945,39713
52942,39714
52940,39714
52937,39714
52888,39714
52886,39714
52883,39714
52881,39713
52879,39712
52877,39711
52875,39710
52873,39708
52871,39707
52869,39705
52868,39703
52867,39701
52866,39699
52865,39697
52864,39694
52864,39692
52864,39689
52864,39404
52864,39402
52864,39399
52865,39397
52866,39395
52867,39392
52868,39390
52869,39388
52871,39387
52873,39385
52875,39384
52877,39382
52879,39381
52881,39380
52883,39380
52886,39380
52888,39379
52937,39379
52940,39380
Z" /> 
<path style="fill:#000000; fill-opacity:1.0; 
stroke:#000000; stroke-width:0; stroke-opacity:1; 
stroke-linecap:round; stroke-linejoin:round;fill-rule:evenodd;"
d="M 53117,39380
53119,39380
53122,39380
53124,39381
53126,39382
53128,39384
53130,39385
53132,39387
53134,39388
53135,39390
53136,39392
53137,39395
53138,39397
53139,39399
53139,39402
53139,39404
53139,39689
53139,39692
53139,39694
53138,39697
53137,39699
53136,39701
53135,39703
53134,39705
53132,39707
53130,39708
53128,39710
53126,39711
53124,39712
53122,39713
53119,39714
53117,39714
53115,39714
53065,39714
53063,39714
53061,39714
53058,39713
53056,39712
53054,39711
53052,39710
53050,39708
53048,39707
53046,39705
53045,39703
53044,39701
53043,39699
53042,39697
53041,39694
53041,39692
53041,39689
53041,39404
53041,39402
53041,39399
53042,39397
53043,39395
53044,39392
53045,39390
53046,39388
53048,39387
53050,39385
53052,39384
53054,39382
53056,39381
53058,39380
53061,39380
53063,39380
53065,39379
53115,39379
53117,39380
Z" /> 
<path style="fill:#000000; fill-opacity:1.0; 
stroke:#000000; stroke-width:0; stroke-opacity:1; 
stroke-linecap:round; stroke-linejoin:round;fill-rule:evenodd;"
d="M 53301,39380
53304,39381
53308,39383
53311,39385
53313,39388
53315,39392
53316,39395
53316,39399
53316,39647
53316,39651
53315,39654
53313,39658
53311,39661
53263,39708
53260,39711
53257,39713
53253,39714
53249,39714
53238,39714
53234,39714
53230,39713
53227,39711
53224,39708
53221,39705
53220,39702
53218,39698
53218,39694
53218,39399
53218,39395
53220,39392
53221,39388
53224,39385
53227,39383
53230,39381
53234,39380
53238,39379
53297,39379
53301,39380
Z" /> 
<path style="fill:#000000; fill-opacity:1.0; 
stroke:#000000; stroke-width:0; stroke-opacity:1; 
stroke-linecap:round; stroke-linejoin:round;fill-rule:evenodd;"
d="M 53635,39714
53639,39716
53642,39717
53645,39720
53648,39723
53650,39726
53651,39730
53651,39734
53651,39793
53651,39797
53650,39800
53648,39804
53645,39807
53642,39809
53639,39811
53635,39812
53631,39812
53336,39812
53332,39812
53329,39811
53325,39809
53322,39807
53320,39804
53318,39800
53317,39797
53316,39793
53316,39781
53317,39777
53318,39774
53320,39770
53322,39767
53370,39720
53373,39717
53376,39716
53380,39714
53384,39714
53631,39714
53635,39714
Z" /> 
<path style="fill:#000000; fill-opacity:1.0; 
stroke:#000000; stroke-width:0; stroke-opacity:1; 
stroke-linecap:round; stroke-linejoin:round;fill-rule:evenodd;"
d="M 53629,39891
53631,39892
53634,39892
53636,39893
53638,39894
53640,39895
53642,39897
53644,39898
53645,39900
53647,39902
53648,39904
53649,39906
53650,39909
53651,39911
53651,39913
53651,39916
53651,39965
53651,39967
53651,39970
53650,39972
53649,39974
53648,39977
53647,39979
53645,39981
53644,39982
53642,39984
53640,39986
53638,39987
53636,39988
53634,39989
53631,39989
53629,39990
53626,39990
53341,39990
53339,39990
53336,39989
53334,39989
53332,39988
53329,39987
53327,39986
53325,39984
53324,39982
53322,39981
53321,39979
53319,39977
53318,39974
53317,39972
53317,39970
53317,39967
53316,39965
53316,39916
53317,39913
53317,39911
53317,39909
53318,39906
53319,39904
53321,39902
53322,39900
53324,39898
53325,39897
53327,39895
53329,39894
53332,39893
53334,39892
53336,39892
53339,39891
53341,39891
53626,39891
53629,39891
Z" /> 
<path style="fill:#000000; fill-opacity:1.0; 
stroke:#000000; stroke-width:0; stroke-opacity:1; 
stroke-linecap:round; stroke-linejoin:round;fill-rule:evenodd;"
d="M 53629,40069
53631,40069
53634,40069
53636,40070
53638,40071
53640,40073
53642,40074
53644,40076
53645,40077
53647,40079
53648,40081
53649,40084
53650,40086
53651,40088
53651,40091
53651,40093
53651,40142
53651,40145
53651,40147
53650,40149
53649,40152
53648,40154
53647,40156
53645,40158
53644,40160
53642,40161
53640,40163
53638,40164
53636,40165
53634,40166
53631,40166
53629,40167
53626,40167
53341,40167
53339,40167
53336,40166
53334,40166
53332,40165
53329,40164
53327,40163
53325,40161
53324,40160
53322,40158
53321,40156
53319,40154
53318,40152
53317,40149
53317,40147
53317,40145
53316,40142
53316,40093
53317,40091
53317,40088
53317,40086
53318,40084
53319,40081
53321,40079
53322,40077
53324,40076
53325,40074
53327,40073
53329,40071
53332,40070
53334,40069
53336,40069
53339,40069
53341,40068
53626,40068
53629,40069
Z" /> 
<path style="fill:#000000; fill-opacity:1.0; 
stroke:#000000; stroke-width:0; stroke-opacity:1; 
stroke-linecap:round; stroke-linejoin:round;fill-rule:evenodd;"
d="M 53629,40246
53631,40246
53634,40247
53636,40247
53638,40248
53640,40250
53642,40251
53644,40253
53645,40255
53647,40256
53648,40259
53649,40261
53650,40263
53651,40265
53651,40268
53651,40270
53651,40319
53651,40322
53651,40324
53650,40327
53649,40329
53648,40331
53647,40333
53645,40335
53644,40337
53642,40338
53640,40340
53638,40341
53636,40342
53634,40343
53631,40344
53629,40344
53626,40344
53341,40344
53339,40344
53336,40344
53334,40343
53332,40342
53329,40341
53327,40340
53325,40338
53324,40337
53322,40335
53321,40333
53319,40331
53318,40329
53317,40327
53317,40324
53317,40322
53316,40319
53316,40270
53317,40268
53317,40265
53317,40263
53318,40261
53319,40259
53321,40256
53322,40255
53324,40253
53325,40251
53327,40250
53329,40248
53332,40247
53334,40247
53336,40246
53339,40246
53341,40246
53626,40246
53629,40246
Z" /> 
<path style="fill:#000000; fill-opacity:1.0; 
stroke:#000000; stroke-width:0; stroke-opacity:1; 
stroke-linecap:round; stroke-linejoin:round;fill-rule:evenodd;"
d="M 53635,40423
53639,40424
53642,40426
53645,40428
53648,40431
53650,40435
53651,40439
53651,40442
53651,40501
53651,40505
53650,40509
53648,40512
53645,40515
53642,40518
53639,40520
53635,40521
53631,40521
53384,40521
53380,40521
53376,40520
53373,40518
53370,40515
53322,40468
53320,40465
53318,40461
53317,40458
53316,40454
53316,40442
53317,40439
53318,40435
53320,40431
53322,40428
53325,40426
53329,40424
53332,40423
53336,40423
53631,40423
53635,40423
Z" /> 
<path style="fill:#000000; fill-opacity:1.0; 
stroke:#000000; stroke-width:0; stroke-opacity:1; 
stroke-linecap:round; stroke-linejoin:round;fill-rule:evenodd;"
d="M 53253,40522
53257,40523
53260,40524
53263,40527
53311,40574
53313,40577
53315,40581
53316,40585
53316,40588
53316,40836
53316,40840
53315,40844
53313,40847
53311,40850
53308,40852
53304,40854
53301,40855
53297,40856
53238,40856
53234,40855
53230,40854
53227,40852
53224,40850
53221,40847
53220,40844
53218,40840
53218,40836
53218,40541
53218,40537
53220,40533
53221,40530
53224,40527
53227,40524
53230,40523
53234,40522
53238,40521
53249,40521
53253,40522
Z" /> 
<path style="fill:#000000; fill-opacity:1.0; 
stroke:#000000; stroke-width:0; stroke-opacity:1; 
stroke-linecap:round; stroke-linejoin:round;fill-rule:evenodd;"
d="M 53117,40521
53119,40522
53122,40522
53124,40523
53126,40524
53128,40525
53130,40527
53132,40528
53134,40530
53135,40532
53136,40534
53137,40536
53138,40539
53139,40541
53139,40543
53139,40546
53139,40831
53139,40834
53139,40836
53138,40838
53137,40841
53136,40843
53135,40845
53134,40847
53132,40849
53130,40850
53128,40852
53126,40853
53124,40854
53122,40855
53119,40855
53117,40856
53115,40856
53065,40856
53063,40856
53061,40855
53058,40855
53056,40854
53054,40853
53052,40852
53050,40850
53048,40849
53046,40847
53045,40845
53044,40843
53043,40841
53042,40838
53041,40836
53041,40834
53041,40831
53041,40546
53041,40543
53041,40541
53042,40539
53043,40536
53044,40534
53045,40532
53046,40530
53048,40528
53050,40527
53052,40525
53054,40524
53056,40523
53058,40522
53061,40522
53063,40521
53065,40521
53115,40521
53117,40521
Z" /> 
<path style="fill:#000000; fill-opacity:1.0; 
stroke:#000000; stroke-width:0; stroke-opacity:1; 
stroke-linecap:round; stroke-linejoin:round;fill-rule:evenodd;"
d="M 52940,40521
52942,40522
52945,40522
52947,40523
52949,40524
52951,40525
52953,40527
52955,40528
52957,40530
52958,40532
52959,40534
52960,40536
52961,40539
52962,40541
52962,40543
52962,40546
52962,40831
52962,40834
52962,40836
52961,40838
52960,40841
52959,40843
52958,40845
52957,40847
52955,40849
52953,40850
52951,40852
52949,40853
52947,40854
52945,40855
52942,40855
52940,40856
52937,40856
52888,40856
52886,40856
52883,40855
52881,40855
52879,40854
52877,40853
52875,40852
52873,40850
52871,40849
52869,40847
52868,40845
52867,40843
52866,40841
52865,40838
52864,40836
52864,40834
52864,40831
52864,40546
52864,40543
52864,40541
52865,40539
52866,40536
52867,40534
52868,40532
52869,40530
52871,40528
52873,40527
52875,40525
52877,40524
52879,40523
52881,40522
52883,40522
52886,40521
52888,40521
52937,40521
52940,40521
Z" /> 
<path style="fill:#000000; fill-opacity:1.0; 
stroke:#000000; stroke-width:0; stroke-opacity:1; 
stroke-linecap:round; stroke-linejoin:round;fill-rule:evenodd;"
d="M 52763,40521
52765,40522
52767,40522
52770,40523
52772,40524
52774,40525
52776,40527
52778,40528
52779,40530
52781,40532
52782,40534
52783,40536
52784,40539
52784,40541
52785,40543
52785,40546
52785,40831
52785,40834
52784,40836
52784,40838
52783,40841
52782,40843
52781,40845
52779,40847
52778,40849
52776,40850
52774,40852
52772,40853
52770,40854
52767,40855
52765,40855
52763,40856
52760,40856
52711,40856
52709,40856
52706,40855
52704,40855
52702,40854
52700,40853
52697,40852
52696,40850
52694,40849
52692,40847
52691,40845
52689,40843
52688,40841
52688,40838
52687,40836
52687,40834
52687,40831
52687,40546
52687,40543
52687,40541
52688,40539
52688,40536
52689,40534
52691,40532
52692,40530
52694,40528
52696,40527
52697,40525
52700,40524
52702,40523
52704,40522
52706,40522
52709,40521
52711,40521
52760,40521
52763,40521
Z" /> 
<path style="fill:#000000; fill-opacity:1.0; 
stroke:#000000; stroke-width:0; stroke-opacity:1; 
stroke-linecap:round; stroke-linejoin:round;fill-rule:evenodd;"
d="M 52592,40522
52596,40523
52599,40524
52602,40527
52604,40530
52606,40533
52607,40537
52608,40541
52608,40836
52607,40840
52606,40844
52604,40847
52602,40850
52599,40852
52596,40854
52592,40855
52588,40856
52529,40856
52525,40855
52521,40854
52518,40852
52515,40850
52513,40847
52511,40844
52510,40840
52509,40836
52509,40588
52510,40585
52511,40581
52513,40577
52515,40574
52563,40527
52566,40524
52569,40523
52573,40522
52577,40521
52588,40521
52592,40522
Z" /> 
<path style="fill:#000000; fill-opacity:1.0; 
stroke:#000000; stroke-width:0; stroke-opacity:1; 
stroke-linecap:round; stroke-linejoin:round;fill-rule:evenodd;"
d="M 52493,40423
52497,40424
52501,40426
52504,40428
52506,40431
52508,40435
52509,40439
52509,40442
52509,40454
52509,40458
52508,40461
52506,40465
52504,40468
52456,40515
52453,40518
52450,40520
52446,40521
52442,40521
52194,40521
52191,40521
52187,40520
52183,40518
52180,40515
52178,40512
52176,40509
52175,40505
52175,40501
52175,40442
52175,40439
52176,40435
52178,40431
52180,40428
52183,40426
52187,40424
52191,40423
52194,40423
52490,40423
52493,40423
Z" /> 
<path style="fill:#000000; fill-opacity:1.0; 
stroke:#000000; stroke-width:0; stroke-opacity:1; 
stroke-linecap:round; stroke-linejoin:round;fill-rule:evenodd;"
d="M 52487,40246
52490,40246
52492,40247
52494,40247
52496,40248
52498,40250
52500,40251
52502,40253
52504,40255
52505,40256
52506,40259
52507,40261
52508,40263
52509,40265
52509,40268
52509,40270
52509,40319
52509,40322
52509,40324
52508,40327
52507,40329
52506,40331
52505,40333
52504,40335
52502,40337
52500,40338
52498,40340
52496,40341
52494,40342
52492,40343
52490,40344
52487,40344
52485,40344
52199,40344
52197,40344
52195,40344
52192,40343
52190,40342
52188,40341
52186,40340
52184,40338
52182,40337
52180,40335
52179,40333
52178,40331
52177,40329
52176,40327
52175,40324
52175,40322
52175,40319
52175,40270
52175,40268
52175,40265
52176,40263
52177,40261
52178,40259
52179,40256
52180,40255
52182,40253
52184,40251
52186,40250
52188,40248
52190,40247
52192,40247
52195,40246
52197,40246
52199,40246
52485,40246
52487,40246
Z" /> 
<path style="fill:#000000; fill-opacity:1.0; 
stroke:#000000; stroke-width:0; stroke-opacity:1; 
stroke-linecap:round; stroke-linejoin:round;fill-rule:evenodd;"
d="M 52487,40069
52490,40069
52492,40069
52494,40070
52496,40071
52498,40073
52500,40074
52502,40076
52504,40077
52505,40079
52506,40081
52507,40084
52508,40086
52509,40088
52509,40091
52509,40093
52509,40142
52509,40145
52509,40147
52508,40149
52507,40152
52506,40154
52505,40156
52504,40158
52502,40160
52500,40161
52498,40163
52496,40164
52494,40165
52492,40166
52490,40166
52487,40167
52485,40167
52199,40167
52197,40167
52195,40166
52192,40166
52190,40165
52188,40164
52186,40163
52184,40161
52182,40160
52180,40158
52179,40156
52178,40154
52177,40152
52176,40149
52175,40147
52175,40145
52175,40142
52175,40093
52175,40091
52175,40088
52176,40086
52177,40084
52178,40081
52179,40079
52180,40077
52182,40076
52184,40074
52186,40073
52188,40071
52190,40070
52192,40069
52195,40069
52197,40069
52199,40068
52485,40068
52487,40069
Z" /> 
<path style="fill:#000000; fill-opacity:1.0; 
stroke:#000000; stroke-width:0; stroke-opacity:1; 
stroke-linecap:round; stroke-linejoin:round;fill-rule:evenodd;"
d="M 52487,39891
52490,39892
52492,39892
52494,39893
52496,39894
52498,39895
52500,39897
52502,39898
52504,39900
52505,39902
52506,39904
52507,39906
52508,39909
52509,39911
52509,39913
52509,39916
52509,39965
52509,39967
52509,39970
52508,39972
52507,39974
52506,39977
52505,39979
52504,39981
52502,39982
52500,39984
52498,39986
52496,39987
52494,39988
52492,39989
52490,39989
52487,39990
52485,39990
52199,39990
52197,39990
52195,39989
52192,39989
52190,39988
52188,39987
52186,39986
52184,39984
52182,39982
52180,39981
52179,39979
52178,39977
52177,39974
52176,39972
52175,39970
52175,39967
52175,39965
52175,39916
52175,39913
52175,39911
52176,39909
52177,39906
52178,39904
52179,39902
52180,39900
52182,39898
52184,39897
52186,39895
52188,39894
52190,39893
52192,39892
52195,39892
52197,39891
52199,39891
52485,39891
52487,39891
Z" /> 
<path style="fill:#000000; fill-opacity:1.0; 
stroke:#000000; stroke-width:0; stroke-opacity:1; 
stroke-linecap:round; stroke-linejoin:round;fill-rule:evenodd;"
d="M 52446,39714
52450,39716
52453,39717
52456,39720
52504,39767
52506,39770
52508,39774
52509,39777
52509,39781
52509,39793
52509,39797
52508,39800
52506,39804
52504,39807
52501,39809
52497,39811
52493,39812
52490,39812
52194,39812
52191,39812
52187,39811
52183,39809
52180,39807
52178,39804
52176,39800
52175,39797
52175,39793
52175,39734
52175,39730
52176,39726
52178,39723
52180,39720
52183,39717
52187,39716
52191,39714
52194,39714
52442,39714
52446,39714
Z" /> 
<path style="fill:#000000; fill-opacity:1.0; 
stroke:#000000; stroke-width:0; stroke-opacity:1; 
stroke-linecap:round; stroke-linejoin:round;fill-rule:evenodd;"
d="M 53140,40149
53146,40150
53152,40152
53157,40154
53163,40157
53168,40160
53173,40163
53178,40168
53182,40172
53186,40177
53189,40182
53192,40188
53194,40194
53195,40200
53196,40206
53196,40212
53196,40338
53196,40344
53195,40350
53194,40356
53192,40362
53189,40368
53186,40373
53182,40378
53178,40383
53173,40387
53168,40390
53163,40394
53157,40396
53152,40398
53146,40400
53140,40401
53133,40401
53007,40401
53001,40401
52995,40400
52989,40398
52983,40396
52978,40394
52972,40390
52967,40387
52963,40383
52959,40378
52955,40373
52952,40368
52949,40362
52947,40356
52946,40350
52945,40344
52944,40338
52944,40212
52945,40206
52946,40200
52947,40194
52949,40188
52952,40182
52955,40177
52959,40172
52963,40168
52967,40163
52972,40160
52978,40157
52983,40154
52989,40152
52995,40150
53001,40149
53007,40149
53133,40149
53140,40149
Z" /> 
<path style="fill:#000000; fill-opacity:1.0; 
stroke:#000000; stroke-width:0; stroke-opacity:1; 
stroke-linecap:round; stroke-linejoin:round;fill-rule:evenodd;"
d="M 53140,39834
53146,39835
53152,39837
53157,39839
53163,39842
53168,39845
53173,39848
53178,39853
53182,39857
53186,39862
53189,39867
53192,39873
53194,39879
53195,39885
53196,39891
53196,39897
53196,40023
53196,40029
53195,40035
53194,40041
53192,40047
53189,40053
53186,40058
53182,40063
53178,40068
53173,40072
53168,40075
53163,40079
53157,40081
53152,40083
53146,40085
53140,40086
53133,40086
53007,40086
53001,40086
52995,40085
52989,40083
52983,40081
52978,40079
52972,40075
52967,40072
52963,40068
52959,40063
52955,40058
52952,40053
52949,40047
52947,40041
52946,40035
52945,40029
52944,40023
52944,39897
52945,39891
52946,39885
52947,39879
52949,39873
52952,39867
52955,39862
52959,39857
52963,39853
52967,39848
52972,39845
52978,39842
52983,39839
52989,39837
52995,39835
53001,39834
53007,39834
53133,39834
53140,39834
Z" /> 
<path style="fill:#000000; fill-opacity:1.0; 
stroke:#000000; stroke-width:0; stroke-opacity:1; 
stroke-linecap:round; stroke-linejoin:round;fill-rule:evenodd;"
d="M 52825,40149
52831,40150
52837,40152
52843,40154
52848,40157
52853,40160
52858,40163
52863,40168
52867,40172
52871,40177
52874,40182
52877,40188
52879,40194
52880,40200
52881,40206
52881,40212
52881,40338
52881,40344
52880,40350
52879,40356
52877,40362
52874,40368
52871,40373
52867,40378
52863,40383
52858,40387
52853,40390
52848,40394
52843,40396
52837,40398
52831,40400
52825,40401
52818,40401
52692,40401
52686,40401
52680,40400
52674,40398
52668,40396
52663,40394
52657,40390
52652,40387
52648,40383
52644,40378
52640,40373
52637,40368
52634,40362
52632,40356
52631,40350
52630,40344
52629,40338
52629,40212
52630,40206
52631,40200
52632,40194
52634,40188
52637,40182
52640,40177
52644,40172
52648,40168
52652,40163
52657,40160
52663,40157
52668,40154
52674,40152
52680,40150
52686,40149
52692,40149
52818,40149
52825,40149
Z" /> 
<path style="fill:#000000; fill-opacity:1.0; 
stroke:#000000; stroke-width:0; stroke-opacity:1; 
stroke-linecap:round; stroke-linejoin:round;fill-rule:evenodd;"
d="M 52825,39834
52831,39835
52837,39837
52843,39839
52848,39842
52853,39845
52858,39848
52863,39853
52867,39857
52871,39862
52874,39867
52877,39873
52879,39879
52880,39885
52881,39891
52881,39897
52881,40023
52881,40029
52880,40035
52879,40041
52877,40047
52874,40053
52871,40058
52867,40063
52863,40068
52858,40072
52853,40075
52848,40079
52843,40081
52837,40083
52831,40085
52825,40086
52818,40086
52692,40086
52686,40086
52680,40085
52674,40083
52668,40081
52663,40079
52657,40075
52652,40072
52648,40068
52644,40063
52640,40058
52637,40053
52634,40047
52632,40041
52631,40035
52630,40029
52629,40023
52629,39897
52630,39891
52631,39885
52632,39879
52634,39873
52637,39867
52640,39862
52644,39857
52648,39853
52652,39848
52657,39845
52663,39842
52668,39839
52674,39837
52680,39835
52686,39834
52692,39834
52818,39834
52825,39834
Z" /> 
</g>
<g >
</g>
<g style="fill:#000000; fill-opacity:1.0; 
stroke:#000000; stroke-width:0; stroke-opacity:1; 
stroke-linecap:round; stroke-linejoin:round;">
<path style="fill:#000000; fill-opacity:1.0; 
stroke:#000000; stroke-width:0; stroke-opacity:1; 
stroke-linecap:round; stroke-linejoin:round;fill-rule:evenodd;"
d="M 49035,33966
48877,33966
48877,33710
49035,33710
49035,33966
Z" /> 
<path style="fill:#000000; fill-opacity:1.0; 
stroke:#000000; stroke-width:0; stroke-opacity:1; 
stroke-linecap:round; stroke-linejoin:round;fill-rule:evenodd;"
d="M 49547,33966
49389,33966
49389,33710
49547,33710
49547,33966
Z" /> 
<path style="fill:#000000; fill-opacity:1.0; 
stroke:#000000; stroke-width:0; stroke-opacity:1; 
stroke-linecap:round; stroke-linejoin:round;fill-rule:evenodd;"
d="M 49291,33218
49133,33218
49133,32962
49291,32962
49291,33218
Z" /> 
<path style="fill:#000000; fill-opacity:1.0; 
stroke:#000000; stroke-width:0; stroke-opacity:1; 
stroke-linecap:round; stroke-linejoin:round;fill-rule:evenodd;"
d="M 49291,33966
49133,33966
49133,33710
49291,33710
49291,33966
Z" /> 
<path style="fill:#000000; fill-opacity:1.0; 
stroke:#000000; stroke-width:0; stroke-opacity:1; 
stroke-linecap:round; stroke-linejoin:round;fill-rule:evenodd;"
d="M 49547,33218
49389,33218
49389,32962
49547,32962
49547,33218
Z" /> 
<path style="fill:#000000; fill-opacity:1.0; 
stroke:#000000; stroke-width:0; stroke-opacity:1; 
stroke-linecap:round; stroke-linejoin:round;fill-rule:evenodd;"
d="M 49035,33218
48877,33218
48877,32962
49035,32962
49035,33218
Z" /> 
</g>
<g >
</g>
<g style="fill:#000000; fill-opacity:1.0; 
stroke:#000000; stroke-width:0; stroke-opacity:1; 
stroke-linecap:round; stroke-linejoin:round;">
<path style="fill:#000000; fill-opacity:1.0; 
stroke:#000000; stroke-width:0; stroke-opacity:1; 
stroke-linecap:round; stroke-linejoin:round;fill-rule:evenodd;"
d="M 68720,33218
68562,33218
68562,32962
68720,32962
68720,33218
Z" /> 
<path style="fill:#000000; fill-opacity:1.0; 
stroke:#000000; stroke-width:0; stroke-opacity:1; 
stroke-linecap:round; stroke-linejoin:round;fill-rule:evenodd;"
d="M 69232,33218
69074,33218
69074,32962
69232,32962
69232,33218
Z" /> 
<path style="fill:#000000; fill-opacity:1.0; 
stroke:#000000; stroke-width:0; stroke-opacity:1; 
stroke-linecap:round; stroke-linejoin:round;fill-rule:evenodd;"
d="M 68976,33966
68818,33966
68818,33710
68976,33710
68976,33966
Z" /> 
<path style="fill:#000000; fill-opacity:1.0; 
stroke:#000000; stroke-width:0; stroke-opacity:1; 
stroke-linecap:round; stroke-linejoin:round;fill-rule:evenodd;"
d="M 68976,33218
68818,33218
68818,32962
68976,32962
68976,33218
Z" /> 
<path style="fill:#000000; fill-opacity:1.0; 
stroke:#000000; stroke-width:0; stroke-opacity:1; 
stroke-linecap:round; stroke-linejoin:round;fill-rule:evenodd;"
d="M 69232,33966
69074,33966
69074,33710
69232,33710
69232,33966
Z" /> 
<path style="fill:#000000; fill-opacity:1.0; 
stroke:#000000; stroke-width:0; stroke-opacity:1; 
stroke-linecap:round; stroke-linejoin:round;fill-rule:evenodd;"
d="M 68720,33966
68562,33966
68562,33710
68720,33710
68720,33966
Z" /> 
</g>
<g >
</g>
<g >
</g>
<g >
</g>
<g style="fill:#000000; fill-opacity:1.0; 
stroke:#000000; stroke-width:0; stroke-opacity:1; 
stroke-linecap:round; stroke-linejoin:round;">
<path style="fill:#000000; fill-opacity:1.0; 
stroke:#000000; stroke-width:0; stroke-opacity:1; 
stroke-linecap:round; stroke-linejoin:round;fill-rule:evenodd;"
d="M 68437,39882
68446,39883
68455,39886
68464,39889
68472,39893
68480,39898
68488,39903
68495,39909
68501,39916
68507,39924
68512,39932
68516,39941
68519,39949
68521,39959
68523,39968
68523,39977
68523,40337
68523,40346
68521,40355
68519,40364
68516,40373
68512,40382
68507,40390
68501,40397
68495,40404
68488,40411
68480,40416
68472,40421
68464,40425
68455,40428
68446,40431
68437,40432
68427,40433
68235,40433
68226,40432
68217,40431
68207,40428
68199,40425
68190,40421
68182,40416
68174,40411
68167,40404
68161,40397
68155,40390
68151,40382
68147,40373
68143,40364
68141,40355
68140,40346
68139,40337
68139,39977
68140,39968
68141,39959
68143,39949
68147,39941
68151,39932
68155,39924
68161,39916
68167,39909
68174,39903
68182,39898
68190,39893
68199,39889
68207,39886
68217,39883
68226,39882
68235,39881
68427,39881
68437,39882
Z" /> 
<path style="fill:#000000; fill-opacity:1.0; 
stroke:#000000; stroke-width:0; stroke-opacity:1; 
stroke-linecap:round; stroke-linejoin:round;fill-rule:evenodd;"
d="M 69175,39882
69184,39883
69193,39886
69202,39889
69211,39893
69219,39898
69226,39903
69233,39909
69240,39916
69245,39924
69250,39932
69254,39941
69257,39949
69259,39959
69261,39968
69261,39977
69261,40337
69261,40346
69259,40355
69257,40364
69254,40373
69250,40382
69245,40390
69240,40397
69233,40404
69226,40411
69219,40416
69211,40421
69202,40425
69193,40428
69184,40431
69175,40432
69165,40433
68973,40433
68964,40432
68955,40431
68946,40428
68937,40425
68928,40421
68920,40416
68913,40411
68906,40404
68899,40397
68894,40390
68889,40382
68885,40373
68882,40364
68879,40355
68878,40346
68877,40337
68877,39977
68878,39968
68879,39959
68882,39949
68885,39941
68889,39932
68894,39924
68899,39916
68906,39909
68913,39903
68920,39898
68928,39893
68937,39889
68946,39886
68955,39883
68964,39882
68973,39881
69165,39881
69175,39882
Z" /> 
</g>
<g >
</g>
<g style="fill:#000000; fill-opacity:1.0; 
stroke:#000000; stroke-width:0; stroke-opacity:1; 
stroke-linecap:round; stroke-linejoin:round;">
<path style="fill:#000000; fill-opacity:1.0; 
stroke:#000000; stroke-width:0; stroke-opacity:1; 
stroke-linecap:round; stroke-linejoin:round;fill-rule:evenodd;"
d="M 58397,41260
58407,41261
58416,41263
58425,41267
58433,41271
58441,41276
58449,41281
58456,41287
58462,41294
58468,41302
58472,41310
58476,41319
58480,41327
58482,41337
58483,41346
58484,41355
58484,41715
58483,41724
58482,41733
58480,41742
58476,41751
58472,41760
58468,41768
58462,41775
58456,41782
58449,41789
58441,41794
58433,41799
58425,41803
58416,41806
58407,41809
58397,41810
58388,41811
58196,41811
58186,41810
58177,41809
58168,41806
58159,41803
58151,41799
58143,41794
58135,41789
58128,41782
58122,41775
58116,41768
58111,41760
58107,41751
58104,41742
58102,41733
58100,41724
58100,41715
58100,41355
58100,41346
58102,41337
58104,41327
58107,41319
58111,41310
58116,41302
58122,41294
58128,41287
58135,41281
58143,41276
58151,41271
58159,41267
58168,41263
58177,41261
58186,41260
58196,41259
58388,41259
58397,41260
Z" /> 
<path style="fill:#000000; fill-opacity:1.0; 
stroke:#000000; stroke-width:0; stroke-opacity:1; 
stroke-linecap:round; stroke-linejoin:round;fill-rule:evenodd;"
d="M 59135,41260
59145,41261
59154,41263
59163,41267
59171,41271
59179,41276
59187,41281
59194,41287
59200,41294
59206,41302
59211,41310
59215,41319
59218,41327
59220,41337
59221,41346
59222,41355
59222,41715
59221,41724
59220,41733
59218,41742
59215,41751
59211,41760
59206,41768
59200,41775
59194,41782
59187,41789
59179,41794
59171,41799
59163,41803
59154,41806
59145,41809
59135,41810
59126,41811
58934,41811
58925,41810
58915,41809
58906,41806
58897,41803
58889,41799
58881,41794
58873,41789
58866,41782
58860,41775
58854,41768
58849,41760
58845,41751
58842,41742
58840,41733
58839,41724
58838,41715
58838,41355
58839,41346
58840,41337
58842,41327
58845,41319
58849,41310
58854,41302
58860,41294
58866,41287
58873,41281
58881,41276
58889,41271
58897,41267
58906,41263
58915,41261
58925,41260
58934,41259
59126,41259
59135,41260
Z" /> 
</g>
<g >
</g>
<g style="fill:#000000; fill-opacity:1.0; 
stroke:#000000; stroke-width:0; stroke-opacity:1; 
stroke-linecap:round; stroke-linejoin:round;">
<path style="fill:#000000; fill-opacity:1.0; 
stroke:#000000; stroke-width:0; stroke-opacity:1; 
stroke-linecap:round; stroke-linejoin:round;fill-rule:evenodd;"
d="M 60414,38789
60422,38791
60431,38793
60438,38795
60446,38799
60453,38803
60460,38808
60466,38814
60472,38820
60477,38827
60481,38834
60485,38842
60488,38850
60490,38858
60491,38867
60492,38875
60492,39077
60491,39085
60490,39094
60488,39102
60485,39110
60481,39117
60477,39125
60472,39131
60466,39138
60460,39143
60453,39148
60446,39153
60438,39156
60431,39159
60422,39161
60414,39162
60406,39163
60233,39163
60225,39162
60216,39161
60208,39159
60200,39156
60193,39153
60185,39148
60179,39143
60172,39138
60167,39131
60162,39125
60157,39117
60154,39110
60151,39102
60149,39094
60148,39085
60147,39077
60147,38875
60148,38867
60149,38858
60151,38850
60154,38842
60157,38834
60162,38827
60167,38820
60172,38814
60179,38808
60185,38803
60193,38799
60200,38795
60208,38793
60216,38791
60225,38789
60233,38789
60406,38789
60414,38789
Z" /> 
<path style="fill:#000000; fill-opacity:1.0; 
stroke:#000000; stroke-width:0; stroke-opacity:1; 
stroke-linecap:round; stroke-linejoin:round;fill-rule:evenodd;"
d="M 61034,38789
61042,38791
61051,38793
61059,38795
61066,38799
61073,38803
61080,38808
61086,38814
61092,38820
61097,38827
61102,38834
61105,38842
61108,38850
61110,38858
61111,38867
61112,38875
61112,39077
61111,39085
61110,39094
61108,39102
61105,39110
61102,39117
61097,39125
61092,39131
61086,39138
61080,39143
61073,39148
61066,39153
61059,39156
61051,39159
61042,39161
61034,39162
61026,39163
60853,39163
60845,39162
60837,39161
60828,39159
60820,39156
60813,39153
60805,39148
60799,39143
60792,39138
60787,39131
60782,39125
60777,39117
60774,39110
60771,39102
60769,39094
60768,39085
60767,39077
60767,38875
60768,38867
60769,38858
60771,38850
60774,38842
60777,38834
60782,38827
60787,38820
60792,38814
60799,38808
60805,38803
60813,38799
60820,38795
60828,38793
60837,38791
60845,38789
60853,38789
61026,38789
61034,38789
Z" /> 
</g>
<g >
</g>
<g >
</g>
<g >
</g>
</g> 
</svg>
