G04 #@! TF.GenerationSoftware,KiCad,Pcbnew,5.1.6*
G04 #@! TF.CreationDate,2020-10-25T14:47:58-05:00*
G04 #@! TF.ProjectId,ddr-ps2-controller,6464722d-7073-4322-9d63-6f6e74726f6c,A*
G04 #@! TF.SameCoordinates,Original*
G04 #@! TF.FileFunction,Legend,Bot*
G04 #@! TF.FilePolarity,Positive*
%FSLAX46Y46*%
G04 Gerber Fmt 4.6, Leading zero omitted, Abs format (unit mm)*
G04 Created by KiCad (PCBNEW 5.1.6) date 2020-10-25 14:47:58*
%MOMM*%
%LPD*%
G01*
G04 APERTURE LIST*
%ADD10C,0.120000*%
%ADD11C,0.150000*%
G04 APERTURE END LIST*
D10*
X111500000Y-80400000D02*
X110350000Y-80400000D01*
X110350000Y-80400000D02*
X110350000Y-81600000D01*
X110350000Y-81600000D02*
X114650000Y-81600000D01*
X114650000Y-81600000D02*
X114650000Y-80400000D01*
X114650000Y-80400000D02*
X113500000Y-80400001D01*
X112250000Y-81800000D02*
X112250000Y-82200000D01*
X112250000Y-82200000D02*
X112750000Y-82000000D01*
X112750000Y-82000000D02*
X112250000Y-81800000D01*
X112800000Y-81800000D02*
X112800000Y-82200000D01*
X113500000Y-80400001D02*
G75*
G03*
X111500000Y-80400000I-1000000J-149999D01*
G01*
X136500000Y-80400000D02*
X135350000Y-80400000D01*
X135350000Y-80400000D02*
X135350000Y-81600000D01*
X135350000Y-81600000D02*
X139650000Y-81600000D01*
X139650000Y-81600000D02*
X139650000Y-80400000D01*
X139650000Y-80400000D02*
X138500000Y-80400001D01*
X137250000Y-81800000D02*
X137250000Y-82200000D01*
X137250000Y-82200000D02*
X137750000Y-82000000D01*
X137750000Y-82000000D02*
X137250000Y-81800000D01*
X137800000Y-81800000D02*
X137800000Y-82200000D01*
X138500000Y-80400001D02*
G75*
G03*
X136500000Y-80400000I-1000000J-149999D01*
G01*
X161500000Y-80400000D02*
X160350000Y-80400000D01*
X160350000Y-80400000D02*
X160350000Y-81600000D01*
X160350000Y-81600000D02*
X164650000Y-81600000D01*
X164650000Y-81600000D02*
X164650000Y-80400000D01*
X164650000Y-80400000D02*
X163500000Y-80400001D01*
X162250000Y-81800000D02*
X162250000Y-82200000D01*
X162250000Y-82200000D02*
X162750000Y-82000000D01*
X162750000Y-82000000D02*
X162250000Y-81800000D01*
X162800000Y-81800000D02*
X162800000Y-82200000D01*
X163500000Y-80400001D02*
G75*
G03*
X161500000Y-80400000I-1000000J-149999D01*
G01*
X186500000Y-80400000D02*
X185350000Y-80400000D01*
X185350000Y-80400000D02*
X185350000Y-81600000D01*
X185350000Y-81600000D02*
X189650000Y-81600000D01*
X189650000Y-81600000D02*
X189650000Y-80400000D01*
X189650000Y-80400000D02*
X188500000Y-80400001D01*
X187250000Y-81800000D02*
X187250000Y-82200000D01*
X187250000Y-82200000D02*
X187750000Y-82000000D01*
X187750000Y-82000000D02*
X187250000Y-81800000D01*
X187800000Y-81800000D02*
X187800000Y-82200000D01*
X188500000Y-80400001D02*
G75*
G03*
X186500000Y-80400000I-1000000J-149999D01*
G01*
D11*
X111368690Y-82637261D02*
X111368690Y-82002261D01*
X111217500Y-82002261D01*
X111126785Y-82032500D01*
X111066309Y-82092976D01*
X111036071Y-82153452D01*
X111005833Y-82274404D01*
X111005833Y-82365119D01*
X111036071Y-82486071D01*
X111066309Y-82546547D01*
X111126785Y-82607023D01*
X111217500Y-82637261D01*
X111368690Y-82637261D01*
X110401071Y-82637261D02*
X110763928Y-82637261D01*
X110582500Y-82637261D02*
X110582500Y-82002261D01*
X110642976Y-82092976D01*
X110703452Y-82153452D01*
X110763928Y-82183690D01*
X139468690Y-82637261D02*
X139468690Y-82002261D01*
X139317500Y-82002261D01*
X139226785Y-82032500D01*
X139166309Y-82092976D01*
X139136071Y-82153452D01*
X139105833Y-82274404D01*
X139105833Y-82365119D01*
X139136071Y-82486071D01*
X139166309Y-82546547D01*
X139226785Y-82607023D01*
X139317500Y-82637261D01*
X139468690Y-82637261D01*
X138863928Y-82062738D02*
X138833690Y-82032500D01*
X138773214Y-82002261D01*
X138622023Y-82002261D01*
X138561547Y-82032500D01*
X138531309Y-82062738D01*
X138501071Y-82123214D01*
X138501071Y-82183690D01*
X138531309Y-82274404D01*
X138894166Y-82637261D01*
X138501071Y-82637261D01*
X161368690Y-82637261D02*
X161368690Y-82002261D01*
X161217500Y-82002261D01*
X161126785Y-82032500D01*
X161066309Y-82092976D01*
X161036071Y-82153452D01*
X161005833Y-82274404D01*
X161005833Y-82365119D01*
X161036071Y-82486071D01*
X161066309Y-82546547D01*
X161126785Y-82607023D01*
X161217500Y-82637261D01*
X161368690Y-82637261D01*
X160794166Y-82002261D02*
X160401071Y-82002261D01*
X160612738Y-82244166D01*
X160522023Y-82244166D01*
X160461547Y-82274404D01*
X160431309Y-82304642D01*
X160401071Y-82365119D01*
X160401071Y-82516309D01*
X160431309Y-82576785D01*
X160461547Y-82607023D01*
X160522023Y-82637261D01*
X160703452Y-82637261D01*
X160763928Y-82607023D01*
X160794166Y-82576785D01*
X189268690Y-82737261D02*
X189268690Y-82102261D01*
X189117500Y-82102261D01*
X189026785Y-82132500D01*
X188966309Y-82192976D01*
X188936071Y-82253452D01*
X188905833Y-82374404D01*
X188905833Y-82465119D01*
X188936071Y-82586071D01*
X188966309Y-82646547D01*
X189026785Y-82707023D01*
X189117500Y-82737261D01*
X189268690Y-82737261D01*
X188361547Y-82313928D02*
X188361547Y-82737261D01*
X188512738Y-82072023D02*
X188663928Y-82525595D01*
X188270833Y-82525595D01*
M02*
