G04 #@! TF.GenerationSoftware,KiCad,Pcbnew,5.1.2*
G04 #@! TF.CreationDate,2019-08-07T23:58:13-05:00*
G04 #@! TF.ProjectId,ddr-ps2-controller,6464722d-7073-4322-9d63-6f6e74726f6c,A*
G04 #@! TF.SameCoordinates,Original*
G04 #@! TF.FileFunction,Soldermask,Top*
G04 #@! TF.FilePolarity,Negative*
%FSLAX46Y46*%
G04 Gerber Fmt 4.6, Leading zero omitted, Abs format (unit mm)*
G04 Created by KiCad (PCBNEW 5.1.2) date 2019-08-07 23:58:13*
%MOMM*%
%LPD*%
G04 APERTURE LIST*
%ADD10C,0.100000*%
G04 APERTURE END LIST*
D10*
G36*
X134341256Y-114319298D02*
G01*
X134447579Y-114340447D01*
X134748042Y-114464903D01*
X135018451Y-114645585D01*
X135248415Y-114875549D01*
X135429097Y-115145958D01*
X135553553Y-115446421D01*
X135617000Y-115765391D01*
X135617000Y-116090609D01*
X135553553Y-116409579D01*
X135429097Y-116710042D01*
X135248415Y-116980451D01*
X135018451Y-117210415D01*
X134748042Y-117391097D01*
X134447579Y-117515553D01*
X134341256Y-117536702D01*
X134128611Y-117579000D01*
X133803389Y-117579000D01*
X133590744Y-117536702D01*
X133484421Y-117515553D01*
X133183958Y-117391097D01*
X132913549Y-117210415D01*
X132683585Y-116980451D01*
X132502903Y-116710042D01*
X132378447Y-116409579D01*
X132315000Y-116090609D01*
X132315000Y-115765391D01*
X132378447Y-115446421D01*
X132502903Y-115145958D01*
X132683585Y-114875549D01*
X132913549Y-114645585D01*
X133183958Y-114464903D01*
X133484421Y-114340447D01*
X133590744Y-114319298D01*
X133803389Y-114277000D01*
X134128611Y-114277000D01*
X134341256Y-114319298D01*
X134341256Y-114319298D01*
G37*
G36*
X126975256Y-114319298D02*
G01*
X127081579Y-114340447D01*
X127382042Y-114464903D01*
X127652451Y-114645585D01*
X127882415Y-114875549D01*
X128063097Y-115145958D01*
X128187553Y-115446421D01*
X128251000Y-115765391D01*
X128251000Y-116090609D01*
X128187553Y-116409579D01*
X128063097Y-116710042D01*
X127882415Y-116980451D01*
X127652451Y-117210415D01*
X127382042Y-117391097D01*
X127081579Y-117515553D01*
X126975256Y-117536702D01*
X126762611Y-117579000D01*
X126437389Y-117579000D01*
X126224744Y-117536702D01*
X126118421Y-117515553D01*
X125817958Y-117391097D01*
X125547549Y-117210415D01*
X125317585Y-116980451D01*
X125136903Y-116710042D01*
X125012447Y-116409579D01*
X124949000Y-116090609D01*
X124949000Y-115765391D01*
X125012447Y-115446421D01*
X125136903Y-115145958D01*
X125317585Y-114875549D01*
X125547549Y-114645585D01*
X125817958Y-114464903D01*
X126118421Y-114340447D01*
X126224744Y-114319298D01*
X126437389Y-114277000D01*
X126762611Y-114277000D01*
X126975256Y-114319298D01*
X126975256Y-114319298D01*
G37*
G36*
X140741000Y-115401000D02*
G01*
X138939000Y-115401000D01*
X138939000Y-113599000D01*
X140741000Y-113599000D01*
X140741000Y-115401000D01*
X140741000Y-115401000D01*
G37*
G36*
X160270442Y-113605518D02*
G01*
X160336627Y-113612037D01*
X160506466Y-113663557D01*
X160662991Y-113747222D01*
X160698729Y-113776552D01*
X160800186Y-113859814D01*
X160851538Y-113922388D01*
X160912778Y-113997009D01*
X160996443Y-114153534D01*
X161047963Y-114323373D01*
X161065359Y-114500000D01*
X161047963Y-114676627D01*
X160996443Y-114846466D01*
X160912778Y-115002991D01*
X160883448Y-115038729D01*
X160800186Y-115140186D01*
X160698729Y-115223448D01*
X160662991Y-115252778D01*
X160506466Y-115336443D01*
X160336627Y-115387963D01*
X160270442Y-115394482D01*
X160204260Y-115401000D01*
X160115740Y-115401000D01*
X160049558Y-115394482D01*
X159983373Y-115387963D01*
X159813534Y-115336443D01*
X159657009Y-115252778D01*
X159621271Y-115223448D01*
X159519814Y-115140186D01*
X159436552Y-115038729D01*
X159407222Y-115002991D01*
X159323557Y-114846466D01*
X159272037Y-114676627D01*
X159254641Y-114500000D01*
X159272037Y-114323373D01*
X159323557Y-114153534D01*
X159407222Y-113997009D01*
X159468462Y-113922388D01*
X159519814Y-113859814D01*
X159621271Y-113776552D01*
X159657009Y-113747222D01*
X159813534Y-113663557D01*
X159983373Y-113612037D01*
X160049558Y-113605518D01*
X160115740Y-113599000D01*
X160204260Y-113599000D01*
X160270442Y-113605518D01*
X160270442Y-113605518D01*
G37*
G36*
X142490442Y-113605518D02*
G01*
X142556627Y-113612037D01*
X142726466Y-113663557D01*
X142882991Y-113747222D01*
X142918729Y-113776552D01*
X143020186Y-113859814D01*
X143071538Y-113922388D01*
X143132778Y-113997009D01*
X143216443Y-114153534D01*
X143267963Y-114323373D01*
X143285359Y-114500000D01*
X143267963Y-114676627D01*
X143216443Y-114846466D01*
X143132778Y-115002991D01*
X143103448Y-115038729D01*
X143020186Y-115140186D01*
X142918729Y-115223448D01*
X142882991Y-115252778D01*
X142726466Y-115336443D01*
X142556627Y-115387963D01*
X142490442Y-115394482D01*
X142424260Y-115401000D01*
X142335740Y-115401000D01*
X142269558Y-115394482D01*
X142203373Y-115387963D01*
X142033534Y-115336443D01*
X141877009Y-115252778D01*
X141841271Y-115223448D01*
X141739814Y-115140186D01*
X141656552Y-115038729D01*
X141627222Y-115002991D01*
X141543557Y-114846466D01*
X141492037Y-114676627D01*
X141474641Y-114500000D01*
X141492037Y-114323373D01*
X141543557Y-114153534D01*
X141627222Y-113997009D01*
X141688462Y-113922388D01*
X141739814Y-113859814D01*
X141841271Y-113776552D01*
X141877009Y-113747222D01*
X142033534Y-113663557D01*
X142203373Y-113612037D01*
X142269558Y-113605518D01*
X142335740Y-113599000D01*
X142424260Y-113599000D01*
X142490442Y-113605518D01*
X142490442Y-113605518D01*
G37*
G36*
X145030442Y-113605518D02*
G01*
X145096627Y-113612037D01*
X145266466Y-113663557D01*
X145422991Y-113747222D01*
X145458729Y-113776552D01*
X145560186Y-113859814D01*
X145611538Y-113922388D01*
X145672778Y-113997009D01*
X145756443Y-114153534D01*
X145807963Y-114323373D01*
X145825359Y-114500000D01*
X145807963Y-114676627D01*
X145756443Y-114846466D01*
X145672778Y-115002991D01*
X145643448Y-115038729D01*
X145560186Y-115140186D01*
X145458729Y-115223448D01*
X145422991Y-115252778D01*
X145266466Y-115336443D01*
X145096627Y-115387963D01*
X145030442Y-115394482D01*
X144964260Y-115401000D01*
X144875740Y-115401000D01*
X144809558Y-115394482D01*
X144743373Y-115387963D01*
X144573534Y-115336443D01*
X144417009Y-115252778D01*
X144381271Y-115223448D01*
X144279814Y-115140186D01*
X144196552Y-115038729D01*
X144167222Y-115002991D01*
X144083557Y-114846466D01*
X144032037Y-114676627D01*
X144014641Y-114500000D01*
X144032037Y-114323373D01*
X144083557Y-114153534D01*
X144167222Y-113997009D01*
X144228462Y-113922388D01*
X144279814Y-113859814D01*
X144381271Y-113776552D01*
X144417009Y-113747222D01*
X144573534Y-113663557D01*
X144743373Y-113612037D01*
X144809558Y-113605518D01*
X144875740Y-113599000D01*
X144964260Y-113599000D01*
X145030442Y-113605518D01*
X145030442Y-113605518D01*
G37*
G36*
X147570442Y-113605518D02*
G01*
X147636627Y-113612037D01*
X147806466Y-113663557D01*
X147962991Y-113747222D01*
X147998729Y-113776552D01*
X148100186Y-113859814D01*
X148151538Y-113922388D01*
X148212778Y-113997009D01*
X148296443Y-114153534D01*
X148347963Y-114323373D01*
X148365359Y-114500000D01*
X148347963Y-114676627D01*
X148296443Y-114846466D01*
X148212778Y-115002991D01*
X148183448Y-115038729D01*
X148100186Y-115140186D01*
X147998729Y-115223448D01*
X147962991Y-115252778D01*
X147806466Y-115336443D01*
X147636627Y-115387963D01*
X147570442Y-115394482D01*
X147504260Y-115401000D01*
X147415740Y-115401000D01*
X147349558Y-115394482D01*
X147283373Y-115387963D01*
X147113534Y-115336443D01*
X146957009Y-115252778D01*
X146921271Y-115223448D01*
X146819814Y-115140186D01*
X146736552Y-115038729D01*
X146707222Y-115002991D01*
X146623557Y-114846466D01*
X146572037Y-114676627D01*
X146554641Y-114500000D01*
X146572037Y-114323373D01*
X146623557Y-114153534D01*
X146707222Y-113997009D01*
X146768462Y-113922388D01*
X146819814Y-113859814D01*
X146921271Y-113776552D01*
X146957009Y-113747222D01*
X147113534Y-113663557D01*
X147283373Y-113612037D01*
X147349558Y-113605518D01*
X147415740Y-113599000D01*
X147504260Y-113599000D01*
X147570442Y-113605518D01*
X147570442Y-113605518D01*
G37*
G36*
X150110442Y-113605518D02*
G01*
X150176627Y-113612037D01*
X150346466Y-113663557D01*
X150502991Y-113747222D01*
X150538729Y-113776552D01*
X150640186Y-113859814D01*
X150691538Y-113922388D01*
X150752778Y-113997009D01*
X150836443Y-114153534D01*
X150887963Y-114323373D01*
X150905359Y-114500000D01*
X150887963Y-114676627D01*
X150836443Y-114846466D01*
X150752778Y-115002991D01*
X150723448Y-115038729D01*
X150640186Y-115140186D01*
X150538729Y-115223448D01*
X150502991Y-115252778D01*
X150346466Y-115336443D01*
X150176627Y-115387963D01*
X150110442Y-115394482D01*
X150044260Y-115401000D01*
X149955740Y-115401000D01*
X149889558Y-115394482D01*
X149823373Y-115387963D01*
X149653534Y-115336443D01*
X149497009Y-115252778D01*
X149461271Y-115223448D01*
X149359814Y-115140186D01*
X149276552Y-115038729D01*
X149247222Y-115002991D01*
X149163557Y-114846466D01*
X149112037Y-114676627D01*
X149094641Y-114500000D01*
X149112037Y-114323373D01*
X149163557Y-114153534D01*
X149247222Y-113997009D01*
X149308462Y-113922388D01*
X149359814Y-113859814D01*
X149461271Y-113776552D01*
X149497009Y-113747222D01*
X149653534Y-113663557D01*
X149823373Y-113612037D01*
X149889558Y-113605518D01*
X149955740Y-113599000D01*
X150044260Y-113599000D01*
X150110442Y-113605518D01*
X150110442Y-113605518D01*
G37*
G36*
X152650442Y-113605518D02*
G01*
X152716627Y-113612037D01*
X152886466Y-113663557D01*
X153042991Y-113747222D01*
X153078729Y-113776552D01*
X153180186Y-113859814D01*
X153231538Y-113922388D01*
X153292778Y-113997009D01*
X153376443Y-114153534D01*
X153427963Y-114323373D01*
X153445359Y-114500000D01*
X153427963Y-114676627D01*
X153376443Y-114846466D01*
X153292778Y-115002991D01*
X153263448Y-115038729D01*
X153180186Y-115140186D01*
X153078729Y-115223448D01*
X153042991Y-115252778D01*
X152886466Y-115336443D01*
X152716627Y-115387963D01*
X152650442Y-115394482D01*
X152584260Y-115401000D01*
X152495740Y-115401000D01*
X152429558Y-115394482D01*
X152363373Y-115387963D01*
X152193534Y-115336443D01*
X152037009Y-115252778D01*
X152001271Y-115223448D01*
X151899814Y-115140186D01*
X151816552Y-115038729D01*
X151787222Y-115002991D01*
X151703557Y-114846466D01*
X151652037Y-114676627D01*
X151634641Y-114500000D01*
X151652037Y-114323373D01*
X151703557Y-114153534D01*
X151787222Y-113997009D01*
X151848462Y-113922388D01*
X151899814Y-113859814D01*
X152001271Y-113776552D01*
X152037009Y-113747222D01*
X152193534Y-113663557D01*
X152363373Y-113612037D01*
X152429558Y-113605518D01*
X152495740Y-113599000D01*
X152584260Y-113599000D01*
X152650442Y-113605518D01*
X152650442Y-113605518D01*
G37*
G36*
X155190442Y-113605518D02*
G01*
X155256627Y-113612037D01*
X155426466Y-113663557D01*
X155582991Y-113747222D01*
X155618729Y-113776552D01*
X155720186Y-113859814D01*
X155771538Y-113922388D01*
X155832778Y-113997009D01*
X155916443Y-114153534D01*
X155967963Y-114323373D01*
X155985359Y-114500000D01*
X155967963Y-114676627D01*
X155916443Y-114846466D01*
X155832778Y-115002991D01*
X155803448Y-115038729D01*
X155720186Y-115140186D01*
X155618729Y-115223448D01*
X155582991Y-115252778D01*
X155426466Y-115336443D01*
X155256627Y-115387963D01*
X155190442Y-115394482D01*
X155124260Y-115401000D01*
X155035740Y-115401000D01*
X154969558Y-115394482D01*
X154903373Y-115387963D01*
X154733534Y-115336443D01*
X154577009Y-115252778D01*
X154541271Y-115223448D01*
X154439814Y-115140186D01*
X154356552Y-115038729D01*
X154327222Y-115002991D01*
X154243557Y-114846466D01*
X154192037Y-114676627D01*
X154174641Y-114500000D01*
X154192037Y-114323373D01*
X154243557Y-114153534D01*
X154327222Y-113997009D01*
X154388462Y-113922388D01*
X154439814Y-113859814D01*
X154541271Y-113776552D01*
X154577009Y-113747222D01*
X154733534Y-113663557D01*
X154903373Y-113612037D01*
X154969558Y-113605518D01*
X155035740Y-113599000D01*
X155124260Y-113599000D01*
X155190442Y-113605518D01*
X155190442Y-113605518D01*
G37*
G36*
X157730442Y-113605518D02*
G01*
X157796627Y-113612037D01*
X157966466Y-113663557D01*
X158122991Y-113747222D01*
X158158729Y-113776552D01*
X158260186Y-113859814D01*
X158311538Y-113922388D01*
X158372778Y-113997009D01*
X158456443Y-114153534D01*
X158507963Y-114323373D01*
X158525359Y-114500000D01*
X158507963Y-114676627D01*
X158456443Y-114846466D01*
X158372778Y-115002991D01*
X158343448Y-115038729D01*
X158260186Y-115140186D01*
X158158729Y-115223448D01*
X158122991Y-115252778D01*
X157966466Y-115336443D01*
X157796627Y-115387963D01*
X157730442Y-115394482D01*
X157664260Y-115401000D01*
X157575740Y-115401000D01*
X157509558Y-115394482D01*
X157443373Y-115387963D01*
X157273534Y-115336443D01*
X157117009Y-115252778D01*
X157081271Y-115223448D01*
X156979814Y-115140186D01*
X156896552Y-115038729D01*
X156867222Y-115002991D01*
X156783557Y-114846466D01*
X156732037Y-114676627D01*
X156714641Y-114500000D01*
X156732037Y-114323373D01*
X156783557Y-114153534D01*
X156867222Y-113997009D01*
X156928462Y-113922388D01*
X156979814Y-113859814D01*
X157081271Y-113776552D01*
X157117009Y-113747222D01*
X157273534Y-113663557D01*
X157443373Y-113612037D01*
X157509558Y-113605518D01*
X157575740Y-113599000D01*
X157664260Y-113599000D01*
X157730442Y-113605518D01*
X157730442Y-113605518D01*
G37*
G36*
X175448578Y-111991048D02*
G01*
X175521249Y-112013093D01*
X175588225Y-112048892D01*
X175646930Y-112097070D01*
X175695108Y-112155775D01*
X175730907Y-112222751D01*
X175752952Y-112295422D01*
X175761000Y-112377140D01*
X175761000Y-113890860D01*
X175752952Y-113972578D01*
X175730907Y-114045249D01*
X175695108Y-114112225D01*
X175646930Y-114170930D01*
X175588225Y-114219108D01*
X175521249Y-114254907D01*
X175448578Y-114276952D01*
X175366860Y-114285000D01*
X174353140Y-114285000D01*
X174271422Y-114276952D01*
X174198751Y-114254907D01*
X174131775Y-114219108D01*
X174073070Y-114170930D01*
X174024892Y-114112225D01*
X173989093Y-114045249D01*
X173967048Y-113972578D01*
X173959000Y-113890860D01*
X173959000Y-112377140D01*
X173967048Y-112295422D01*
X173989093Y-112222751D01*
X174024892Y-112155775D01*
X174073070Y-112097070D01*
X174131775Y-112048892D01*
X174198751Y-112013093D01*
X174271422Y-111991048D01*
X174353140Y-111983000D01*
X175366860Y-111983000D01*
X175448578Y-111991048D01*
X175448578Y-111991048D01*
G37*
G36*
X172948578Y-111991048D02*
G01*
X173021249Y-112013093D01*
X173088225Y-112048892D01*
X173146930Y-112097070D01*
X173195108Y-112155775D01*
X173230907Y-112222751D01*
X173252952Y-112295422D01*
X173261000Y-112377140D01*
X173261000Y-113890860D01*
X173252952Y-113972578D01*
X173230907Y-114045249D01*
X173195108Y-114112225D01*
X173146930Y-114170930D01*
X173088225Y-114219108D01*
X173021249Y-114254907D01*
X172948578Y-114276952D01*
X172866860Y-114285000D01*
X171853140Y-114285000D01*
X171771422Y-114276952D01*
X171698751Y-114254907D01*
X171631775Y-114219108D01*
X171573070Y-114170930D01*
X171524892Y-114112225D01*
X171489093Y-114045249D01*
X171467048Y-113972578D01*
X171459000Y-113890860D01*
X171459000Y-112377140D01*
X171467048Y-112295422D01*
X171489093Y-112222751D01*
X171524892Y-112155775D01*
X171573070Y-112097070D01*
X171631775Y-112048892D01*
X171698751Y-112013093D01*
X171771422Y-111991048D01*
X171853140Y-111983000D01*
X172866860Y-111983000D01*
X172948578Y-111991048D01*
X172948578Y-111991048D01*
G37*
G36*
X177948578Y-111991048D02*
G01*
X178021249Y-112013093D01*
X178088225Y-112048892D01*
X178146930Y-112097070D01*
X178195108Y-112155775D01*
X178230907Y-112222751D01*
X178252952Y-112295422D01*
X178261000Y-112377140D01*
X178261000Y-113890860D01*
X178252952Y-113972578D01*
X178230907Y-114045249D01*
X178195108Y-114112225D01*
X178146930Y-114170930D01*
X178088225Y-114219108D01*
X178021249Y-114254907D01*
X177948578Y-114276952D01*
X177866860Y-114285000D01*
X176853140Y-114285000D01*
X176771422Y-114276952D01*
X176698751Y-114254907D01*
X176631775Y-114219108D01*
X176573070Y-114170930D01*
X176524892Y-114112225D01*
X176489093Y-114045249D01*
X176467048Y-113972578D01*
X176459000Y-113890860D01*
X176459000Y-112377140D01*
X176467048Y-112295422D01*
X176489093Y-112222751D01*
X176524892Y-112155775D01*
X176573070Y-112097070D01*
X176631775Y-112048892D01*
X176698751Y-112013093D01*
X176771422Y-111991048D01*
X176853140Y-111983000D01*
X177866860Y-111983000D01*
X177948578Y-111991048D01*
X177948578Y-111991048D01*
G37*
G36*
X115290578Y-111991048D02*
G01*
X115363249Y-112013093D01*
X115430225Y-112048892D01*
X115488930Y-112097070D01*
X115537108Y-112155775D01*
X115572907Y-112222751D01*
X115594952Y-112295422D01*
X115603000Y-112377140D01*
X115603000Y-113890860D01*
X115594952Y-113972578D01*
X115572907Y-114045249D01*
X115537108Y-114112225D01*
X115488930Y-114170930D01*
X115430225Y-114219108D01*
X115363249Y-114254907D01*
X115290578Y-114276952D01*
X115208860Y-114285000D01*
X114195140Y-114285000D01*
X114113422Y-114276952D01*
X114040751Y-114254907D01*
X113973775Y-114219108D01*
X113915070Y-114170930D01*
X113866892Y-114112225D01*
X113831093Y-114045249D01*
X113809048Y-113972578D01*
X113801000Y-113890860D01*
X113801000Y-112377140D01*
X113809048Y-112295422D01*
X113831093Y-112222751D01*
X113866892Y-112155775D01*
X113915070Y-112097070D01*
X113973775Y-112048892D01*
X114040751Y-112013093D01*
X114113422Y-111991048D01*
X114195140Y-111983000D01*
X115208860Y-111983000D01*
X115290578Y-111991048D01*
X115290578Y-111991048D01*
G37*
G36*
X120290578Y-111991048D02*
G01*
X120363249Y-112013093D01*
X120430225Y-112048892D01*
X120488930Y-112097070D01*
X120537108Y-112155775D01*
X120572907Y-112222751D01*
X120594952Y-112295422D01*
X120603000Y-112377140D01*
X120603000Y-113890860D01*
X120594952Y-113972578D01*
X120572907Y-114045249D01*
X120537108Y-114112225D01*
X120488930Y-114170930D01*
X120430225Y-114219108D01*
X120363249Y-114254907D01*
X120290578Y-114276952D01*
X120208860Y-114285000D01*
X119195140Y-114285000D01*
X119113422Y-114276952D01*
X119040751Y-114254907D01*
X118973775Y-114219108D01*
X118915070Y-114170930D01*
X118866892Y-114112225D01*
X118831093Y-114045249D01*
X118809048Y-113972578D01*
X118801000Y-113890860D01*
X118801000Y-112377140D01*
X118809048Y-112295422D01*
X118831093Y-112222751D01*
X118866892Y-112155775D01*
X118915070Y-112097070D01*
X118973775Y-112048892D01*
X119040751Y-112013093D01*
X119113422Y-111991048D01*
X119195140Y-111983000D01*
X120208860Y-111983000D01*
X120290578Y-111991048D01*
X120290578Y-111991048D01*
G37*
G36*
X117790578Y-111991048D02*
G01*
X117863249Y-112013093D01*
X117930225Y-112048892D01*
X117988930Y-112097070D01*
X118037108Y-112155775D01*
X118072907Y-112222751D01*
X118094952Y-112295422D01*
X118103000Y-112377140D01*
X118103000Y-113890860D01*
X118094952Y-113972578D01*
X118072907Y-114045249D01*
X118037108Y-114112225D01*
X117988930Y-114170930D01*
X117930225Y-114219108D01*
X117863249Y-114254907D01*
X117790578Y-114276952D01*
X117708860Y-114285000D01*
X116695140Y-114285000D01*
X116613422Y-114276952D01*
X116540751Y-114254907D01*
X116473775Y-114219108D01*
X116415070Y-114170930D01*
X116366892Y-114112225D01*
X116331093Y-114045249D01*
X116309048Y-113972578D01*
X116301000Y-113890860D01*
X116301000Y-112377140D01*
X116309048Y-112295422D01*
X116331093Y-112222751D01*
X116366892Y-112155775D01*
X116415070Y-112097070D01*
X116473775Y-112048892D01*
X116540751Y-112013093D01*
X116613422Y-111991048D01*
X116695140Y-111983000D01*
X117708860Y-111983000D01*
X117790578Y-111991048D01*
X117790578Y-111991048D01*
G37*
G36*
X107626578Y-111693048D02*
G01*
X107699249Y-111715093D01*
X107766225Y-111750892D01*
X107824930Y-111799070D01*
X107873108Y-111857775D01*
X107908907Y-111924751D01*
X107930952Y-111997422D01*
X107939000Y-112079140D01*
X107939000Y-113092860D01*
X107930952Y-113174578D01*
X107908907Y-113247249D01*
X107873108Y-113314225D01*
X107824930Y-113372930D01*
X107766225Y-113421108D01*
X107699249Y-113456907D01*
X107626578Y-113478952D01*
X107544860Y-113487000D01*
X106031140Y-113487000D01*
X105949422Y-113478952D01*
X105876751Y-113456907D01*
X105809775Y-113421108D01*
X105751070Y-113372930D01*
X105702892Y-113314225D01*
X105667093Y-113247249D01*
X105645048Y-113174578D01*
X105637000Y-113092860D01*
X105637000Y-112079140D01*
X105645048Y-111997422D01*
X105667093Y-111924751D01*
X105702892Y-111857775D01*
X105751070Y-111799070D01*
X105809775Y-111750892D01*
X105876751Y-111715093D01*
X105949422Y-111693048D01*
X106031140Y-111685000D01*
X107544860Y-111685000D01*
X107626578Y-111693048D01*
X107626578Y-111693048D01*
G37*
G36*
X193986578Y-111607048D02*
G01*
X194059249Y-111629093D01*
X194126225Y-111664892D01*
X194184930Y-111713070D01*
X194233108Y-111771775D01*
X194268907Y-111838751D01*
X194290952Y-111911422D01*
X194299000Y-111993140D01*
X194299000Y-113006860D01*
X194290952Y-113088578D01*
X194268907Y-113161249D01*
X194233108Y-113228225D01*
X194184930Y-113286930D01*
X194126225Y-113335108D01*
X194059249Y-113370907D01*
X193986578Y-113392952D01*
X193904860Y-113401000D01*
X192391140Y-113401000D01*
X192309422Y-113392952D01*
X192236751Y-113370907D01*
X192169775Y-113335108D01*
X192111070Y-113286930D01*
X192062892Y-113228225D01*
X192027093Y-113161249D01*
X192005048Y-113088578D01*
X191997000Y-113006860D01*
X191997000Y-111993140D01*
X192005048Y-111911422D01*
X192027093Y-111838751D01*
X192062892Y-111771775D01*
X192111070Y-111713070D01*
X192169775Y-111664892D01*
X192236751Y-111629093D01*
X192309422Y-111607048D01*
X192391140Y-111599000D01*
X193904860Y-111599000D01*
X193986578Y-111607048D01*
X193986578Y-111607048D01*
G37*
G36*
X186781938Y-111641716D02*
G01*
X186802557Y-111647971D01*
X186821553Y-111658124D01*
X186838208Y-111671792D01*
X186851876Y-111688447D01*
X186862029Y-111707443D01*
X186868284Y-111728062D01*
X186871000Y-111755640D01*
X186871000Y-112214360D01*
X186868284Y-112241938D01*
X186862029Y-112262557D01*
X186851876Y-112281553D01*
X186838208Y-112298208D01*
X186821553Y-112311876D01*
X186802557Y-112322029D01*
X186781938Y-112328284D01*
X186754360Y-112331000D01*
X186245640Y-112331000D01*
X186218062Y-112328284D01*
X186197443Y-112322029D01*
X186178447Y-112311876D01*
X186161792Y-112298208D01*
X186148124Y-112281553D01*
X186137971Y-112262557D01*
X186131716Y-112241938D01*
X186129000Y-112214360D01*
X186129000Y-111755640D01*
X186131716Y-111728062D01*
X186137971Y-111707443D01*
X186148124Y-111688447D01*
X186161792Y-111671792D01*
X186178447Y-111658124D01*
X186197443Y-111647971D01*
X186218062Y-111641716D01*
X186245640Y-111639000D01*
X186754360Y-111639000D01*
X186781938Y-111641716D01*
X186781938Y-111641716D01*
G37*
G36*
X186781938Y-110671716D02*
G01*
X186802557Y-110677971D01*
X186821553Y-110688124D01*
X186838208Y-110701792D01*
X186851876Y-110718447D01*
X186862029Y-110737443D01*
X186868284Y-110758062D01*
X186871000Y-110785640D01*
X186871000Y-111244360D01*
X186868284Y-111271938D01*
X186862029Y-111292557D01*
X186851876Y-111311553D01*
X186838208Y-111328208D01*
X186821553Y-111341876D01*
X186802557Y-111352029D01*
X186781938Y-111358284D01*
X186754360Y-111361000D01*
X186245640Y-111361000D01*
X186218062Y-111358284D01*
X186197443Y-111352029D01*
X186178447Y-111341876D01*
X186161792Y-111328208D01*
X186148124Y-111311553D01*
X186137971Y-111292557D01*
X186131716Y-111271938D01*
X186129000Y-111244360D01*
X186129000Y-110785640D01*
X186131716Y-110758062D01*
X186137971Y-110737443D01*
X186148124Y-110718447D01*
X186161792Y-110701792D01*
X186178447Y-110688124D01*
X186197443Y-110677971D01*
X186218062Y-110671716D01*
X186245640Y-110669000D01*
X186754360Y-110669000D01*
X186781938Y-110671716D01*
X186781938Y-110671716D01*
G37*
G36*
X160781938Y-110641716D02*
G01*
X160802557Y-110647971D01*
X160821553Y-110658124D01*
X160838208Y-110671792D01*
X160851876Y-110688447D01*
X160862029Y-110707443D01*
X160868284Y-110728062D01*
X160871000Y-110755640D01*
X160871000Y-111214360D01*
X160868284Y-111241938D01*
X160862029Y-111262557D01*
X160851876Y-111281553D01*
X160838208Y-111298208D01*
X160821553Y-111311876D01*
X160802557Y-111322029D01*
X160781938Y-111328284D01*
X160754360Y-111331000D01*
X160245640Y-111331000D01*
X160218062Y-111328284D01*
X160197443Y-111322029D01*
X160178447Y-111311876D01*
X160161792Y-111298208D01*
X160148124Y-111281553D01*
X160137971Y-111262557D01*
X160131716Y-111241938D01*
X160129000Y-111214360D01*
X160129000Y-110755640D01*
X160131716Y-110728062D01*
X160137971Y-110707443D01*
X160148124Y-110688447D01*
X160161792Y-110671792D01*
X160178447Y-110658124D01*
X160197443Y-110647971D01*
X160218062Y-110641716D01*
X160245640Y-110639000D01*
X160754360Y-110639000D01*
X160781938Y-110641716D01*
X160781938Y-110641716D01*
G37*
G36*
X107626578Y-109193048D02*
G01*
X107699249Y-109215093D01*
X107766225Y-109250892D01*
X107824930Y-109299070D01*
X107873108Y-109357775D01*
X107908907Y-109424751D01*
X107930952Y-109497422D01*
X107939000Y-109579140D01*
X107939000Y-110592860D01*
X107930952Y-110674578D01*
X107908907Y-110747249D01*
X107873108Y-110814225D01*
X107824930Y-110872930D01*
X107766225Y-110921108D01*
X107699249Y-110956907D01*
X107626578Y-110978952D01*
X107544860Y-110987000D01*
X106031140Y-110987000D01*
X105949422Y-110978952D01*
X105876751Y-110956907D01*
X105809775Y-110921108D01*
X105751070Y-110872930D01*
X105702892Y-110814225D01*
X105667093Y-110747249D01*
X105645048Y-110674578D01*
X105637000Y-110592860D01*
X105637000Y-109579140D01*
X105645048Y-109497422D01*
X105667093Y-109424751D01*
X105702892Y-109357775D01*
X105751070Y-109299070D01*
X105809775Y-109250892D01*
X105876751Y-109215093D01*
X105949422Y-109193048D01*
X106031140Y-109185000D01*
X107544860Y-109185000D01*
X107626578Y-109193048D01*
X107626578Y-109193048D01*
G37*
G36*
X193986578Y-109107048D02*
G01*
X194059249Y-109129093D01*
X194126225Y-109164892D01*
X194184930Y-109213070D01*
X194233108Y-109271775D01*
X194268907Y-109338751D01*
X194290952Y-109411422D01*
X194299000Y-109493140D01*
X194299000Y-110506860D01*
X194290952Y-110588578D01*
X194268907Y-110661249D01*
X194233108Y-110728225D01*
X194184930Y-110786930D01*
X194126225Y-110835108D01*
X194059249Y-110870907D01*
X193986578Y-110892952D01*
X193904860Y-110901000D01*
X192391140Y-110901000D01*
X192309422Y-110892952D01*
X192236751Y-110870907D01*
X192169775Y-110835108D01*
X192111070Y-110786930D01*
X192062892Y-110728225D01*
X192027093Y-110661249D01*
X192005048Y-110588578D01*
X191997000Y-110506860D01*
X191997000Y-109493140D01*
X192005048Y-109411422D01*
X192027093Y-109338751D01*
X192062892Y-109271775D01*
X192111070Y-109213070D01*
X192169775Y-109164892D01*
X192236751Y-109129093D01*
X192309422Y-109107048D01*
X192391140Y-109099000D01*
X193904860Y-109099000D01*
X193986578Y-109107048D01*
X193986578Y-109107048D01*
G37*
G36*
X148118604Y-107628347D02*
G01*
X148155144Y-107639432D01*
X148188821Y-107657433D01*
X148218341Y-107681659D01*
X148242567Y-107711179D01*
X148260568Y-107744856D01*
X148271653Y-107781396D01*
X148276000Y-107825538D01*
X148276000Y-110174462D01*
X148271653Y-110218604D01*
X148260568Y-110255144D01*
X148242567Y-110288821D01*
X148218341Y-110318341D01*
X148188821Y-110342567D01*
X148155144Y-110360568D01*
X148118604Y-110371653D01*
X148074462Y-110376000D01*
X147125538Y-110376000D01*
X147081396Y-110371653D01*
X147044856Y-110360568D01*
X147011179Y-110342567D01*
X146981659Y-110318341D01*
X146957433Y-110288821D01*
X146939432Y-110255144D01*
X146928347Y-110218604D01*
X146924000Y-110174462D01*
X146924000Y-107825538D01*
X146928347Y-107781396D01*
X146939432Y-107744856D01*
X146957433Y-107711179D01*
X146981659Y-107681659D01*
X147011179Y-107657433D01*
X147044856Y-107639432D01*
X147081396Y-107628347D01*
X147125538Y-107624000D01*
X148074462Y-107624000D01*
X148118604Y-107628347D01*
X148118604Y-107628347D01*
G37*
G36*
X150918604Y-107628347D02*
G01*
X150955144Y-107639432D01*
X150988821Y-107657433D01*
X151018341Y-107681659D01*
X151042567Y-107711179D01*
X151060568Y-107744856D01*
X151071653Y-107781396D01*
X151076000Y-107825538D01*
X151076000Y-110174462D01*
X151071653Y-110218604D01*
X151060568Y-110255144D01*
X151042567Y-110288821D01*
X151018341Y-110318341D01*
X150988821Y-110342567D01*
X150955144Y-110360568D01*
X150918604Y-110371653D01*
X150874462Y-110376000D01*
X149925538Y-110376000D01*
X149881396Y-110371653D01*
X149844856Y-110360568D01*
X149811179Y-110342567D01*
X149781659Y-110318341D01*
X149757433Y-110288821D01*
X149739432Y-110255144D01*
X149728347Y-110218604D01*
X149724000Y-110174462D01*
X149724000Y-107825538D01*
X149728347Y-107781396D01*
X149739432Y-107744856D01*
X149757433Y-107711179D01*
X149781659Y-107681659D01*
X149811179Y-107657433D01*
X149844856Y-107639432D01*
X149881396Y-107628347D01*
X149925538Y-107624000D01*
X150874462Y-107624000D01*
X150918604Y-107628347D01*
X150918604Y-107628347D01*
G37*
G36*
X160781938Y-109671716D02*
G01*
X160802557Y-109677971D01*
X160821553Y-109688124D01*
X160838208Y-109701792D01*
X160851876Y-109718447D01*
X160862029Y-109737443D01*
X160868284Y-109758062D01*
X160871000Y-109785640D01*
X160871000Y-110244360D01*
X160868284Y-110271938D01*
X160862029Y-110292557D01*
X160851876Y-110311553D01*
X160838208Y-110328208D01*
X160821553Y-110341876D01*
X160802557Y-110352029D01*
X160781938Y-110358284D01*
X160754360Y-110361000D01*
X160245640Y-110361000D01*
X160218062Y-110358284D01*
X160197443Y-110352029D01*
X160178447Y-110341876D01*
X160161792Y-110328208D01*
X160148124Y-110311553D01*
X160137971Y-110292557D01*
X160131716Y-110271938D01*
X160129000Y-110244360D01*
X160129000Y-109785640D01*
X160131716Y-109758062D01*
X160137971Y-109737443D01*
X160148124Y-109718447D01*
X160161792Y-109701792D01*
X160178447Y-109688124D01*
X160197443Y-109677971D01*
X160218062Y-109671716D01*
X160245640Y-109669000D01*
X160754360Y-109669000D01*
X160781938Y-109671716D01*
X160781938Y-109671716D01*
G37*
G36*
X113781938Y-108641716D02*
G01*
X113802557Y-108647971D01*
X113821553Y-108658124D01*
X113838208Y-108671792D01*
X113851876Y-108688447D01*
X113862029Y-108707443D01*
X113868284Y-108728062D01*
X113871000Y-108755640D01*
X113871000Y-109214360D01*
X113868284Y-109241938D01*
X113862029Y-109262557D01*
X113851876Y-109281553D01*
X113838208Y-109298208D01*
X113821553Y-109311876D01*
X113802557Y-109322029D01*
X113781938Y-109328284D01*
X113754360Y-109331000D01*
X113245640Y-109331000D01*
X113218062Y-109328284D01*
X113197443Y-109322029D01*
X113178447Y-109311876D01*
X113161792Y-109298208D01*
X113148124Y-109281553D01*
X113137971Y-109262557D01*
X113131716Y-109241938D01*
X113129000Y-109214360D01*
X113129000Y-108755640D01*
X113131716Y-108728062D01*
X113137971Y-108707443D01*
X113148124Y-108688447D01*
X113161792Y-108671792D01*
X113178447Y-108658124D01*
X113197443Y-108647971D01*
X113218062Y-108641716D01*
X113245640Y-108639000D01*
X113754360Y-108639000D01*
X113781938Y-108641716D01*
X113781938Y-108641716D01*
G37*
G36*
X107626578Y-106693048D02*
G01*
X107699249Y-106715093D01*
X107766225Y-106750892D01*
X107824930Y-106799070D01*
X107873108Y-106857775D01*
X107908907Y-106924751D01*
X107930952Y-106997422D01*
X107939000Y-107079140D01*
X107939000Y-108092860D01*
X107930952Y-108174578D01*
X107908907Y-108247249D01*
X107873108Y-108314225D01*
X107824930Y-108372930D01*
X107766225Y-108421108D01*
X107699249Y-108456907D01*
X107626578Y-108478952D01*
X107544860Y-108487000D01*
X106031140Y-108487000D01*
X105949422Y-108478952D01*
X105876751Y-108456907D01*
X105809775Y-108421108D01*
X105751070Y-108372930D01*
X105702892Y-108314225D01*
X105667093Y-108247249D01*
X105645048Y-108174578D01*
X105637000Y-108092860D01*
X105637000Y-107079140D01*
X105645048Y-106997422D01*
X105667093Y-106924751D01*
X105702892Y-106857775D01*
X105751070Y-106799070D01*
X105809775Y-106750892D01*
X105876751Y-106715093D01*
X105949422Y-106693048D01*
X106031140Y-106685000D01*
X107544860Y-106685000D01*
X107626578Y-106693048D01*
X107626578Y-106693048D01*
G37*
G36*
X193986578Y-106607048D02*
G01*
X194059249Y-106629093D01*
X194126225Y-106664892D01*
X194184930Y-106713070D01*
X194233108Y-106771775D01*
X194268907Y-106838751D01*
X194290952Y-106911422D01*
X194299000Y-106993140D01*
X194299000Y-108006860D01*
X194290952Y-108088578D01*
X194268907Y-108161249D01*
X194233108Y-108228225D01*
X194184930Y-108286930D01*
X194126225Y-108335108D01*
X194059249Y-108370907D01*
X193986578Y-108392952D01*
X193904860Y-108401000D01*
X192391140Y-108401000D01*
X192309422Y-108392952D01*
X192236751Y-108370907D01*
X192169775Y-108335108D01*
X192111070Y-108286930D01*
X192062892Y-108228225D01*
X192027093Y-108161249D01*
X192005048Y-108088578D01*
X191997000Y-108006860D01*
X191997000Y-106993140D01*
X192005048Y-106911422D01*
X192027093Y-106838751D01*
X192062892Y-106771775D01*
X192111070Y-106713070D01*
X192169775Y-106664892D01*
X192236751Y-106629093D01*
X192309422Y-106607048D01*
X192391140Y-106599000D01*
X193904860Y-106599000D01*
X193986578Y-106607048D01*
X193986578Y-106607048D01*
G37*
G36*
X113781938Y-107671716D02*
G01*
X113802557Y-107677971D01*
X113821553Y-107688124D01*
X113838208Y-107701792D01*
X113851876Y-107718447D01*
X113862029Y-107737443D01*
X113868284Y-107758062D01*
X113871000Y-107785640D01*
X113871000Y-108244360D01*
X113868284Y-108271938D01*
X113862029Y-108292557D01*
X113851876Y-108311553D01*
X113838208Y-108328208D01*
X113821553Y-108341876D01*
X113802557Y-108352029D01*
X113781938Y-108358284D01*
X113754360Y-108361000D01*
X113245640Y-108361000D01*
X113218062Y-108358284D01*
X113197443Y-108352029D01*
X113178447Y-108341876D01*
X113161792Y-108328208D01*
X113148124Y-108311553D01*
X113137971Y-108292557D01*
X113131716Y-108271938D01*
X113129000Y-108244360D01*
X113129000Y-107785640D01*
X113131716Y-107758062D01*
X113137971Y-107737443D01*
X113148124Y-107718447D01*
X113161792Y-107701792D01*
X113178447Y-107688124D01*
X113197443Y-107677971D01*
X113218062Y-107671716D01*
X113245640Y-107669000D01*
X113754360Y-107669000D01*
X113781938Y-107671716D01*
X113781938Y-107671716D01*
G37*
G36*
X138771938Y-107131716D02*
G01*
X138792557Y-107137971D01*
X138811553Y-107148124D01*
X138828208Y-107161792D01*
X138841876Y-107178447D01*
X138852029Y-107197443D01*
X138858284Y-107218062D01*
X138861000Y-107245640D01*
X138861000Y-107754360D01*
X138858284Y-107781938D01*
X138852029Y-107802557D01*
X138841876Y-107821553D01*
X138828208Y-107838208D01*
X138811553Y-107851876D01*
X138792557Y-107862029D01*
X138771938Y-107868284D01*
X138744360Y-107871000D01*
X138285640Y-107871000D01*
X138258062Y-107868284D01*
X138237443Y-107862029D01*
X138218447Y-107851876D01*
X138201792Y-107838208D01*
X138188124Y-107821553D01*
X138177971Y-107802557D01*
X138171716Y-107781938D01*
X138169000Y-107754360D01*
X138169000Y-107245640D01*
X138171716Y-107218062D01*
X138177971Y-107197443D01*
X138188124Y-107178447D01*
X138201792Y-107161792D01*
X138218447Y-107148124D01*
X138237443Y-107137971D01*
X138258062Y-107131716D01*
X138285640Y-107129000D01*
X138744360Y-107129000D01*
X138771938Y-107131716D01*
X138771938Y-107131716D01*
G37*
G36*
X139741938Y-107131716D02*
G01*
X139762557Y-107137971D01*
X139781553Y-107148124D01*
X139798208Y-107161792D01*
X139811876Y-107178447D01*
X139822029Y-107197443D01*
X139828284Y-107218062D01*
X139831000Y-107245640D01*
X139831000Y-107754360D01*
X139828284Y-107781938D01*
X139822029Y-107802557D01*
X139811876Y-107821553D01*
X139798208Y-107838208D01*
X139781553Y-107851876D01*
X139762557Y-107862029D01*
X139741938Y-107868284D01*
X139714360Y-107871000D01*
X139255640Y-107871000D01*
X139228062Y-107868284D01*
X139207443Y-107862029D01*
X139188447Y-107851876D01*
X139171792Y-107838208D01*
X139158124Y-107821553D01*
X139147971Y-107802557D01*
X139141716Y-107781938D01*
X139139000Y-107754360D01*
X139139000Y-107245640D01*
X139141716Y-107218062D01*
X139147971Y-107197443D01*
X139158124Y-107178447D01*
X139171792Y-107161792D01*
X139188447Y-107148124D01*
X139207443Y-107137971D01*
X139228062Y-107131716D01*
X139255640Y-107129000D01*
X139714360Y-107129000D01*
X139741938Y-107131716D01*
X139741938Y-107131716D01*
G37*
G36*
X135629591Y-106478085D02*
G01*
X135663569Y-106488393D01*
X135694890Y-106505134D01*
X135722339Y-106527661D01*
X135744866Y-106555110D01*
X135761607Y-106586431D01*
X135771915Y-106620409D01*
X135776000Y-106661890D01*
X135776000Y-107338110D01*
X135771915Y-107379591D01*
X135761607Y-107413569D01*
X135744866Y-107444890D01*
X135722339Y-107472339D01*
X135694890Y-107494866D01*
X135663569Y-107511607D01*
X135629591Y-107521915D01*
X135588110Y-107526000D01*
X134986890Y-107526000D01*
X134945409Y-107521915D01*
X134911431Y-107511607D01*
X134880110Y-107494866D01*
X134852661Y-107472339D01*
X134830134Y-107444890D01*
X134813393Y-107413569D01*
X134803085Y-107379591D01*
X134799000Y-107338110D01*
X134799000Y-106661890D01*
X134803085Y-106620409D01*
X134813393Y-106586431D01*
X134830134Y-106555110D01*
X134852661Y-106527661D01*
X134880110Y-106505134D01*
X134911431Y-106488393D01*
X134945409Y-106478085D01*
X134986890Y-106474000D01*
X135588110Y-106474000D01*
X135629591Y-106478085D01*
X135629591Y-106478085D01*
G37*
G36*
X134054591Y-106478085D02*
G01*
X134088569Y-106488393D01*
X134119890Y-106505134D01*
X134147339Y-106527661D01*
X134169866Y-106555110D01*
X134186607Y-106586431D01*
X134196915Y-106620409D01*
X134201000Y-106661890D01*
X134201000Y-107338110D01*
X134196915Y-107379591D01*
X134186607Y-107413569D01*
X134169866Y-107444890D01*
X134147339Y-107472339D01*
X134119890Y-107494866D01*
X134088569Y-107511607D01*
X134054591Y-107521915D01*
X134013110Y-107526000D01*
X133411890Y-107526000D01*
X133370409Y-107521915D01*
X133336431Y-107511607D01*
X133305110Y-107494866D01*
X133277661Y-107472339D01*
X133255134Y-107444890D01*
X133238393Y-107413569D01*
X133228085Y-107379591D01*
X133224000Y-107338110D01*
X133224000Y-106661890D01*
X133228085Y-106620409D01*
X133238393Y-106586431D01*
X133255134Y-106555110D01*
X133277661Y-106527661D01*
X133305110Y-106505134D01*
X133336431Y-106488393D01*
X133370409Y-106478085D01*
X133411890Y-106474000D01*
X134013110Y-106474000D01*
X134054591Y-106478085D01*
X134054591Y-106478085D01*
G37*
G36*
X170281938Y-106641716D02*
G01*
X170302557Y-106647971D01*
X170321553Y-106658124D01*
X170338208Y-106671792D01*
X170351876Y-106688447D01*
X170362029Y-106707443D01*
X170368284Y-106728062D01*
X170371000Y-106755640D01*
X170371000Y-107214360D01*
X170368284Y-107241938D01*
X170362029Y-107262557D01*
X170351876Y-107281553D01*
X170338208Y-107298208D01*
X170321553Y-107311876D01*
X170302557Y-107322029D01*
X170281938Y-107328284D01*
X170254360Y-107331000D01*
X169745640Y-107331000D01*
X169718062Y-107328284D01*
X169697443Y-107322029D01*
X169678447Y-107311876D01*
X169661792Y-107298208D01*
X169648124Y-107281553D01*
X169637971Y-107262557D01*
X169631716Y-107241938D01*
X169629000Y-107214360D01*
X169629000Y-106755640D01*
X169631716Y-106728062D01*
X169637971Y-106707443D01*
X169648124Y-106688447D01*
X169661792Y-106671792D01*
X169678447Y-106658124D01*
X169697443Y-106647971D01*
X169718062Y-106641716D01*
X169745640Y-106639000D01*
X170254360Y-106639000D01*
X170281938Y-106641716D01*
X170281938Y-106641716D01*
G37*
G36*
X141426000Y-106901000D02*
G01*
X140674000Y-106901000D01*
X140674000Y-105099000D01*
X141426000Y-105099000D01*
X141426000Y-106901000D01*
X141426000Y-106901000D01*
G37*
G36*
X143326000Y-106901000D02*
G01*
X142574000Y-106901000D01*
X142574000Y-105099000D01*
X143326000Y-105099000D01*
X143326000Y-106901000D01*
X143326000Y-106901000D01*
G37*
G36*
X173618604Y-104128347D02*
G01*
X173655144Y-104139432D01*
X173688821Y-104157433D01*
X173718341Y-104181659D01*
X173742567Y-104211179D01*
X173760568Y-104244856D01*
X173771653Y-104281396D01*
X173776000Y-104325538D01*
X173776000Y-106674462D01*
X173771653Y-106718604D01*
X173760568Y-106755144D01*
X173742567Y-106788821D01*
X173718341Y-106818341D01*
X173688821Y-106842567D01*
X173655144Y-106860568D01*
X173618604Y-106871653D01*
X173574462Y-106876000D01*
X172625538Y-106876000D01*
X172581396Y-106871653D01*
X172544856Y-106860568D01*
X172511179Y-106842567D01*
X172481659Y-106818341D01*
X172457433Y-106788821D01*
X172439432Y-106755144D01*
X172428347Y-106718604D01*
X172424000Y-106674462D01*
X172424000Y-104325538D01*
X172428347Y-104281396D01*
X172439432Y-104244856D01*
X172457433Y-104211179D01*
X172481659Y-104181659D01*
X172511179Y-104157433D01*
X172544856Y-104139432D01*
X172581396Y-104128347D01*
X172625538Y-104124000D01*
X173574462Y-104124000D01*
X173618604Y-104128347D01*
X173618604Y-104128347D01*
G37*
G36*
X176418604Y-104128347D02*
G01*
X176455144Y-104139432D01*
X176488821Y-104157433D01*
X176518341Y-104181659D01*
X176542567Y-104211179D01*
X176560568Y-104244856D01*
X176571653Y-104281396D01*
X176576000Y-104325538D01*
X176576000Y-106674462D01*
X176571653Y-106718604D01*
X176560568Y-106755144D01*
X176542567Y-106788821D01*
X176518341Y-106818341D01*
X176488821Y-106842567D01*
X176455144Y-106860568D01*
X176418604Y-106871653D01*
X176374462Y-106876000D01*
X175425538Y-106876000D01*
X175381396Y-106871653D01*
X175344856Y-106860568D01*
X175311179Y-106842567D01*
X175281659Y-106818341D01*
X175257433Y-106788821D01*
X175239432Y-106755144D01*
X175228347Y-106718604D01*
X175224000Y-106674462D01*
X175224000Y-104325538D01*
X175228347Y-104281396D01*
X175239432Y-104244856D01*
X175257433Y-104211179D01*
X175281659Y-104181659D01*
X175311179Y-104157433D01*
X175344856Y-104139432D01*
X175381396Y-104128347D01*
X175425538Y-104124000D01*
X176374462Y-104124000D01*
X176418604Y-104128347D01*
X176418604Y-104128347D01*
G37*
G36*
X123741938Y-106131716D02*
G01*
X123762557Y-106137971D01*
X123781553Y-106148124D01*
X123798208Y-106161792D01*
X123811876Y-106178447D01*
X123822029Y-106197443D01*
X123828284Y-106218062D01*
X123831000Y-106245640D01*
X123831000Y-106754360D01*
X123828284Y-106781938D01*
X123822029Y-106802557D01*
X123811876Y-106821553D01*
X123798208Y-106838208D01*
X123781553Y-106851876D01*
X123762557Y-106862029D01*
X123741938Y-106868284D01*
X123714360Y-106871000D01*
X123255640Y-106871000D01*
X123228062Y-106868284D01*
X123207443Y-106862029D01*
X123188447Y-106851876D01*
X123171792Y-106838208D01*
X123158124Y-106821553D01*
X123147971Y-106802557D01*
X123141716Y-106781938D01*
X123139000Y-106754360D01*
X123139000Y-106245640D01*
X123141716Y-106218062D01*
X123147971Y-106197443D01*
X123158124Y-106178447D01*
X123171792Y-106161792D01*
X123188447Y-106148124D01*
X123207443Y-106137971D01*
X123228062Y-106131716D01*
X123255640Y-106129000D01*
X123714360Y-106129000D01*
X123741938Y-106131716D01*
X123741938Y-106131716D01*
G37*
G36*
X122771938Y-106131716D02*
G01*
X122792557Y-106137971D01*
X122811553Y-106148124D01*
X122828208Y-106161792D01*
X122841876Y-106178447D01*
X122852029Y-106197443D01*
X122858284Y-106218062D01*
X122861000Y-106245640D01*
X122861000Y-106754360D01*
X122858284Y-106781938D01*
X122852029Y-106802557D01*
X122841876Y-106821553D01*
X122828208Y-106838208D01*
X122811553Y-106851876D01*
X122792557Y-106862029D01*
X122771938Y-106868284D01*
X122744360Y-106871000D01*
X122285640Y-106871000D01*
X122258062Y-106868284D01*
X122237443Y-106862029D01*
X122218447Y-106851876D01*
X122201792Y-106838208D01*
X122188124Y-106821553D01*
X122177971Y-106802557D01*
X122171716Y-106781938D01*
X122169000Y-106754360D01*
X122169000Y-106245640D01*
X122171716Y-106218062D01*
X122177971Y-106197443D01*
X122188124Y-106178447D01*
X122201792Y-106161792D01*
X122218447Y-106148124D01*
X122237443Y-106137971D01*
X122258062Y-106131716D01*
X122285640Y-106129000D01*
X122744360Y-106129000D01*
X122771938Y-106131716D01*
X122771938Y-106131716D01*
G37*
G36*
X144771938Y-105631716D02*
G01*
X144792557Y-105637971D01*
X144811553Y-105648124D01*
X144828208Y-105661792D01*
X144841876Y-105678447D01*
X144852029Y-105697443D01*
X144858284Y-105718062D01*
X144861000Y-105745640D01*
X144861000Y-106254360D01*
X144858284Y-106281938D01*
X144852029Y-106302557D01*
X144841876Y-106321553D01*
X144828208Y-106338208D01*
X144811553Y-106351876D01*
X144792557Y-106362029D01*
X144771938Y-106368284D01*
X144744360Y-106371000D01*
X144285640Y-106371000D01*
X144258062Y-106368284D01*
X144237443Y-106362029D01*
X144218447Y-106351876D01*
X144201792Y-106338208D01*
X144188124Y-106321553D01*
X144177971Y-106302557D01*
X144171716Y-106281938D01*
X144169000Y-106254360D01*
X144169000Y-105745640D01*
X144171716Y-105718062D01*
X144177971Y-105697443D01*
X144188124Y-105678447D01*
X144201792Y-105661792D01*
X144218447Y-105648124D01*
X144237443Y-105637971D01*
X144258062Y-105631716D01*
X144285640Y-105629000D01*
X144744360Y-105629000D01*
X144771938Y-105631716D01*
X144771938Y-105631716D01*
G37*
G36*
X145741938Y-105631716D02*
G01*
X145762557Y-105637971D01*
X145781553Y-105648124D01*
X145798208Y-105661792D01*
X145811876Y-105678447D01*
X145822029Y-105697443D01*
X145828284Y-105718062D01*
X145831000Y-105745640D01*
X145831000Y-106254360D01*
X145828284Y-106281938D01*
X145822029Y-106302557D01*
X145811876Y-106321553D01*
X145798208Y-106338208D01*
X145781553Y-106351876D01*
X145762557Y-106362029D01*
X145741938Y-106368284D01*
X145714360Y-106371000D01*
X145255640Y-106371000D01*
X145228062Y-106368284D01*
X145207443Y-106362029D01*
X145188447Y-106351876D01*
X145171792Y-106338208D01*
X145158124Y-106321553D01*
X145147971Y-106302557D01*
X145141716Y-106281938D01*
X145139000Y-106254360D01*
X145139000Y-105745640D01*
X145141716Y-105718062D01*
X145147971Y-105697443D01*
X145158124Y-105678447D01*
X145171792Y-105661792D01*
X145188447Y-105648124D01*
X145207443Y-105637971D01*
X145228062Y-105631716D01*
X145255640Y-105629000D01*
X145714360Y-105629000D01*
X145741938Y-105631716D01*
X145741938Y-105631716D01*
G37*
G36*
X139741938Y-105631716D02*
G01*
X139762557Y-105637971D01*
X139781553Y-105648124D01*
X139798208Y-105661792D01*
X139811876Y-105678447D01*
X139822029Y-105697443D01*
X139828284Y-105718062D01*
X139831000Y-105745640D01*
X139831000Y-106254360D01*
X139828284Y-106281938D01*
X139822029Y-106302557D01*
X139811876Y-106321553D01*
X139798208Y-106338208D01*
X139781553Y-106351876D01*
X139762557Y-106362029D01*
X139741938Y-106368284D01*
X139714360Y-106371000D01*
X139255640Y-106371000D01*
X139228062Y-106368284D01*
X139207443Y-106362029D01*
X139188447Y-106351876D01*
X139171792Y-106338208D01*
X139158124Y-106321553D01*
X139147971Y-106302557D01*
X139141716Y-106281938D01*
X139139000Y-106254360D01*
X139139000Y-105745640D01*
X139141716Y-105718062D01*
X139147971Y-105697443D01*
X139158124Y-105678447D01*
X139171792Y-105661792D01*
X139188447Y-105648124D01*
X139207443Y-105637971D01*
X139228062Y-105631716D01*
X139255640Y-105629000D01*
X139714360Y-105629000D01*
X139741938Y-105631716D01*
X139741938Y-105631716D01*
G37*
G36*
X138771938Y-105631716D02*
G01*
X138792557Y-105637971D01*
X138811553Y-105648124D01*
X138828208Y-105661792D01*
X138841876Y-105678447D01*
X138852029Y-105697443D01*
X138858284Y-105718062D01*
X138861000Y-105745640D01*
X138861000Y-106254360D01*
X138858284Y-106281938D01*
X138852029Y-106302557D01*
X138841876Y-106321553D01*
X138828208Y-106338208D01*
X138811553Y-106351876D01*
X138792557Y-106362029D01*
X138771938Y-106368284D01*
X138744360Y-106371000D01*
X138285640Y-106371000D01*
X138258062Y-106368284D01*
X138237443Y-106362029D01*
X138218447Y-106351876D01*
X138201792Y-106338208D01*
X138188124Y-106321553D01*
X138177971Y-106302557D01*
X138171716Y-106281938D01*
X138169000Y-106254360D01*
X138169000Y-105745640D01*
X138171716Y-105718062D01*
X138177971Y-105697443D01*
X138188124Y-105678447D01*
X138201792Y-105661792D01*
X138218447Y-105648124D01*
X138237443Y-105637971D01*
X138258062Y-105631716D01*
X138285640Y-105629000D01*
X138744360Y-105629000D01*
X138771938Y-105631716D01*
X138771938Y-105631716D01*
G37*
G36*
X170281938Y-105671716D02*
G01*
X170302557Y-105677971D01*
X170321553Y-105688124D01*
X170338208Y-105701792D01*
X170351876Y-105718447D01*
X170362029Y-105737443D01*
X170368284Y-105758062D01*
X170371000Y-105785640D01*
X170371000Y-106244360D01*
X170368284Y-106271938D01*
X170362029Y-106292557D01*
X170351876Y-106311553D01*
X170338208Y-106328208D01*
X170321553Y-106341876D01*
X170302557Y-106352029D01*
X170281938Y-106358284D01*
X170254360Y-106361000D01*
X169745640Y-106361000D01*
X169718062Y-106358284D01*
X169697443Y-106352029D01*
X169678447Y-106341876D01*
X169661792Y-106328208D01*
X169648124Y-106311553D01*
X169637971Y-106292557D01*
X169631716Y-106271938D01*
X169629000Y-106244360D01*
X169629000Y-105785640D01*
X169631716Y-105758062D01*
X169637971Y-105737443D01*
X169648124Y-105718447D01*
X169661792Y-105701792D01*
X169678447Y-105688124D01*
X169697443Y-105677971D01*
X169718062Y-105671716D01*
X169745640Y-105669000D01*
X170254360Y-105669000D01*
X170281938Y-105671716D01*
X170281938Y-105671716D01*
G37*
G36*
X150309468Y-104753565D02*
G01*
X150348138Y-104765296D01*
X150383777Y-104784346D01*
X150415017Y-104809983D01*
X150440654Y-104841223D01*
X150459704Y-104876862D01*
X150471435Y-104915532D01*
X150476000Y-104961888D01*
X150476000Y-106038112D01*
X150471435Y-106084468D01*
X150459704Y-106123138D01*
X150440654Y-106158777D01*
X150415017Y-106190017D01*
X150383777Y-106215654D01*
X150348138Y-106234704D01*
X150309468Y-106246435D01*
X150263112Y-106251000D01*
X149611888Y-106251000D01*
X149565532Y-106246435D01*
X149526862Y-106234704D01*
X149491223Y-106215654D01*
X149459983Y-106190017D01*
X149434346Y-106158777D01*
X149415296Y-106123138D01*
X149403565Y-106084468D01*
X149399000Y-106038112D01*
X149399000Y-104961888D01*
X149403565Y-104915532D01*
X149415296Y-104876862D01*
X149434346Y-104841223D01*
X149459983Y-104809983D01*
X149491223Y-104784346D01*
X149526862Y-104765296D01*
X149565532Y-104753565D01*
X149611888Y-104749000D01*
X150263112Y-104749000D01*
X150309468Y-104753565D01*
X150309468Y-104753565D01*
G37*
G36*
X148434468Y-104753565D02*
G01*
X148473138Y-104765296D01*
X148508777Y-104784346D01*
X148540017Y-104809983D01*
X148565654Y-104841223D01*
X148584704Y-104876862D01*
X148596435Y-104915532D01*
X148601000Y-104961888D01*
X148601000Y-106038112D01*
X148596435Y-106084468D01*
X148584704Y-106123138D01*
X148565654Y-106158777D01*
X148540017Y-106190017D01*
X148508777Y-106215654D01*
X148473138Y-106234704D01*
X148434468Y-106246435D01*
X148388112Y-106251000D01*
X147736888Y-106251000D01*
X147690532Y-106246435D01*
X147651862Y-106234704D01*
X147616223Y-106215654D01*
X147584983Y-106190017D01*
X147559346Y-106158777D01*
X147540296Y-106123138D01*
X147528565Y-106084468D01*
X147524000Y-106038112D01*
X147524000Y-104961888D01*
X147528565Y-104915532D01*
X147540296Y-104876862D01*
X147559346Y-104841223D01*
X147584983Y-104809983D01*
X147616223Y-104784346D01*
X147651862Y-104765296D01*
X147690532Y-104753565D01*
X147736888Y-104749000D01*
X148388112Y-104749000D01*
X148434468Y-104753565D01*
X148434468Y-104753565D01*
G37*
G36*
X135241938Y-105131716D02*
G01*
X135262557Y-105137971D01*
X135281553Y-105148124D01*
X135298208Y-105161792D01*
X135311876Y-105178447D01*
X135322029Y-105197443D01*
X135328284Y-105218062D01*
X135331000Y-105245640D01*
X135331000Y-105754360D01*
X135328284Y-105781938D01*
X135322029Y-105802557D01*
X135311876Y-105821553D01*
X135298208Y-105838208D01*
X135281553Y-105851876D01*
X135262557Y-105862029D01*
X135241938Y-105868284D01*
X135214360Y-105871000D01*
X134755640Y-105871000D01*
X134728062Y-105868284D01*
X134707443Y-105862029D01*
X134688447Y-105851876D01*
X134671792Y-105838208D01*
X134658124Y-105821553D01*
X134647971Y-105802557D01*
X134641716Y-105781938D01*
X134639000Y-105754360D01*
X134639000Y-105245640D01*
X134641716Y-105218062D01*
X134647971Y-105197443D01*
X134658124Y-105178447D01*
X134671792Y-105161792D01*
X134688447Y-105148124D01*
X134707443Y-105137971D01*
X134728062Y-105131716D01*
X134755640Y-105129000D01*
X135214360Y-105129000D01*
X135241938Y-105131716D01*
X135241938Y-105131716D01*
G37*
G36*
X134271938Y-105131716D02*
G01*
X134292557Y-105137971D01*
X134311553Y-105148124D01*
X134328208Y-105161792D01*
X134341876Y-105178447D01*
X134352029Y-105197443D01*
X134358284Y-105218062D01*
X134361000Y-105245640D01*
X134361000Y-105754360D01*
X134358284Y-105781938D01*
X134352029Y-105802557D01*
X134341876Y-105821553D01*
X134328208Y-105838208D01*
X134311553Y-105851876D01*
X134292557Y-105862029D01*
X134271938Y-105868284D01*
X134244360Y-105871000D01*
X133785640Y-105871000D01*
X133758062Y-105868284D01*
X133737443Y-105862029D01*
X133718447Y-105851876D01*
X133701792Y-105838208D01*
X133688124Y-105821553D01*
X133677971Y-105802557D01*
X133671716Y-105781938D01*
X133669000Y-105754360D01*
X133669000Y-105245640D01*
X133671716Y-105218062D01*
X133677971Y-105197443D01*
X133688124Y-105178447D01*
X133701792Y-105161792D01*
X133718447Y-105148124D01*
X133737443Y-105137971D01*
X133758062Y-105131716D01*
X133785640Y-105129000D01*
X134244360Y-105129000D01*
X134271938Y-105131716D01*
X134271938Y-105131716D01*
G37*
G36*
X107548156Y-95672794D02*
G01*
X108269140Y-95816206D01*
X109060972Y-96144193D01*
X109773601Y-96620357D01*
X110379643Y-97226399D01*
X110855807Y-97939028D01*
X111183794Y-98730860D01*
X111351000Y-99571464D01*
X111351000Y-100428536D01*
X111183794Y-101269140D01*
X110855807Y-102060972D01*
X110379643Y-102773601D01*
X109773601Y-103379643D01*
X109060972Y-103855807D01*
X108269140Y-104183794D01*
X107548156Y-104327206D01*
X107428537Y-104351000D01*
X106571463Y-104351000D01*
X106451844Y-104327206D01*
X105730860Y-104183794D01*
X104939028Y-103855807D01*
X104226399Y-103379643D01*
X103620357Y-102773601D01*
X103144193Y-102060972D01*
X102816206Y-101269140D01*
X102649000Y-100428536D01*
X102649000Y-99571464D01*
X102816206Y-98730860D01*
X103144193Y-97939028D01*
X103620357Y-97226399D01*
X104226399Y-96620357D01*
X104939028Y-96144193D01*
X105730860Y-95816206D01*
X106451844Y-95672794D01*
X106571463Y-95649000D01*
X107428537Y-95649000D01*
X107548156Y-95672794D01*
X107548156Y-95672794D01*
G37*
G36*
X193548156Y-95672794D02*
G01*
X194269140Y-95816206D01*
X195060972Y-96144193D01*
X195773601Y-96620357D01*
X196379643Y-97226399D01*
X196855807Y-97939028D01*
X197183794Y-98730860D01*
X197351000Y-99571464D01*
X197351000Y-100428536D01*
X197183794Y-101269140D01*
X196855807Y-102060972D01*
X196379643Y-102773601D01*
X195773601Y-103379643D01*
X195060972Y-103855807D01*
X194269140Y-104183794D01*
X193548156Y-104327206D01*
X193428537Y-104351000D01*
X192571463Y-104351000D01*
X192451844Y-104327206D01*
X191730860Y-104183794D01*
X190939028Y-103855807D01*
X190226399Y-103379643D01*
X189620357Y-102773601D01*
X189144193Y-102060972D01*
X188816206Y-101269140D01*
X188649000Y-100428536D01*
X188649000Y-99571464D01*
X188816206Y-98730860D01*
X189144193Y-97939028D01*
X189620357Y-97226399D01*
X190226399Y-96620357D01*
X190939028Y-96144193D01*
X191730860Y-95816206D01*
X192451844Y-95672794D01*
X192571463Y-95649000D01*
X193428537Y-95649000D01*
X193548156Y-95672794D01*
X193548156Y-95672794D01*
G37*
G36*
X133583126Y-99973698D02*
G01*
X133583730Y-99973757D01*
X133604460Y-99977881D01*
X133622842Y-99985495D01*
X133631013Y-99990955D01*
X133652623Y-100002506D01*
X133676072Y-100009620D01*
X133700458Y-100012023D01*
X133724844Y-100009622D01*
X133748293Y-100002510D01*
X133769904Y-99990959D01*
X133779761Y-99983649D01*
X133785670Y-99978800D01*
X133789971Y-99976501D01*
X133794645Y-99975083D01*
X133805641Y-99974000D01*
X134094359Y-99974000D01*
X134105355Y-99975083D01*
X134110029Y-99976501D01*
X134116076Y-99979733D01*
X134138715Y-99989111D01*
X134162748Y-99993891D01*
X134187252Y-99993891D01*
X134211285Y-99989111D01*
X134233924Y-99979733D01*
X134239971Y-99976501D01*
X134244645Y-99975083D01*
X134255641Y-99974000D01*
X134544359Y-99974000D01*
X134555355Y-99975083D01*
X134560029Y-99976501D01*
X134566076Y-99979733D01*
X134588715Y-99989111D01*
X134612748Y-99993891D01*
X134637252Y-99993891D01*
X134661285Y-99989111D01*
X134683924Y-99979733D01*
X134689971Y-99976501D01*
X134694645Y-99975083D01*
X134705641Y-99974000D01*
X134994359Y-99974000D01*
X135005355Y-99975083D01*
X135010029Y-99976501D01*
X135014330Y-99978800D01*
X135020239Y-99983649D01*
X135040614Y-99997263D01*
X135063253Y-100006641D01*
X135087286Y-100011421D01*
X135111790Y-100011421D01*
X135135823Y-100006641D01*
X135158462Y-99997263D01*
X135168987Y-99990955D01*
X135177158Y-99985495D01*
X135195540Y-99977881D01*
X135216270Y-99973757D01*
X135216874Y-99973698D01*
X135228062Y-99973148D01*
X135371938Y-99973148D01*
X135383126Y-99973698D01*
X135383730Y-99973757D01*
X135404460Y-99977881D01*
X135422842Y-99985495D01*
X135439386Y-99996550D01*
X135453450Y-100010614D01*
X135464505Y-100027158D01*
X135472119Y-100045540D01*
X135476243Y-100066270D01*
X135476302Y-100066874D01*
X135476852Y-100078062D01*
X135476852Y-100698149D01*
X135479254Y-100722535D01*
X135486367Y-100745984D01*
X135497918Y-100767595D01*
X135513463Y-100786537D01*
X135532405Y-100802082D01*
X135554016Y-100813633D01*
X135577465Y-100820746D01*
X135601851Y-100823148D01*
X136221938Y-100823148D01*
X136233126Y-100823698D01*
X136233730Y-100823757D01*
X136254460Y-100827881D01*
X136272842Y-100835495D01*
X136289386Y-100846550D01*
X136303450Y-100860614D01*
X136314505Y-100877158D01*
X136322119Y-100895540D01*
X136326243Y-100916270D01*
X136326302Y-100916874D01*
X136326852Y-100928062D01*
X136326852Y-101071938D01*
X136326302Y-101083126D01*
X136326243Y-101083730D01*
X136322119Y-101104460D01*
X136314505Y-101122842D01*
X136309045Y-101131013D01*
X136297494Y-101152623D01*
X136290380Y-101176072D01*
X136287977Y-101200458D01*
X136290378Y-101224844D01*
X136297490Y-101248293D01*
X136309041Y-101269904D01*
X136316351Y-101279761D01*
X136321200Y-101285670D01*
X136323499Y-101289971D01*
X136324917Y-101294645D01*
X136326000Y-101305641D01*
X136326000Y-101594359D01*
X136324917Y-101605355D01*
X136323499Y-101610029D01*
X136320267Y-101616076D01*
X136310889Y-101638715D01*
X136306109Y-101662748D01*
X136306109Y-101687252D01*
X136310889Y-101711285D01*
X136320267Y-101733924D01*
X136323499Y-101739971D01*
X136324917Y-101744645D01*
X136326000Y-101755641D01*
X136326000Y-102044359D01*
X136324917Y-102055355D01*
X136323499Y-102060029D01*
X136320267Y-102066076D01*
X136310889Y-102088715D01*
X136306109Y-102112748D01*
X136306109Y-102137252D01*
X136310889Y-102161285D01*
X136320267Y-102183924D01*
X136323499Y-102189971D01*
X136324917Y-102194645D01*
X136326000Y-102205641D01*
X136326000Y-102494359D01*
X136324917Y-102505355D01*
X136323499Y-102510029D01*
X136321200Y-102514330D01*
X136316351Y-102520239D01*
X136302737Y-102540614D01*
X136293359Y-102563253D01*
X136288579Y-102587286D01*
X136288579Y-102611790D01*
X136293359Y-102635823D01*
X136302737Y-102658462D01*
X136309045Y-102668987D01*
X136314505Y-102677158D01*
X136322119Y-102695540D01*
X136326243Y-102716270D01*
X136326302Y-102716874D01*
X136326852Y-102728062D01*
X136326852Y-102871938D01*
X136326302Y-102883126D01*
X136326243Y-102883730D01*
X136322119Y-102904460D01*
X136314505Y-102922842D01*
X136303450Y-102939386D01*
X136289386Y-102953450D01*
X136272842Y-102964505D01*
X136254460Y-102972119D01*
X136233730Y-102976243D01*
X136233126Y-102976302D01*
X136221938Y-102976852D01*
X135601851Y-102976852D01*
X135577465Y-102979254D01*
X135554016Y-102986367D01*
X135532405Y-102997918D01*
X135513463Y-103013463D01*
X135497918Y-103032405D01*
X135486367Y-103054016D01*
X135479254Y-103077465D01*
X135476852Y-103101851D01*
X135476852Y-103721938D01*
X135476302Y-103733126D01*
X135476243Y-103733730D01*
X135472119Y-103754460D01*
X135464505Y-103772842D01*
X135453450Y-103789386D01*
X135439386Y-103803450D01*
X135422842Y-103814505D01*
X135404460Y-103822119D01*
X135383730Y-103826243D01*
X135383126Y-103826302D01*
X135371938Y-103826852D01*
X135228062Y-103826852D01*
X135216874Y-103826302D01*
X135216270Y-103826243D01*
X135195540Y-103822119D01*
X135177158Y-103814505D01*
X135168987Y-103809045D01*
X135147377Y-103797494D01*
X135123928Y-103790380D01*
X135099542Y-103787977D01*
X135075156Y-103790378D01*
X135051707Y-103797490D01*
X135030096Y-103809041D01*
X135020239Y-103816351D01*
X135014330Y-103821200D01*
X135010029Y-103823499D01*
X135005355Y-103824917D01*
X134994359Y-103826000D01*
X134705641Y-103826000D01*
X134694645Y-103824917D01*
X134689971Y-103823499D01*
X134683924Y-103820267D01*
X134661285Y-103810889D01*
X134637252Y-103806109D01*
X134612748Y-103806109D01*
X134588715Y-103810889D01*
X134566076Y-103820267D01*
X134560029Y-103823499D01*
X134555355Y-103824917D01*
X134544359Y-103826000D01*
X134255641Y-103826000D01*
X134244645Y-103824917D01*
X134239971Y-103823499D01*
X134233924Y-103820267D01*
X134211285Y-103810889D01*
X134187252Y-103806109D01*
X134162748Y-103806109D01*
X134138715Y-103810889D01*
X134116076Y-103820267D01*
X134110029Y-103823499D01*
X134105355Y-103824917D01*
X134094359Y-103826000D01*
X133805641Y-103826000D01*
X133794645Y-103824917D01*
X133789971Y-103823499D01*
X133785670Y-103821200D01*
X133779761Y-103816351D01*
X133759386Y-103802737D01*
X133736747Y-103793359D01*
X133712714Y-103788579D01*
X133688210Y-103788579D01*
X133664177Y-103793359D01*
X133641538Y-103802737D01*
X133631013Y-103809045D01*
X133622842Y-103814505D01*
X133604460Y-103822119D01*
X133583730Y-103826243D01*
X133583126Y-103826302D01*
X133571938Y-103826852D01*
X133428062Y-103826852D01*
X133416874Y-103826302D01*
X133416270Y-103826243D01*
X133395540Y-103822119D01*
X133377158Y-103814505D01*
X133360614Y-103803450D01*
X133346550Y-103789386D01*
X133335495Y-103772842D01*
X133327881Y-103754460D01*
X133323757Y-103733730D01*
X133323698Y-103733126D01*
X133323148Y-103721938D01*
X133323148Y-103101851D01*
X133320746Y-103077465D01*
X133313633Y-103054016D01*
X133302082Y-103032405D01*
X133286537Y-103013463D01*
X133267595Y-102997918D01*
X133245984Y-102986367D01*
X133222535Y-102979254D01*
X133198149Y-102976852D01*
X132578062Y-102976852D01*
X132566874Y-102976302D01*
X132566270Y-102976243D01*
X132545540Y-102972119D01*
X132527158Y-102964505D01*
X132510614Y-102953450D01*
X132496550Y-102939386D01*
X132485495Y-102922842D01*
X132477881Y-102904460D01*
X132473757Y-102883730D01*
X132473698Y-102883126D01*
X132473148Y-102871938D01*
X132473148Y-102728062D01*
X132473698Y-102716874D01*
X132473757Y-102716270D01*
X132477881Y-102695540D01*
X132485495Y-102677158D01*
X132490955Y-102668987D01*
X132502506Y-102647377D01*
X132509620Y-102623928D01*
X132512023Y-102599542D01*
X132509622Y-102575156D01*
X132502510Y-102551707D01*
X132490959Y-102530096D01*
X132483649Y-102520239D01*
X132478800Y-102514330D01*
X132476501Y-102510029D01*
X132475083Y-102505355D01*
X132474000Y-102494359D01*
X132474000Y-102205641D01*
X132475083Y-102194645D01*
X132476501Y-102189971D01*
X132479733Y-102183924D01*
X132489111Y-102161285D01*
X132493891Y-102137252D01*
X132493891Y-102112748D01*
X132489111Y-102088715D01*
X132479733Y-102066076D01*
X132476501Y-102060029D01*
X132475083Y-102055355D01*
X132474000Y-102044359D01*
X132474000Y-101755641D01*
X132475083Y-101744645D01*
X132476501Y-101739971D01*
X132479733Y-101733924D01*
X132489111Y-101711285D01*
X132493891Y-101687252D01*
X132493891Y-101662748D01*
X132489111Y-101638715D01*
X132479733Y-101616076D01*
X132476501Y-101610029D01*
X132475083Y-101605355D01*
X132474000Y-101594359D01*
X132474000Y-101305641D01*
X132475083Y-101294645D01*
X132476501Y-101289971D01*
X132478800Y-101285670D01*
X132483649Y-101279761D01*
X132497263Y-101259386D01*
X132506641Y-101236747D01*
X132511421Y-101212714D01*
X132511421Y-101188210D01*
X132506641Y-101164177D01*
X132497263Y-101141538D01*
X132490955Y-101131013D01*
X132485495Y-101122842D01*
X132477881Y-101104460D01*
X132473757Y-101083730D01*
X132473698Y-101083126D01*
X132473148Y-101071938D01*
X132473148Y-100928062D01*
X132473698Y-100916874D01*
X132473757Y-100916270D01*
X132477881Y-100895540D01*
X132485495Y-100877158D01*
X132496550Y-100860614D01*
X132510614Y-100846550D01*
X132527158Y-100835495D01*
X132545540Y-100827881D01*
X132566270Y-100823757D01*
X132566874Y-100823698D01*
X132578062Y-100823148D01*
X133198149Y-100823148D01*
X133222535Y-100820746D01*
X133245984Y-100813633D01*
X133267595Y-100802082D01*
X133286537Y-100786537D01*
X133302082Y-100767595D01*
X133313633Y-100745984D01*
X133320746Y-100722535D01*
X133323148Y-100698149D01*
X133323148Y-100078062D01*
X133323698Y-100066874D01*
X133323757Y-100066270D01*
X133327881Y-100045540D01*
X133335495Y-100027158D01*
X133346550Y-100010614D01*
X133360614Y-99996550D01*
X133377158Y-99985495D01*
X133395540Y-99977881D01*
X133416270Y-99973757D01*
X133416874Y-99973698D01*
X133428062Y-99973148D01*
X133571938Y-99973148D01*
X133583126Y-99973698D01*
X133583126Y-99973698D01*
G37*
G36*
X139941938Y-102131716D02*
G01*
X139962557Y-102137971D01*
X139981553Y-102148124D01*
X139998208Y-102161792D01*
X140011876Y-102178447D01*
X140022029Y-102197443D01*
X140028284Y-102218062D01*
X140031000Y-102245640D01*
X140031000Y-102754360D01*
X140028284Y-102781938D01*
X140022029Y-102802557D01*
X140011876Y-102821553D01*
X139998208Y-102838208D01*
X139981553Y-102851876D01*
X139962557Y-102862029D01*
X139941938Y-102868284D01*
X139914360Y-102871000D01*
X139455640Y-102871000D01*
X139428062Y-102868284D01*
X139407443Y-102862029D01*
X139388447Y-102851876D01*
X139371792Y-102838208D01*
X139358124Y-102821553D01*
X139347971Y-102802557D01*
X139341716Y-102781938D01*
X139339000Y-102754360D01*
X139339000Y-102245640D01*
X139341716Y-102218062D01*
X139347971Y-102197443D01*
X139358124Y-102178447D01*
X139371792Y-102161792D01*
X139388447Y-102148124D01*
X139407443Y-102137971D01*
X139428062Y-102131716D01*
X139455640Y-102129000D01*
X139914360Y-102129000D01*
X139941938Y-102131716D01*
X139941938Y-102131716D01*
G37*
G36*
X138971938Y-102131716D02*
G01*
X138992557Y-102137971D01*
X139011553Y-102148124D01*
X139028208Y-102161792D01*
X139041876Y-102178447D01*
X139052029Y-102197443D01*
X139058284Y-102218062D01*
X139061000Y-102245640D01*
X139061000Y-102754360D01*
X139058284Y-102781938D01*
X139052029Y-102802557D01*
X139041876Y-102821553D01*
X139028208Y-102838208D01*
X139011553Y-102851876D01*
X138992557Y-102862029D01*
X138971938Y-102868284D01*
X138944360Y-102871000D01*
X138485640Y-102871000D01*
X138458062Y-102868284D01*
X138437443Y-102862029D01*
X138418447Y-102851876D01*
X138401792Y-102838208D01*
X138388124Y-102821553D01*
X138377971Y-102802557D01*
X138371716Y-102781938D01*
X138369000Y-102754360D01*
X138369000Y-102245640D01*
X138371716Y-102218062D01*
X138377971Y-102197443D01*
X138388124Y-102178447D01*
X138401792Y-102161792D01*
X138418447Y-102148124D01*
X138437443Y-102137971D01*
X138458062Y-102131716D01*
X138485640Y-102129000D01*
X138944360Y-102129000D01*
X138971938Y-102131716D01*
X138971938Y-102131716D01*
G37*
G36*
X175809468Y-101253565D02*
G01*
X175848138Y-101265296D01*
X175883777Y-101284346D01*
X175915017Y-101309983D01*
X175940654Y-101341223D01*
X175959704Y-101376862D01*
X175971435Y-101415532D01*
X175976000Y-101461888D01*
X175976000Y-102538112D01*
X175971435Y-102584468D01*
X175959704Y-102623138D01*
X175940654Y-102658777D01*
X175915017Y-102690017D01*
X175883777Y-102715654D01*
X175848138Y-102734704D01*
X175809468Y-102746435D01*
X175763112Y-102751000D01*
X175111888Y-102751000D01*
X175065532Y-102746435D01*
X175026862Y-102734704D01*
X174991223Y-102715654D01*
X174959983Y-102690017D01*
X174934346Y-102658777D01*
X174915296Y-102623138D01*
X174903565Y-102584468D01*
X174899000Y-102538112D01*
X174899000Y-101461888D01*
X174903565Y-101415532D01*
X174915296Y-101376862D01*
X174934346Y-101341223D01*
X174959983Y-101309983D01*
X174991223Y-101284346D01*
X175026862Y-101265296D01*
X175065532Y-101253565D01*
X175111888Y-101249000D01*
X175763112Y-101249000D01*
X175809468Y-101253565D01*
X175809468Y-101253565D01*
G37*
G36*
X173934468Y-101253565D02*
G01*
X173973138Y-101265296D01*
X174008777Y-101284346D01*
X174040017Y-101309983D01*
X174065654Y-101341223D01*
X174084704Y-101376862D01*
X174096435Y-101415532D01*
X174101000Y-101461888D01*
X174101000Y-102538112D01*
X174096435Y-102584468D01*
X174084704Y-102623138D01*
X174065654Y-102658777D01*
X174040017Y-102690017D01*
X174008777Y-102715654D01*
X173973138Y-102734704D01*
X173934468Y-102746435D01*
X173888112Y-102751000D01*
X173236888Y-102751000D01*
X173190532Y-102746435D01*
X173151862Y-102734704D01*
X173116223Y-102715654D01*
X173084983Y-102690017D01*
X173059346Y-102658777D01*
X173040296Y-102623138D01*
X173028565Y-102584468D01*
X173024000Y-102538112D01*
X173024000Y-101461888D01*
X173028565Y-101415532D01*
X173040296Y-101376862D01*
X173059346Y-101341223D01*
X173084983Y-101309983D01*
X173116223Y-101284346D01*
X173151862Y-101265296D01*
X173190532Y-101253565D01*
X173236888Y-101249000D01*
X173888112Y-101249000D01*
X173934468Y-101253565D01*
X173934468Y-101253565D01*
G37*
G36*
X139941938Y-100631716D02*
G01*
X139962557Y-100637971D01*
X139981553Y-100648124D01*
X139998208Y-100661792D01*
X140011876Y-100678447D01*
X140022029Y-100697443D01*
X140028284Y-100718062D01*
X140031000Y-100745640D01*
X140031000Y-101254360D01*
X140028284Y-101281938D01*
X140022029Y-101302557D01*
X140011876Y-101321553D01*
X139998208Y-101338208D01*
X139981553Y-101351876D01*
X139962557Y-101362029D01*
X139941938Y-101368284D01*
X139914360Y-101371000D01*
X139455640Y-101371000D01*
X139428062Y-101368284D01*
X139407443Y-101362029D01*
X139388447Y-101351876D01*
X139371792Y-101338208D01*
X139358124Y-101321553D01*
X139347971Y-101302557D01*
X139341716Y-101281938D01*
X139339000Y-101254360D01*
X139339000Y-100745640D01*
X139341716Y-100718062D01*
X139347971Y-100697443D01*
X139358124Y-100678447D01*
X139371792Y-100661792D01*
X139388447Y-100648124D01*
X139407443Y-100637971D01*
X139428062Y-100631716D01*
X139455640Y-100629000D01*
X139914360Y-100629000D01*
X139941938Y-100631716D01*
X139941938Y-100631716D01*
G37*
G36*
X138971938Y-100631716D02*
G01*
X138992557Y-100637971D01*
X139011553Y-100648124D01*
X139028208Y-100661792D01*
X139041876Y-100678447D01*
X139052029Y-100697443D01*
X139058284Y-100718062D01*
X139061000Y-100745640D01*
X139061000Y-101254360D01*
X139058284Y-101281938D01*
X139052029Y-101302557D01*
X139041876Y-101321553D01*
X139028208Y-101338208D01*
X139011553Y-101351876D01*
X138992557Y-101362029D01*
X138971938Y-101368284D01*
X138944360Y-101371000D01*
X138485640Y-101371000D01*
X138458062Y-101368284D01*
X138437443Y-101362029D01*
X138418447Y-101351876D01*
X138401792Y-101338208D01*
X138388124Y-101321553D01*
X138377971Y-101302557D01*
X138371716Y-101281938D01*
X138369000Y-101254360D01*
X138369000Y-100745640D01*
X138371716Y-100718062D01*
X138377971Y-100697443D01*
X138388124Y-100678447D01*
X138401792Y-100661792D01*
X138418447Y-100648124D01*
X138437443Y-100637971D01*
X138458062Y-100631716D01*
X138485640Y-100629000D01*
X138944360Y-100629000D01*
X138971938Y-100631716D01*
X138971938Y-100631716D01*
G37*
G36*
X153554591Y-98478085D02*
G01*
X153588569Y-98488393D01*
X153619890Y-98505134D01*
X153647339Y-98527661D01*
X153669866Y-98555110D01*
X153686607Y-98586431D01*
X153696915Y-98620409D01*
X153701000Y-98661890D01*
X153701000Y-99338110D01*
X153696915Y-99379591D01*
X153686607Y-99413569D01*
X153669866Y-99444890D01*
X153647339Y-99472339D01*
X153619890Y-99494866D01*
X153588569Y-99511607D01*
X153554591Y-99521915D01*
X153513110Y-99526000D01*
X152911890Y-99526000D01*
X152870409Y-99521915D01*
X152836431Y-99511607D01*
X152805110Y-99494866D01*
X152777661Y-99472339D01*
X152755134Y-99444890D01*
X152738393Y-99413569D01*
X152728085Y-99379591D01*
X152724000Y-99338110D01*
X152724000Y-98661890D01*
X152728085Y-98620409D01*
X152738393Y-98586431D01*
X152755134Y-98555110D01*
X152777661Y-98527661D01*
X152805110Y-98505134D01*
X152836431Y-98488393D01*
X152870409Y-98478085D01*
X152911890Y-98474000D01*
X153513110Y-98474000D01*
X153554591Y-98478085D01*
X153554591Y-98478085D01*
G37*
G36*
X155129591Y-98478085D02*
G01*
X155163569Y-98488393D01*
X155194890Y-98505134D01*
X155222339Y-98527661D01*
X155244866Y-98555110D01*
X155261607Y-98586431D01*
X155271915Y-98620409D01*
X155276000Y-98661890D01*
X155276000Y-99338110D01*
X155271915Y-99379591D01*
X155261607Y-99413569D01*
X155244866Y-99444890D01*
X155222339Y-99472339D01*
X155194890Y-99494866D01*
X155163569Y-99511607D01*
X155129591Y-99521915D01*
X155088110Y-99526000D01*
X154486890Y-99526000D01*
X154445409Y-99521915D01*
X154411431Y-99511607D01*
X154380110Y-99494866D01*
X154352661Y-99472339D01*
X154330134Y-99444890D01*
X154313393Y-99413569D01*
X154303085Y-99379591D01*
X154299000Y-99338110D01*
X154299000Y-98661890D01*
X154303085Y-98620409D01*
X154313393Y-98586431D01*
X154330134Y-98555110D01*
X154352661Y-98527661D01*
X154380110Y-98505134D01*
X154411431Y-98488393D01*
X154445409Y-98478085D01*
X154486890Y-98474000D01*
X155088110Y-98474000D01*
X155129591Y-98478085D01*
X155129591Y-98478085D01*
G37*
G36*
X150551000Y-96151000D02*
G01*
X149449000Y-96151000D01*
X149449000Y-92899000D01*
X150551000Y-92899000D01*
X150551000Y-96151000D01*
X150551000Y-96151000D01*
G37*
G36*
X155631000Y-96151000D02*
G01*
X154529000Y-96151000D01*
X154529000Y-92899000D01*
X155631000Y-92899000D01*
X155631000Y-96151000D01*
X155631000Y-96151000D01*
G37*
G36*
X153091000Y-96151000D02*
G01*
X151989000Y-96151000D01*
X151989000Y-92899000D01*
X153091000Y-92899000D01*
X153091000Y-96151000D01*
X153091000Y-96151000D01*
G37*
G36*
X148011000Y-96150999D02*
G01*
X146909000Y-96150999D01*
X146909000Y-92899001D01*
X148011000Y-92899001D01*
X148011000Y-96150999D01*
X148011000Y-96150999D01*
G37*
G36*
X145471000Y-96150999D02*
G01*
X144369000Y-96150999D01*
X144369000Y-92899001D01*
X145471000Y-92899001D01*
X145471000Y-96150999D01*
X145471000Y-96150999D01*
G37*
G36*
X193986578Y-91627048D02*
G01*
X194059249Y-91649093D01*
X194126225Y-91684892D01*
X194184930Y-91733070D01*
X194233108Y-91791775D01*
X194268907Y-91858751D01*
X194290952Y-91931422D01*
X194299000Y-92013140D01*
X194299000Y-93026860D01*
X194290952Y-93108578D01*
X194268907Y-93181249D01*
X194233108Y-93248225D01*
X194184930Y-93306930D01*
X194126225Y-93355108D01*
X194059249Y-93390907D01*
X193986578Y-93412952D01*
X193904860Y-93421000D01*
X192391140Y-93421000D01*
X192309422Y-93412952D01*
X192236751Y-93390907D01*
X192169775Y-93355108D01*
X192111070Y-93306930D01*
X192062892Y-93248225D01*
X192027093Y-93181249D01*
X192005048Y-93108578D01*
X191997000Y-93026860D01*
X191997000Y-92013140D01*
X192005048Y-91931422D01*
X192027093Y-91858751D01*
X192062892Y-91791775D01*
X192111070Y-91733070D01*
X192169775Y-91684892D01*
X192236751Y-91649093D01*
X192309422Y-91627048D01*
X192391140Y-91619000D01*
X193904860Y-91619000D01*
X193986578Y-91627048D01*
X193986578Y-91627048D01*
G37*
G36*
X107626578Y-91607048D02*
G01*
X107699249Y-91629093D01*
X107766225Y-91664892D01*
X107824930Y-91713070D01*
X107873108Y-91771775D01*
X107908907Y-91838751D01*
X107930952Y-91911422D01*
X107939000Y-91993140D01*
X107939000Y-93006860D01*
X107930952Y-93088578D01*
X107908907Y-93161249D01*
X107873108Y-93228225D01*
X107824930Y-93286930D01*
X107766225Y-93335108D01*
X107699249Y-93370907D01*
X107626578Y-93392952D01*
X107544860Y-93401000D01*
X106031140Y-93401000D01*
X105949422Y-93392952D01*
X105876751Y-93370907D01*
X105809775Y-93335108D01*
X105751070Y-93286930D01*
X105702892Y-93228225D01*
X105667093Y-93161249D01*
X105645048Y-93088578D01*
X105637000Y-93006860D01*
X105637000Y-91993140D01*
X105645048Y-91911422D01*
X105667093Y-91838751D01*
X105702892Y-91771775D01*
X105751070Y-91713070D01*
X105809775Y-91664892D01*
X105876751Y-91629093D01*
X105949422Y-91607048D01*
X106031140Y-91599000D01*
X107544860Y-91599000D01*
X107626578Y-91607048D01*
X107626578Y-91607048D01*
G37*
G36*
X186781938Y-91641716D02*
G01*
X186802557Y-91647971D01*
X186821553Y-91658124D01*
X186838208Y-91671792D01*
X186851876Y-91688447D01*
X186862029Y-91707443D01*
X186868284Y-91728062D01*
X186871000Y-91755640D01*
X186871000Y-92214360D01*
X186868284Y-92241938D01*
X186862029Y-92262557D01*
X186851876Y-92281553D01*
X186838208Y-92298208D01*
X186821553Y-92311876D01*
X186802557Y-92322029D01*
X186781938Y-92328284D01*
X186754360Y-92331000D01*
X186245640Y-92331000D01*
X186218062Y-92328284D01*
X186197443Y-92322029D01*
X186178447Y-92311876D01*
X186161792Y-92298208D01*
X186148124Y-92281553D01*
X186137971Y-92262557D01*
X186131716Y-92241938D01*
X186129000Y-92214360D01*
X186129000Y-91755640D01*
X186131716Y-91728062D01*
X186137971Y-91707443D01*
X186148124Y-91688447D01*
X186161792Y-91671792D01*
X186178447Y-91658124D01*
X186197443Y-91647971D01*
X186218062Y-91641716D01*
X186245640Y-91639000D01*
X186754360Y-91639000D01*
X186781938Y-91641716D01*
X186781938Y-91641716D01*
G37*
G36*
X186781938Y-90671716D02*
G01*
X186802557Y-90677971D01*
X186821553Y-90688124D01*
X186838208Y-90701792D01*
X186851876Y-90718447D01*
X186862029Y-90737443D01*
X186868284Y-90758062D01*
X186871000Y-90785640D01*
X186871000Y-91244360D01*
X186868284Y-91271938D01*
X186862029Y-91292557D01*
X186851876Y-91311553D01*
X186838208Y-91328208D01*
X186821553Y-91341876D01*
X186802557Y-91352029D01*
X186781938Y-91358284D01*
X186754360Y-91361000D01*
X186245640Y-91361000D01*
X186218062Y-91358284D01*
X186197443Y-91352029D01*
X186178447Y-91341876D01*
X186161792Y-91328208D01*
X186148124Y-91311553D01*
X186137971Y-91292557D01*
X186131716Y-91271938D01*
X186129000Y-91244360D01*
X186129000Y-90785640D01*
X186131716Y-90758062D01*
X186137971Y-90737443D01*
X186148124Y-90718447D01*
X186161792Y-90701792D01*
X186178447Y-90688124D01*
X186197443Y-90677971D01*
X186218062Y-90671716D01*
X186245640Y-90669000D01*
X186754360Y-90669000D01*
X186781938Y-90671716D01*
X186781938Y-90671716D01*
G37*
G36*
X155631000Y-91101000D02*
G01*
X154529000Y-91101000D01*
X154529000Y-87849000D01*
X155631000Y-87849000D01*
X155631000Y-91101000D01*
X155631000Y-91101000D01*
G37*
G36*
X150551000Y-91101000D02*
G01*
X149449000Y-91101000D01*
X149449000Y-87849000D01*
X150551000Y-87849000D01*
X150551000Y-91101000D01*
X150551000Y-91101000D01*
G37*
G36*
X148011000Y-91101000D02*
G01*
X146909000Y-91101000D01*
X146909000Y-87849000D01*
X148011000Y-87849000D01*
X148011000Y-91101000D01*
X148011000Y-91101000D01*
G37*
G36*
X145471000Y-91101000D02*
G01*
X144369000Y-91101000D01*
X144369000Y-87849000D01*
X145471000Y-87849000D01*
X145471000Y-91101000D01*
X145471000Y-91101000D01*
G37*
G36*
X153091000Y-91100999D02*
G01*
X151989000Y-91100999D01*
X151989000Y-87849001D01*
X153091000Y-87849001D01*
X153091000Y-91100999D01*
X153091000Y-91100999D01*
G37*
G36*
X193986578Y-89127048D02*
G01*
X194059249Y-89149093D01*
X194126225Y-89184892D01*
X194184930Y-89233070D01*
X194233108Y-89291775D01*
X194268907Y-89358751D01*
X194290952Y-89431422D01*
X194299000Y-89513140D01*
X194299000Y-90526860D01*
X194290952Y-90608578D01*
X194268907Y-90681249D01*
X194233108Y-90748225D01*
X194184930Y-90806930D01*
X194126225Y-90855108D01*
X194059249Y-90890907D01*
X193986578Y-90912952D01*
X193904860Y-90921000D01*
X192391140Y-90921000D01*
X192309422Y-90912952D01*
X192236751Y-90890907D01*
X192169775Y-90855108D01*
X192111070Y-90806930D01*
X192062892Y-90748225D01*
X192027093Y-90681249D01*
X192005048Y-90608578D01*
X191997000Y-90526860D01*
X191997000Y-89513140D01*
X192005048Y-89431422D01*
X192027093Y-89358751D01*
X192062892Y-89291775D01*
X192111070Y-89233070D01*
X192169775Y-89184892D01*
X192236751Y-89149093D01*
X192309422Y-89127048D01*
X192391140Y-89119000D01*
X193904860Y-89119000D01*
X193986578Y-89127048D01*
X193986578Y-89127048D01*
G37*
G36*
X107626578Y-89107048D02*
G01*
X107699249Y-89129093D01*
X107766225Y-89164892D01*
X107824930Y-89213070D01*
X107873108Y-89271775D01*
X107908907Y-89338751D01*
X107930952Y-89411422D01*
X107939000Y-89493140D01*
X107939000Y-90506860D01*
X107930952Y-90588578D01*
X107908907Y-90661249D01*
X107873108Y-90728225D01*
X107824930Y-90786930D01*
X107766225Y-90835108D01*
X107699249Y-90870907D01*
X107626578Y-90892952D01*
X107544860Y-90901000D01*
X106031140Y-90901000D01*
X105949422Y-90892952D01*
X105876751Y-90870907D01*
X105809775Y-90835108D01*
X105751070Y-90786930D01*
X105702892Y-90728225D01*
X105667093Y-90661249D01*
X105645048Y-90588578D01*
X105637000Y-90506860D01*
X105637000Y-89493140D01*
X105645048Y-89411422D01*
X105667093Y-89338751D01*
X105702892Y-89271775D01*
X105751070Y-89213070D01*
X105809775Y-89164892D01*
X105876751Y-89129093D01*
X105949422Y-89107048D01*
X106031140Y-89099000D01*
X107544860Y-89099000D01*
X107626578Y-89107048D01*
X107626578Y-89107048D01*
G37*
G36*
X113781938Y-88641716D02*
G01*
X113802557Y-88647971D01*
X113821553Y-88658124D01*
X113838208Y-88671792D01*
X113851876Y-88688447D01*
X113862029Y-88707443D01*
X113868284Y-88728062D01*
X113871000Y-88755640D01*
X113871000Y-89214360D01*
X113868284Y-89241938D01*
X113862029Y-89262557D01*
X113851876Y-89281553D01*
X113838208Y-89298208D01*
X113821553Y-89311876D01*
X113802557Y-89322029D01*
X113781938Y-89328284D01*
X113754360Y-89331000D01*
X113245640Y-89331000D01*
X113218062Y-89328284D01*
X113197443Y-89322029D01*
X113178447Y-89311876D01*
X113161792Y-89298208D01*
X113148124Y-89281553D01*
X113137971Y-89262557D01*
X113131716Y-89241938D01*
X113129000Y-89214360D01*
X113129000Y-88755640D01*
X113131716Y-88728062D01*
X113137971Y-88707443D01*
X113148124Y-88688447D01*
X113161792Y-88671792D01*
X113178447Y-88658124D01*
X113197443Y-88647971D01*
X113218062Y-88641716D01*
X113245640Y-88639000D01*
X113754360Y-88639000D01*
X113781938Y-88641716D01*
X113781938Y-88641716D01*
G37*
G36*
X193986578Y-86627048D02*
G01*
X194059249Y-86649093D01*
X194126225Y-86684892D01*
X194184930Y-86733070D01*
X194233108Y-86791775D01*
X194268907Y-86858751D01*
X194290952Y-86931422D01*
X194299000Y-87013140D01*
X194299000Y-88026860D01*
X194290952Y-88108578D01*
X194268907Y-88181249D01*
X194233108Y-88248225D01*
X194184930Y-88306930D01*
X194126225Y-88355108D01*
X194059249Y-88390907D01*
X193986578Y-88412952D01*
X193904860Y-88421000D01*
X192391140Y-88421000D01*
X192309422Y-88412952D01*
X192236751Y-88390907D01*
X192169775Y-88355108D01*
X192111070Y-88306930D01*
X192062892Y-88248225D01*
X192027093Y-88181249D01*
X192005048Y-88108578D01*
X191997000Y-88026860D01*
X191997000Y-87013140D01*
X192005048Y-86931422D01*
X192027093Y-86858751D01*
X192062892Y-86791775D01*
X192111070Y-86733070D01*
X192169775Y-86684892D01*
X192236751Y-86649093D01*
X192309422Y-86627048D01*
X192391140Y-86619000D01*
X193904860Y-86619000D01*
X193986578Y-86627048D01*
X193986578Y-86627048D01*
G37*
G36*
X107626578Y-86607048D02*
G01*
X107699249Y-86629093D01*
X107766225Y-86664892D01*
X107824930Y-86713070D01*
X107873108Y-86771775D01*
X107908907Y-86838751D01*
X107930952Y-86911422D01*
X107939000Y-86993140D01*
X107939000Y-88006860D01*
X107930952Y-88088578D01*
X107908907Y-88161249D01*
X107873108Y-88228225D01*
X107824930Y-88286930D01*
X107766225Y-88335108D01*
X107699249Y-88370907D01*
X107626578Y-88392952D01*
X107544860Y-88401000D01*
X106031140Y-88401000D01*
X105949422Y-88392952D01*
X105876751Y-88370907D01*
X105809775Y-88335108D01*
X105751070Y-88286930D01*
X105702892Y-88228225D01*
X105667093Y-88161249D01*
X105645048Y-88088578D01*
X105637000Y-88006860D01*
X105637000Y-86993140D01*
X105645048Y-86911422D01*
X105667093Y-86838751D01*
X105702892Y-86771775D01*
X105751070Y-86713070D01*
X105809775Y-86664892D01*
X105876751Y-86629093D01*
X105949422Y-86607048D01*
X106031140Y-86599000D01*
X107544860Y-86599000D01*
X107626578Y-86607048D01*
X107626578Y-86607048D01*
G37*
G36*
X113781938Y-87671716D02*
G01*
X113802557Y-87677971D01*
X113821553Y-87688124D01*
X113838208Y-87701792D01*
X113851876Y-87718447D01*
X113862029Y-87737443D01*
X113868284Y-87758062D01*
X113871000Y-87785640D01*
X113871000Y-88244360D01*
X113868284Y-88271938D01*
X113862029Y-88292557D01*
X113851876Y-88311553D01*
X113838208Y-88328208D01*
X113821553Y-88341876D01*
X113802557Y-88352029D01*
X113781938Y-88358284D01*
X113754360Y-88361000D01*
X113245640Y-88361000D01*
X113218062Y-88358284D01*
X113197443Y-88352029D01*
X113178447Y-88341876D01*
X113161792Y-88328208D01*
X113148124Y-88311553D01*
X113137971Y-88292557D01*
X113131716Y-88271938D01*
X113129000Y-88244360D01*
X113129000Y-87785640D01*
X113131716Y-87758062D01*
X113137971Y-87737443D01*
X113148124Y-87718447D01*
X113161792Y-87701792D01*
X113178447Y-87688124D01*
X113197443Y-87677971D01*
X113218062Y-87671716D01*
X113245640Y-87669000D01*
X113754360Y-87669000D01*
X113781938Y-87671716D01*
X113781938Y-87671716D01*
G37*
G36*
X125271938Y-87131716D02*
G01*
X125292557Y-87137971D01*
X125311553Y-87148124D01*
X125328208Y-87161792D01*
X125341876Y-87178447D01*
X125352029Y-87197443D01*
X125358284Y-87218062D01*
X125361000Y-87245640D01*
X125361000Y-87754360D01*
X125358284Y-87781938D01*
X125352029Y-87802557D01*
X125341876Y-87821553D01*
X125328208Y-87838208D01*
X125311553Y-87851876D01*
X125292557Y-87862029D01*
X125271938Y-87868284D01*
X125244360Y-87871000D01*
X124785640Y-87871000D01*
X124758062Y-87868284D01*
X124737443Y-87862029D01*
X124718447Y-87851876D01*
X124701792Y-87838208D01*
X124688124Y-87821553D01*
X124677971Y-87802557D01*
X124671716Y-87781938D01*
X124669000Y-87754360D01*
X124669000Y-87245640D01*
X124671716Y-87218062D01*
X124677971Y-87197443D01*
X124688124Y-87178447D01*
X124701792Y-87161792D01*
X124718447Y-87148124D01*
X124737443Y-87137971D01*
X124758062Y-87131716D01*
X124785640Y-87129000D01*
X125244360Y-87129000D01*
X125271938Y-87131716D01*
X125271938Y-87131716D01*
G37*
G36*
X176241938Y-87131716D02*
G01*
X176262557Y-87137971D01*
X176281553Y-87148124D01*
X176298208Y-87161792D01*
X176311876Y-87178447D01*
X176322029Y-87197443D01*
X176328284Y-87218062D01*
X176331000Y-87245640D01*
X176331000Y-87754360D01*
X176328284Y-87781938D01*
X176322029Y-87802557D01*
X176311876Y-87821553D01*
X176298208Y-87838208D01*
X176281553Y-87851876D01*
X176262557Y-87862029D01*
X176241938Y-87868284D01*
X176214360Y-87871000D01*
X175755640Y-87871000D01*
X175728062Y-87868284D01*
X175707443Y-87862029D01*
X175688447Y-87851876D01*
X175671792Y-87838208D01*
X175658124Y-87821553D01*
X175647971Y-87802557D01*
X175641716Y-87781938D01*
X175639000Y-87754360D01*
X175639000Y-87245640D01*
X175641716Y-87218062D01*
X175647971Y-87197443D01*
X175658124Y-87178447D01*
X175671792Y-87161792D01*
X175688447Y-87148124D01*
X175707443Y-87137971D01*
X175728062Y-87131716D01*
X175755640Y-87129000D01*
X176214360Y-87129000D01*
X176241938Y-87131716D01*
X176241938Y-87131716D01*
G37*
G36*
X126241938Y-87131716D02*
G01*
X126262557Y-87137971D01*
X126281553Y-87148124D01*
X126298208Y-87161792D01*
X126311876Y-87178447D01*
X126322029Y-87197443D01*
X126328284Y-87218062D01*
X126331000Y-87245640D01*
X126331000Y-87754360D01*
X126328284Y-87781938D01*
X126322029Y-87802557D01*
X126311876Y-87821553D01*
X126298208Y-87838208D01*
X126281553Y-87851876D01*
X126262557Y-87862029D01*
X126241938Y-87868284D01*
X126214360Y-87871000D01*
X125755640Y-87871000D01*
X125728062Y-87868284D01*
X125707443Y-87862029D01*
X125688447Y-87851876D01*
X125671792Y-87838208D01*
X125658124Y-87821553D01*
X125647971Y-87802557D01*
X125641716Y-87781938D01*
X125639000Y-87754360D01*
X125639000Y-87245640D01*
X125641716Y-87218062D01*
X125647971Y-87197443D01*
X125658124Y-87178447D01*
X125671792Y-87161792D01*
X125688447Y-87148124D01*
X125707443Y-87137971D01*
X125728062Y-87131716D01*
X125755640Y-87129000D01*
X126214360Y-87129000D01*
X126241938Y-87131716D01*
X126241938Y-87131716D01*
G37*
G36*
X175271938Y-87131716D02*
G01*
X175292557Y-87137971D01*
X175311553Y-87148124D01*
X175328208Y-87161792D01*
X175341876Y-87178447D01*
X175352029Y-87197443D01*
X175358284Y-87218062D01*
X175361000Y-87245640D01*
X175361000Y-87754360D01*
X175358284Y-87781938D01*
X175352029Y-87802557D01*
X175341876Y-87821553D01*
X175328208Y-87838208D01*
X175311553Y-87851876D01*
X175292557Y-87862029D01*
X175271938Y-87868284D01*
X175244360Y-87871000D01*
X174785640Y-87871000D01*
X174758062Y-87868284D01*
X174737443Y-87862029D01*
X174718447Y-87851876D01*
X174701792Y-87838208D01*
X174688124Y-87821553D01*
X174677971Y-87802557D01*
X174671716Y-87781938D01*
X174669000Y-87754360D01*
X174669000Y-87245640D01*
X174671716Y-87218062D01*
X174677971Y-87197443D01*
X174688124Y-87178447D01*
X174701792Y-87161792D01*
X174718447Y-87148124D01*
X174737443Y-87137971D01*
X174758062Y-87131716D01*
X174785640Y-87129000D01*
X175244360Y-87129000D01*
X175271938Y-87131716D01*
X175271938Y-87131716D01*
G37*
G36*
X175901000Y-86326000D02*
G01*
X174099000Y-86326000D01*
X174099000Y-85574000D01*
X175901000Y-85574000D01*
X175901000Y-86326000D01*
X175901000Y-86326000D01*
G37*
G36*
X125901000Y-86326000D02*
G01*
X124099000Y-86326000D01*
X124099000Y-85574000D01*
X125901000Y-85574000D01*
X125901000Y-86326000D01*
X125901000Y-86326000D01*
G37*
G36*
X177781938Y-85141716D02*
G01*
X177802557Y-85147971D01*
X177821553Y-85158124D01*
X177838208Y-85171792D01*
X177851876Y-85188447D01*
X177862029Y-85207443D01*
X177868284Y-85228062D01*
X177871000Y-85255640D01*
X177871000Y-85714360D01*
X177868284Y-85741938D01*
X177862029Y-85762557D01*
X177851876Y-85781553D01*
X177838208Y-85798208D01*
X177821553Y-85811876D01*
X177802557Y-85822029D01*
X177781938Y-85828284D01*
X177754360Y-85831000D01*
X177245640Y-85831000D01*
X177218062Y-85828284D01*
X177197443Y-85822029D01*
X177178447Y-85811876D01*
X177161792Y-85798208D01*
X177148124Y-85781553D01*
X177137971Y-85762557D01*
X177131716Y-85741938D01*
X177129000Y-85714360D01*
X177129000Y-85255640D01*
X177131716Y-85228062D01*
X177137971Y-85207443D01*
X177148124Y-85188447D01*
X177161792Y-85171792D01*
X177178447Y-85158124D01*
X177197443Y-85147971D01*
X177218062Y-85141716D01*
X177245640Y-85139000D01*
X177754360Y-85139000D01*
X177781938Y-85141716D01*
X177781938Y-85141716D01*
G37*
G36*
X127781938Y-85141716D02*
G01*
X127802557Y-85147971D01*
X127821553Y-85158124D01*
X127838208Y-85171792D01*
X127851876Y-85188447D01*
X127862029Y-85207443D01*
X127868284Y-85228062D01*
X127871000Y-85255640D01*
X127871000Y-85714360D01*
X127868284Y-85741938D01*
X127862029Y-85762557D01*
X127851876Y-85781553D01*
X127838208Y-85798208D01*
X127821553Y-85811876D01*
X127802557Y-85822029D01*
X127781938Y-85828284D01*
X127754360Y-85831000D01*
X127245640Y-85831000D01*
X127218062Y-85828284D01*
X127197443Y-85822029D01*
X127178447Y-85811876D01*
X127161792Y-85798208D01*
X127148124Y-85781553D01*
X127137971Y-85762557D01*
X127131716Y-85741938D01*
X127129000Y-85714360D01*
X127129000Y-85255640D01*
X127131716Y-85228062D01*
X127137971Y-85207443D01*
X127148124Y-85188447D01*
X127161792Y-85171792D01*
X127178447Y-85158124D01*
X127197443Y-85147971D01*
X127218062Y-85141716D01*
X127245640Y-85139000D01*
X127754360Y-85139000D01*
X127781938Y-85141716D01*
X127781938Y-85141716D01*
G37*
G36*
X127781938Y-84171716D02*
G01*
X127802557Y-84177971D01*
X127821553Y-84188124D01*
X127838208Y-84201792D01*
X127851876Y-84218447D01*
X127862029Y-84237443D01*
X127868284Y-84258062D01*
X127871000Y-84285640D01*
X127871000Y-84744360D01*
X127868284Y-84771938D01*
X127862029Y-84792557D01*
X127851876Y-84811553D01*
X127838208Y-84828208D01*
X127821553Y-84841876D01*
X127802557Y-84852029D01*
X127781938Y-84858284D01*
X127754360Y-84861000D01*
X127245640Y-84861000D01*
X127218062Y-84858284D01*
X127197443Y-84852029D01*
X127178447Y-84841876D01*
X127161792Y-84828208D01*
X127148124Y-84811553D01*
X127137971Y-84792557D01*
X127131716Y-84771938D01*
X127129000Y-84744360D01*
X127129000Y-84285640D01*
X127131716Y-84258062D01*
X127137971Y-84237443D01*
X127148124Y-84218447D01*
X127161792Y-84201792D01*
X127178447Y-84188124D01*
X127197443Y-84177971D01*
X127218062Y-84171716D01*
X127245640Y-84169000D01*
X127754360Y-84169000D01*
X127781938Y-84171716D01*
X127781938Y-84171716D01*
G37*
G36*
X177781938Y-84171716D02*
G01*
X177802557Y-84177971D01*
X177821553Y-84188124D01*
X177838208Y-84201792D01*
X177851876Y-84218447D01*
X177862029Y-84237443D01*
X177868284Y-84258062D01*
X177871000Y-84285640D01*
X177871000Y-84744360D01*
X177868284Y-84771938D01*
X177862029Y-84792557D01*
X177851876Y-84811553D01*
X177838208Y-84828208D01*
X177821553Y-84841876D01*
X177802557Y-84852029D01*
X177781938Y-84858284D01*
X177754360Y-84861000D01*
X177245640Y-84861000D01*
X177218062Y-84858284D01*
X177197443Y-84852029D01*
X177178447Y-84841876D01*
X177161792Y-84828208D01*
X177148124Y-84811553D01*
X177137971Y-84792557D01*
X177131716Y-84771938D01*
X177129000Y-84744360D01*
X177129000Y-84285640D01*
X177131716Y-84258062D01*
X177137971Y-84237443D01*
X177148124Y-84218447D01*
X177161792Y-84201792D01*
X177178447Y-84188124D01*
X177197443Y-84177971D01*
X177218062Y-84171716D01*
X177245640Y-84169000D01*
X177754360Y-84169000D01*
X177781938Y-84171716D01*
X177781938Y-84171716D01*
G37*
G36*
X125901000Y-84426000D02*
G01*
X124099000Y-84426000D01*
X124099000Y-83674000D01*
X125901000Y-83674000D01*
X125901000Y-84426000D01*
X125901000Y-84426000D01*
G37*
G36*
X175901000Y-84426000D02*
G01*
X174099000Y-84426000D01*
X174099000Y-83674000D01*
X175901000Y-83674000D01*
X175901000Y-84426000D01*
X175901000Y-84426000D01*
G37*
G36*
X139551000Y-81501000D02*
G01*
X138449000Y-81501000D01*
X138449000Y-80499000D01*
X139551000Y-80499000D01*
X139551000Y-81501000D01*
X139551000Y-81501000D01*
G37*
G36*
X164551000Y-81501000D02*
G01*
X163449000Y-81501000D01*
X163449000Y-80499000D01*
X164551000Y-80499000D01*
X164551000Y-81501000D01*
X164551000Y-81501000D01*
G37*
G36*
X137951000Y-81501000D02*
G01*
X137049000Y-81501000D01*
X137049000Y-80799000D01*
X137951000Y-80799000D01*
X137951000Y-81501000D01*
X137951000Y-81501000D01*
G37*
G36*
X162951000Y-81501000D02*
G01*
X162049000Y-81501000D01*
X162049000Y-80799000D01*
X162951000Y-80799000D01*
X162951000Y-81501000D01*
X162951000Y-81501000D01*
G37*
G36*
X161551000Y-81501000D02*
G01*
X160449000Y-81501000D01*
X160449000Y-80499000D01*
X161551000Y-80499000D01*
X161551000Y-81501000D01*
X161551000Y-81501000D01*
G37*
G36*
X189551000Y-81501000D02*
G01*
X188449000Y-81501000D01*
X188449000Y-80499000D01*
X189551000Y-80499000D01*
X189551000Y-81501000D01*
X189551000Y-81501000D01*
G37*
G36*
X187951000Y-81501000D02*
G01*
X187049000Y-81501000D01*
X187049000Y-80799000D01*
X187951000Y-80799000D01*
X187951000Y-81501000D01*
X187951000Y-81501000D01*
G37*
G36*
X186551000Y-81501000D02*
G01*
X185449000Y-81501000D01*
X185449000Y-80499000D01*
X186551000Y-80499000D01*
X186551000Y-81501000D01*
X186551000Y-81501000D01*
G37*
G36*
X114551000Y-81501000D02*
G01*
X113449000Y-81501000D01*
X113449000Y-80499000D01*
X114551000Y-80499000D01*
X114551000Y-81501000D01*
X114551000Y-81501000D01*
G37*
G36*
X112951000Y-81501000D02*
G01*
X112049000Y-81501000D01*
X112049000Y-80799000D01*
X112951000Y-80799000D01*
X112951000Y-81501000D01*
X112951000Y-81501000D01*
G37*
G36*
X111551000Y-81501000D02*
G01*
X110449000Y-81501000D01*
X110449000Y-80499000D01*
X111551000Y-80499000D01*
X111551000Y-81501000D01*
X111551000Y-81501000D01*
G37*
G36*
X136551000Y-81501000D02*
G01*
X135449000Y-81501000D01*
X135449000Y-80499000D01*
X136551000Y-80499000D01*
X136551000Y-81501000D01*
X136551000Y-81501000D01*
G37*
M02*
