G04 #@! TF.GenerationSoftware,KiCad,Pcbnew,5.1.2*
G04 #@! TF.CreationDate,2019-08-07T23:58:13-05:00*
G04 #@! TF.ProjectId,ddr-ps2-controller,6464722d-7073-4322-9d63-6f6e74726f6c,A*
G04 #@! TF.SameCoordinates,Original*
G04 #@! TF.FileFunction,Legend,Top*
G04 #@! TF.FilePolarity,Positive*
%FSLAX46Y46*%
G04 Gerber Fmt 4.6, Leading zero omitted, Abs format (unit mm)*
G04 Created by KiCad (PCBNEW 5.1.2) date 2019-08-07 23:58:13*
%MOMM*%
%LPD*%
G04 APERTURE LIST*
%ADD10C,0.150000*%
%ADD11C,0.203200*%
%ADD12C,0.100000*%
%ADD13C,0.120000*%
G04 APERTURE END LIST*
D10*
X171048690Y-99203261D02*
X171048690Y-98568261D01*
X171320833Y-99203261D02*
X171320833Y-98870642D01*
X171290595Y-98810166D01*
X171230119Y-98779928D01*
X171139404Y-98779928D01*
X171078928Y-98810166D01*
X171048690Y-98840404D01*
X171532500Y-98779928D02*
X171774404Y-98779928D01*
X171623214Y-98568261D02*
X171623214Y-99112547D01*
X171653452Y-99173023D01*
X171713928Y-99203261D01*
X171774404Y-99203261D01*
X171895357Y-98779928D02*
X172137261Y-98779928D01*
X171986071Y-98568261D02*
X171986071Y-99112547D01*
X172016309Y-99173023D01*
X172076785Y-99203261D01*
X172137261Y-99203261D01*
X172348928Y-98779928D02*
X172348928Y-99414928D01*
X172348928Y-98810166D02*
X172409404Y-98779928D01*
X172530357Y-98779928D01*
X172590833Y-98810166D01*
X172621071Y-98840404D01*
X172651309Y-98900880D01*
X172651309Y-99082309D01*
X172621071Y-99142785D01*
X172590833Y-99173023D01*
X172530357Y-99203261D01*
X172409404Y-99203261D01*
X172348928Y-99173023D01*
X172923452Y-99142785D02*
X172953690Y-99173023D01*
X172923452Y-99203261D01*
X172893214Y-99173023D01*
X172923452Y-99142785D01*
X172923452Y-99203261D01*
X172923452Y-98810166D02*
X172953690Y-98840404D01*
X172923452Y-98870642D01*
X172893214Y-98840404D01*
X172923452Y-98810166D01*
X172923452Y-98870642D01*
X173679404Y-98538023D02*
X173135119Y-99354452D01*
X174344642Y-98538023D02*
X173800357Y-99354452D01*
X174556309Y-99203261D02*
X174556309Y-98568261D01*
X174616785Y-98961357D02*
X174798214Y-99203261D01*
X174798214Y-98779928D02*
X174556309Y-99021833D01*
X175312261Y-99173023D02*
X175251785Y-99203261D01*
X175130833Y-99203261D01*
X175070357Y-99173023D01*
X175040119Y-99112547D01*
X175040119Y-98870642D01*
X175070357Y-98810166D01*
X175130833Y-98779928D01*
X175251785Y-98779928D01*
X175312261Y-98810166D01*
X175342500Y-98870642D01*
X175342500Y-98931119D01*
X175040119Y-98991595D01*
X175554166Y-98779928D02*
X175705357Y-99203261D01*
X175856547Y-98779928D01*
X176098452Y-99203261D02*
X176098452Y-98779928D01*
X176098452Y-98568261D02*
X176068214Y-98598500D01*
X176098452Y-98628738D01*
X176128690Y-98598500D01*
X176098452Y-98568261D01*
X176098452Y-98628738D01*
X176400833Y-98779928D02*
X176400833Y-99203261D01*
X176400833Y-98840404D02*
X176431071Y-98810166D01*
X176491547Y-98779928D01*
X176582261Y-98779928D01*
X176642738Y-98810166D01*
X176672976Y-98870642D01*
X176672976Y-99203261D01*
X177247500Y-99173023D02*
X177187023Y-99203261D01*
X177066071Y-99203261D01*
X177005595Y-99173023D01*
X176975357Y-99142785D01*
X176945119Y-99082309D01*
X176945119Y-98900880D01*
X176975357Y-98840404D01*
X177005595Y-98810166D01*
X177066071Y-98779928D01*
X177187023Y-98779928D01*
X177247500Y-98810166D01*
X177791785Y-98779928D02*
X177791785Y-99203261D01*
X177519642Y-98779928D02*
X177519642Y-99112547D01*
X177549880Y-99173023D01*
X177610357Y-99203261D01*
X177701071Y-99203261D01*
X177761547Y-99173023D01*
X177791785Y-99142785D01*
X178033690Y-98779928D02*
X178366309Y-98779928D01*
X178033690Y-99203261D01*
X178366309Y-99203261D01*
X178608214Y-98779928D02*
X178608214Y-99203261D01*
X178608214Y-98840404D02*
X178638452Y-98810166D01*
X178698928Y-98779928D01*
X178789642Y-98779928D01*
X178850119Y-98810166D01*
X178880357Y-98870642D01*
X178880357Y-99203261D01*
X179424642Y-99173023D02*
X179364166Y-99203261D01*
X179243214Y-99203261D01*
X179182738Y-99173023D01*
X179152500Y-99112547D01*
X179152500Y-98870642D01*
X179182738Y-98810166D01*
X179243214Y-98779928D01*
X179364166Y-98779928D01*
X179424642Y-98810166D01*
X179454880Y-98870642D01*
X179454880Y-98931119D01*
X179152500Y-98991595D01*
X179727023Y-99203261D02*
X179727023Y-98779928D01*
X179727023Y-98900880D02*
X179757261Y-98840404D01*
X179787500Y-98810166D01*
X179847976Y-98779928D01*
X179908452Y-98779928D01*
X180120119Y-99142785D02*
X180150357Y-99173023D01*
X180120119Y-99203261D01*
X180089880Y-99173023D01*
X180120119Y-99142785D01*
X180120119Y-99203261D01*
X180694642Y-99173023D02*
X180634166Y-99203261D01*
X180513214Y-99203261D01*
X180452738Y-99173023D01*
X180422500Y-99142785D01*
X180392261Y-99082309D01*
X180392261Y-98900880D01*
X180422500Y-98840404D01*
X180452738Y-98810166D01*
X180513214Y-98779928D01*
X180634166Y-98779928D01*
X180694642Y-98810166D01*
X181057500Y-99203261D02*
X180997023Y-99173023D01*
X180966785Y-99142785D01*
X180936547Y-99082309D01*
X180936547Y-98900880D01*
X180966785Y-98840404D01*
X180997023Y-98810166D01*
X181057500Y-98779928D01*
X181148214Y-98779928D01*
X181208690Y-98810166D01*
X181238928Y-98840404D01*
X181269166Y-98900880D01*
X181269166Y-99082309D01*
X181238928Y-99142785D01*
X181208690Y-99173023D01*
X181148214Y-99203261D01*
X181057500Y-99203261D01*
X181541309Y-99203261D02*
X181541309Y-98779928D01*
X181541309Y-98840404D02*
X181571547Y-98810166D01*
X181632023Y-98779928D01*
X181722738Y-98779928D01*
X181783214Y-98810166D01*
X181813452Y-98870642D01*
X181813452Y-99203261D01*
X181813452Y-98870642D02*
X181843690Y-98810166D01*
X181904166Y-98779928D01*
X181994880Y-98779928D01*
X182055357Y-98810166D01*
X182085595Y-98870642D01*
X182085595Y-99203261D01*
X182841547Y-98538023D02*
X182297261Y-99354452D01*
X183625357Y-98187261D02*
X183413690Y-97884880D01*
X183262500Y-98187261D02*
X183262500Y-97552261D01*
X183504404Y-97552261D01*
X183564880Y-97582500D01*
X183595119Y-97612738D01*
X183625357Y-97673214D01*
X183625357Y-97763928D01*
X183595119Y-97824404D01*
X183564880Y-97854642D01*
X183504404Y-97884880D01*
X183262500Y-97884880D01*
X184139404Y-98157023D02*
X184078928Y-98187261D01*
X183957976Y-98187261D01*
X183897500Y-98157023D01*
X183867261Y-98096547D01*
X183867261Y-97854642D01*
X183897500Y-97794166D01*
X183957976Y-97763928D01*
X184078928Y-97763928D01*
X184139404Y-97794166D01*
X184169642Y-97854642D01*
X184169642Y-97915119D01*
X183867261Y-97975595D01*
X184381309Y-97763928D02*
X184532500Y-98187261D01*
X184683690Y-97763928D01*
X185379166Y-98005833D02*
X185681547Y-98005833D01*
X185318690Y-98187261D02*
X185530357Y-97552261D01*
X185742023Y-98187261D01*
X171048690Y-98187261D02*
X171048690Y-97552261D01*
X171411547Y-98187261D02*
X171139404Y-97824404D01*
X171411547Y-97552261D02*
X171048690Y-97915119D01*
X171925595Y-98157023D02*
X171865119Y-98187261D01*
X171744166Y-98187261D01*
X171683690Y-98157023D01*
X171653452Y-98096547D01*
X171653452Y-97854642D01*
X171683690Y-97794166D01*
X171744166Y-97763928D01*
X171865119Y-97763928D01*
X171925595Y-97794166D01*
X171955833Y-97854642D01*
X171955833Y-97915119D01*
X171653452Y-97975595D01*
X172167500Y-97763928D02*
X172318690Y-98187261D01*
X172469880Y-97763928D01*
X172711785Y-98187261D02*
X172711785Y-97763928D01*
X172711785Y-97552261D02*
X172681547Y-97582500D01*
X172711785Y-97612738D01*
X172742023Y-97582500D01*
X172711785Y-97552261D01*
X172711785Y-97612738D01*
X173014166Y-97763928D02*
X173014166Y-98187261D01*
X173014166Y-97824404D02*
X173044404Y-97794166D01*
X173104880Y-97763928D01*
X173195595Y-97763928D01*
X173256071Y-97794166D01*
X173286309Y-97854642D01*
X173286309Y-98187261D01*
X174435357Y-98126785D02*
X174405119Y-98157023D01*
X174314404Y-98187261D01*
X174253928Y-98187261D01*
X174163214Y-98157023D01*
X174102738Y-98096547D01*
X174072500Y-98036071D01*
X174042261Y-97915119D01*
X174042261Y-97824404D01*
X174072500Y-97703452D01*
X174102738Y-97642976D01*
X174163214Y-97582500D01*
X174253928Y-97552261D01*
X174314404Y-97552261D01*
X174405119Y-97582500D01*
X174435357Y-97612738D01*
X174979642Y-97763928D02*
X174979642Y-98187261D01*
X174707500Y-97763928D02*
X174707500Y-98096547D01*
X174737738Y-98157023D01*
X174798214Y-98187261D01*
X174888928Y-98187261D01*
X174949404Y-98157023D01*
X174979642Y-98126785D01*
X175221547Y-97763928D02*
X175554166Y-97763928D01*
X175221547Y-98187261D01*
X175554166Y-98187261D01*
X175796071Y-97763928D02*
X175796071Y-98187261D01*
X175796071Y-97824404D02*
X175826309Y-97794166D01*
X175886785Y-97763928D01*
X175977500Y-97763928D01*
X176037976Y-97794166D01*
X176068214Y-97854642D01*
X176068214Y-98187261D01*
X176612500Y-98157023D02*
X176552023Y-98187261D01*
X176431071Y-98187261D01*
X176370595Y-98157023D01*
X176340357Y-98096547D01*
X176340357Y-97854642D01*
X176370595Y-97794166D01*
X176431071Y-97763928D01*
X176552023Y-97763928D01*
X176612500Y-97794166D01*
X176642738Y-97854642D01*
X176642738Y-97915119D01*
X176340357Y-97975595D01*
X176914880Y-98187261D02*
X176914880Y-97763928D01*
X176914880Y-97884880D02*
X176945119Y-97824404D01*
X176975357Y-97794166D01*
X177035833Y-97763928D01*
X177096309Y-97763928D01*
D11*
X171073984Y-97059619D02*
X171073984Y-96043619D01*
X171315889Y-96043619D01*
X171461032Y-96092000D01*
X171557794Y-96188761D01*
X171606175Y-96285523D01*
X171654556Y-96479047D01*
X171654556Y-96624190D01*
X171606175Y-96817714D01*
X171557794Y-96914476D01*
X171461032Y-97011238D01*
X171315889Y-97059619D01*
X171073984Y-97059619D01*
X172089984Y-97059619D02*
X172089984Y-96043619D01*
X172331889Y-96043619D01*
X172477032Y-96092000D01*
X172573794Y-96188761D01*
X172622175Y-96285523D01*
X172670556Y-96479047D01*
X172670556Y-96624190D01*
X172622175Y-96817714D01*
X172573794Y-96914476D01*
X172477032Y-97011238D01*
X172331889Y-97059619D01*
X172089984Y-97059619D01*
X173686556Y-97059619D02*
X173347889Y-96575809D01*
X173105984Y-97059619D02*
X173105984Y-96043619D01*
X173493032Y-96043619D01*
X173589794Y-96092000D01*
X173638175Y-96140380D01*
X173686556Y-96237142D01*
X173686556Y-96382285D01*
X173638175Y-96479047D01*
X173589794Y-96527428D01*
X173493032Y-96575809D01*
X173105984Y-96575809D01*
X174896080Y-97059619D02*
X174896080Y-96043619D01*
X175283127Y-96043619D01*
X175379889Y-96092000D01*
X175428270Y-96140380D01*
X175476651Y-96237142D01*
X175476651Y-96382285D01*
X175428270Y-96479047D01*
X175379889Y-96527428D01*
X175283127Y-96575809D01*
X174896080Y-96575809D01*
X175863699Y-97011238D02*
X176008841Y-97059619D01*
X176250746Y-97059619D01*
X176347508Y-97011238D01*
X176395889Y-96962857D01*
X176444270Y-96866095D01*
X176444270Y-96769333D01*
X176395889Y-96672571D01*
X176347508Y-96624190D01*
X176250746Y-96575809D01*
X176057222Y-96527428D01*
X175960460Y-96479047D01*
X175912080Y-96430666D01*
X175863699Y-96333904D01*
X175863699Y-96237142D01*
X175912080Y-96140380D01*
X175960460Y-96092000D01*
X176057222Y-96043619D01*
X176299127Y-96043619D01*
X176444270Y-96092000D01*
X176831318Y-96140380D02*
X176879699Y-96092000D01*
X176976460Y-96043619D01*
X177218365Y-96043619D01*
X177315127Y-96092000D01*
X177363508Y-96140380D01*
X177411889Y-96237142D01*
X177411889Y-96333904D01*
X177363508Y-96479047D01*
X176782937Y-97059619D01*
X177411889Y-97059619D01*
X179201984Y-96962857D02*
X179153603Y-97011238D01*
X179008460Y-97059619D01*
X178911699Y-97059619D01*
X178766556Y-97011238D01*
X178669794Y-96914476D01*
X178621413Y-96817714D01*
X178573032Y-96624190D01*
X178573032Y-96479047D01*
X178621413Y-96285523D01*
X178669794Y-96188761D01*
X178766556Y-96092000D01*
X178911699Y-96043619D01*
X179008460Y-96043619D01*
X179153603Y-96092000D01*
X179201984Y-96140380D01*
X179782556Y-97059619D02*
X179685794Y-97011238D01*
X179637413Y-96962857D01*
X179589032Y-96866095D01*
X179589032Y-96575809D01*
X179637413Y-96479047D01*
X179685794Y-96430666D01*
X179782556Y-96382285D01*
X179927699Y-96382285D01*
X180024460Y-96430666D01*
X180072841Y-96479047D01*
X180121222Y-96575809D01*
X180121222Y-96866095D01*
X180072841Y-96962857D01*
X180024460Y-97011238D01*
X179927699Y-97059619D01*
X179782556Y-97059619D01*
X180556651Y-96382285D02*
X180556651Y-97059619D01*
X180556651Y-96479047D02*
X180605032Y-96430666D01*
X180701794Y-96382285D01*
X180846937Y-96382285D01*
X180943699Y-96430666D01*
X180992080Y-96527428D01*
X180992080Y-97059619D01*
X181330746Y-96382285D02*
X181717794Y-96382285D01*
X181475889Y-96043619D02*
X181475889Y-96914476D01*
X181524270Y-97011238D01*
X181621032Y-97059619D01*
X181717794Y-97059619D01*
X182056460Y-97059619D02*
X182056460Y-96382285D01*
X182056460Y-96575809D02*
X182104841Y-96479047D01*
X182153222Y-96430666D01*
X182249984Y-96382285D01*
X182346746Y-96382285D01*
X182830556Y-97059619D02*
X182733794Y-97011238D01*
X182685413Y-96962857D01*
X182637032Y-96866095D01*
X182637032Y-96575809D01*
X182685413Y-96479047D01*
X182733794Y-96430666D01*
X182830556Y-96382285D01*
X182975699Y-96382285D01*
X183072460Y-96430666D01*
X183120841Y-96479047D01*
X183169222Y-96575809D01*
X183169222Y-96866095D01*
X183120841Y-96962857D01*
X183072460Y-97011238D01*
X182975699Y-97059619D01*
X182830556Y-97059619D01*
X183749794Y-97059619D02*
X183653032Y-97011238D01*
X183604651Y-96914476D01*
X183604651Y-96043619D01*
X184281984Y-97059619D02*
X184185222Y-97011238D01*
X184136841Y-96914476D01*
X184136841Y-96043619D01*
X185056080Y-97011238D02*
X184959318Y-97059619D01*
X184765794Y-97059619D01*
X184669032Y-97011238D01*
X184620651Y-96914476D01*
X184620651Y-96527428D01*
X184669032Y-96430666D01*
X184765794Y-96382285D01*
X184959318Y-96382285D01*
X185056080Y-96430666D01*
X185104460Y-96527428D01*
X185104460Y-96624190D01*
X184620651Y-96720952D01*
X185539889Y-97059619D02*
X185539889Y-96382285D01*
X185539889Y-96575809D02*
X185588270Y-96479047D01*
X185636651Y-96430666D01*
X185733413Y-96382285D01*
X185830175Y-96382285D01*
D12*
G36*
X108288000Y-92500000D02*
G01*
X109788000Y-91500000D01*
X109788000Y-93500000D01*
X108288000Y-92500000D01*
G37*
X108288000Y-92500000D02*
X109788000Y-91500000D01*
X109788000Y-93500000D01*
X108288000Y-92500000D01*
D13*
X100088000Y-85000000D02*
X108288000Y-85000000D01*
X100088000Y-95000000D02*
X100088000Y-85000000D01*
X108288000Y-95000000D02*
X100088000Y-95000000D01*
X108288000Y-85000000D02*
X108288000Y-95000000D01*
D12*
G36*
X108288000Y-112586000D02*
G01*
X109788000Y-111586000D01*
X109788000Y-113586000D01*
X108288000Y-112586000D01*
G37*
X108288000Y-112586000D02*
X109788000Y-111586000D01*
X109788000Y-113586000D01*
X108288000Y-112586000D01*
D13*
X100088000Y-105086000D02*
X108288000Y-105086000D01*
X100088000Y-115086000D02*
X100088000Y-105086000D01*
X108288000Y-115086000D02*
X100088000Y-115086000D01*
X108288000Y-105086000D02*
X108288000Y-115086000D01*
D12*
G36*
X191648000Y-87520000D02*
G01*
X190148000Y-88520000D01*
X190148000Y-86520000D01*
X191648000Y-87520000D01*
G37*
X191648000Y-87520000D02*
X190148000Y-88520000D01*
X190148000Y-86520000D01*
X191648000Y-87520000D01*
D13*
X199848000Y-95020000D02*
X191648000Y-95020000D01*
X199848000Y-85020000D02*
X199848000Y-95020000D01*
X191648000Y-85020000D02*
X199848000Y-85020000D01*
X191648000Y-95020000D02*
X191648000Y-85020000D01*
D12*
G36*
X191648000Y-107500000D02*
G01*
X190148000Y-108500000D01*
X190148000Y-106500000D01*
X191648000Y-107500000D01*
G37*
X191648000Y-107500000D02*
X190148000Y-108500000D01*
X190148000Y-106500000D01*
X191648000Y-107500000D01*
D13*
X199848000Y-115000000D02*
X191648000Y-115000000D01*
X199848000Y-105000000D02*
X199848000Y-115000000D01*
X191648000Y-105000000D02*
X199848000Y-105000000D01*
X191648000Y-115000000D02*
X191648000Y-105000000D01*
D12*
G36*
X119702000Y-111634000D02*
G01*
X118702000Y-110134000D01*
X120702000Y-110134000D01*
X119702000Y-111634000D01*
G37*
X119702000Y-111634000D02*
X118702000Y-110134000D01*
X120702000Y-110134000D01*
X119702000Y-111634000D01*
D13*
X112202000Y-119834000D02*
X112202000Y-111634000D01*
X122202000Y-119834000D02*
X112202000Y-119834000D01*
X122202000Y-111634000D02*
X122202000Y-119834000D01*
X112202000Y-111634000D02*
X122202000Y-111634000D01*
D12*
G36*
X177360000Y-111634000D02*
G01*
X176360000Y-110134000D01*
X178360000Y-110134000D01*
X177360000Y-111634000D01*
G37*
X177360000Y-111634000D02*
X176360000Y-110134000D01*
X178360000Y-110134000D01*
X177360000Y-111634000D01*
D13*
X169860000Y-119834000D02*
X169860000Y-111634000D01*
X179860000Y-119834000D02*
X169860000Y-119834000D01*
X179860000Y-111634000D02*
X179860000Y-119834000D01*
X169860000Y-111634000D02*
X179860000Y-111634000D01*
X112200000Y-81800000D02*
X112200000Y-82200000D01*
X112250000Y-82000000D02*
X112750000Y-81800000D01*
X112750000Y-82200000D02*
X112250000Y-82000000D01*
X112750000Y-81800000D02*
X112750000Y-82200000D01*
X110350000Y-80400000D02*
X111500000Y-80400001D01*
X110350000Y-81600000D02*
X110350000Y-80400000D01*
X114650000Y-81600000D02*
X110350000Y-81600000D01*
X114650000Y-80400000D02*
X114650000Y-81600000D01*
X113500000Y-80400000D02*
X114650000Y-80400000D01*
X111500000Y-80400001D02*
G75*
G02X113500000Y-80400000I1000000J-149999D01*
G01*
X137200000Y-81800000D02*
X137200000Y-82200000D01*
X137250000Y-82000000D02*
X137750000Y-81800000D01*
X137750000Y-82200000D02*
X137250000Y-82000000D01*
X137750000Y-81800000D02*
X137750000Y-82200000D01*
X135350000Y-80400000D02*
X136500000Y-80400001D01*
X135350000Y-81600000D02*
X135350000Y-80400000D01*
X139650000Y-81600000D02*
X135350000Y-81600000D01*
X139650000Y-80400000D02*
X139650000Y-81600000D01*
X138500000Y-80400000D02*
X139650000Y-80400000D01*
X136500000Y-80400001D02*
G75*
G02X138500000Y-80400000I1000000J-149999D01*
G01*
X162200000Y-81800000D02*
X162200000Y-82200000D01*
X162250000Y-82000000D02*
X162750000Y-81800000D01*
X162750000Y-82200000D02*
X162250000Y-82000000D01*
X162750000Y-81800000D02*
X162750000Y-82200000D01*
X160350000Y-80400000D02*
X161500000Y-80400001D01*
X160350000Y-81600000D02*
X160350000Y-80400000D01*
X164650000Y-81600000D02*
X160350000Y-81600000D01*
X164650000Y-80400000D02*
X164650000Y-81600000D01*
X163500000Y-80400000D02*
X164650000Y-80400000D01*
X161500000Y-80400001D02*
G75*
G02X163500000Y-80400000I1000000J-149999D01*
G01*
X187200000Y-81800000D02*
X187200000Y-82200000D01*
X187250000Y-82000000D02*
X187750000Y-81800000D01*
X187750000Y-82200000D02*
X187250000Y-82000000D01*
X187750000Y-81800000D02*
X187750000Y-82200000D01*
X185350000Y-80400000D02*
X186500000Y-80400001D01*
X185350000Y-81600000D02*
X185350000Y-80400000D01*
X189650000Y-81600000D02*
X185350000Y-81600000D01*
X189650000Y-80400000D02*
X189650000Y-81600000D01*
X188500000Y-80400000D02*
X189650000Y-80400000D01*
X186500000Y-80400001D02*
G75*
G02X188500000Y-80400000I1000000J-149999D01*
G01*
X134662779Y-106490000D02*
X134337221Y-106490000D01*
X134662779Y-107510000D02*
X134337221Y-107510000D01*
X173897936Y-106860000D02*
X175102064Y-106860000D01*
X173897936Y-104140000D02*
X175102064Y-104140000D01*
X149602064Y-110360000D02*
X148397936Y-110360000D01*
X149602064Y-107640000D02*
X148397936Y-107640000D01*
X146700000Y-94600000D02*
X145680000Y-94600000D01*
X146700000Y-89400000D02*
X145680000Y-89400000D01*
X149240000Y-94600000D02*
X148220000Y-94600000D01*
X149240000Y-89400000D02*
X148220000Y-89400000D01*
X151780000Y-94600000D02*
X150760000Y-94600000D01*
X151780000Y-89400000D02*
X150760000Y-89400000D01*
X154320000Y-94600000D02*
X153300000Y-94600000D01*
X154320000Y-89400000D02*
X153300000Y-89400000D01*
X144160000Y-94600000D02*
X143590000Y-94600000D01*
X144160000Y-89400000D02*
X143590000Y-89400000D01*
X156410000Y-94600000D02*
X155840000Y-94600000D01*
X156410000Y-89400000D02*
X155840000Y-89400000D01*
X155840000Y-87960000D02*
X155840000Y-89400000D01*
X143590000Y-89400000D02*
X143590000Y-94600000D01*
X156410000Y-89400000D02*
X156410000Y-94600000D01*
X138510000Y-115830000D02*
X138510000Y-114500000D01*
X139840000Y-115830000D02*
X138510000Y-115830000D01*
X141110000Y-115830000D02*
X141110000Y-113170000D01*
X141110000Y-113170000D02*
X161490000Y-113170000D01*
X141110000Y-115830000D02*
X161490000Y-115830000D01*
X161490000Y-115830000D02*
X161490000Y-113170000D01*
X142700000Y-104840000D02*
X141300000Y-104840000D01*
X141300000Y-107160000D02*
X143200000Y-107160000D01*
X133115000Y-100290000D02*
X132790000Y-100290000D01*
X136010000Y-103510000D02*
X136010000Y-103185000D01*
X135685000Y-103510000D02*
X136010000Y-103510000D01*
X132790000Y-103510000D02*
X132790000Y-103185000D01*
X133115000Y-103510000D02*
X132790000Y-103510000D01*
X136010000Y-100290000D02*
X136010000Y-100615000D01*
X135685000Y-100290000D02*
X136010000Y-100290000D01*
X123840000Y-84300000D02*
X123840000Y-86200000D01*
X126160000Y-85700000D02*
X126160000Y-84300000D01*
X176160000Y-85700000D02*
X176160000Y-84300000D01*
X173840000Y-84300000D02*
X173840000Y-86200000D01*
X174241422Y-101290000D02*
X174758578Y-101290000D01*
X174241422Y-102710000D02*
X174758578Y-102710000D01*
X149258578Y-104790000D02*
X148741422Y-104790000D01*
X149258578Y-106210000D02*
X148741422Y-106210000D01*
X153837221Y-98490000D02*
X154162779Y-98490000D01*
X153837221Y-99510000D02*
X154162779Y-99510000D01*
D10*
X106534000Y-83982714D02*
X106534000Y-84527000D01*
X106497714Y-84635857D01*
X106425142Y-84708428D01*
X106316285Y-84744714D01*
X106243714Y-84744714D01*
X107296000Y-84744714D02*
X106860571Y-84744714D01*
X107078285Y-84744714D02*
X107078285Y-83982714D01*
X107005714Y-84091571D01*
X106933142Y-84164142D01*
X106860571Y-84200428D01*
X106534000Y-115510714D02*
X106534000Y-116055000D01*
X106497714Y-116163857D01*
X106425142Y-116236428D01*
X106316285Y-116272714D01*
X106243714Y-116272714D01*
X106860571Y-115583285D02*
X106896857Y-115547000D01*
X106969428Y-115510714D01*
X107150857Y-115510714D01*
X107223428Y-115547000D01*
X107259714Y-115583285D01*
X107296000Y-115655857D01*
X107296000Y-115728428D01*
X107259714Y-115837285D01*
X106824285Y-116272714D01*
X107296000Y-116272714D01*
X192894000Y-84014714D02*
X192894000Y-84559000D01*
X192857714Y-84667857D01*
X192785142Y-84740428D01*
X192676285Y-84776714D01*
X192603714Y-84776714D01*
X193184285Y-84014714D02*
X193656000Y-84014714D01*
X193402000Y-84305000D01*
X193510857Y-84305000D01*
X193583428Y-84341285D01*
X193619714Y-84377571D01*
X193656000Y-84450142D01*
X193656000Y-84631571D01*
X193619714Y-84704142D01*
X193583428Y-84740428D01*
X193510857Y-84776714D01*
X193293142Y-84776714D01*
X193220571Y-84740428D01*
X193184285Y-84704142D01*
X192894000Y-115256714D02*
X192894000Y-115801000D01*
X192857714Y-115909857D01*
X192785142Y-115982428D01*
X192676285Y-116018714D01*
X192603714Y-116018714D01*
X193583428Y-115510714D02*
X193583428Y-116018714D01*
X193402000Y-115220428D02*
X193220571Y-115764714D01*
X193692285Y-115764714D01*
X111184714Y-113388000D02*
X111729000Y-113388000D01*
X111837857Y-113424285D01*
X111910428Y-113496857D01*
X111946714Y-113605714D01*
X111946714Y-113678285D01*
X111184714Y-113097714D02*
X111184714Y-112589714D01*
X111946714Y-112916285D01*
X168842714Y-113388000D02*
X169387000Y-113388000D01*
X169495857Y-113424285D01*
X169568428Y-113496857D01*
X169604714Y-113605714D01*
X169604714Y-113678285D01*
X169169285Y-112916285D02*
X169133000Y-112988857D01*
X169096714Y-113025142D01*
X169024142Y-113061428D01*
X168987857Y-113061428D01*
X168915285Y-113025142D01*
X168879000Y-112988857D01*
X168842714Y-112916285D01*
X168842714Y-112771142D01*
X168879000Y-112698571D01*
X168915285Y-112662285D01*
X168987857Y-112626000D01*
X169024142Y-112626000D01*
X169096714Y-112662285D01*
X169133000Y-112698571D01*
X169169285Y-112771142D01*
X169169285Y-112916285D01*
X169205571Y-112988857D01*
X169241857Y-113025142D01*
X169314428Y-113061428D01*
X169459571Y-113061428D01*
X169532142Y-113025142D01*
X169568428Y-112988857D01*
X169604714Y-112916285D01*
X169604714Y-112771142D01*
X169568428Y-112698571D01*
X169532142Y-112662285D01*
X169459571Y-112626000D01*
X169314428Y-112626000D01*
X169241857Y-112662285D01*
X169205571Y-112698571D01*
X169169285Y-112771142D01*
X110431309Y-82587261D02*
X110431309Y-81952261D01*
X110582500Y-81952261D01*
X110673214Y-81982500D01*
X110733690Y-82042976D01*
X110763928Y-82103452D01*
X110794166Y-82224404D01*
X110794166Y-82315119D01*
X110763928Y-82436071D01*
X110733690Y-82496547D01*
X110673214Y-82557023D01*
X110582500Y-82587261D01*
X110431309Y-82587261D01*
X111368690Y-81952261D02*
X111066309Y-81952261D01*
X111036071Y-82254642D01*
X111066309Y-82224404D01*
X111126785Y-82194166D01*
X111277976Y-82194166D01*
X111338452Y-82224404D01*
X111368690Y-82254642D01*
X111398928Y-82315119D01*
X111398928Y-82466309D01*
X111368690Y-82526785D01*
X111338452Y-82557023D01*
X111277976Y-82587261D01*
X111126785Y-82587261D01*
X111066309Y-82557023D01*
X111036071Y-82526785D01*
X138631309Y-82637261D02*
X138631309Y-82002261D01*
X138782500Y-82002261D01*
X138873214Y-82032500D01*
X138933690Y-82092976D01*
X138963928Y-82153452D01*
X138994166Y-82274404D01*
X138994166Y-82365119D01*
X138963928Y-82486071D01*
X138933690Y-82546547D01*
X138873214Y-82607023D01*
X138782500Y-82637261D01*
X138631309Y-82637261D01*
X139538452Y-82002261D02*
X139417500Y-82002261D01*
X139357023Y-82032500D01*
X139326785Y-82062738D01*
X139266309Y-82153452D01*
X139236071Y-82274404D01*
X139236071Y-82516309D01*
X139266309Y-82576785D01*
X139296547Y-82607023D01*
X139357023Y-82637261D01*
X139477976Y-82637261D01*
X139538452Y-82607023D01*
X139568690Y-82576785D01*
X139598928Y-82516309D01*
X139598928Y-82365119D01*
X139568690Y-82304642D01*
X139538452Y-82274404D01*
X139477976Y-82244166D01*
X139357023Y-82244166D01*
X139296547Y-82274404D01*
X139266309Y-82304642D01*
X139236071Y-82365119D01*
X163631309Y-82637261D02*
X163631309Y-82002261D01*
X163782500Y-82002261D01*
X163873214Y-82032500D01*
X163933690Y-82092976D01*
X163963928Y-82153452D01*
X163994166Y-82274404D01*
X163994166Y-82365119D01*
X163963928Y-82486071D01*
X163933690Y-82546547D01*
X163873214Y-82607023D01*
X163782500Y-82637261D01*
X163631309Y-82637261D01*
X164205833Y-82002261D02*
X164629166Y-82002261D01*
X164357023Y-82637261D01*
X188631309Y-82637261D02*
X188631309Y-82002261D01*
X188782500Y-82002261D01*
X188873214Y-82032500D01*
X188933690Y-82092976D01*
X188963928Y-82153452D01*
X188994166Y-82274404D01*
X188994166Y-82365119D01*
X188963928Y-82486071D01*
X188933690Y-82546547D01*
X188873214Y-82607023D01*
X188782500Y-82637261D01*
X188631309Y-82637261D01*
X189357023Y-82274404D02*
X189296547Y-82244166D01*
X189266309Y-82213928D01*
X189236071Y-82153452D01*
X189236071Y-82123214D01*
X189266309Y-82062738D01*
X189296547Y-82032500D01*
X189357023Y-82002261D01*
X189477976Y-82002261D01*
X189538452Y-82032500D01*
X189568690Y-82062738D01*
X189598928Y-82123214D01*
X189598928Y-82153452D01*
X189568690Y-82213928D01*
X189538452Y-82244166D01*
X189477976Y-82274404D01*
X189357023Y-82274404D01*
X189296547Y-82304642D01*
X189266309Y-82334880D01*
X189236071Y-82395357D01*
X189236071Y-82516309D01*
X189266309Y-82576785D01*
X189296547Y-82607023D01*
X189357023Y-82637261D01*
X189477976Y-82637261D01*
X189538452Y-82607023D01*
X189568690Y-82576785D01*
X189598928Y-82516309D01*
X189598928Y-82395357D01*
X189568690Y-82334880D01*
X189538452Y-82304642D01*
X189477976Y-82274404D01*
X131894166Y-107126785D02*
X131863928Y-107157023D01*
X131773214Y-107187261D01*
X131712738Y-107187261D01*
X131622023Y-107157023D01*
X131561547Y-107096547D01*
X131531309Y-107036071D01*
X131501071Y-106915119D01*
X131501071Y-106824404D01*
X131531309Y-106703452D01*
X131561547Y-106642976D01*
X131622023Y-106582500D01*
X131712738Y-106552261D01*
X131773214Y-106552261D01*
X131863928Y-106582500D01*
X131894166Y-106612738D01*
X132498928Y-107187261D02*
X132136071Y-107187261D01*
X132317500Y-107187261D02*
X132317500Y-106552261D01*
X132257023Y-106642976D01*
X132196547Y-106703452D01*
X132136071Y-106733690D01*
X131894166Y-105726785D02*
X131863928Y-105757023D01*
X131773214Y-105787261D01*
X131712738Y-105787261D01*
X131622023Y-105757023D01*
X131561547Y-105696547D01*
X131531309Y-105636071D01*
X131501071Y-105515119D01*
X131501071Y-105424404D01*
X131531309Y-105303452D01*
X131561547Y-105242976D01*
X131622023Y-105182500D01*
X131712738Y-105152261D01*
X131773214Y-105152261D01*
X131863928Y-105182500D01*
X131894166Y-105212738D01*
X132136071Y-105212738D02*
X132166309Y-105182500D01*
X132226785Y-105152261D01*
X132377976Y-105152261D01*
X132438452Y-105182500D01*
X132468690Y-105212738D01*
X132498928Y-105273214D01*
X132498928Y-105333690D01*
X132468690Y-105424404D01*
X132105833Y-105787261D01*
X132498928Y-105787261D01*
X124594166Y-88926785D02*
X124563928Y-88957023D01*
X124473214Y-88987261D01*
X124412738Y-88987261D01*
X124322023Y-88957023D01*
X124261547Y-88896547D01*
X124231309Y-88836071D01*
X124201071Y-88715119D01*
X124201071Y-88624404D01*
X124231309Y-88503452D01*
X124261547Y-88442976D01*
X124322023Y-88382500D01*
X124412738Y-88352261D01*
X124473214Y-88352261D01*
X124563928Y-88382500D01*
X124594166Y-88412738D01*
X124805833Y-88352261D02*
X125198928Y-88352261D01*
X124987261Y-88594166D01*
X125077976Y-88594166D01*
X125138452Y-88624404D01*
X125168690Y-88654642D01*
X125198928Y-88715119D01*
X125198928Y-88866309D01*
X125168690Y-88926785D01*
X125138452Y-88957023D01*
X125077976Y-88987261D01*
X124896547Y-88987261D01*
X124836071Y-88957023D01*
X124805833Y-88926785D01*
X174594166Y-88826785D02*
X174563928Y-88857023D01*
X174473214Y-88887261D01*
X174412738Y-88887261D01*
X174322023Y-88857023D01*
X174261547Y-88796547D01*
X174231309Y-88736071D01*
X174201071Y-88615119D01*
X174201071Y-88524404D01*
X174231309Y-88403452D01*
X174261547Y-88342976D01*
X174322023Y-88282500D01*
X174412738Y-88252261D01*
X174473214Y-88252261D01*
X174563928Y-88282500D01*
X174594166Y-88312738D01*
X175138452Y-88463928D02*
X175138452Y-88887261D01*
X174987261Y-88222023D02*
X174836071Y-88675595D01*
X175229166Y-88675595D01*
X177894166Y-105726785D02*
X177863928Y-105757023D01*
X177773214Y-105787261D01*
X177712738Y-105787261D01*
X177622023Y-105757023D01*
X177561547Y-105696547D01*
X177531309Y-105636071D01*
X177501071Y-105515119D01*
X177501071Y-105424404D01*
X177531309Y-105303452D01*
X177561547Y-105242976D01*
X177622023Y-105182500D01*
X177712738Y-105152261D01*
X177773214Y-105152261D01*
X177863928Y-105182500D01*
X177894166Y-105212738D01*
X178468690Y-105152261D02*
X178166309Y-105152261D01*
X178136071Y-105454642D01*
X178166309Y-105424404D01*
X178226785Y-105394166D01*
X178377976Y-105394166D01*
X178438452Y-105424404D01*
X178468690Y-105454642D01*
X178498928Y-105515119D01*
X178498928Y-105666309D01*
X178468690Y-105726785D01*
X178438452Y-105757023D01*
X178377976Y-105787261D01*
X178226785Y-105787261D01*
X178166309Y-105757023D01*
X178136071Y-105726785D01*
X151994166Y-109226785D02*
X151963928Y-109257023D01*
X151873214Y-109287261D01*
X151812738Y-109287261D01*
X151722023Y-109257023D01*
X151661547Y-109196547D01*
X151631309Y-109136071D01*
X151601071Y-109015119D01*
X151601071Y-108924404D01*
X151631309Y-108803452D01*
X151661547Y-108742976D01*
X151722023Y-108682500D01*
X151812738Y-108652261D01*
X151873214Y-108652261D01*
X151963928Y-108682500D01*
X151994166Y-108712738D01*
X152538452Y-108652261D02*
X152417500Y-108652261D01*
X152357023Y-108682500D01*
X152326785Y-108712738D01*
X152266309Y-108803452D01*
X152236071Y-108924404D01*
X152236071Y-109166309D01*
X152266309Y-109226785D01*
X152296547Y-109257023D01*
X152357023Y-109287261D01*
X152477976Y-109287261D01*
X152538452Y-109257023D01*
X152568690Y-109226785D01*
X152598928Y-109166309D01*
X152598928Y-109015119D01*
X152568690Y-108954642D01*
X152538452Y-108924404D01*
X152477976Y-108894166D01*
X152357023Y-108894166D01*
X152296547Y-108924404D01*
X152266309Y-108954642D01*
X152236071Y-109015119D01*
X157062261Y-92211666D02*
X157515833Y-92211666D01*
X157606547Y-92241904D01*
X157667023Y-92302380D01*
X157697261Y-92393095D01*
X157697261Y-92453571D01*
X157062261Y-91606904D02*
X157062261Y-91909285D01*
X157364642Y-91939523D01*
X157334404Y-91909285D01*
X157304166Y-91848809D01*
X157304166Y-91697619D01*
X157334404Y-91637142D01*
X157364642Y-91606904D01*
X157425119Y-91576666D01*
X157576309Y-91576666D01*
X157636785Y-91606904D01*
X157667023Y-91637142D01*
X157697261Y-91697619D01*
X157697261Y-91848809D01*
X157667023Y-91909285D01*
X157636785Y-91939523D01*
X137162261Y-114711666D02*
X137615833Y-114711666D01*
X137706547Y-114741904D01*
X137767023Y-114802380D01*
X137797261Y-114893095D01*
X137797261Y-114953571D01*
X137162261Y-114137142D02*
X137162261Y-114258095D01*
X137192500Y-114318571D01*
X137222738Y-114348809D01*
X137313452Y-114409285D01*
X137434404Y-114439523D01*
X137676309Y-114439523D01*
X137736785Y-114409285D01*
X137767023Y-114379047D01*
X137797261Y-114318571D01*
X137797261Y-114197619D01*
X137767023Y-114137142D01*
X137736785Y-114106904D01*
X137676309Y-114076666D01*
X137525119Y-114076666D01*
X137464642Y-114106904D01*
X137434404Y-114137142D01*
X137404166Y-114197619D01*
X137404166Y-114318571D01*
X137434404Y-114379047D01*
X137464642Y-114409285D01*
X137525119Y-114439523D01*
X141939523Y-108347738D02*
X141879047Y-108317500D01*
X141818571Y-108257023D01*
X141727857Y-108166309D01*
X141667380Y-108136071D01*
X141606904Y-108136071D01*
X141637142Y-108287261D02*
X141576666Y-108257023D01*
X141516190Y-108196547D01*
X141485952Y-108075595D01*
X141485952Y-107863928D01*
X141516190Y-107742976D01*
X141576666Y-107682500D01*
X141637142Y-107652261D01*
X141758095Y-107652261D01*
X141818571Y-107682500D01*
X141879047Y-107742976D01*
X141909285Y-107863928D01*
X141909285Y-108075595D01*
X141879047Y-108196547D01*
X141818571Y-108257023D01*
X141758095Y-108287261D01*
X141637142Y-108287261D01*
X142514047Y-108287261D02*
X142151190Y-108287261D01*
X142332619Y-108287261D02*
X142332619Y-107652261D01*
X142272142Y-107742976D01*
X142211666Y-107803452D01*
X142151190Y-107833690D01*
X114887261Y-89205833D02*
X114584880Y-89417500D01*
X114887261Y-89568690D02*
X114252261Y-89568690D01*
X114252261Y-89326785D01*
X114282500Y-89266309D01*
X114312738Y-89236071D01*
X114373214Y-89205833D01*
X114463928Y-89205833D01*
X114524404Y-89236071D01*
X114554642Y-89266309D01*
X114584880Y-89326785D01*
X114584880Y-89568690D01*
X114887261Y-88601071D02*
X114887261Y-88963928D01*
X114887261Y-88782500D02*
X114252261Y-88782500D01*
X114342976Y-88842976D01*
X114403452Y-88903452D01*
X114433690Y-88963928D01*
X114957261Y-108605833D02*
X114654880Y-108817500D01*
X114957261Y-108968690D02*
X114322261Y-108968690D01*
X114322261Y-108726785D01*
X114352500Y-108666309D01*
X114382738Y-108636071D01*
X114443214Y-108605833D01*
X114533928Y-108605833D01*
X114594404Y-108636071D01*
X114624642Y-108666309D01*
X114654880Y-108726785D01*
X114654880Y-108968690D01*
X114382738Y-108363928D02*
X114352500Y-108333690D01*
X114322261Y-108273214D01*
X114322261Y-108122023D01*
X114352500Y-108061547D01*
X114382738Y-108031309D01*
X114443214Y-108001071D01*
X114503690Y-108001071D01*
X114594404Y-108031309D01*
X114957261Y-108394166D01*
X114957261Y-108001071D01*
X185617261Y-91605833D02*
X185314880Y-91817500D01*
X185617261Y-91968690D02*
X184982261Y-91968690D01*
X184982261Y-91726785D01*
X185012500Y-91666309D01*
X185042738Y-91636071D01*
X185103214Y-91605833D01*
X185193928Y-91605833D01*
X185254404Y-91636071D01*
X185284642Y-91666309D01*
X185314880Y-91726785D01*
X185314880Y-91968690D01*
X184982261Y-91394166D02*
X184982261Y-91001071D01*
X185224166Y-91212738D01*
X185224166Y-91122023D01*
X185254404Y-91061547D01*
X185284642Y-91031309D01*
X185345119Y-91001071D01*
X185496309Y-91001071D01*
X185556785Y-91031309D01*
X185587023Y-91061547D01*
X185617261Y-91122023D01*
X185617261Y-91303452D01*
X185587023Y-91363928D01*
X185556785Y-91394166D01*
X185617261Y-111605833D02*
X185314880Y-111817500D01*
X185617261Y-111968690D02*
X184982261Y-111968690D01*
X184982261Y-111726785D01*
X185012500Y-111666309D01*
X185042738Y-111636071D01*
X185103214Y-111605833D01*
X185193928Y-111605833D01*
X185254404Y-111636071D01*
X185284642Y-111666309D01*
X185314880Y-111726785D01*
X185314880Y-111968690D01*
X185193928Y-111061547D02*
X185617261Y-111061547D01*
X184952023Y-111212738D02*
X185405595Y-111363928D01*
X185405595Y-110970833D01*
X139094166Y-100387261D02*
X138882500Y-100084880D01*
X138731309Y-100387261D02*
X138731309Y-99752261D01*
X138973214Y-99752261D01*
X139033690Y-99782500D01*
X139063928Y-99812738D01*
X139094166Y-99873214D01*
X139094166Y-99963928D01*
X139063928Y-100024404D01*
X139033690Y-100054642D01*
X138973214Y-100084880D01*
X138731309Y-100084880D01*
X139668690Y-99752261D02*
X139366309Y-99752261D01*
X139336071Y-100054642D01*
X139366309Y-100024404D01*
X139426785Y-99994166D01*
X139577976Y-99994166D01*
X139638452Y-100024404D01*
X139668690Y-100054642D01*
X139698928Y-100115119D01*
X139698928Y-100266309D01*
X139668690Y-100326785D01*
X139638452Y-100357023D01*
X139577976Y-100387261D01*
X139426785Y-100387261D01*
X139366309Y-100357023D01*
X139336071Y-100326785D01*
X139994166Y-103887261D02*
X139782500Y-103584880D01*
X139631309Y-103887261D02*
X139631309Y-103252261D01*
X139873214Y-103252261D01*
X139933690Y-103282500D01*
X139963928Y-103312738D01*
X139994166Y-103373214D01*
X139994166Y-103463928D01*
X139963928Y-103524404D01*
X139933690Y-103554642D01*
X139873214Y-103584880D01*
X139631309Y-103584880D01*
X140538452Y-103252261D02*
X140417500Y-103252261D01*
X140357023Y-103282500D01*
X140326785Y-103312738D01*
X140266309Y-103403452D01*
X140236071Y-103524404D01*
X140236071Y-103766309D01*
X140266309Y-103826785D01*
X140296547Y-103857023D01*
X140357023Y-103887261D01*
X140477976Y-103887261D01*
X140538452Y-103857023D01*
X140568690Y-103826785D01*
X140598928Y-103766309D01*
X140598928Y-103615119D01*
X140568690Y-103554642D01*
X140538452Y-103524404D01*
X140477976Y-103494166D01*
X140357023Y-103494166D01*
X140296547Y-103524404D01*
X140266309Y-103554642D01*
X140236071Y-103615119D01*
X144894166Y-105117261D02*
X144682500Y-104814880D01*
X144531309Y-105117261D02*
X144531309Y-104482261D01*
X144773214Y-104482261D01*
X144833690Y-104512500D01*
X144863928Y-104542738D01*
X144894166Y-104603214D01*
X144894166Y-104693928D01*
X144863928Y-104754404D01*
X144833690Y-104784642D01*
X144773214Y-104814880D01*
X144531309Y-104814880D01*
X145105833Y-104482261D02*
X145529166Y-104482261D01*
X145257023Y-105117261D01*
X138894166Y-105287261D02*
X138682500Y-104984880D01*
X138531309Y-105287261D02*
X138531309Y-104652261D01*
X138773214Y-104652261D01*
X138833690Y-104682500D01*
X138863928Y-104712738D01*
X138894166Y-104773214D01*
X138894166Y-104863928D01*
X138863928Y-104924404D01*
X138833690Y-104954642D01*
X138773214Y-104984880D01*
X138531309Y-104984880D01*
X139257023Y-104924404D02*
X139196547Y-104894166D01*
X139166309Y-104863928D01*
X139136071Y-104803452D01*
X139136071Y-104773214D01*
X139166309Y-104712738D01*
X139196547Y-104682500D01*
X139257023Y-104652261D01*
X139377976Y-104652261D01*
X139438452Y-104682500D01*
X139468690Y-104712738D01*
X139498928Y-104773214D01*
X139498928Y-104803452D01*
X139468690Y-104863928D01*
X139438452Y-104894166D01*
X139377976Y-104924404D01*
X139257023Y-104924404D01*
X139196547Y-104954642D01*
X139166309Y-104984880D01*
X139136071Y-105045357D01*
X139136071Y-105166309D01*
X139166309Y-105226785D01*
X139196547Y-105257023D01*
X139257023Y-105287261D01*
X139377976Y-105287261D01*
X139438452Y-105257023D01*
X139468690Y-105226785D01*
X139498928Y-105166309D01*
X139498928Y-105045357D01*
X139468690Y-104984880D01*
X139438452Y-104954642D01*
X139377976Y-104924404D01*
X178957261Y-85105833D02*
X178654880Y-85317500D01*
X178957261Y-85468690D02*
X178322261Y-85468690D01*
X178322261Y-85226785D01*
X178352500Y-85166309D01*
X178382738Y-85136071D01*
X178443214Y-85105833D01*
X178533928Y-85105833D01*
X178594404Y-85136071D01*
X178624642Y-85166309D01*
X178654880Y-85226785D01*
X178654880Y-85468690D01*
X178957261Y-84803452D02*
X178957261Y-84682500D01*
X178927023Y-84622023D01*
X178896785Y-84591785D01*
X178806071Y-84531309D01*
X178685119Y-84501071D01*
X178443214Y-84501071D01*
X178382738Y-84531309D01*
X178352500Y-84561547D01*
X178322261Y-84622023D01*
X178322261Y-84742976D01*
X178352500Y-84803452D01*
X178382738Y-84833690D01*
X178443214Y-84863928D01*
X178594404Y-84863928D01*
X178654880Y-84833690D01*
X178685119Y-84803452D01*
X178715357Y-84742976D01*
X178715357Y-84622023D01*
X178685119Y-84561547D01*
X178654880Y-84531309D01*
X178594404Y-84501071D01*
X128957261Y-85408214D02*
X128654880Y-85619880D01*
X128957261Y-85771071D02*
X128322261Y-85771071D01*
X128322261Y-85529166D01*
X128352500Y-85468690D01*
X128382738Y-85438452D01*
X128443214Y-85408214D01*
X128533928Y-85408214D01*
X128594404Y-85438452D01*
X128624642Y-85468690D01*
X128654880Y-85529166D01*
X128654880Y-85771071D01*
X128957261Y-84803452D02*
X128957261Y-85166309D01*
X128957261Y-84984880D02*
X128322261Y-84984880D01*
X128412976Y-85045357D01*
X128473452Y-85105833D01*
X128503690Y-85166309D01*
X128322261Y-84410357D02*
X128322261Y-84349880D01*
X128352500Y-84289404D01*
X128382738Y-84259166D01*
X128443214Y-84228928D01*
X128564166Y-84198690D01*
X128715357Y-84198690D01*
X128836309Y-84228928D01*
X128896785Y-84259166D01*
X128927023Y-84289404D01*
X128957261Y-84349880D01*
X128957261Y-84410357D01*
X128927023Y-84470833D01*
X128896785Y-84501071D01*
X128836309Y-84531309D01*
X128715357Y-84561547D01*
X128564166Y-84561547D01*
X128443214Y-84531309D01*
X128382738Y-84501071D01*
X128352500Y-84470833D01*
X128322261Y-84410357D01*
X161957261Y-110908214D02*
X161654880Y-111119880D01*
X161957261Y-111271071D02*
X161322261Y-111271071D01*
X161322261Y-111029166D01*
X161352500Y-110968690D01*
X161382738Y-110938452D01*
X161443214Y-110908214D01*
X161533928Y-110908214D01*
X161594404Y-110938452D01*
X161624642Y-110968690D01*
X161654880Y-111029166D01*
X161654880Y-111271071D01*
X161957261Y-110303452D02*
X161957261Y-110666309D01*
X161957261Y-110484880D02*
X161322261Y-110484880D01*
X161412976Y-110545357D01*
X161473452Y-110605833D01*
X161503690Y-110666309D01*
X161957261Y-109698690D02*
X161957261Y-110061547D01*
X161957261Y-109880119D02*
X161322261Y-109880119D01*
X161412976Y-109940595D01*
X161473452Y-110001071D01*
X161503690Y-110061547D01*
X139591785Y-108787261D02*
X139380119Y-108484880D01*
X139228928Y-108787261D02*
X139228928Y-108152261D01*
X139470833Y-108152261D01*
X139531309Y-108182500D01*
X139561547Y-108212738D01*
X139591785Y-108273214D01*
X139591785Y-108363928D01*
X139561547Y-108424404D01*
X139531309Y-108454642D01*
X139470833Y-108484880D01*
X139228928Y-108484880D01*
X140196547Y-108787261D02*
X139833690Y-108787261D01*
X140015119Y-108787261D02*
X140015119Y-108152261D01*
X139954642Y-108242976D01*
X139894166Y-108303452D01*
X139833690Y-108333690D01*
X140438452Y-108212738D02*
X140468690Y-108182500D01*
X140529166Y-108152261D01*
X140680357Y-108152261D01*
X140740833Y-108182500D01*
X140771071Y-108212738D01*
X140801309Y-108273214D01*
X140801309Y-108333690D01*
X140771071Y-108424404D01*
X140408214Y-108787261D01*
X140801309Y-108787261D01*
X171457261Y-106908214D02*
X171154880Y-107119880D01*
X171457261Y-107271071D02*
X170822261Y-107271071D01*
X170822261Y-107029166D01*
X170852500Y-106968690D01*
X170882738Y-106938452D01*
X170943214Y-106908214D01*
X171033928Y-106908214D01*
X171094404Y-106938452D01*
X171124642Y-106968690D01*
X171154880Y-107029166D01*
X171154880Y-107271071D01*
X171457261Y-106303452D02*
X171457261Y-106666309D01*
X171457261Y-106484880D02*
X170822261Y-106484880D01*
X170912976Y-106545357D01*
X170973452Y-106605833D01*
X171003690Y-106666309D01*
X170822261Y-106091785D02*
X170822261Y-105698690D01*
X171064166Y-105910357D01*
X171064166Y-105819642D01*
X171094404Y-105759166D01*
X171124642Y-105728928D01*
X171185119Y-105698690D01*
X171336309Y-105698690D01*
X171396785Y-105728928D01*
X171427023Y-105759166D01*
X171457261Y-105819642D01*
X171457261Y-106001071D01*
X171427023Y-106061547D01*
X171396785Y-106091785D01*
X122591785Y-105617261D02*
X122380119Y-105314880D01*
X122228928Y-105617261D02*
X122228928Y-104982261D01*
X122470833Y-104982261D01*
X122531309Y-105012500D01*
X122561547Y-105042738D01*
X122591785Y-105103214D01*
X122591785Y-105193928D01*
X122561547Y-105254404D01*
X122531309Y-105284642D01*
X122470833Y-105314880D01*
X122228928Y-105314880D01*
X123196547Y-105617261D02*
X122833690Y-105617261D01*
X123015119Y-105617261D02*
X123015119Y-104982261D01*
X122954642Y-105072976D01*
X122894166Y-105133452D01*
X122833690Y-105163690D01*
X123740833Y-105193928D02*
X123740833Y-105617261D01*
X123589642Y-104952023D02*
X123438452Y-105405595D01*
X123831547Y-105405595D01*
X133916190Y-98732261D02*
X133916190Y-99246309D01*
X133946428Y-99306785D01*
X133976666Y-99337023D01*
X134037142Y-99367261D01*
X134158095Y-99367261D01*
X134218571Y-99337023D01*
X134248809Y-99306785D01*
X134279047Y-99246309D01*
X134279047Y-98732261D01*
X134914047Y-99367261D02*
X134551190Y-99367261D01*
X134732619Y-99367261D02*
X134732619Y-98732261D01*
X134672142Y-98822976D01*
X134611666Y-98883452D01*
X134551190Y-98913690D01*
X122652261Y-85483809D02*
X123166309Y-85483809D01*
X123226785Y-85453571D01*
X123257023Y-85423333D01*
X123287261Y-85362857D01*
X123287261Y-85241904D01*
X123257023Y-85181428D01*
X123226785Y-85151190D01*
X123166309Y-85120952D01*
X122652261Y-85120952D01*
X122712738Y-84848809D02*
X122682500Y-84818571D01*
X122652261Y-84758095D01*
X122652261Y-84606904D01*
X122682500Y-84546428D01*
X122712738Y-84516190D01*
X122773214Y-84485952D01*
X122833690Y-84485952D01*
X122924404Y-84516190D01*
X123287261Y-84879047D01*
X123287261Y-84485952D01*
X172652261Y-85483809D02*
X173166309Y-85483809D01*
X173226785Y-85453571D01*
X173257023Y-85423333D01*
X173287261Y-85362857D01*
X173287261Y-85241904D01*
X173257023Y-85181428D01*
X173226785Y-85151190D01*
X173166309Y-85120952D01*
X172652261Y-85120952D01*
X172652261Y-84879047D02*
X172652261Y-84485952D01*
X172894166Y-84697619D01*
X172894166Y-84606904D01*
X172924404Y-84546428D01*
X172954642Y-84516190D01*
X173015119Y-84485952D01*
X173166309Y-84485952D01*
X173226785Y-84516190D01*
X173257023Y-84546428D01*
X173287261Y-84606904D01*
X173287261Y-84788333D01*
X173257023Y-84848809D01*
X173226785Y-84879047D01*
X177331666Y-102226785D02*
X177301428Y-102257023D01*
X177210714Y-102287261D01*
X177150238Y-102287261D01*
X177059523Y-102257023D01*
X176999047Y-102196547D01*
X176968809Y-102136071D01*
X176938571Y-102015119D01*
X176938571Y-101924404D01*
X176968809Y-101803452D01*
X176999047Y-101742976D01*
X177059523Y-101682500D01*
X177150238Y-101652261D01*
X177210714Y-101652261D01*
X177301428Y-101682500D01*
X177331666Y-101712738D01*
X177543333Y-101652261D02*
X177966666Y-101652261D01*
X177694523Y-102287261D01*
X151294166Y-105726785D02*
X151263928Y-105757023D01*
X151173214Y-105787261D01*
X151112738Y-105787261D01*
X151022023Y-105757023D01*
X150961547Y-105696547D01*
X150931309Y-105636071D01*
X150901071Y-105515119D01*
X150901071Y-105424404D01*
X150931309Y-105303452D01*
X150961547Y-105242976D01*
X151022023Y-105182500D01*
X151112738Y-105152261D01*
X151173214Y-105152261D01*
X151263928Y-105182500D01*
X151294166Y-105212738D01*
X151657023Y-105424404D02*
X151596547Y-105394166D01*
X151566309Y-105363928D01*
X151536071Y-105303452D01*
X151536071Y-105273214D01*
X151566309Y-105212738D01*
X151596547Y-105182500D01*
X151657023Y-105152261D01*
X151777976Y-105152261D01*
X151838452Y-105182500D01*
X151868690Y-105212738D01*
X151898928Y-105273214D01*
X151898928Y-105303452D01*
X151868690Y-105363928D01*
X151838452Y-105394166D01*
X151777976Y-105424404D01*
X151657023Y-105424404D01*
X151596547Y-105454642D01*
X151566309Y-105484880D01*
X151536071Y-105545357D01*
X151536071Y-105666309D01*
X151566309Y-105726785D01*
X151596547Y-105757023D01*
X151657023Y-105787261D01*
X151777976Y-105787261D01*
X151838452Y-105757023D01*
X151868690Y-105726785D01*
X151898928Y-105666309D01*
X151898928Y-105545357D01*
X151868690Y-105484880D01*
X151838452Y-105454642D01*
X151777976Y-105424404D01*
X153591785Y-100787261D02*
X153380119Y-100484880D01*
X153228928Y-100787261D02*
X153228928Y-100152261D01*
X153470833Y-100152261D01*
X153531309Y-100182500D01*
X153561547Y-100212738D01*
X153591785Y-100273214D01*
X153591785Y-100363928D01*
X153561547Y-100424404D01*
X153531309Y-100454642D01*
X153470833Y-100484880D01*
X153228928Y-100484880D01*
X154196547Y-100787261D02*
X153833690Y-100787261D01*
X154015119Y-100787261D02*
X154015119Y-100152261D01*
X153954642Y-100242976D01*
X153894166Y-100303452D01*
X153833690Y-100333690D01*
X154771071Y-100152261D02*
X154468690Y-100152261D01*
X154438452Y-100454642D01*
X154468690Y-100424404D01*
X154529166Y-100394166D01*
X154680357Y-100394166D01*
X154740833Y-100424404D01*
X154771071Y-100454642D01*
X154801309Y-100515119D01*
X154801309Y-100666309D01*
X154771071Y-100726785D01*
X154740833Y-100757023D01*
X154680357Y-100787261D01*
X154529166Y-100787261D01*
X154468690Y-100757023D01*
X154438452Y-100726785D01*
M02*
