G04 #@! TF.GenerationSoftware,KiCad,Pcbnew,5.1.6*
G04 #@! TF.CreationDate,2020-10-25T14:47:58-05:00*
G04 #@! TF.ProjectId,ddr-ps2-controller,6464722d-7073-4322-9d63-6f6e74726f6c,A*
G04 #@! TF.SameCoordinates,Original*
G04 #@! TF.FileFunction,Copper,L2,Bot*
G04 #@! TF.FilePolarity,Positive*
%FSLAX46Y46*%
G04 Gerber Fmt 4.6, Leading zero omitted, Abs format (unit mm)*
G04 Created by KiCad (PCBNEW 5.1.6) date 2020-10-25 14:47:58*
%MOMM*%
%LPD*%
G01*
G04 APERTURE LIST*
G04 #@! TA.AperFunction,ViaPad*
%ADD10C,0.762000*%
G04 #@! TD*
G04 #@! TA.AperFunction,SMDPad,CuDef*
%ADD11R,1.000000X0.900000*%
G04 #@! TD*
G04 #@! TA.AperFunction,SMDPad,CuDef*
%ADD12R,0.800000X0.600000*%
G04 #@! TD*
G04 #@! TA.AperFunction,ComponentPad*
%ADD13O,1.700000X1.700000*%
G04 #@! TD*
G04 #@! TA.AperFunction,ComponentPad*
%ADD14R,1.700000X1.700000*%
G04 #@! TD*
G04 #@! TA.AperFunction,ComponentPad*
%ADD15C,8.600000*%
G04 #@! TD*
G04 #@! TA.AperFunction,ComponentPad*
%ADD16C,0.900000*%
G04 #@! TD*
G04 #@! TA.AperFunction,Conductor*
%ADD17C,0.254000*%
G04 #@! TD*
G04 APERTURE END LIST*
D10*
X136100000Y-99500000D03*
X133600000Y-99100000D03*
X132200000Y-104300000D03*
G04 #@! TA.AperFunction,ComponentPad*
G36*
G01*
X106113000Y-91650000D02*
X107463000Y-91650000D01*
G75*
G02*
X107888000Y-92075000I0J-425000D01*
G01*
X107888000Y-92925000D01*
G75*
G02*
X107463000Y-93350000I-425000J0D01*
G01*
X106113000Y-93350000D01*
G75*
G02*
X105688000Y-92925000I0J425000D01*
G01*
X105688000Y-92075000D01*
G75*
G02*
X106113000Y-91650000I425000J0D01*
G01*
G37*
G04 #@! TD.AperFunction*
G04 #@! TA.AperFunction,ComponentPad*
G36*
G01*
X106113000Y-89150000D02*
X107463000Y-89150000D01*
G75*
G02*
X107888000Y-89575000I0J-425000D01*
G01*
X107888000Y-90425000D01*
G75*
G02*
X107463000Y-90850000I-425000J0D01*
G01*
X106113000Y-90850000D01*
G75*
G02*
X105688000Y-90425000I0J425000D01*
G01*
X105688000Y-89575000D01*
G75*
G02*
X106113000Y-89150000I425000J0D01*
G01*
G37*
G04 #@! TD.AperFunction*
G04 #@! TA.AperFunction,ComponentPad*
G36*
G01*
X106113000Y-86650000D02*
X107463000Y-86650000D01*
G75*
G02*
X107888000Y-87075000I0J-425000D01*
G01*
X107888000Y-87925000D01*
G75*
G02*
X107463000Y-88350000I-425000J0D01*
G01*
X106113000Y-88350000D01*
G75*
G02*
X105688000Y-87925000I0J425000D01*
G01*
X105688000Y-87075000D01*
G75*
G02*
X106113000Y-86650000I425000J0D01*
G01*
G37*
G04 #@! TD.AperFunction*
G04 #@! TA.AperFunction,ComponentPad*
G36*
G01*
X106113000Y-111736000D02*
X107463000Y-111736000D01*
G75*
G02*
X107888000Y-112161000I0J-425000D01*
G01*
X107888000Y-113011000D01*
G75*
G02*
X107463000Y-113436000I-425000J0D01*
G01*
X106113000Y-113436000D01*
G75*
G02*
X105688000Y-113011000I0J425000D01*
G01*
X105688000Y-112161000D01*
G75*
G02*
X106113000Y-111736000I425000J0D01*
G01*
G37*
G04 #@! TD.AperFunction*
G04 #@! TA.AperFunction,ComponentPad*
G36*
G01*
X106113000Y-109236000D02*
X107463000Y-109236000D01*
G75*
G02*
X107888000Y-109661000I0J-425000D01*
G01*
X107888000Y-110511000D01*
G75*
G02*
X107463000Y-110936000I-425000J0D01*
G01*
X106113000Y-110936000D01*
G75*
G02*
X105688000Y-110511000I0J425000D01*
G01*
X105688000Y-109661000D01*
G75*
G02*
X106113000Y-109236000I425000J0D01*
G01*
G37*
G04 #@! TD.AperFunction*
G04 #@! TA.AperFunction,ComponentPad*
G36*
G01*
X106113000Y-106736000D02*
X107463000Y-106736000D01*
G75*
G02*
X107888000Y-107161000I0J-425000D01*
G01*
X107888000Y-108011000D01*
G75*
G02*
X107463000Y-108436000I-425000J0D01*
G01*
X106113000Y-108436000D01*
G75*
G02*
X105688000Y-108011000I0J425000D01*
G01*
X105688000Y-107161000D01*
G75*
G02*
X106113000Y-106736000I425000J0D01*
G01*
G37*
G04 #@! TD.AperFunction*
G04 #@! TA.AperFunction,ComponentPad*
G36*
G01*
X193823000Y-88370000D02*
X192473000Y-88370000D01*
G75*
G02*
X192048000Y-87945000I0J425000D01*
G01*
X192048000Y-87095000D01*
G75*
G02*
X192473000Y-86670000I425000J0D01*
G01*
X193823000Y-86670000D01*
G75*
G02*
X194248000Y-87095000I0J-425000D01*
G01*
X194248000Y-87945000D01*
G75*
G02*
X193823000Y-88370000I-425000J0D01*
G01*
G37*
G04 #@! TD.AperFunction*
G04 #@! TA.AperFunction,ComponentPad*
G36*
G01*
X193823000Y-90870000D02*
X192473000Y-90870000D01*
G75*
G02*
X192048000Y-90445000I0J425000D01*
G01*
X192048000Y-89595000D01*
G75*
G02*
X192473000Y-89170000I425000J0D01*
G01*
X193823000Y-89170000D01*
G75*
G02*
X194248000Y-89595000I0J-425000D01*
G01*
X194248000Y-90445000D01*
G75*
G02*
X193823000Y-90870000I-425000J0D01*
G01*
G37*
G04 #@! TD.AperFunction*
G04 #@! TA.AperFunction,ComponentPad*
G36*
G01*
X193823000Y-93370000D02*
X192473000Y-93370000D01*
G75*
G02*
X192048000Y-92945000I0J425000D01*
G01*
X192048000Y-92095000D01*
G75*
G02*
X192473000Y-91670000I425000J0D01*
G01*
X193823000Y-91670000D01*
G75*
G02*
X194248000Y-92095000I0J-425000D01*
G01*
X194248000Y-92945000D01*
G75*
G02*
X193823000Y-93370000I-425000J0D01*
G01*
G37*
G04 #@! TD.AperFunction*
G04 #@! TA.AperFunction,ComponentPad*
G36*
G01*
X193823000Y-108350000D02*
X192473000Y-108350000D01*
G75*
G02*
X192048000Y-107925000I0J425000D01*
G01*
X192048000Y-107075000D01*
G75*
G02*
X192473000Y-106650000I425000J0D01*
G01*
X193823000Y-106650000D01*
G75*
G02*
X194248000Y-107075000I0J-425000D01*
G01*
X194248000Y-107925000D01*
G75*
G02*
X193823000Y-108350000I-425000J0D01*
G01*
G37*
G04 #@! TD.AperFunction*
G04 #@! TA.AperFunction,ComponentPad*
G36*
G01*
X193823000Y-110850000D02*
X192473000Y-110850000D01*
G75*
G02*
X192048000Y-110425000I0J425000D01*
G01*
X192048000Y-109575000D01*
G75*
G02*
X192473000Y-109150000I425000J0D01*
G01*
X193823000Y-109150000D01*
G75*
G02*
X194248000Y-109575000I0J-425000D01*
G01*
X194248000Y-110425000D01*
G75*
G02*
X193823000Y-110850000I-425000J0D01*
G01*
G37*
G04 #@! TD.AperFunction*
G04 #@! TA.AperFunction,ComponentPad*
G36*
G01*
X193823000Y-113350000D02*
X192473000Y-113350000D01*
G75*
G02*
X192048000Y-112925000I0J425000D01*
G01*
X192048000Y-112075000D01*
G75*
G02*
X192473000Y-111650000I425000J0D01*
G01*
X193823000Y-111650000D01*
G75*
G02*
X194248000Y-112075000I0J-425000D01*
G01*
X194248000Y-112925000D01*
G75*
G02*
X193823000Y-113350000I-425000J0D01*
G01*
G37*
G04 #@! TD.AperFunction*
G04 #@! TA.AperFunction,ComponentPad*
G36*
G01*
X118852000Y-113809000D02*
X118852000Y-112459000D01*
G75*
G02*
X119277000Y-112034000I425000J0D01*
G01*
X120127000Y-112034000D01*
G75*
G02*
X120552000Y-112459000I0J-425000D01*
G01*
X120552000Y-113809000D01*
G75*
G02*
X120127000Y-114234000I-425000J0D01*
G01*
X119277000Y-114234000D01*
G75*
G02*
X118852000Y-113809000I0J425000D01*
G01*
G37*
G04 #@! TD.AperFunction*
G04 #@! TA.AperFunction,ComponentPad*
G36*
G01*
X116352000Y-113809000D02*
X116352000Y-112459000D01*
G75*
G02*
X116777000Y-112034000I425000J0D01*
G01*
X117627000Y-112034000D01*
G75*
G02*
X118052000Y-112459000I0J-425000D01*
G01*
X118052000Y-113809000D01*
G75*
G02*
X117627000Y-114234000I-425000J0D01*
G01*
X116777000Y-114234000D01*
G75*
G02*
X116352000Y-113809000I0J425000D01*
G01*
G37*
G04 #@! TD.AperFunction*
G04 #@! TA.AperFunction,ComponentPad*
G36*
G01*
X113852000Y-113809000D02*
X113852000Y-112459000D01*
G75*
G02*
X114277000Y-112034000I425000J0D01*
G01*
X115127000Y-112034000D01*
G75*
G02*
X115552000Y-112459000I0J-425000D01*
G01*
X115552000Y-113809000D01*
G75*
G02*
X115127000Y-114234000I-425000J0D01*
G01*
X114277000Y-114234000D01*
G75*
G02*
X113852000Y-113809000I0J425000D01*
G01*
G37*
G04 #@! TD.AperFunction*
G04 #@! TA.AperFunction,ComponentPad*
G36*
G01*
X176510000Y-113809000D02*
X176510000Y-112459000D01*
G75*
G02*
X176935000Y-112034000I425000J0D01*
G01*
X177785000Y-112034000D01*
G75*
G02*
X178210000Y-112459000I0J-425000D01*
G01*
X178210000Y-113809000D01*
G75*
G02*
X177785000Y-114234000I-425000J0D01*
G01*
X176935000Y-114234000D01*
G75*
G02*
X176510000Y-113809000I0J425000D01*
G01*
G37*
G04 #@! TD.AperFunction*
G04 #@! TA.AperFunction,ComponentPad*
G36*
G01*
X174010000Y-113809000D02*
X174010000Y-112459000D01*
G75*
G02*
X174435000Y-112034000I425000J0D01*
G01*
X175285000Y-112034000D01*
G75*
G02*
X175710000Y-112459000I0J-425000D01*
G01*
X175710000Y-113809000D01*
G75*
G02*
X175285000Y-114234000I-425000J0D01*
G01*
X174435000Y-114234000D01*
G75*
G02*
X174010000Y-113809000I0J425000D01*
G01*
G37*
G04 #@! TD.AperFunction*
G04 #@! TA.AperFunction,ComponentPad*
G36*
G01*
X171510000Y-113809000D02*
X171510000Y-112459000D01*
G75*
G02*
X171935000Y-112034000I425000J0D01*
G01*
X172785000Y-112034000D01*
G75*
G02*
X173210000Y-112459000I0J-425000D01*
G01*
X173210000Y-113809000D01*
G75*
G02*
X172785000Y-114234000I-425000J0D01*
G01*
X171935000Y-114234000D01*
G75*
G02*
X171510000Y-113809000I0J425000D01*
G01*
G37*
G04 #@! TD.AperFunction*
D11*
X111000000Y-81000000D03*
D12*
X112500000Y-81150000D03*
D11*
X114000000Y-81000000D03*
X136000000Y-81000000D03*
D12*
X137500000Y-81150000D03*
D11*
X139000000Y-81000000D03*
X161000000Y-81000000D03*
D12*
X162500000Y-81150000D03*
D11*
X164000000Y-81000000D03*
X186000000Y-81000000D03*
D12*
X187500000Y-81150000D03*
D11*
X189000000Y-81000000D03*
D10*
X190100000Y-82600000D03*
X163400000Y-82400000D03*
X140600000Y-81000000D03*
X114000000Y-82300000D03*
X170000000Y-105000000D03*
X173600000Y-100600000D03*
X173100000Y-103400000D03*
X173100000Y-107800000D03*
X160500000Y-109000000D03*
X138500000Y-108500000D03*
X186500000Y-112900000D03*
X186500000Y-93000000D03*
X177000000Y-87500000D03*
X176000000Y-88600000D03*
X127100000Y-87500000D03*
X126000000Y-88600000D03*
X114400000Y-88000000D03*
X113500000Y-107000000D03*
X121500000Y-106500000D03*
X136100000Y-105500000D03*
X135300000Y-108200000D03*
X150400000Y-111100000D03*
X149900000Y-106900000D03*
X149900000Y-104000000D03*
X153200000Y-101000000D03*
X153200000Y-98700000D03*
D13*
X160160000Y-114500000D03*
X157620000Y-114500000D03*
X155080000Y-114500000D03*
X152540000Y-114500000D03*
X150000000Y-114500000D03*
X147460000Y-114500000D03*
X144920000Y-114500000D03*
X142380000Y-114500000D03*
D14*
X139840000Y-114500000D03*
D15*
X107000000Y-100000000D03*
D16*
X110225000Y-100000000D03*
X109280419Y-102280419D03*
X107000000Y-103225000D03*
X104719581Y-102280419D03*
X103775000Y-100000000D03*
X104719581Y-97719581D03*
X107000000Y-96775000D03*
X109280419Y-97719581D03*
X195280419Y-97719581D03*
X193000000Y-96775000D03*
X190719581Y-97719581D03*
X189775000Y-100000000D03*
X190719581Y-102280419D03*
X193000000Y-103225000D03*
X195280419Y-102280419D03*
X196225000Y-100000000D03*
D15*
X193000000Y-100000000D03*
D10*
X116000000Y-82000000D03*
X136100000Y-82700000D03*
X164700000Y-82400000D03*
X186000000Y-82700000D03*
X129300000Y-104100000D03*
X125165059Y-101165059D03*
X127200000Y-104400000D03*
X122799190Y-104386469D03*
X128800000Y-101200000D03*
X132400000Y-91300000D03*
X162800000Y-89900000D03*
X181300000Y-91300000D03*
X130918000Y-100942000D03*
X130918000Y-111610000D03*
X166732000Y-116944000D03*
X182226000Y-114150000D03*
X138000000Y-103400000D03*
X134000000Y-97900000D03*
X130300000Y-94600000D03*
X133600000Y-91200000D03*
X137832831Y-100314338D03*
X148700000Y-85800000D03*
X137700000Y-102299996D03*
X138599999Y-94300005D03*
X139050237Y-103549763D03*
X144200000Y-103599998D03*
X152800000Y-107400000D03*
X136112711Y-98000000D03*
X152700000Y-105900000D03*
X157800000Y-111000000D03*
X123300000Y-87800000D03*
X126200000Y-94600000D03*
X139900000Y-98200000D03*
X132900000Y-97800000D03*
X169800000Y-96700000D03*
X148700000Y-97700000D03*
X147400000Y-100600000D03*
X141800000Y-102385800D03*
X140900000Y-103300000D03*
X141000000Y-100300000D03*
X139700000Y-94400000D03*
X146200000Y-85600000D03*
X166600000Y-106700000D03*
X135300000Y-97399992D03*
X156100000Y-86100000D03*
X140400000Y-88000000D03*
D17*
X114000000Y-81000000D02*
X115000000Y-81000000D01*
X115000000Y-81000000D02*
X116000000Y-82000000D01*
X139000000Y-82000000D02*
X138300000Y-82700000D01*
X139000000Y-81000000D02*
X139000000Y-82000000D01*
X138300000Y-82700000D02*
X136638815Y-82700000D01*
X136638815Y-82700000D02*
X136100000Y-82700000D01*
X164700000Y-82400000D02*
X164600000Y-82400000D01*
X164600000Y-82400000D02*
X164000000Y-81800000D01*
X164000000Y-81800000D02*
X164000000Y-81000000D01*
X186538815Y-82700000D02*
X186000000Y-82700000D01*
X189000000Y-80850000D02*
X189000000Y-81800000D01*
X188100000Y-82700000D02*
X186538815Y-82700000D01*
X189000000Y-81800000D02*
X188100000Y-82700000D01*
X129300000Y-104100000D02*
X128100000Y-104100000D01*
X128100000Y-104100000D02*
X125546058Y-101546058D01*
X125546058Y-101546058D02*
X125165059Y-101165059D01*
X122812721Y-104400000D02*
X122799190Y-104386469D01*
X127200000Y-104400000D02*
X122812721Y-104400000D01*
X129180999Y-100819001D02*
X129180999Y-96919001D01*
X128800000Y-101200000D02*
X129180999Y-100819001D01*
X129180999Y-96919001D02*
X129180999Y-94519001D01*
X129180999Y-94519001D02*
X132400000Y-91300000D01*
X162800000Y-89900000D02*
X164700000Y-91800000D01*
X164700000Y-91800000D02*
X180800000Y-91800000D01*
X180800000Y-91800000D02*
X181300000Y-91300000D01*
X130918000Y-100942000D02*
X130918000Y-111610000D01*
X166732000Y-116944000D02*
X168002000Y-115674000D01*
X168002000Y-115674000D02*
X180702000Y-115674000D01*
X180702000Y-115674000D02*
X182226000Y-114150000D01*
X142380000Y-113297919D02*
X142380000Y-114500000D01*
X138000000Y-103469408D02*
X142380000Y-107849408D01*
X142380000Y-107849408D02*
X142380000Y-113297919D01*
X138000000Y-103400000D02*
X138000000Y-103469408D01*
X133600000Y-91300000D02*
X133600000Y-91200000D01*
X130300000Y-94600000D02*
X133600000Y-91300000D01*
X134800000Y-98700000D02*
X134000000Y-97900000D01*
X136400000Y-98700000D02*
X134800000Y-98700000D01*
X137000000Y-99300000D02*
X136400000Y-98700000D01*
X137000000Y-103100000D02*
X137000000Y-99300000D01*
X137300000Y-103400000D02*
X137000000Y-103100000D01*
X138000000Y-103400000D02*
X137300000Y-103400000D01*
X137700000Y-102299996D02*
X137700000Y-100447169D01*
X137700000Y-100447169D02*
X137832831Y-100314338D01*
X138599999Y-90900001D02*
X138599999Y-94300005D01*
X144800000Y-84700000D02*
X138599999Y-90900001D01*
X147600000Y-84700000D02*
X144800000Y-84700000D01*
X148700000Y-85800000D02*
X147600000Y-84700000D01*
X143599998Y-104200000D02*
X144200000Y-103599998D01*
X139700474Y-104200000D02*
X143599998Y-104200000D01*
X139050237Y-103549763D02*
X139700474Y-104200000D01*
X148380999Y-99380999D02*
X138291671Y-99380999D01*
X152014199Y-103014199D02*
X148380999Y-99380999D01*
X152014199Y-106614199D02*
X152014199Y-103014199D01*
X152800000Y-107400000D02*
X152014199Y-106614199D01*
X136910672Y-98000000D02*
X136112711Y-98000000D01*
X138291671Y-99380999D02*
X136910672Y-98000000D01*
X152700000Y-105900000D02*
X157800000Y-111000000D01*
X123300000Y-87800000D02*
X126200000Y-90700000D01*
X126200000Y-90700000D02*
X126200000Y-94600000D01*
X139900000Y-98200000D02*
X138414191Y-96714191D01*
X138414191Y-96714191D02*
X133985809Y-96714191D01*
X133985809Y-96714191D02*
X132900000Y-97800000D01*
X169800000Y-96700000D02*
X149700000Y-96700000D01*
X149700000Y-96700000D02*
X148700000Y-97700000D01*
X147400000Y-100600000D02*
X143585800Y-100600000D01*
X143585800Y-100600000D02*
X141800000Y-102385800D01*
X140900000Y-100400000D02*
X141000000Y-100300000D01*
X140900000Y-103300000D02*
X140900000Y-100400000D01*
X145000000Y-85600000D02*
X146200000Y-85600000D01*
X139700000Y-90900000D02*
X145000000Y-85600000D01*
X139700000Y-94400000D02*
X139700000Y-90900000D01*
X136835543Y-97314199D02*
X135385793Y-97314199D01*
X138421344Y-98900000D02*
X136835543Y-97314199D01*
X149400000Y-98900000D02*
X138421344Y-98900000D01*
X157200000Y-106700000D02*
X149400000Y-98900000D01*
X135385793Y-97314199D02*
X135300000Y-97399992D01*
X166600000Y-106700000D02*
X157200000Y-106700000D01*
X144500000Y-83900000D02*
X140400000Y-88000000D01*
X153900000Y-83900000D02*
X144500000Y-83900000D01*
X156100000Y-86100000D02*
X153900000Y-83900000D01*
G36*
X109876723Y-80413391D02*
G01*
X109865000Y-80518250D01*
X110023750Y-80677000D01*
X110627000Y-80677000D01*
X110627000Y-80599000D01*
X111373000Y-80599000D01*
X111373000Y-80677000D01*
X111401000Y-80677000D01*
X111401000Y-81323000D01*
X111373000Y-81323000D01*
X111373000Y-81926250D01*
X111531750Y-82085000D01*
X111612308Y-82078111D01*
X111732688Y-82044131D01*
X111844126Y-81987320D01*
X111942340Y-81909860D01*
X112016621Y-81822851D01*
X112025311Y-81825487D01*
X112100000Y-81832843D01*
X112900000Y-81832843D01*
X112974689Y-81825487D01*
X113046508Y-81803701D01*
X113112696Y-81768322D01*
X113170711Y-81720711D01*
X113200000Y-81685022D01*
X113229289Y-81720711D01*
X113287304Y-81768322D01*
X113353492Y-81803701D01*
X113425311Y-81825487D01*
X113500000Y-81832843D01*
X114500000Y-81832843D01*
X114574689Y-81825487D01*
X114646508Y-81803701D01*
X114712696Y-81768322D01*
X114770711Y-81720711D01*
X114818322Y-81662696D01*
X114853701Y-81596508D01*
X114859377Y-81577797D01*
X115238000Y-81956420D01*
X115238000Y-82075050D01*
X115267283Y-82222267D01*
X115324724Y-82360942D01*
X115408116Y-82485747D01*
X115514253Y-82591884D01*
X115639058Y-82675276D01*
X115777733Y-82732717D01*
X115924950Y-82762000D01*
X116075050Y-82762000D01*
X116222267Y-82732717D01*
X116360942Y-82675276D01*
X116485747Y-82591884D01*
X116591884Y-82485747D01*
X116675276Y-82360942D01*
X116732717Y-82222267D01*
X116762000Y-82075050D01*
X116762000Y-81924950D01*
X116732717Y-81777733D01*
X116675276Y-81639058D01*
X116591884Y-81514253D01*
X116485747Y-81408116D01*
X116360942Y-81324724D01*
X116222267Y-81267283D01*
X116075050Y-81238000D01*
X115956420Y-81238000D01*
X115376855Y-80658435D01*
X115360948Y-80639052D01*
X115283595Y-80575571D01*
X115195343Y-80528399D01*
X115099585Y-80499351D01*
X115024947Y-80492000D01*
X115024944Y-80492000D01*
X115000000Y-80489543D01*
X114975056Y-80492000D01*
X114877131Y-80492000D01*
X114875487Y-80475311D01*
X114854462Y-80406000D01*
X134879123Y-80406000D01*
X134876723Y-80413391D01*
X134865000Y-80518250D01*
X135023750Y-80677000D01*
X135627000Y-80677000D01*
X135627000Y-80599000D01*
X136373000Y-80599000D01*
X136373000Y-80677000D01*
X136401000Y-80677000D01*
X136401000Y-81323000D01*
X136373000Y-81323000D01*
X136373000Y-81401000D01*
X135627000Y-81401000D01*
X135627000Y-81323000D01*
X135023750Y-81323000D01*
X134865000Y-81481750D01*
X134876723Y-81586609D01*
X134915350Y-81705579D01*
X134976445Y-81814728D01*
X135057660Y-81909860D01*
X135155874Y-81987320D01*
X135267312Y-82044131D01*
X135387692Y-82078111D01*
X135468250Y-82085000D01*
X135618998Y-81934252D01*
X135618998Y-82085000D01*
X135648849Y-82085000D01*
X135614253Y-82108116D01*
X135508116Y-82214253D01*
X135424724Y-82339058D01*
X135367283Y-82477733D01*
X135338000Y-82624950D01*
X135338000Y-82775050D01*
X135367283Y-82922267D01*
X135424724Y-83060942D01*
X135508116Y-83185747D01*
X135614253Y-83291884D01*
X135739058Y-83375276D01*
X135877733Y-83432717D01*
X136024950Y-83462000D01*
X136175050Y-83462000D01*
X136322267Y-83432717D01*
X136460942Y-83375276D01*
X136585747Y-83291884D01*
X136669631Y-83208000D01*
X138275056Y-83208000D01*
X138300000Y-83210457D01*
X138324944Y-83208000D01*
X138324947Y-83208000D01*
X138399585Y-83200649D01*
X138495343Y-83171601D01*
X138583595Y-83124429D01*
X138660948Y-83060948D01*
X138676855Y-83041565D01*
X139341571Y-82376850D01*
X139360948Y-82360948D01*
X139379624Y-82338190D01*
X139424429Y-82283596D01*
X139471600Y-82195345D01*
X139476943Y-82177733D01*
X139500649Y-82099585D01*
X139508000Y-82024947D01*
X139508000Y-82024945D01*
X139510457Y-82000001D01*
X139508000Y-81975057D01*
X139508000Y-81832055D01*
X139574689Y-81825487D01*
X139646508Y-81803701D01*
X139712696Y-81768322D01*
X139770711Y-81720711D01*
X139818322Y-81662696D01*
X139853701Y-81596508D01*
X139875487Y-81524689D01*
X139879715Y-81481750D01*
X159865000Y-81481750D01*
X159876723Y-81586609D01*
X159915350Y-81705579D01*
X159976445Y-81814728D01*
X160057660Y-81909860D01*
X160155874Y-81987320D01*
X160267312Y-82044131D01*
X160387692Y-82078111D01*
X160468250Y-82085000D01*
X160627000Y-81926250D01*
X160627000Y-81323000D01*
X160023750Y-81323000D01*
X159865000Y-81481750D01*
X139879715Y-81481750D01*
X139882843Y-81450000D01*
X139882843Y-80550000D01*
X139875487Y-80475311D01*
X139854462Y-80406000D01*
X159879123Y-80406000D01*
X159876723Y-80413391D01*
X159865000Y-80518250D01*
X160023750Y-80677000D01*
X160627000Y-80677000D01*
X160627000Y-80599000D01*
X161373000Y-80599000D01*
X161373000Y-80677000D01*
X161401000Y-80677000D01*
X161401000Y-81323000D01*
X161373000Y-81323000D01*
X161373000Y-81926250D01*
X161531750Y-82085000D01*
X161612308Y-82078111D01*
X161732688Y-82044131D01*
X161844126Y-81987320D01*
X161942340Y-81909860D01*
X162016621Y-81822851D01*
X162025311Y-81825487D01*
X162100000Y-81832843D01*
X162900000Y-81832843D01*
X162974689Y-81825487D01*
X163046508Y-81803701D01*
X163112696Y-81768322D01*
X163170711Y-81720711D01*
X163200000Y-81685022D01*
X163229289Y-81720711D01*
X163287304Y-81768322D01*
X163353492Y-81803701D01*
X163425311Y-81825487D01*
X163492707Y-81832125D01*
X163499351Y-81899584D01*
X163528399Y-81995342D01*
X163575571Y-82083595D01*
X163639052Y-82160948D01*
X163658435Y-82176855D01*
X163938000Y-82456420D01*
X163938000Y-82475050D01*
X163967283Y-82622267D01*
X164024724Y-82760942D01*
X164108116Y-82885747D01*
X164214253Y-82991884D01*
X164339058Y-83075276D01*
X164477733Y-83132717D01*
X164624950Y-83162000D01*
X164775050Y-83162000D01*
X164922267Y-83132717D01*
X165060942Y-83075276D01*
X165185747Y-82991884D01*
X165291884Y-82885747D01*
X165375276Y-82760942D01*
X165432717Y-82622267D01*
X165462000Y-82475050D01*
X165462000Y-82324950D01*
X165432717Y-82177733D01*
X165375276Y-82039058D01*
X165291884Y-81914253D01*
X165185747Y-81808116D01*
X165060942Y-81724724D01*
X164922267Y-81667283D01*
X164826095Y-81648153D01*
X164853701Y-81596508D01*
X164875487Y-81524689D01*
X164882843Y-81450000D01*
X164882843Y-80550000D01*
X164875487Y-80475311D01*
X164854462Y-80406000D01*
X184879123Y-80406000D01*
X184876723Y-80413391D01*
X184865000Y-80518250D01*
X185023750Y-80677000D01*
X185627000Y-80677000D01*
X185627000Y-80599000D01*
X186373000Y-80599000D01*
X186373000Y-80677000D01*
X186401000Y-80677000D01*
X186401000Y-81323000D01*
X186373000Y-81323000D01*
X186373000Y-81401000D01*
X185627000Y-81401000D01*
X185627000Y-81323000D01*
X185023750Y-81323000D01*
X184865000Y-81481750D01*
X184876723Y-81586609D01*
X184915350Y-81705579D01*
X184976445Y-81814728D01*
X185057660Y-81909860D01*
X185155874Y-81987320D01*
X185267312Y-82044131D01*
X185387692Y-82078111D01*
X185468250Y-82085000D01*
X185618998Y-81934252D01*
X185618998Y-82038128D01*
X185514253Y-82108116D01*
X185408116Y-82214253D01*
X185324724Y-82339058D01*
X185267283Y-82477733D01*
X185238000Y-82624950D01*
X185238000Y-82775050D01*
X185267283Y-82922267D01*
X185324724Y-83060942D01*
X185408116Y-83185747D01*
X185514253Y-83291884D01*
X185639058Y-83375276D01*
X185777733Y-83432717D01*
X185924950Y-83462000D01*
X186075050Y-83462000D01*
X186222267Y-83432717D01*
X186360942Y-83375276D01*
X186485747Y-83291884D01*
X186569631Y-83208000D01*
X188075056Y-83208000D01*
X188100000Y-83210457D01*
X188124944Y-83208000D01*
X188124947Y-83208000D01*
X188199585Y-83200649D01*
X188295343Y-83171601D01*
X188383595Y-83124429D01*
X188460948Y-83060948D01*
X188476855Y-83041565D01*
X189341571Y-82176850D01*
X189360948Y-82160948D01*
X189397504Y-82116404D01*
X189424429Y-82083596D01*
X189471600Y-81995345D01*
X189471601Y-81995342D01*
X189500649Y-81899585D01*
X189507293Y-81832125D01*
X189574689Y-81825487D01*
X189646508Y-81803701D01*
X189712696Y-81768322D01*
X189770711Y-81720711D01*
X189818322Y-81662696D01*
X189853701Y-81596508D01*
X189875487Y-81524689D01*
X189882843Y-81450000D01*
X189882843Y-80550000D01*
X189875487Y-80475311D01*
X189854462Y-80406000D01*
X199580146Y-80406000D01*
X199592808Y-80407241D01*
X199594000Y-80418580D01*
X199594001Y-119580136D01*
X199592758Y-119592808D01*
X199581420Y-119594000D01*
X100419854Y-119594000D01*
X100407192Y-119592758D01*
X100406000Y-119581420D01*
X100406000Y-115732889D01*
X124619000Y-115732889D01*
X124619000Y-116123111D01*
X124695129Y-116505836D01*
X124844461Y-116866355D01*
X125061257Y-117190814D01*
X125337186Y-117466743D01*
X125661645Y-117683539D01*
X126022164Y-117832871D01*
X126404889Y-117909000D01*
X126795111Y-117909000D01*
X127177836Y-117832871D01*
X127538355Y-117683539D01*
X127862814Y-117466743D01*
X128138743Y-117190814D01*
X128355539Y-116866355D01*
X128504871Y-116505836D01*
X128581000Y-116123111D01*
X128581000Y-115732889D01*
X131985000Y-115732889D01*
X131985000Y-116123111D01*
X132061129Y-116505836D01*
X132210461Y-116866355D01*
X132427257Y-117190814D01*
X132703186Y-117466743D01*
X133027645Y-117683539D01*
X133388164Y-117832871D01*
X133770889Y-117909000D01*
X134161111Y-117909000D01*
X134543836Y-117832871D01*
X134904355Y-117683539D01*
X135228814Y-117466743D01*
X135504743Y-117190814D01*
X135719805Y-116868950D01*
X165970000Y-116868950D01*
X165970000Y-117019050D01*
X165999283Y-117166267D01*
X166056724Y-117304942D01*
X166140116Y-117429747D01*
X166246253Y-117535884D01*
X166371058Y-117619276D01*
X166509733Y-117676717D01*
X166656950Y-117706000D01*
X166807050Y-117706000D01*
X166954267Y-117676717D01*
X167092942Y-117619276D01*
X167217747Y-117535884D01*
X167323884Y-117429747D01*
X167407276Y-117304942D01*
X167464717Y-117166267D01*
X167494000Y-117019050D01*
X167494000Y-116900420D01*
X168212421Y-116182000D01*
X180677056Y-116182000D01*
X180702000Y-116184457D01*
X180726944Y-116182000D01*
X180726947Y-116182000D01*
X180801585Y-116174649D01*
X180897343Y-116145601D01*
X180985595Y-116098429D01*
X181062948Y-116034948D01*
X181078855Y-116015565D01*
X182182421Y-114912000D01*
X182301050Y-114912000D01*
X182448267Y-114882717D01*
X182586942Y-114825276D01*
X182711747Y-114741884D01*
X182817884Y-114635747D01*
X182901276Y-114510942D01*
X182958717Y-114372267D01*
X182988000Y-114225050D01*
X182988000Y-114074950D01*
X182958717Y-113927733D01*
X182901276Y-113789058D01*
X182817884Y-113664253D01*
X182711747Y-113558116D01*
X182586942Y-113474724D01*
X182448267Y-113417283D01*
X182301050Y-113388000D01*
X182150950Y-113388000D01*
X182003733Y-113417283D01*
X181865058Y-113474724D01*
X181740253Y-113558116D01*
X181634116Y-113664253D01*
X181550724Y-113789058D01*
X181493283Y-113927733D01*
X181464000Y-114074950D01*
X181464000Y-114193579D01*
X180491580Y-115166000D01*
X168026943Y-115166000D01*
X168001999Y-115163543D01*
X167977055Y-115166000D01*
X167977053Y-115166000D01*
X167902415Y-115173351D01*
X167806657Y-115202399D01*
X167806655Y-115202400D01*
X167718404Y-115249571D01*
X167675579Y-115284717D01*
X167641052Y-115313052D01*
X167625150Y-115332429D01*
X166775580Y-116182000D01*
X166656950Y-116182000D01*
X166509733Y-116211283D01*
X166371058Y-116268724D01*
X166246253Y-116352116D01*
X166140116Y-116458253D01*
X166056724Y-116583058D01*
X165999283Y-116721733D01*
X165970000Y-116868950D01*
X135719805Y-116868950D01*
X135721539Y-116866355D01*
X135870871Y-116505836D01*
X135947000Y-116123111D01*
X135947000Y-115732889D01*
X135870871Y-115350164D01*
X135721539Y-114989645D01*
X135504743Y-114665186D01*
X135228814Y-114389257D01*
X134904355Y-114172461D01*
X134543836Y-114023129D01*
X134161111Y-113947000D01*
X133770889Y-113947000D01*
X133388164Y-114023129D01*
X133027645Y-114172461D01*
X132703186Y-114389257D01*
X132427257Y-114665186D01*
X132210461Y-114989645D01*
X132061129Y-115350164D01*
X131985000Y-115732889D01*
X128581000Y-115732889D01*
X128504871Y-115350164D01*
X128355539Y-114989645D01*
X128138743Y-114665186D01*
X127862814Y-114389257D01*
X127538355Y-114172461D01*
X127177836Y-114023129D01*
X126795111Y-113947000D01*
X126404889Y-113947000D01*
X126022164Y-114023129D01*
X125661645Y-114172461D01*
X125337186Y-114389257D01*
X125061257Y-114665186D01*
X124844461Y-114989645D01*
X124695129Y-115350164D01*
X124619000Y-115732889D01*
X100406000Y-115732889D01*
X100406000Y-113436000D01*
X105049928Y-113436000D01*
X105062188Y-113560482D01*
X105098498Y-113680180D01*
X105157463Y-113790494D01*
X105236815Y-113887185D01*
X105333506Y-113966537D01*
X105443820Y-114025502D01*
X105563518Y-114061812D01*
X105688000Y-114074072D01*
X106248250Y-114071000D01*
X106407000Y-113912250D01*
X106407000Y-112967000D01*
X107169000Y-112967000D01*
X107169000Y-113912250D01*
X107327750Y-114071000D01*
X107888000Y-114074072D01*
X108012482Y-114061812D01*
X108132180Y-114025502D01*
X108242494Y-113966537D01*
X108339185Y-113887185D01*
X108418537Y-113790494D01*
X108477502Y-113680180D01*
X108513812Y-113560482D01*
X108526072Y-113436000D01*
X108523000Y-113125750D01*
X108364250Y-112967000D01*
X107169000Y-112967000D01*
X106407000Y-112967000D01*
X105211750Y-112967000D01*
X105053000Y-113125750D01*
X105049928Y-113436000D01*
X100406000Y-113436000D01*
X100406000Y-112459000D01*
X113469157Y-112459000D01*
X113469157Y-113809000D01*
X113484679Y-113966602D01*
X113530650Y-114118148D01*
X113605303Y-114257814D01*
X113705769Y-114380231D01*
X113828186Y-114480697D01*
X113967852Y-114555350D01*
X114119398Y-114601321D01*
X114277000Y-114616843D01*
X115127000Y-114616843D01*
X115284602Y-114601321D01*
X115436148Y-114555350D01*
X115575814Y-114480697D01*
X115698231Y-114380231D01*
X115798697Y-114257814D01*
X115873350Y-114118148D01*
X115919321Y-113966602D01*
X115934843Y-113809000D01*
X115934843Y-112459000D01*
X115969157Y-112459000D01*
X115969157Y-113809000D01*
X115984679Y-113966602D01*
X116030650Y-114118148D01*
X116105303Y-114257814D01*
X116205769Y-114380231D01*
X116328186Y-114480697D01*
X116467852Y-114555350D01*
X116619398Y-114601321D01*
X116777000Y-114616843D01*
X117627000Y-114616843D01*
X117784602Y-114601321D01*
X117936148Y-114555350D01*
X118075814Y-114480697D01*
X118198231Y-114380231D01*
X118225105Y-114347485D01*
X118226188Y-114358482D01*
X118262498Y-114478180D01*
X118321463Y-114588494D01*
X118400815Y-114685185D01*
X118497506Y-114764537D01*
X118607820Y-114823502D01*
X118727518Y-114859812D01*
X118852000Y-114872072D01*
X119162250Y-114869000D01*
X119321000Y-114710250D01*
X119321000Y-113515000D01*
X120083000Y-113515000D01*
X120083000Y-114710250D01*
X120241750Y-114869000D01*
X120552000Y-114872072D01*
X120676482Y-114859812D01*
X120796180Y-114823502D01*
X120906494Y-114764537D01*
X121003185Y-114685185D01*
X121082537Y-114588494D01*
X121141502Y-114478180D01*
X121177812Y-114358482D01*
X121190072Y-114234000D01*
X121187000Y-113673750D01*
X121163250Y-113650000D01*
X138607157Y-113650000D01*
X138607157Y-115350000D01*
X138614513Y-115424689D01*
X138636299Y-115496508D01*
X138671678Y-115562696D01*
X138719289Y-115620711D01*
X138777304Y-115668322D01*
X138843492Y-115703701D01*
X138915311Y-115725487D01*
X138990000Y-115732843D01*
X140690000Y-115732843D01*
X140764689Y-115725487D01*
X140836508Y-115703701D01*
X140902696Y-115668322D01*
X140960711Y-115620711D01*
X141008322Y-115562696D01*
X141043701Y-115496508D01*
X141065487Y-115424689D01*
X141072843Y-115350000D01*
X141072843Y-113650000D01*
X141065487Y-113575311D01*
X141043701Y-113503492D01*
X141008322Y-113437304D01*
X140960711Y-113379289D01*
X140902696Y-113331678D01*
X140836508Y-113296299D01*
X140764689Y-113274513D01*
X140690000Y-113267157D01*
X138990000Y-113267157D01*
X138915311Y-113274513D01*
X138843492Y-113296299D01*
X138777304Y-113331678D01*
X138719289Y-113379289D01*
X138671678Y-113437304D01*
X138636299Y-113503492D01*
X138614513Y-113575311D01*
X138607157Y-113650000D01*
X121163250Y-113650000D01*
X121028250Y-113515000D01*
X120083000Y-113515000D01*
X119321000Y-113515000D01*
X119301000Y-113515000D01*
X119301000Y-112753000D01*
X119321000Y-112753000D01*
X119321000Y-111557750D01*
X120083000Y-111557750D01*
X120083000Y-112753000D01*
X121028250Y-112753000D01*
X121187000Y-112594250D01*
X121190072Y-112034000D01*
X121177812Y-111909518D01*
X121141502Y-111789820D01*
X121082537Y-111679506D01*
X121003185Y-111582815D01*
X120906494Y-111503463D01*
X120796180Y-111444498D01*
X120676482Y-111408188D01*
X120552000Y-111395928D01*
X120241750Y-111399000D01*
X120083000Y-111557750D01*
X119321000Y-111557750D01*
X119162250Y-111399000D01*
X118852000Y-111395928D01*
X118727518Y-111408188D01*
X118607820Y-111444498D01*
X118497506Y-111503463D01*
X118400815Y-111582815D01*
X118321463Y-111679506D01*
X118262498Y-111789820D01*
X118226188Y-111909518D01*
X118225105Y-111920515D01*
X118198231Y-111887769D01*
X118075814Y-111787303D01*
X117936148Y-111712650D01*
X117784602Y-111666679D01*
X117627000Y-111651157D01*
X116777000Y-111651157D01*
X116619398Y-111666679D01*
X116467852Y-111712650D01*
X116328186Y-111787303D01*
X116205769Y-111887769D01*
X116105303Y-112010186D01*
X116030650Y-112149852D01*
X115984679Y-112301398D01*
X115969157Y-112459000D01*
X115934843Y-112459000D01*
X115919321Y-112301398D01*
X115873350Y-112149852D01*
X115798697Y-112010186D01*
X115698231Y-111887769D01*
X115575814Y-111787303D01*
X115436148Y-111712650D01*
X115284602Y-111666679D01*
X115127000Y-111651157D01*
X114277000Y-111651157D01*
X114119398Y-111666679D01*
X113967852Y-111712650D01*
X113828186Y-111787303D01*
X113705769Y-111887769D01*
X113605303Y-112010186D01*
X113530650Y-112149852D01*
X113484679Y-112301398D01*
X113469157Y-112459000D01*
X100406000Y-112459000D01*
X100406000Y-111736000D01*
X105049928Y-111736000D01*
X105053000Y-112046250D01*
X105211750Y-112205000D01*
X106407000Y-112205000D01*
X106407000Y-112185000D01*
X107169000Y-112185000D01*
X107169000Y-112205000D01*
X108364250Y-112205000D01*
X108523000Y-112046250D01*
X108526072Y-111736000D01*
X108513812Y-111611518D01*
X108477502Y-111491820D01*
X108418537Y-111381506D01*
X108339185Y-111284815D01*
X108242494Y-111205463D01*
X108132180Y-111146498D01*
X108012482Y-111110188D01*
X108001485Y-111109105D01*
X108034231Y-111082231D01*
X108134697Y-110959814D01*
X108209350Y-110820148D01*
X108255321Y-110668602D01*
X108270843Y-110511000D01*
X108270843Y-109661000D01*
X108255321Y-109503398D01*
X108209350Y-109351852D01*
X108134697Y-109212186D01*
X108034231Y-109089769D01*
X107911814Y-108989303D01*
X107772148Y-108914650D01*
X107620602Y-108868679D01*
X107463000Y-108853157D01*
X106113000Y-108853157D01*
X105955398Y-108868679D01*
X105803852Y-108914650D01*
X105664186Y-108989303D01*
X105541769Y-109089769D01*
X105441303Y-109212186D01*
X105366650Y-109351852D01*
X105320679Y-109503398D01*
X105305157Y-109661000D01*
X105305157Y-110511000D01*
X105320679Y-110668602D01*
X105366650Y-110820148D01*
X105441303Y-110959814D01*
X105541769Y-111082231D01*
X105574515Y-111109105D01*
X105563518Y-111110188D01*
X105443820Y-111146498D01*
X105333506Y-111205463D01*
X105236815Y-111284815D01*
X105157463Y-111381506D01*
X105098498Y-111491820D01*
X105062188Y-111611518D01*
X105049928Y-111736000D01*
X100406000Y-111736000D01*
X100406000Y-107161000D01*
X105305157Y-107161000D01*
X105305157Y-108011000D01*
X105320679Y-108168602D01*
X105366650Y-108320148D01*
X105441303Y-108459814D01*
X105541769Y-108582231D01*
X105664186Y-108682697D01*
X105803852Y-108757350D01*
X105955398Y-108803321D01*
X106113000Y-108818843D01*
X107463000Y-108818843D01*
X107620602Y-108803321D01*
X107772148Y-108757350D01*
X107911814Y-108682697D01*
X108034231Y-108582231D01*
X108134697Y-108459814D01*
X108209350Y-108320148D01*
X108255321Y-108168602D01*
X108270843Y-108011000D01*
X108270843Y-107161000D01*
X108255321Y-107003398D01*
X108209350Y-106851852D01*
X108134697Y-106712186D01*
X108034231Y-106589769D01*
X107911814Y-106489303D01*
X107772148Y-106414650D01*
X107620602Y-106368679D01*
X107463000Y-106353157D01*
X106113000Y-106353157D01*
X105955398Y-106368679D01*
X105803852Y-106414650D01*
X105664186Y-106489303D01*
X105541769Y-106589769D01*
X105441303Y-106712186D01*
X105366650Y-106851852D01*
X105320679Y-107003398D01*
X105305157Y-107161000D01*
X100406000Y-107161000D01*
X100406000Y-99538962D01*
X102319000Y-99538962D01*
X102319000Y-100461038D01*
X102498889Y-101365397D01*
X102851752Y-102217285D01*
X103364030Y-102983963D01*
X104016037Y-103635970D01*
X104782715Y-104148248D01*
X105634603Y-104501111D01*
X106538962Y-104681000D01*
X107461038Y-104681000D01*
X108365397Y-104501111D01*
X108823354Y-104311419D01*
X122037190Y-104311419D01*
X122037190Y-104461519D01*
X122066473Y-104608736D01*
X122123914Y-104747411D01*
X122207306Y-104872216D01*
X122313443Y-104978353D01*
X122438248Y-105061745D01*
X122576923Y-105119186D01*
X122724140Y-105148469D01*
X122874240Y-105148469D01*
X123021457Y-105119186D01*
X123160132Y-105061745D01*
X123284937Y-104978353D01*
X123355290Y-104908000D01*
X126630369Y-104908000D01*
X126714253Y-104991884D01*
X126839058Y-105075276D01*
X126977733Y-105132717D01*
X127124950Y-105162000D01*
X127275050Y-105162000D01*
X127422267Y-105132717D01*
X127560942Y-105075276D01*
X127685747Y-104991884D01*
X127791884Y-104885747D01*
X127875276Y-104760942D01*
X127932717Y-104622267D01*
X127940625Y-104582512D01*
X128000415Y-104600649D01*
X128075053Y-104608000D01*
X128075055Y-104608000D01*
X128099999Y-104610457D01*
X128124943Y-104608000D01*
X128730369Y-104608000D01*
X128814253Y-104691884D01*
X128939058Y-104775276D01*
X129077733Y-104832717D01*
X129224950Y-104862000D01*
X129375050Y-104862000D01*
X129522267Y-104832717D01*
X129660942Y-104775276D01*
X129785747Y-104691884D01*
X129891884Y-104585747D01*
X129975276Y-104460942D01*
X130032717Y-104322267D01*
X130062000Y-104175050D01*
X130062000Y-104024950D01*
X130032717Y-103877733D01*
X129975276Y-103739058D01*
X129891884Y-103614253D01*
X129785747Y-103508116D01*
X129660942Y-103424724D01*
X129522267Y-103367283D01*
X129375050Y-103338000D01*
X129224950Y-103338000D01*
X129077733Y-103367283D01*
X128939058Y-103424724D01*
X128814253Y-103508116D01*
X128730369Y-103592000D01*
X128310421Y-103592000D01*
X125927059Y-101208639D01*
X125927059Y-101124950D01*
X128038000Y-101124950D01*
X128038000Y-101275050D01*
X128067283Y-101422267D01*
X128124724Y-101560942D01*
X128208116Y-101685747D01*
X128314253Y-101791884D01*
X128439058Y-101875276D01*
X128577733Y-101932717D01*
X128724950Y-101962000D01*
X128875050Y-101962000D01*
X129022267Y-101932717D01*
X129160942Y-101875276D01*
X129285747Y-101791884D01*
X129391884Y-101685747D01*
X129475276Y-101560942D01*
X129532717Y-101422267D01*
X129562000Y-101275050D01*
X129562000Y-101155514D01*
X129587083Y-101124950D01*
X129605428Y-101102597D01*
X129647209Y-101024429D01*
X129652600Y-101014344D01*
X129681648Y-100918586D01*
X129686733Y-100866950D01*
X130156000Y-100866950D01*
X130156000Y-101017050D01*
X130185283Y-101164267D01*
X130242724Y-101302942D01*
X130326116Y-101427747D01*
X130410000Y-101511631D01*
X130410001Y-111040368D01*
X130326116Y-111124253D01*
X130242724Y-111249058D01*
X130185283Y-111387733D01*
X130156000Y-111534950D01*
X130156000Y-111685050D01*
X130185283Y-111832267D01*
X130242724Y-111970942D01*
X130326116Y-112095747D01*
X130432253Y-112201884D01*
X130557058Y-112285276D01*
X130695733Y-112342717D01*
X130842950Y-112372000D01*
X130993050Y-112372000D01*
X131140267Y-112342717D01*
X131278942Y-112285276D01*
X131403747Y-112201884D01*
X131509884Y-112095747D01*
X131593276Y-111970942D01*
X131650717Y-111832267D01*
X131680000Y-111685050D01*
X131680000Y-111534950D01*
X131650717Y-111387733D01*
X131593276Y-111249058D01*
X131509884Y-111124253D01*
X131426000Y-111040369D01*
X131426000Y-105373711D01*
X131500000Y-105381000D01*
X136700000Y-105381000D01*
X136774329Y-105373679D01*
X136845802Y-105351998D01*
X136911672Y-105316790D01*
X136969408Y-105269408D01*
X137016790Y-105211672D01*
X137051998Y-105145802D01*
X137073679Y-105074329D01*
X137081000Y-105000000D01*
X137081000Y-103858956D01*
X137104657Y-103871601D01*
X137200415Y-103900649D01*
X137275053Y-103908000D01*
X137275055Y-103908000D01*
X137299999Y-103910457D01*
X137324943Y-103908000D01*
X137430369Y-103908000D01*
X137514253Y-103991884D01*
X137639058Y-104075276D01*
X137777733Y-104132717D01*
X137924950Y-104162000D01*
X137974172Y-104162000D01*
X141872000Y-108059829D01*
X141872001Y-113272963D01*
X141872000Y-113272973D01*
X141872000Y-113377996D01*
X141796903Y-113409102D01*
X141595283Y-113543820D01*
X141423820Y-113715283D01*
X141289102Y-113916903D01*
X141196307Y-114140931D01*
X141149000Y-114378757D01*
X141149000Y-114621243D01*
X141196307Y-114859069D01*
X141289102Y-115083097D01*
X141423820Y-115284717D01*
X141595283Y-115456180D01*
X141796903Y-115590898D01*
X142020931Y-115683693D01*
X142258757Y-115731000D01*
X142501243Y-115731000D01*
X142739069Y-115683693D01*
X142963097Y-115590898D01*
X143164717Y-115456180D01*
X143336180Y-115284717D01*
X143470898Y-115083097D01*
X143563693Y-114859069D01*
X143611000Y-114621243D01*
X143611000Y-114378757D01*
X143689000Y-114378757D01*
X143689000Y-114621243D01*
X143736307Y-114859069D01*
X143829102Y-115083097D01*
X143963820Y-115284717D01*
X144135283Y-115456180D01*
X144336903Y-115590898D01*
X144560931Y-115683693D01*
X144798757Y-115731000D01*
X145041243Y-115731000D01*
X145279069Y-115683693D01*
X145503097Y-115590898D01*
X145704717Y-115456180D01*
X145876180Y-115284717D01*
X146010898Y-115083097D01*
X146103693Y-114859069D01*
X146151000Y-114621243D01*
X146151000Y-114378757D01*
X146229000Y-114378757D01*
X146229000Y-114621243D01*
X146276307Y-114859069D01*
X146369102Y-115083097D01*
X146503820Y-115284717D01*
X146675283Y-115456180D01*
X146876903Y-115590898D01*
X147100931Y-115683693D01*
X147338757Y-115731000D01*
X147581243Y-115731000D01*
X147819069Y-115683693D01*
X148043097Y-115590898D01*
X148244717Y-115456180D01*
X148416180Y-115284717D01*
X148550898Y-115083097D01*
X148634608Y-114881002D01*
X148723442Y-114881002D01*
X148641966Y-115100841D01*
X148785279Y-115354235D01*
X148975273Y-115574801D01*
X149204646Y-115754063D01*
X149399162Y-115858020D01*
X149619000Y-115770346D01*
X149619000Y-114881000D01*
X149599000Y-114881000D01*
X149599000Y-114119000D01*
X149619000Y-114119000D01*
X149619000Y-113229654D01*
X150381000Y-113229654D01*
X150381000Y-114119000D01*
X150401000Y-114119000D01*
X150401000Y-114881000D01*
X150381000Y-114881000D01*
X150381000Y-115770346D01*
X150600838Y-115858020D01*
X150795354Y-115754063D01*
X151024727Y-115574801D01*
X151214721Y-115354235D01*
X151358034Y-115100841D01*
X151276558Y-114881002D01*
X151365392Y-114881002D01*
X151449102Y-115083097D01*
X151583820Y-115284717D01*
X151755283Y-115456180D01*
X151956903Y-115590898D01*
X152180931Y-115683693D01*
X152418757Y-115731000D01*
X152661243Y-115731000D01*
X152899069Y-115683693D01*
X153123097Y-115590898D01*
X153324717Y-115456180D01*
X153496180Y-115284717D01*
X153630898Y-115083097D01*
X153723693Y-114859069D01*
X153771000Y-114621243D01*
X153771000Y-114378757D01*
X153849000Y-114378757D01*
X153849000Y-114621243D01*
X153896307Y-114859069D01*
X153989102Y-115083097D01*
X154123820Y-115284717D01*
X154295283Y-115456180D01*
X154496903Y-115590898D01*
X154720931Y-115683693D01*
X154958757Y-115731000D01*
X155201243Y-115731000D01*
X155439069Y-115683693D01*
X155663097Y-115590898D01*
X155864717Y-115456180D01*
X156036180Y-115284717D01*
X156170898Y-115083097D01*
X156263693Y-114859069D01*
X156311000Y-114621243D01*
X156311000Y-114378757D01*
X156389000Y-114378757D01*
X156389000Y-114621243D01*
X156436307Y-114859069D01*
X156529102Y-115083097D01*
X156663820Y-115284717D01*
X156835283Y-115456180D01*
X157036903Y-115590898D01*
X157260931Y-115683693D01*
X157498757Y-115731000D01*
X157741243Y-115731000D01*
X157979069Y-115683693D01*
X158203097Y-115590898D01*
X158404717Y-115456180D01*
X158576180Y-115284717D01*
X158710898Y-115083097D01*
X158803693Y-114859069D01*
X158851000Y-114621243D01*
X158851000Y-114378757D01*
X158929000Y-114378757D01*
X158929000Y-114621243D01*
X158976307Y-114859069D01*
X159069102Y-115083097D01*
X159203820Y-115284717D01*
X159375283Y-115456180D01*
X159576903Y-115590898D01*
X159800931Y-115683693D01*
X160038757Y-115731000D01*
X160281243Y-115731000D01*
X160519069Y-115683693D01*
X160743097Y-115590898D01*
X160944717Y-115456180D01*
X161116180Y-115284717D01*
X161250898Y-115083097D01*
X161343693Y-114859069D01*
X161391000Y-114621243D01*
X161391000Y-114378757D01*
X161343693Y-114140931D01*
X161250898Y-113916903D01*
X161116180Y-113715283D01*
X160944717Y-113543820D01*
X160743097Y-113409102D01*
X160519069Y-113316307D01*
X160281243Y-113269000D01*
X160038757Y-113269000D01*
X159800931Y-113316307D01*
X159576903Y-113409102D01*
X159375283Y-113543820D01*
X159203820Y-113715283D01*
X159069102Y-113916903D01*
X158976307Y-114140931D01*
X158929000Y-114378757D01*
X158851000Y-114378757D01*
X158803693Y-114140931D01*
X158710898Y-113916903D01*
X158576180Y-113715283D01*
X158404717Y-113543820D01*
X158203097Y-113409102D01*
X157979069Y-113316307D01*
X157741243Y-113269000D01*
X157498757Y-113269000D01*
X157260931Y-113316307D01*
X157036903Y-113409102D01*
X156835283Y-113543820D01*
X156663820Y-113715283D01*
X156529102Y-113916903D01*
X156436307Y-114140931D01*
X156389000Y-114378757D01*
X156311000Y-114378757D01*
X156263693Y-114140931D01*
X156170898Y-113916903D01*
X156036180Y-113715283D01*
X155864717Y-113543820D01*
X155663097Y-113409102D01*
X155439069Y-113316307D01*
X155201243Y-113269000D01*
X154958757Y-113269000D01*
X154720931Y-113316307D01*
X154496903Y-113409102D01*
X154295283Y-113543820D01*
X154123820Y-113715283D01*
X153989102Y-113916903D01*
X153896307Y-114140931D01*
X153849000Y-114378757D01*
X153771000Y-114378757D01*
X153723693Y-114140931D01*
X153630898Y-113916903D01*
X153496180Y-113715283D01*
X153324717Y-113543820D01*
X153123097Y-113409102D01*
X152899069Y-113316307D01*
X152661243Y-113269000D01*
X152418757Y-113269000D01*
X152180931Y-113316307D01*
X151956903Y-113409102D01*
X151755283Y-113543820D01*
X151583820Y-113715283D01*
X151449102Y-113916903D01*
X151365392Y-114118998D01*
X151276558Y-114118998D01*
X151358034Y-113899159D01*
X151214721Y-113645765D01*
X151024727Y-113425199D01*
X150795354Y-113245937D01*
X150600838Y-113141980D01*
X150381000Y-113229654D01*
X149619000Y-113229654D01*
X149399162Y-113141980D01*
X149204646Y-113245937D01*
X148975273Y-113425199D01*
X148785279Y-113645765D01*
X148641966Y-113899159D01*
X148723442Y-114118998D01*
X148634608Y-114118998D01*
X148550898Y-113916903D01*
X148416180Y-113715283D01*
X148244717Y-113543820D01*
X148043097Y-113409102D01*
X147819069Y-113316307D01*
X147581243Y-113269000D01*
X147338757Y-113269000D01*
X147100931Y-113316307D01*
X146876903Y-113409102D01*
X146675283Y-113543820D01*
X146503820Y-113715283D01*
X146369102Y-113916903D01*
X146276307Y-114140931D01*
X146229000Y-114378757D01*
X146151000Y-114378757D01*
X146103693Y-114140931D01*
X146010898Y-113916903D01*
X145876180Y-113715283D01*
X145704717Y-113543820D01*
X145503097Y-113409102D01*
X145279069Y-113316307D01*
X145041243Y-113269000D01*
X144798757Y-113269000D01*
X144560931Y-113316307D01*
X144336903Y-113409102D01*
X144135283Y-113543820D01*
X143963820Y-113715283D01*
X143829102Y-113916903D01*
X143736307Y-114140931D01*
X143689000Y-114378757D01*
X143611000Y-114378757D01*
X143563693Y-114140931D01*
X143470898Y-113916903D01*
X143336180Y-113715283D01*
X143164717Y-113543820D01*
X142963097Y-113409102D01*
X142888000Y-113377996D01*
X142888000Y-112459000D01*
X171127157Y-112459000D01*
X171127157Y-113809000D01*
X171142679Y-113966602D01*
X171188650Y-114118148D01*
X171263303Y-114257814D01*
X171363769Y-114380231D01*
X171486186Y-114480697D01*
X171625852Y-114555350D01*
X171777398Y-114601321D01*
X171935000Y-114616843D01*
X172785000Y-114616843D01*
X172942602Y-114601321D01*
X173094148Y-114555350D01*
X173233814Y-114480697D01*
X173356231Y-114380231D01*
X173456697Y-114257814D01*
X173531350Y-114118148D01*
X173577321Y-113966602D01*
X173592843Y-113809000D01*
X173592843Y-112459000D01*
X173627157Y-112459000D01*
X173627157Y-113809000D01*
X173642679Y-113966602D01*
X173688650Y-114118148D01*
X173763303Y-114257814D01*
X173863769Y-114380231D01*
X173986186Y-114480697D01*
X174125852Y-114555350D01*
X174277398Y-114601321D01*
X174435000Y-114616843D01*
X175285000Y-114616843D01*
X175442602Y-114601321D01*
X175594148Y-114555350D01*
X175733814Y-114480697D01*
X175856231Y-114380231D01*
X175883105Y-114347485D01*
X175884188Y-114358482D01*
X175920498Y-114478180D01*
X175979463Y-114588494D01*
X176058815Y-114685185D01*
X176155506Y-114764537D01*
X176265820Y-114823502D01*
X176385518Y-114859812D01*
X176510000Y-114872072D01*
X176820250Y-114869000D01*
X176979000Y-114710250D01*
X176979000Y-113515000D01*
X177741000Y-113515000D01*
X177741000Y-114710250D01*
X177899750Y-114869000D01*
X178210000Y-114872072D01*
X178334482Y-114859812D01*
X178454180Y-114823502D01*
X178564494Y-114764537D01*
X178661185Y-114685185D01*
X178740537Y-114588494D01*
X178799502Y-114478180D01*
X178835812Y-114358482D01*
X178848072Y-114234000D01*
X178845000Y-113673750D01*
X178686250Y-113515000D01*
X177741000Y-113515000D01*
X176979000Y-113515000D01*
X176959000Y-113515000D01*
X176959000Y-112753000D01*
X176979000Y-112753000D01*
X176979000Y-111557750D01*
X177741000Y-111557750D01*
X177741000Y-112753000D01*
X178686250Y-112753000D01*
X178845000Y-112594250D01*
X178847847Y-112075000D01*
X191665157Y-112075000D01*
X191665157Y-112925000D01*
X191680679Y-113082602D01*
X191726650Y-113234148D01*
X191801303Y-113373814D01*
X191901769Y-113496231D01*
X192024186Y-113596697D01*
X192163852Y-113671350D01*
X192315398Y-113717321D01*
X192473000Y-113732843D01*
X193823000Y-113732843D01*
X193980602Y-113717321D01*
X194132148Y-113671350D01*
X194271814Y-113596697D01*
X194394231Y-113496231D01*
X194494697Y-113373814D01*
X194569350Y-113234148D01*
X194615321Y-113082602D01*
X194630843Y-112925000D01*
X194630843Y-112075000D01*
X194615321Y-111917398D01*
X194569350Y-111765852D01*
X194494697Y-111626186D01*
X194394231Y-111503769D01*
X194271814Y-111403303D01*
X194132148Y-111328650D01*
X193980602Y-111282679D01*
X193823000Y-111267157D01*
X192473000Y-111267157D01*
X192315398Y-111282679D01*
X192163852Y-111328650D01*
X192024186Y-111403303D01*
X191901769Y-111503769D01*
X191801303Y-111626186D01*
X191726650Y-111765852D01*
X191680679Y-111917398D01*
X191665157Y-112075000D01*
X178847847Y-112075000D01*
X178848072Y-112034000D01*
X178835812Y-111909518D01*
X178799502Y-111789820D01*
X178740537Y-111679506D01*
X178661185Y-111582815D01*
X178564494Y-111503463D01*
X178454180Y-111444498D01*
X178334482Y-111408188D01*
X178210000Y-111395928D01*
X177899750Y-111399000D01*
X177741000Y-111557750D01*
X176979000Y-111557750D01*
X176820250Y-111399000D01*
X176510000Y-111395928D01*
X176385518Y-111408188D01*
X176265820Y-111444498D01*
X176155506Y-111503463D01*
X176058815Y-111582815D01*
X175979463Y-111679506D01*
X175920498Y-111789820D01*
X175884188Y-111909518D01*
X175883105Y-111920515D01*
X175856231Y-111887769D01*
X175733814Y-111787303D01*
X175594148Y-111712650D01*
X175442602Y-111666679D01*
X175285000Y-111651157D01*
X174435000Y-111651157D01*
X174277398Y-111666679D01*
X174125852Y-111712650D01*
X173986186Y-111787303D01*
X173863769Y-111887769D01*
X173763303Y-112010186D01*
X173688650Y-112149852D01*
X173642679Y-112301398D01*
X173627157Y-112459000D01*
X173592843Y-112459000D01*
X173577321Y-112301398D01*
X173531350Y-112149852D01*
X173456697Y-112010186D01*
X173356231Y-111887769D01*
X173233814Y-111787303D01*
X173094148Y-111712650D01*
X172942602Y-111666679D01*
X172785000Y-111651157D01*
X171935000Y-111651157D01*
X171777398Y-111666679D01*
X171625852Y-111712650D01*
X171486186Y-111787303D01*
X171363769Y-111887769D01*
X171263303Y-112010186D01*
X171188650Y-112149852D01*
X171142679Y-112301398D01*
X171127157Y-112459000D01*
X142888000Y-112459000D01*
X142888000Y-107874351D01*
X142890457Y-107849407D01*
X142887997Y-107824429D01*
X142880649Y-107749823D01*
X142851601Y-107654065D01*
X142851600Y-107654063D01*
X142804429Y-107565812D01*
X142756850Y-107507837D01*
X142740948Y-107488460D01*
X142721571Y-107472558D01*
X139957012Y-104708000D01*
X143575054Y-104708000D01*
X143599998Y-104710457D01*
X143624942Y-104708000D01*
X143624945Y-104708000D01*
X143699583Y-104700649D01*
X143795341Y-104671601D01*
X143883593Y-104624429D01*
X143960946Y-104560948D01*
X143976853Y-104541565D01*
X144156420Y-104361998D01*
X144275050Y-104361998D01*
X144422267Y-104332715D01*
X144560942Y-104275274D01*
X144685747Y-104191882D01*
X144791884Y-104085745D01*
X144875276Y-103960940D01*
X144932717Y-103822265D01*
X144962000Y-103675048D01*
X144962000Y-103524948D01*
X144932717Y-103377731D01*
X144875276Y-103239056D01*
X144791884Y-103114251D01*
X144685747Y-103008114D01*
X144560942Y-102924722D01*
X144422267Y-102867281D01*
X144275050Y-102837998D01*
X144124950Y-102837998D01*
X143977733Y-102867281D01*
X143839058Y-102924722D01*
X143714253Y-103008114D01*
X143608116Y-103114251D01*
X143524724Y-103239056D01*
X143467283Y-103377731D01*
X143438000Y-103524948D01*
X143438000Y-103643578D01*
X143389578Y-103692000D01*
X141554524Y-103692000D01*
X141575276Y-103660942D01*
X141632717Y-103522267D01*
X141662000Y-103375050D01*
X141662000Y-103224950D01*
X141643429Y-103131585D01*
X141724950Y-103147800D01*
X141875050Y-103147800D01*
X142022267Y-103118517D01*
X142160942Y-103061076D01*
X142285747Y-102977684D01*
X142391884Y-102871547D01*
X142475276Y-102746742D01*
X142532717Y-102608067D01*
X142562000Y-102460850D01*
X142562000Y-102342220D01*
X143796220Y-101108000D01*
X146830369Y-101108000D01*
X146914253Y-101191884D01*
X147039058Y-101275276D01*
X147177733Y-101332717D01*
X147324950Y-101362000D01*
X147475050Y-101362000D01*
X147622267Y-101332717D01*
X147760942Y-101275276D01*
X147885747Y-101191884D01*
X147991884Y-101085747D01*
X148075276Y-100960942D01*
X148132717Y-100822267D01*
X148162000Y-100675050D01*
X148162000Y-100524950D01*
X148132717Y-100377733D01*
X148075276Y-100239058D01*
X147991884Y-100114253D01*
X147885747Y-100008116D01*
X147760942Y-99924724D01*
X147674694Y-99888999D01*
X148170579Y-99888999D01*
X151506200Y-103224620D01*
X151506199Y-106589255D01*
X151503742Y-106614199D01*
X151506199Y-106639143D01*
X151506199Y-106639145D01*
X151513550Y-106713783D01*
X151542598Y-106809541D01*
X151589770Y-106897794D01*
X151653251Y-106975147D01*
X151672634Y-106991054D01*
X152038000Y-107356420D01*
X152038000Y-107475050D01*
X152067283Y-107622267D01*
X152124724Y-107760942D01*
X152208116Y-107885747D01*
X152314253Y-107991884D01*
X152439058Y-108075276D01*
X152577733Y-108132717D01*
X152724950Y-108162000D01*
X152875050Y-108162000D01*
X153022267Y-108132717D01*
X153160942Y-108075276D01*
X153285747Y-107991884D01*
X153391884Y-107885747D01*
X153475276Y-107760942D01*
X153532717Y-107622267D01*
X153561109Y-107479529D01*
X157038000Y-110956421D01*
X157038000Y-111075050D01*
X157067283Y-111222267D01*
X157124724Y-111360942D01*
X157208116Y-111485747D01*
X157314253Y-111591884D01*
X157439058Y-111675276D01*
X157577733Y-111732717D01*
X157724950Y-111762000D01*
X157875050Y-111762000D01*
X158022267Y-111732717D01*
X158160942Y-111675276D01*
X158285747Y-111591884D01*
X158391884Y-111485747D01*
X158475276Y-111360942D01*
X158532717Y-111222267D01*
X158562000Y-111075050D01*
X158562000Y-110924950D01*
X158532717Y-110777733D01*
X158475276Y-110639058D01*
X158391884Y-110514253D01*
X158285747Y-110408116D01*
X158160942Y-110324724D01*
X158022267Y-110267283D01*
X157875050Y-110238000D01*
X157756421Y-110238000D01*
X155868421Y-108350000D01*
X191409928Y-108350000D01*
X191422188Y-108474482D01*
X191458498Y-108594180D01*
X191517463Y-108704494D01*
X191596815Y-108801185D01*
X191693506Y-108880537D01*
X191803820Y-108939502D01*
X191923518Y-108975812D01*
X191934515Y-108976895D01*
X191901769Y-109003769D01*
X191801303Y-109126186D01*
X191726650Y-109265852D01*
X191680679Y-109417398D01*
X191665157Y-109575000D01*
X191665157Y-110425000D01*
X191680679Y-110582602D01*
X191726650Y-110734148D01*
X191801303Y-110873814D01*
X191901769Y-110996231D01*
X192024186Y-111096697D01*
X192163852Y-111171350D01*
X192315398Y-111217321D01*
X192473000Y-111232843D01*
X193823000Y-111232843D01*
X193980602Y-111217321D01*
X194132148Y-111171350D01*
X194271814Y-111096697D01*
X194394231Y-110996231D01*
X194494697Y-110873814D01*
X194569350Y-110734148D01*
X194615321Y-110582602D01*
X194630843Y-110425000D01*
X194630843Y-109575000D01*
X194615321Y-109417398D01*
X194569350Y-109265852D01*
X194494697Y-109126186D01*
X194394231Y-109003769D01*
X194361485Y-108976895D01*
X194372482Y-108975812D01*
X194492180Y-108939502D01*
X194602494Y-108880537D01*
X194699185Y-108801185D01*
X194778537Y-108704494D01*
X194837502Y-108594180D01*
X194873812Y-108474482D01*
X194886072Y-108350000D01*
X194883000Y-108039750D01*
X194724250Y-107881000D01*
X193529000Y-107881000D01*
X193529000Y-107901000D01*
X192767000Y-107901000D01*
X192767000Y-107881000D01*
X191571750Y-107881000D01*
X191413000Y-108039750D01*
X191409928Y-108350000D01*
X155868421Y-108350000D01*
X153462000Y-105943580D01*
X153462000Y-105824950D01*
X153432717Y-105677733D01*
X153375276Y-105539058D01*
X153291884Y-105414253D01*
X153185747Y-105308116D01*
X153060942Y-105224724D01*
X152922267Y-105167283D01*
X152775050Y-105138000D01*
X152624950Y-105138000D01*
X152522199Y-105158438D01*
X152522199Y-103039143D01*
X152524656Y-103014199D01*
X152521544Y-102982606D01*
X152514848Y-102914614D01*
X152485800Y-102818856D01*
X152438628Y-102730604D01*
X152375147Y-102653251D01*
X152355764Y-102637344D01*
X149126420Y-99408000D01*
X149189580Y-99408000D01*
X156823145Y-107041565D01*
X156839052Y-107060948D01*
X156916405Y-107124429D01*
X157004657Y-107171601D01*
X157100415Y-107200649D01*
X157175053Y-107208000D01*
X157175056Y-107208000D01*
X157200000Y-107210457D01*
X157224944Y-107208000D01*
X166030369Y-107208000D01*
X166114253Y-107291884D01*
X166239058Y-107375276D01*
X166377733Y-107432717D01*
X166524950Y-107462000D01*
X166675050Y-107462000D01*
X166822267Y-107432717D01*
X166960942Y-107375276D01*
X167085747Y-107291884D01*
X167191884Y-107185747D01*
X167275276Y-107060942D01*
X167332717Y-106922267D01*
X167362000Y-106775050D01*
X167362000Y-106650000D01*
X191409928Y-106650000D01*
X191413000Y-106960250D01*
X191571750Y-107119000D01*
X192767000Y-107119000D01*
X192767000Y-106173750D01*
X193529000Y-106173750D01*
X193529000Y-107119000D01*
X194724250Y-107119000D01*
X194883000Y-106960250D01*
X194886072Y-106650000D01*
X194873812Y-106525518D01*
X194837502Y-106405820D01*
X194778537Y-106295506D01*
X194699185Y-106198815D01*
X194602494Y-106119463D01*
X194492180Y-106060498D01*
X194372482Y-106024188D01*
X194248000Y-106011928D01*
X193687750Y-106015000D01*
X193529000Y-106173750D01*
X192767000Y-106173750D01*
X192608250Y-106015000D01*
X192048000Y-106011928D01*
X191923518Y-106024188D01*
X191803820Y-106060498D01*
X191693506Y-106119463D01*
X191596815Y-106198815D01*
X191517463Y-106295506D01*
X191458498Y-106405820D01*
X191422188Y-106525518D01*
X191409928Y-106650000D01*
X167362000Y-106650000D01*
X167362000Y-106624950D01*
X167332717Y-106477733D01*
X167275276Y-106339058D01*
X167191884Y-106214253D01*
X167085747Y-106108116D01*
X166960942Y-106024724D01*
X166822267Y-105967283D01*
X166675050Y-105938000D01*
X166524950Y-105938000D01*
X166377733Y-105967283D01*
X166239058Y-106024724D01*
X166114253Y-106108116D01*
X166030369Y-106192000D01*
X157410420Y-106192000D01*
X150757382Y-99538962D01*
X188319000Y-99538962D01*
X188319000Y-100461038D01*
X188498889Y-101365397D01*
X188851752Y-102217285D01*
X189364030Y-102983963D01*
X190016037Y-103635970D01*
X190782715Y-104148248D01*
X191634603Y-104501111D01*
X192538962Y-104681000D01*
X193461038Y-104681000D01*
X194365397Y-104501111D01*
X195217285Y-104148248D01*
X195983963Y-103635970D01*
X196635970Y-102983963D01*
X197148248Y-102217285D01*
X197501111Y-101365397D01*
X197681000Y-100461038D01*
X197681000Y-99538962D01*
X197501111Y-98634603D01*
X197148248Y-97782715D01*
X196635970Y-97016037D01*
X195983963Y-96364030D01*
X195217285Y-95851752D01*
X194365397Y-95498889D01*
X193461038Y-95319000D01*
X192538962Y-95319000D01*
X191634603Y-95498889D01*
X190782715Y-95851752D01*
X190016037Y-96364030D01*
X189364030Y-97016037D01*
X188851752Y-97782715D01*
X188498889Y-98634603D01*
X188319000Y-99538962D01*
X150757382Y-99538962D01*
X149776855Y-98558435D01*
X149760948Y-98539052D01*
X149683595Y-98475571D01*
X149595343Y-98428399D01*
X149499585Y-98399351D01*
X149424947Y-98392000D01*
X149424944Y-98392000D01*
X149400000Y-98389543D01*
X149375056Y-98392000D01*
X149020567Y-98392000D01*
X149060942Y-98375276D01*
X149185747Y-98291884D01*
X149291884Y-98185747D01*
X149375276Y-98060942D01*
X149432717Y-97922267D01*
X149462000Y-97775050D01*
X149462000Y-97656420D01*
X149910420Y-97208000D01*
X169230369Y-97208000D01*
X169314253Y-97291884D01*
X169439058Y-97375276D01*
X169577733Y-97432717D01*
X169724950Y-97462000D01*
X169875050Y-97462000D01*
X170022267Y-97432717D01*
X170160942Y-97375276D01*
X170285747Y-97291884D01*
X170391884Y-97185747D01*
X170475276Y-97060942D01*
X170532717Y-96922267D01*
X170562000Y-96775050D01*
X170562000Y-96624950D01*
X170532717Y-96477733D01*
X170475276Y-96339058D01*
X170391884Y-96214253D01*
X170285747Y-96108116D01*
X170160942Y-96024724D01*
X170022267Y-95967283D01*
X169875050Y-95938000D01*
X169724950Y-95938000D01*
X169577733Y-95967283D01*
X169439058Y-96024724D01*
X169314253Y-96108116D01*
X169230369Y-96192000D01*
X149724944Y-96192000D01*
X149700000Y-96189543D01*
X149675056Y-96192000D01*
X149675053Y-96192000D01*
X149600415Y-96199351D01*
X149504657Y-96228399D01*
X149416405Y-96275571D01*
X149339052Y-96339052D01*
X149323145Y-96358435D01*
X148743580Y-96938000D01*
X148624950Y-96938000D01*
X148477733Y-96967283D01*
X148339058Y-97024724D01*
X148214253Y-97108116D01*
X148108116Y-97214253D01*
X148024724Y-97339058D01*
X147967283Y-97477733D01*
X147938000Y-97624950D01*
X147938000Y-97775050D01*
X147967283Y-97922267D01*
X148024724Y-98060942D01*
X148108116Y-98185747D01*
X148214253Y-98291884D01*
X148339058Y-98375276D01*
X148379433Y-98392000D01*
X140638737Y-98392000D01*
X140662000Y-98275050D01*
X140662000Y-98124950D01*
X140632717Y-97977733D01*
X140575276Y-97839058D01*
X140491884Y-97714253D01*
X140385747Y-97608116D01*
X140260942Y-97524724D01*
X140122267Y-97467283D01*
X139975050Y-97438000D01*
X139856421Y-97438000D01*
X138791046Y-96372626D01*
X138775139Y-96353243D01*
X138697786Y-96289762D01*
X138609534Y-96242590D01*
X138513776Y-96213542D01*
X138439138Y-96206191D01*
X138439135Y-96206191D01*
X138414191Y-96203734D01*
X138389247Y-96206191D01*
X134010753Y-96206191D01*
X133985809Y-96203734D01*
X133960865Y-96206191D01*
X133960862Y-96206191D01*
X133886224Y-96213542D01*
X133790466Y-96242590D01*
X133702214Y-96289762D01*
X133624861Y-96353243D01*
X133608954Y-96372626D01*
X132943580Y-97038000D01*
X132824950Y-97038000D01*
X132677733Y-97067283D01*
X132539058Y-97124724D01*
X132414253Y-97208116D01*
X132308116Y-97314253D01*
X132224724Y-97439058D01*
X132167283Y-97577733D01*
X132138000Y-97724950D01*
X132138000Y-97875050D01*
X132167283Y-98022267D01*
X132224724Y-98160942D01*
X132308116Y-98285747D01*
X132414253Y-98391884D01*
X132539058Y-98475276D01*
X132677733Y-98532717D01*
X132803459Y-98557725D01*
X131230592Y-100130592D01*
X131183210Y-100188328D01*
X131166256Y-100220048D01*
X131140267Y-100209283D01*
X130993050Y-100180000D01*
X130842950Y-100180000D01*
X130695733Y-100209283D01*
X130557058Y-100266724D01*
X130432253Y-100350116D01*
X130326116Y-100456253D01*
X130242724Y-100581058D01*
X130185283Y-100719733D01*
X130156000Y-100866950D01*
X129686733Y-100866950D01*
X129688999Y-100843948D01*
X129688999Y-100843945D01*
X129691456Y-100819001D01*
X129688999Y-100794057D01*
X129688999Y-95057136D01*
X129708116Y-95085747D01*
X129814253Y-95191884D01*
X129939058Y-95275276D01*
X130077733Y-95332717D01*
X130224950Y-95362000D01*
X130375050Y-95362000D01*
X130522267Y-95332717D01*
X130660942Y-95275276D01*
X130785747Y-95191884D01*
X130891884Y-95085747D01*
X130975276Y-94960942D01*
X131032717Y-94822267D01*
X131062000Y-94675050D01*
X131062000Y-94556420D01*
X131393465Y-94224955D01*
X137837999Y-94224955D01*
X137837999Y-94375055D01*
X137867282Y-94522272D01*
X137924723Y-94660947D01*
X138008115Y-94785752D01*
X138114252Y-94891889D01*
X138239057Y-94975281D01*
X138377732Y-95032722D01*
X138524949Y-95062005D01*
X138675049Y-95062005D01*
X138822266Y-95032722D01*
X138960941Y-94975281D01*
X139085746Y-94891889D01*
X139101616Y-94876019D01*
X139108116Y-94885747D01*
X139214253Y-94991884D01*
X139339058Y-95075276D01*
X139477733Y-95132717D01*
X139624950Y-95162000D01*
X139775050Y-95162000D01*
X139922267Y-95132717D01*
X140060942Y-95075276D01*
X140185747Y-94991884D01*
X140291884Y-94885747D01*
X140375276Y-94760942D01*
X140432717Y-94622267D01*
X140462000Y-94475050D01*
X140462000Y-94324950D01*
X140432717Y-94177733D01*
X140375276Y-94039058D01*
X140291884Y-93914253D01*
X140208000Y-93830369D01*
X140208000Y-91110420D01*
X141493470Y-89824950D01*
X162038000Y-89824950D01*
X162038000Y-89975050D01*
X162067283Y-90122267D01*
X162124724Y-90260942D01*
X162208116Y-90385747D01*
X162314253Y-90491884D01*
X162439058Y-90575276D01*
X162577733Y-90632717D01*
X162724950Y-90662000D01*
X162843580Y-90662000D01*
X164323145Y-92141565D01*
X164339052Y-92160948D01*
X164416405Y-92224429D01*
X164504657Y-92271601D01*
X164600415Y-92300649D01*
X164675053Y-92308000D01*
X164675056Y-92308000D01*
X164700000Y-92310457D01*
X164724944Y-92308000D01*
X180775056Y-92308000D01*
X180800000Y-92310457D01*
X180824944Y-92308000D01*
X180824947Y-92308000D01*
X180899585Y-92300649D01*
X180995343Y-92271601D01*
X181083595Y-92224429D01*
X181160948Y-92160948D01*
X181176855Y-92141565D01*
X181223420Y-92095000D01*
X191665157Y-92095000D01*
X191665157Y-92945000D01*
X191680679Y-93102602D01*
X191726650Y-93254148D01*
X191801303Y-93393814D01*
X191901769Y-93516231D01*
X192024186Y-93616697D01*
X192163852Y-93691350D01*
X192315398Y-93737321D01*
X192473000Y-93752843D01*
X193823000Y-93752843D01*
X193980602Y-93737321D01*
X194132148Y-93691350D01*
X194271814Y-93616697D01*
X194394231Y-93516231D01*
X194494697Y-93393814D01*
X194569350Y-93254148D01*
X194615321Y-93102602D01*
X194630843Y-92945000D01*
X194630843Y-92095000D01*
X194615321Y-91937398D01*
X194569350Y-91785852D01*
X194494697Y-91646186D01*
X194394231Y-91523769D01*
X194271814Y-91423303D01*
X194132148Y-91348650D01*
X193980602Y-91302679D01*
X193823000Y-91287157D01*
X192473000Y-91287157D01*
X192315398Y-91302679D01*
X192163852Y-91348650D01*
X192024186Y-91423303D01*
X191901769Y-91523769D01*
X191801303Y-91646186D01*
X191726650Y-91785852D01*
X191680679Y-91937398D01*
X191665157Y-92095000D01*
X181223420Y-92095000D01*
X181256420Y-92062000D01*
X181375050Y-92062000D01*
X181522267Y-92032717D01*
X181660942Y-91975276D01*
X181785747Y-91891884D01*
X181891884Y-91785747D01*
X181975276Y-91660942D01*
X182032717Y-91522267D01*
X182062000Y-91375050D01*
X182062000Y-91224950D01*
X182032717Y-91077733D01*
X181975276Y-90939058D01*
X181891884Y-90814253D01*
X181785747Y-90708116D01*
X181660942Y-90624724D01*
X181522267Y-90567283D01*
X181375050Y-90538000D01*
X181224950Y-90538000D01*
X181077733Y-90567283D01*
X180939058Y-90624724D01*
X180814253Y-90708116D01*
X180708116Y-90814253D01*
X180624724Y-90939058D01*
X180567283Y-91077733D01*
X180538000Y-91224950D01*
X180538000Y-91292000D01*
X164910420Y-91292000D01*
X163562000Y-89943580D01*
X163562000Y-89824950D01*
X163532717Y-89677733D01*
X163475276Y-89539058D01*
X163391884Y-89414253D01*
X163285747Y-89308116D01*
X163160942Y-89224724D01*
X163022267Y-89167283D01*
X162875050Y-89138000D01*
X162724950Y-89138000D01*
X162577733Y-89167283D01*
X162439058Y-89224724D01*
X162314253Y-89308116D01*
X162208116Y-89414253D01*
X162124724Y-89539058D01*
X162067283Y-89677733D01*
X162038000Y-89824950D01*
X141493470Y-89824950D01*
X142948420Y-88370000D01*
X191409928Y-88370000D01*
X191422188Y-88494482D01*
X191458498Y-88614180D01*
X191517463Y-88724494D01*
X191596815Y-88821185D01*
X191693506Y-88900537D01*
X191803820Y-88959502D01*
X191923518Y-88995812D01*
X191934515Y-88996895D01*
X191901769Y-89023769D01*
X191801303Y-89146186D01*
X191726650Y-89285852D01*
X191680679Y-89437398D01*
X191665157Y-89595000D01*
X191665157Y-90445000D01*
X191680679Y-90602602D01*
X191726650Y-90754148D01*
X191801303Y-90893814D01*
X191901769Y-91016231D01*
X192024186Y-91116697D01*
X192163852Y-91191350D01*
X192315398Y-91237321D01*
X192473000Y-91252843D01*
X193823000Y-91252843D01*
X193980602Y-91237321D01*
X194132148Y-91191350D01*
X194271814Y-91116697D01*
X194394231Y-91016231D01*
X194494697Y-90893814D01*
X194569350Y-90754148D01*
X194615321Y-90602602D01*
X194630843Y-90445000D01*
X194630843Y-89595000D01*
X194615321Y-89437398D01*
X194569350Y-89285852D01*
X194494697Y-89146186D01*
X194394231Y-89023769D01*
X194361485Y-88996895D01*
X194372482Y-88995812D01*
X194492180Y-88959502D01*
X194602494Y-88900537D01*
X194699185Y-88821185D01*
X194778537Y-88724494D01*
X194837502Y-88614180D01*
X194873812Y-88494482D01*
X194886072Y-88370000D01*
X194883000Y-88059750D01*
X194724250Y-87901000D01*
X193529000Y-87901000D01*
X193529000Y-87921000D01*
X192767000Y-87921000D01*
X192767000Y-87901000D01*
X191571750Y-87901000D01*
X191413000Y-88059750D01*
X191409928Y-88370000D01*
X142948420Y-88370000D01*
X145210420Y-86108000D01*
X145630369Y-86108000D01*
X145714253Y-86191884D01*
X145839058Y-86275276D01*
X145977733Y-86332717D01*
X146124950Y-86362000D01*
X146275050Y-86362000D01*
X146422267Y-86332717D01*
X146560942Y-86275276D01*
X146685747Y-86191884D01*
X146791884Y-86085747D01*
X146875276Y-85960942D01*
X146932717Y-85822267D01*
X146962000Y-85675050D01*
X146962000Y-85524950D01*
X146932717Y-85377733D01*
X146875276Y-85239058D01*
X146854524Y-85208000D01*
X147389580Y-85208000D01*
X147938000Y-85756420D01*
X147938000Y-85875050D01*
X147967283Y-86022267D01*
X148024724Y-86160942D01*
X148108116Y-86285747D01*
X148214253Y-86391884D01*
X148339058Y-86475276D01*
X148477733Y-86532717D01*
X148624950Y-86562000D01*
X148775050Y-86562000D01*
X148922267Y-86532717D01*
X149060942Y-86475276D01*
X149185747Y-86391884D01*
X149291884Y-86285747D01*
X149375276Y-86160942D01*
X149432717Y-86022267D01*
X149462000Y-85875050D01*
X149462000Y-85724950D01*
X149432717Y-85577733D01*
X149375276Y-85439058D01*
X149291884Y-85314253D01*
X149185747Y-85208116D01*
X149060942Y-85124724D01*
X148922267Y-85067283D01*
X148775050Y-85038000D01*
X148656420Y-85038000D01*
X148026420Y-84408000D01*
X153689580Y-84408000D01*
X155338000Y-86056420D01*
X155338000Y-86175050D01*
X155367283Y-86322267D01*
X155424724Y-86460942D01*
X155508116Y-86585747D01*
X155614253Y-86691884D01*
X155739058Y-86775276D01*
X155877733Y-86832717D01*
X156024950Y-86862000D01*
X156175050Y-86862000D01*
X156322267Y-86832717D01*
X156460942Y-86775276D01*
X156585747Y-86691884D01*
X156607631Y-86670000D01*
X191409928Y-86670000D01*
X191413000Y-86980250D01*
X191571750Y-87139000D01*
X192767000Y-87139000D01*
X192767000Y-86193750D01*
X193529000Y-86193750D01*
X193529000Y-87139000D01*
X194724250Y-87139000D01*
X194883000Y-86980250D01*
X194886072Y-86670000D01*
X194873812Y-86545518D01*
X194837502Y-86425820D01*
X194778537Y-86315506D01*
X194699185Y-86218815D01*
X194602494Y-86139463D01*
X194492180Y-86080498D01*
X194372482Y-86044188D01*
X194248000Y-86031928D01*
X193687750Y-86035000D01*
X193529000Y-86193750D01*
X192767000Y-86193750D01*
X192608250Y-86035000D01*
X192048000Y-86031928D01*
X191923518Y-86044188D01*
X191803820Y-86080498D01*
X191693506Y-86139463D01*
X191596815Y-86218815D01*
X191517463Y-86315506D01*
X191458498Y-86425820D01*
X191422188Y-86545518D01*
X191409928Y-86670000D01*
X156607631Y-86670000D01*
X156691884Y-86585747D01*
X156775276Y-86460942D01*
X156832717Y-86322267D01*
X156862000Y-86175050D01*
X156862000Y-86024950D01*
X156832717Y-85877733D01*
X156775276Y-85739058D01*
X156691884Y-85614253D01*
X156585747Y-85508116D01*
X156460942Y-85424724D01*
X156322267Y-85367283D01*
X156175050Y-85338000D01*
X156056420Y-85338000D01*
X154276855Y-83558435D01*
X154260948Y-83539052D01*
X154183595Y-83475571D01*
X154095343Y-83428399D01*
X153999585Y-83399351D01*
X153924947Y-83392000D01*
X153924944Y-83392000D01*
X153900000Y-83389543D01*
X153875056Y-83392000D01*
X144524944Y-83392000D01*
X144500000Y-83389543D01*
X144475056Y-83392000D01*
X144475053Y-83392000D01*
X144400415Y-83399351D01*
X144304657Y-83428399D01*
X144216405Y-83475571D01*
X144139052Y-83539052D01*
X144123145Y-83558435D01*
X140443580Y-87238000D01*
X140324950Y-87238000D01*
X140177733Y-87267283D01*
X140039058Y-87324724D01*
X139914253Y-87408116D01*
X139808116Y-87514253D01*
X139724724Y-87639058D01*
X139667283Y-87777733D01*
X139638000Y-87924950D01*
X139638000Y-88075050D01*
X139667283Y-88222267D01*
X139724724Y-88360942D01*
X139808116Y-88485747D01*
X139914253Y-88591884D01*
X140039058Y-88675276D01*
X140086608Y-88694972D01*
X138258434Y-90523146D01*
X138239051Y-90539053D01*
X138175570Y-90616406D01*
X138128398Y-90704659D01*
X138099350Y-90800417D01*
X138092121Y-90873814D01*
X138089542Y-90900001D01*
X138091999Y-90924945D01*
X138092000Y-93730373D01*
X138008115Y-93814258D01*
X137924723Y-93939063D01*
X137867282Y-94077738D01*
X137837999Y-94224955D01*
X131393465Y-94224955D01*
X133656420Y-91962000D01*
X133675050Y-91962000D01*
X133822267Y-91932717D01*
X133960942Y-91875276D01*
X134085747Y-91791884D01*
X134191884Y-91685747D01*
X134275276Y-91560942D01*
X134332717Y-91422267D01*
X134362000Y-91275050D01*
X134362000Y-91124950D01*
X134332717Y-90977733D01*
X134275276Y-90839058D01*
X134191884Y-90714253D01*
X134085747Y-90608116D01*
X133960942Y-90524724D01*
X133822267Y-90467283D01*
X133675050Y-90438000D01*
X133524950Y-90438000D01*
X133377733Y-90467283D01*
X133239058Y-90524724D01*
X133114253Y-90608116D01*
X133008116Y-90714253D01*
X132961560Y-90783929D01*
X132885747Y-90708116D01*
X132760942Y-90624724D01*
X132622267Y-90567283D01*
X132475050Y-90538000D01*
X132324950Y-90538000D01*
X132177733Y-90567283D01*
X132039058Y-90624724D01*
X131914253Y-90708116D01*
X131808116Y-90814253D01*
X131724724Y-90939058D01*
X131667283Y-91077733D01*
X131638000Y-91224950D01*
X131638000Y-91343580D01*
X128839429Y-94142151D01*
X128820052Y-94158053D01*
X128804150Y-94177430D01*
X128804149Y-94177431D01*
X128756570Y-94235406D01*
X128744264Y-94258430D01*
X128709399Y-94323658D01*
X128692996Y-94377733D01*
X128680351Y-94419417D01*
X128670542Y-94519001D01*
X128673000Y-94543955D01*
X128672999Y-96943947D01*
X128673000Y-96943957D01*
X128672999Y-100448334D01*
X128577733Y-100467283D01*
X128439058Y-100524724D01*
X128314253Y-100608116D01*
X128208116Y-100714253D01*
X128124724Y-100839058D01*
X128067283Y-100977733D01*
X128038000Y-101124950D01*
X125927059Y-101124950D01*
X125927059Y-101090009D01*
X125897776Y-100942792D01*
X125840335Y-100804117D01*
X125756943Y-100679312D01*
X125650806Y-100573175D01*
X125526001Y-100489783D01*
X125387326Y-100432342D01*
X125240109Y-100403059D01*
X125090009Y-100403059D01*
X124942792Y-100432342D01*
X124804117Y-100489783D01*
X124679312Y-100573175D01*
X124573175Y-100679312D01*
X124489783Y-100804117D01*
X124432342Y-100942792D01*
X124403059Y-101090009D01*
X124403059Y-101240109D01*
X124432342Y-101387326D01*
X124489783Y-101526001D01*
X124573175Y-101650806D01*
X124679312Y-101756943D01*
X124804117Y-101840335D01*
X124942792Y-101897776D01*
X125090009Y-101927059D01*
X125208639Y-101927059D01*
X126957318Y-103675739D01*
X126839058Y-103724724D01*
X126714253Y-103808116D01*
X126630369Y-103892000D01*
X123382352Y-103892000D01*
X123284937Y-103794585D01*
X123160132Y-103711193D01*
X123021457Y-103653752D01*
X122874240Y-103624469D01*
X122724140Y-103624469D01*
X122576923Y-103653752D01*
X122438248Y-103711193D01*
X122313443Y-103794585D01*
X122207306Y-103900722D01*
X122123914Y-104025527D01*
X122066473Y-104164202D01*
X122037190Y-104311419D01*
X108823354Y-104311419D01*
X109217285Y-104148248D01*
X109983963Y-103635970D01*
X110635970Y-102983963D01*
X111148248Y-102217285D01*
X111501111Y-101365397D01*
X111681000Y-100461038D01*
X111681000Y-99538962D01*
X111501111Y-98634603D01*
X111148248Y-97782715D01*
X110635970Y-97016037D01*
X109983963Y-96364030D01*
X109217285Y-95851752D01*
X108365397Y-95498889D01*
X107461038Y-95319000D01*
X106538962Y-95319000D01*
X105634603Y-95498889D01*
X104782715Y-95851752D01*
X104016037Y-96364030D01*
X103364030Y-97016037D01*
X102851752Y-97782715D01*
X102498889Y-98634603D01*
X102319000Y-99538962D01*
X100406000Y-99538962D01*
X100406000Y-93350000D01*
X105049928Y-93350000D01*
X105062188Y-93474482D01*
X105098498Y-93594180D01*
X105157463Y-93704494D01*
X105236815Y-93801185D01*
X105333506Y-93880537D01*
X105443820Y-93939502D01*
X105563518Y-93975812D01*
X105688000Y-93988072D01*
X106248250Y-93985000D01*
X106407000Y-93826250D01*
X106407000Y-92881000D01*
X107169000Y-92881000D01*
X107169000Y-93826250D01*
X107327750Y-93985000D01*
X107888000Y-93988072D01*
X108012482Y-93975812D01*
X108132180Y-93939502D01*
X108242494Y-93880537D01*
X108339185Y-93801185D01*
X108418537Y-93704494D01*
X108477502Y-93594180D01*
X108513812Y-93474482D01*
X108526072Y-93350000D01*
X108523000Y-93039750D01*
X108364250Y-92881000D01*
X107169000Y-92881000D01*
X106407000Y-92881000D01*
X105211750Y-92881000D01*
X105053000Y-93039750D01*
X105049928Y-93350000D01*
X100406000Y-93350000D01*
X100406000Y-91650000D01*
X105049928Y-91650000D01*
X105053000Y-91960250D01*
X105211750Y-92119000D01*
X106407000Y-92119000D01*
X106407000Y-92099000D01*
X107169000Y-92099000D01*
X107169000Y-92119000D01*
X108364250Y-92119000D01*
X108523000Y-91960250D01*
X108526072Y-91650000D01*
X108513812Y-91525518D01*
X108477502Y-91405820D01*
X108418537Y-91295506D01*
X108339185Y-91198815D01*
X108242494Y-91119463D01*
X108132180Y-91060498D01*
X108012482Y-91024188D01*
X108001485Y-91023105D01*
X108034231Y-90996231D01*
X108134697Y-90873814D01*
X108209350Y-90734148D01*
X108255321Y-90582602D01*
X108270843Y-90425000D01*
X108270843Y-89575000D01*
X108255321Y-89417398D01*
X108209350Y-89265852D01*
X108134697Y-89126186D01*
X108034231Y-89003769D01*
X107911814Y-88903303D01*
X107772148Y-88828650D01*
X107620602Y-88782679D01*
X107463000Y-88767157D01*
X106113000Y-88767157D01*
X105955398Y-88782679D01*
X105803852Y-88828650D01*
X105664186Y-88903303D01*
X105541769Y-89003769D01*
X105441303Y-89126186D01*
X105366650Y-89265852D01*
X105320679Y-89417398D01*
X105305157Y-89575000D01*
X105305157Y-90425000D01*
X105320679Y-90582602D01*
X105366650Y-90734148D01*
X105441303Y-90873814D01*
X105541769Y-90996231D01*
X105574515Y-91023105D01*
X105563518Y-91024188D01*
X105443820Y-91060498D01*
X105333506Y-91119463D01*
X105236815Y-91198815D01*
X105157463Y-91295506D01*
X105098498Y-91405820D01*
X105062188Y-91525518D01*
X105049928Y-91650000D01*
X100406000Y-91650000D01*
X100406000Y-87075000D01*
X105305157Y-87075000D01*
X105305157Y-87925000D01*
X105320679Y-88082602D01*
X105366650Y-88234148D01*
X105441303Y-88373814D01*
X105541769Y-88496231D01*
X105664186Y-88596697D01*
X105803852Y-88671350D01*
X105955398Y-88717321D01*
X106113000Y-88732843D01*
X107463000Y-88732843D01*
X107620602Y-88717321D01*
X107772148Y-88671350D01*
X107911814Y-88596697D01*
X108034231Y-88496231D01*
X108134697Y-88373814D01*
X108209350Y-88234148D01*
X108255321Y-88082602D01*
X108270843Y-87925000D01*
X108270843Y-87724950D01*
X122538000Y-87724950D01*
X122538000Y-87875050D01*
X122567283Y-88022267D01*
X122624724Y-88160942D01*
X122708116Y-88285747D01*
X122814253Y-88391884D01*
X122939058Y-88475276D01*
X123077733Y-88532717D01*
X123224950Y-88562000D01*
X123343580Y-88562000D01*
X125692000Y-90910421D01*
X125692001Y-94030368D01*
X125608116Y-94114253D01*
X125524724Y-94239058D01*
X125467283Y-94377733D01*
X125438000Y-94524950D01*
X125438000Y-94675050D01*
X125467283Y-94822267D01*
X125524724Y-94960942D01*
X125608116Y-95085747D01*
X125714253Y-95191884D01*
X125839058Y-95275276D01*
X125977733Y-95332717D01*
X126124950Y-95362000D01*
X126275050Y-95362000D01*
X126422267Y-95332717D01*
X126560942Y-95275276D01*
X126685747Y-95191884D01*
X126791884Y-95085747D01*
X126875276Y-94960942D01*
X126932717Y-94822267D01*
X126962000Y-94675050D01*
X126962000Y-94524950D01*
X126932717Y-94377733D01*
X126875276Y-94239058D01*
X126791884Y-94114253D01*
X126708000Y-94030369D01*
X126708000Y-90724943D01*
X126710457Y-90699999D01*
X126703830Y-90632717D01*
X126700649Y-90600415D01*
X126671601Y-90504657D01*
X126651624Y-90467283D01*
X126624429Y-90416404D01*
X126576850Y-90358429D01*
X126560948Y-90339052D01*
X126541571Y-90323150D01*
X124062000Y-87843580D01*
X124062000Y-87724950D01*
X124032717Y-87577733D01*
X123975276Y-87439058D01*
X123891884Y-87314253D01*
X123785747Y-87208116D01*
X123660942Y-87124724D01*
X123522267Y-87067283D01*
X123375050Y-87038000D01*
X123224950Y-87038000D01*
X123077733Y-87067283D01*
X122939058Y-87124724D01*
X122814253Y-87208116D01*
X122708116Y-87314253D01*
X122624724Y-87439058D01*
X122567283Y-87577733D01*
X122538000Y-87724950D01*
X108270843Y-87724950D01*
X108270843Y-87075000D01*
X108255321Y-86917398D01*
X108209350Y-86765852D01*
X108134697Y-86626186D01*
X108034231Y-86503769D01*
X107911814Y-86403303D01*
X107772148Y-86328650D01*
X107620602Y-86282679D01*
X107463000Y-86267157D01*
X106113000Y-86267157D01*
X105955398Y-86282679D01*
X105803852Y-86328650D01*
X105664186Y-86403303D01*
X105541769Y-86503769D01*
X105441303Y-86626186D01*
X105366650Y-86765852D01*
X105320679Y-86917398D01*
X105305157Y-87075000D01*
X100406000Y-87075000D01*
X100406000Y-81481750D01*
X109865000Y-81481750D01*
X109876723Y-81586609D01*
X109915350Y-81705579D01*
X109976445Y-81814728D01*
X110057660Y-81909860D01*
X110155874Y-81987320D01*
X110267312Y-82044131D01*
X110387692Y-82078111D01*
X110468250Y-82085000D01*
X110627000Y-81926250D01*
X110627000Y-81323000D01*
X110023750Y-81323000D01*
X109865000Y-81481750D01*
X100406000Y-81481750D01*
X100406000Y-80419854D01*
X100407241Y-80407192D01*
X100418580Y-80406000D01*
X109879123Y-80406000D01*
X109876723Y-80413391D01*
G37*
X109876723Y-80413391D02*
X109865000Y-80518250D01*
X110023750Y-80677000D01*
X110627000Y-80677000D01*
X110627000Y-80599000D01*
X111373000Y-80599000D01*
X111373000Y-80677000D01*
X111401000Y-80677000D01*
X111401000Y-81323000D01*
X111373000Y-81323000D01*
X111373000Y-81926250D01*
X111531750Y-82085000D01*
X111612308Y-82078111D01*
X111732688Y-82044131D01*
X111844126Y-81987320D01*
X111942340Y-81909860D01*
X112016621Y-81822851D01*
X112025311Y-81825487D01*
X112100000Y-81832843D01*
X112900000Y-81832843D01*
X112974689Y-81825487D01*
X113046508Y-81803701D01*
X113112696Y-81768322D01*
X113170711Y-81720711D01*
X113200000Y-81685022D01*
X113229289Y-81720711D01*
X113287304Y-81768322D01*
X113353492Y-81803701D01*
X113425311Y-81825487D01*
X113500000Y-81832843D01*
X114500000Y-81832843D01*
X114574689Y-81825487D01*
X114646508Y-81803701D01*
X114712696Y-81768322D01*
X114770711Y-81720711D01*
X114818322Y-81662696D01*
X114853701Y-81596508D01*
X114859377Y-81577797D01*
X115238000Y-81956420D01*
X115238000Y-82075050D01*
X115267283Y-82222267D01*
X115324724Y-82360942D01*
X115408116Y-82485747D01*
X115514253Y-82591884D01*
X115639058Y-82675276D01*
X115777733Y-82732717D01*
X115924950Y-82762000D01*
X116075050Y-82762000D01*
X116222267Y-82732717D01*
X116360942Y-82675276D01*
X116485747Y-82591884D01*
X116591884Y-82485747D01*
X116675276Y-82360942D01*
X116732717Y-82222267D01*
X116762000Y-82075050D01*
X116762000Y-81924950D01*
X116732717Y-81777733D01*
X116675276Y-81639058D01*
X116591884Y-81514253D01*
X116485747Y-81408116D01*
X116360942Y-81324724D01*
X116222267Y-81267283D01*
X116075050Y-81238000D01*
X115956420Y-81238000D01*
X115376855Y-80658435D01*
X115360948Y-80639052D01*
X115283595Y-80575571D01*
X115195343Y-80528399D01*
X115099585Y-80499351D01*
X115024947Y-80492000D01*
X115024944Y-80492000D01*
X115000000Y-80489543D01*
X114975056Y-80492000D01*
X114877131Y-80492000D01*
X114875487Y-80475311D01*
X114854462Y-80406000D01*
X134879123Y-80406000D01*
X134876723Y-80413391D01*
X134865000Y-80518250D01*
X135023750Y-80677000D01*
X135627000Y-80677000D01*
X135627000Y-80599000D01*
X136373000Y-80599000D01*
X136373000Y-80677000D01*
X136401000Y-80677000D01*
X136401000Y-81323000D01*
X136373000Y-81323000D01*
X136373000Y-81401000D01*
X135627000Y-81401000D01*
X135627000Y-81323000D01*
X135023750Y-81323000D01*
X134865000Y-81481750D01*
X134876723Y-81586609D01*
X134915350Y-81705579D01*
X134976445Y-81814728D01*
X135057660Y-81909860D01*
X135155874Y-81987320D01*
X135267312Y-82044131D01*
X135387692Y-82078111D01*
X135468250Y-82085000D01*
X135618998Y-81934252D01*
X135618998Y-82085000D01*
X135648849Y-82085000D01*
X135614253Y-82108116D01*
X135508116Y-82214253D01*
X135424724Y-82339058D01*
X135367283Y-82477733D01*
X135338000Y-82624950D01*
X135338000Y-82775050D01*
X135367283Y-82922267D01*
X135424724Y-83060942D01*
X135508116Y-83185747D01*
X135614253Y-83291884D01*
X135739058Y-83375276D01*
X135877733Y-83432717D01*
X136024950Y-83462000D01*
X136175050Y-83462000D01*
X136322267Y-83432717D01*
X136460942Y-83375276D01*
X136585747Y-83291884D01*
X136669631Y-83208000D01*
X138275056Y-83208000D01*
X138300000Y-83210457D01*
X138324944Y-83208000D01*
X138324947Y-83208000D01*
X138399585Y-83200649D01*
X138495343Y-83171601D01*
X138583595Y-83124429D01*
X138660948Y-83060948D01*
X138676855Y-83041565D01*
X139341571Y-82376850D01*
X139360948Y-82360948D01*
X139379624Y-82338190D01*
X139424429Y-82283596D01*
X139471600Y-82195345D01*
X139476943Y-82177733D01*
X139500649Y-82099585D01*
X139508000Y-82024947D01*
X139508000Y-82024945D01*
X139510457Y-82000001D01*
X139508000Y-81975057D01*
X139508000Y-81832055D01*
X139574689Y-81825487D01*
X139646508Y-81803701D01*
X139712696Y-81768322D01*
X139770711Y-81720711D01*
X139818322Y-81662696D01*
X139853701Y-81596508D01*
X139875487Y-81524689D01*
X139879715Y-81481750D01*
X159865000Y-81481750D01*
X159876723Y-81586609D01*
X159915350Y-81705579D01*
X159976445Y-81814728D01*
X160057660Y-81909860D01*
X160155874Y-81987320D01*
X160267312Y-82044131D01*
X160387692Y-82078111D01*
X160468250Y-82085000D01*
X160627000Y-81926250D01*
X160627000Y-81323000D01*
X160023750Y-81323000D01*
X159865000Y-81481750D01*
X139879715Y-81481750D01*
X139882843Y-81450000D01*
X139882843Y-80550000D01*
X139875487Y-80475311D01*
X139854462Y-80406000D01*
X159879123Y-80406000D01*
X159876723Y-80413391D01*
X159865000Y-80518250D01*
X160023750Y-80677000D01*
X160627000Y-80677000D01*
X160627000Y-80599000D01*
X161373000Y-80599000D01*
X161373000Y-80677000D01*
X161401000Y-80677000D01*
X161401000Y-81323000D01*
X161373000Y-81323000D01*
X161373000Y-81926250D01*
X161531750Y-82085000D01*
X161612308Y-82078111D01*
X161732688Y-82044131D01*
X161844126Y-81987320D01*
X161942340Y-81909860D01*
X162016621Y-81822851D01*
X162025311Y-81825487D01*
X162100000Y-81832843D01*
X162900000Y-81832843D01*
X162974689Y-81825487D01*
X163046508Y-81803701D01*
X163112696Y-81768322D01*
X163170711Y-81720711D01*
X163200000Y-81685022D01*
X163229289Y-81720711D01*
X163287304Y-81768322D01*
X163353492Y-81803701D01*
X163425311Y-81825487D01*
X163492707Y-81832125D01*
X163499351Y-81899584D01*
X163528399Y-81995342D01*
X163575571Y-82083595D01*
X163639052Y-82160948D01*
X163658435Y-82176855D01*
X163938000Y-82456420D01*
X163938000Y-82475050D01*
X163967283Y-82622267D01*
X164024724Y-82760942D01*
X164108116Y-82885747D01*
X164214253Y-82991884D01*
X164339058Y-83075276D01*
X164477733Y-83132717D01*
X164624950Y-83162000D01*
X164775050Y-83162000D01*
X164922267Y-83132717D01*
X165060942Y-83075276D01*
X165185747Y-82991884D01*
X165291884Y-82885747D01*
X165375276Y-82760942D01*
X165432717Y-82622267D01*
X165462000Y-82475050D01*
X165462000Y-82324950D01*
X165432717Y-82177733D01*
X165375276Y-82039058D01*
X165291884Y-81914253D01*
X165185747Y-81808116D01*
X165060942Y-81724724D01*
X164922267Y-81667283D01*
X164826095Y-81648153D01*
X164853701Y-81596508D01*
X164875487Y-81524689D01*
X164882843Y-81450000D01*
X164882843Y-80550000D01*
X164875487Y-80475311D01*
X164854462Y-80406000D01*
X184879123Y-80406000D01*
X184876723Y-80413391D01*
X184865000Y-80518250D01*
X185023750Y-80677000D01*
X185627000Y-80677000D01*
X185627000Y-80599000D01*
X186373000Y-80599000D01*
X186373000Y-80677000D01*
X186401000Y-80677000D01*
X186401000Y-81323000D01*
X186373000Y-81323000D01*
X186373000Y-81401000D01*
X185627000Y-81401000D01*
X185627000Y-81323000D01*
X185023750Y-81323000D01*
X184865000Y-81481750D01*
X184876723Y-81586609D01*
X184915350Y-81705579D01*
X184976445Y-81814728D01*
X185057660Y-81909860D01*
X185155874Y-81987320D01*
X185267312Y-82044131D01*
X185387692Y-82078111D01*
X185468250Y-82085000D01*
X185618998Y-81934252D01*
X185618998Y-82038128D01*
X185514253Y-82108116D01*
X185408116Y-82214253D01*
X185324724Y-82339058D01*
X185267283Y-82477733D01*
X185238000Y-82624950D01*
X185238000Y-82775050D01*
X185267283Y-82922267D01*
X185324724Y-83060942D01*
X185408116Y-83185747D01*
X185514253Y-83291884D01*
X185639058Y-83375276D01*
X185777733Y-83432717D01*
X185924950Y-83462000D01*
X186075050Y-83462000D01*
X186222267Y-83432717D01*
X186360942Y-83375276D01*
X186485747Y-83291884D01*
X186569631Y-83208000D01*
X188075056Y-83208000D01*
X188100000Y-83210457D01*
X188124944Y-83208000D01*
X188124947Y-83208000D01*
X188199585Y-83200649D01*
X188295343Y-83171601D01*
X188383595Y-83124429D01*
X188460948Y-83060948D01*
X188476855Y-83041565D01*
X189341571Y-82176850D01*
X189360948Y-82160948D01*
X189397504Y-82116404D01*
X189424429Y-82083596D01*
X189471600Y-81995345D01*
X189471601Y-81995342D01*
X189500649Y-81899585D01*
X189507293Y-81832125D01*
X189574689Y-81825487D01*
X189646508Y-81803701D01*
X189712696Y-81768322D01*
X189770711Y-81720711D01*
X189818322Y-81662696D01*
X189853701Y-81596508D01*
X189875487Y-81524689D01*
X189882843Y-81450000D01*
X189882843Y-80550000D01*
X189875487Y-80475311D01*
X189854462Y-80406000D01*
X199580146Y-80406000D01*
X199592808Y-80407241D01*
X199594000Y-80418580D01*
X199594001Y-119580136D01*
X199592758Y-119592808D01*
X199581420Y-119594000D01*
X100419854Y-119594000D01*
X100407192Y-119592758D01*
X100406000Y-119581420D01*
X100406000Y-115732889D01*
X124619000Y-115732889D01*
X124619000Y-116123111D01*
X124695129Y-116505836D01*
X124844461Y-116866355D01*
X125061257Y-117190814D01*
X125337186Y-117466743D01*
X125661645Y-117683539D01*
X126022164Y-117832871D01*
X126404889Y-117909000D01*
X126795111Y-117909000D01*
X127177836Y-117832871D01*
X127538355Y-117683539D01*
X127862814Y-117466743D01*
X128138743Y-117190814D01*
X128355539Y-116866355D01*
X128504871Y-116505836D01*
X128581000Y-116123111D01*
X128581000Y-115732889D01*
X131985000Y-115732889D01*
X131985000Y-116123111D01*
X132061129Y-116505836D01*
X132210461Y-116866355D01*
X132427257Y-117190814D01*
X132703186Y-117466743D01*
X133027645Y-117683539D01*
X133388164Y-117832871D01*
X133770889Y-117909000D01*
X134161111Y-117909000D01*
X134543836Y-117832871D01*
X134904355Y-117683539D01*
X135228814Y-117466743D01*
X135504743Y-117190814D01*
X135719805Y-116868950D01*
X165970000Y-116868950D01*
X165970000Y-117019050D01*
X165999283Y-117166267D01*
X166056724Y-117304942D01*
X166140116Y-117429747D01*
X166246253Y-117535884D01*
X166371058Y-117619276D01*
X166509733Y-117676717D01*
X166656950Y-117706000D01*
X166807050Y-117706000D01*
X166954267Y-117676717D01*
X167092942Y-117619276D01*
X167217747Y-117535884D01*
X167323884Y-117429747D01*
X167407276Y-117304942D01*
X167464717Y-117166267D01*
X167494000Y-117019050D01*
X167494000Y-116900420D01*
X168212421Y-116182000D01*
X180677056Y-116182000D01*
X180702000Y-116184457D01*
X180726944Y-116182000D01*
X180726947Y-116182000D01*
X180801585Y-116174649D01*
X180897343Y-116145601D01*
X180985595Y-116098429D01*
X181062948Y-116034948D01*
X181078855Y-116015565D01*
X182182421Y-114912000D01*
X182301050Y-114912000D01*
X182448267Y-114882717D01*
X182586942Y-114825276D01*
X182711747Y-114741884D01*
X182817884Y-114635747D01*
X182901276Y-114510942D01*
X182958717Y-114372267D01*
X182988000Y-114225050D01*
X182988000Y-114074950D01*
X182958717Y-113927733D01*
X182901276Y-113789058D01*
X182817884Y-113664253D01*
X182711747Y-113558116D01*
X182586942Y-113474724D01*
X182448267Y-113417283D01*
X182301050Y-113388000D01*
X182150950Y-113388000D01*
X182003733Y-113417283D01*
X181865058Y-113474724D01*
X181740253Y-113558116D01*
X181634116Y-113664253D01*
X181550724Y-113789058D01*
X181493283Y-113927733D01*
X181464000Y-114074950D01*
X181464000Y-114193579D01*
X180491580Y-115166000D01*
X168026943Y-115166000D01*
X168001999Y-115163543D01*
X167977055Y-115166000D01*
X167977053Y-115166000D01*
X167902415Y-115173351D01*
X167806657Y-115202399D01*
X167806655Y-115202400D01*
X167718404Y-115249571D01*
X167675579Y-115284717D01*
X167641052Y-115313052D01*
X167625150Y-115332429D01*
X166775580Y-116182000D01*
X166656950Y-116182000D01*
X166509733Y-116211283D01*
X166371058Y-116268724D01*
X166246253Y-116352116D01*
X166140116Y-116458253D01*
X166056724Y-116583058D01*
X165999283Y-116721733D01*
X165970000Y-116868950D01*
X135719805Y-116868950D01*
X135721539Y-116866355D01*
X135870871Y-116505836D01*
X135947000Y-116123111D01*
X135947000Y-115732889D01*
X135870871Y-115350164D01*
X135721539Y-114989645D01*
X135504743Y-114665186D01*
X135228814Y-114389257D01*
X134904355Y-114172461D01*
X134543836Y-114023129D01*
X134161111Y-113947000D01*
X133770889Y-113947000D01*
X133388164Y-114023129D01*
X133027645Y-114172461D01*
X132703186Y-114389257D01*
X132427257Y-114665186D01*
X132210461Y-114989645D01*
X132061129Y-115350164D01*
X131985000Y-115732889D01*
X128581000Y-115732889D01*
X128504871Y-115350164D01*
X128355539Y-114989645D01*
X128138743Y-114665186D01*
X127862814Y-114389257D01*
X127538355Y-114172461D01*
X127177836Y-114023129D01*
X126795111Y-113947000D01*
X126404889Y-113947000D01*
X126022164Y-114023129D01*
X125661645Y-114172461D01*
X125337186Y-114389257D01*
X125061257Y-114665186D01*
X124844461Y-114989645D01*
X124695129Y-115350164D01*
X124619000Y-115732889D01*
X100406000Y-115732889D01*
X100406000Y-113436000D01*
X105049928Y-113436000D01*
X105062188Y-113560482D01*
X105098498Y-113680180D01*
X105157463Y-113790494D01*
X105236815Y-113887185D01*
X105333506Y-113966537D01*
X105443820Y-114025502D01*
X105563518Y-114061812D01*
X105688000Y-114074072D01*
X106248250Y-114071000D01*
X106407000Y-113912250D01*
X106407000Y-112967000D01*
X107169000Y-112967000D01*
X107169000Y-113912250D01*
X107327750Y-114071000D01*
X107888000Y-114074072D01*
X108012482Y-114061812D01*
X108132180Y-114025502D01*
X108242494Y-113966537D01*
X108339185Y-113887185D01*
X108418537Y-113790494D01*
X108477502Y-113680180D01*
X108513812Y-113560482D01*
X108526072Y-113436000D01*
X108523000Y-113125750D01*
X108364250Y-112967000D01*
X107169000Y-112967000D01*
X106407000Y-112967000D01*
X105211750Y-112967000D01*
X105053000Y-113125750D01*
X105049928Y-113436000D01*
X100406000Y-113436000D01*
X100406000Y-112459000D01*
X113469157Y-112459000D01*
X113469157Y-113809000D01*
X113484679Y-113966602D01*
X113530650Y-114118148D01*
X113605303Y-114257814D01*
X113705769Y-114380231D01*
X113828186Y-114480697D01*
X113967852Y-114555350D01*
X114119398Y-114601321D01*
X114277000Y-114616843D01*
X115127000Y-114616843D01*
X115284602Y-114601321D01*
X115436148Y-114555350D01*
X115575814Y-114480697D01*
X115698231Y-114380231D01*
X115798697Y-114257814D01*
X115873350Y-114118148D01*
X115919321Y-113966602D01*
X115934843Y-113809000D01*
X115934843Y-112459000D01*
X115969157Y-112459000D01*
X115969157Y-113809000D01*
X115984679Y-113966602D01*
X116030650Y-114118148D01*
X116105303Y-114257814D01*
X116205769Y-114380231D01*
X116328186Y-114480697D01*
X116467852Y-114555350D01*
X116619398Y-114601321D01*
X116777000Y-114616843D01*
X117627000Y-114616843D01*
X117784602Y-114601321D01*
X117936148Y-114555350D01*
X118075814Y-114480697D01*
X118198231Y-114380231D01*
X118225105Y-114347485D01*
X118226188Y-114358482D01*
X118262498Y-114478180D01*
X118321463Y-114588494D01*
X118400815Y-114685185D01*
X118497506Y-114764537D01*
X118607820Y-114823502D01*
X118727518Y-114859812D01*
X118852000Y-114872072D01*
X119162250Y-114869000D01*
X119321000Y-114710250D01*
X119321000Y-113515000D01*
X120083000Y-113515000D01*
X120083000Y-114710250D01*
X120241750Y-114869000D01*
X120552000Y-114872072D01*
X120676482Y-114859812D01*
X120796180Y-114823502D01*
X120906494Y-114764537D01*
X121003185Y-114685185D01*
X121082537Y-114588494D01*
X121141502Y-114478180D01*
X121177812Y-114358482D01*
X121190072Y-114234000D01*
X121187000Y-113673750D01*
X121163250Y-113650000D01*
X138607157Y-113650000D01*
X138607157Y-115350000D01*
X138614513Y-115424689D01*
X138636299Y-115496508D01*
X138671678Y-115562696D01*
X138719289Y-115620711D01*
X138777304Y-115668322D01*
X138843492Y-115703701D01*
X138915311Y-115725487D01*
X138990000Y-115732843D01*
X140690000Y-115732843D01*
X140764689Y-115725487D01*
X140836508Y-115703701D01*
X140902696Y-115668322D01*
X140960711Y-115620711D01*
X141008322Y-115562696D01*
X141043701Y-115496508D01*
X141065487Y-115424689D01*
X141072843Y-115350000D01*
X141072843Y-113650000D01*
X141065487Y-113575311D01*
X141043701Y-113503492D01*
X141008322Y-113437304D01*
X140960711Y-113379289D01*
X140902696Y-113331678D01*
X140836508Y-113296299D01*
X140764689Y-113274513D01*
X140690000Y-113267157D01*
X138990000Y-113267157D01*
X138915311Y-113274513D01*
X138843492Y-113296299D01*
X138777304Y-113331678D01*
X138719289Y-113379289D01*
X138671678Y-113437304D01*
X138636299Y-113503492D01*
X138614513Y-113575311D01*
X138607157Y-113650000D01*
X121163250Y-113650000D01*
X121028250Y-113515000D01*
X120083000Y-113515000D01*
X119321000Y-113515000D01*
X119301000Y-113515000D01*
X119301000Y-112753000D01*
X119321000Y-112753000D01*
X119321000Y-111557750D01*
X120083000Y-111557750D01*
X120083000Y-112753000D01*
X121028250Y-112753000D01*
X121187000Y-112594250D01*
X121190072Y-112034000D01*
X121177812Y-111909518D01*
X121141502Y-111789820D01*
X121082537Y-111679506D01*
X121003185Y-111582815D01*
X120906494Y-111503463D01*
X120796180Y-111444498D01*
X120676482Y-111408188D01*
X120552000Y-111395928D01*
X120241750Y-111399000D01*
X120083000Y-111557750D01*
X119321000Y-111557750D01*
X119162250Y-111399000D01*
X118852000Y-111395928D01*
X118727518Y-111408188D01*
X118607820Y-111444498D01*
X118497506Y-111503463D01*
X118400815Y-111582815D01*
X118321463Y-111679506D01*
X118262498Y-111789820D01*
X118226188Y-111909518D01*
X118225105Y-111920515D01*
X118198231Y-111887769D01*
X118075814Y-111787303D01*
X117936148Y-111712650D01*
X117784602Y-111666679D01*
X117627000Y-111651157D01*
X116777000Y-111651157D01*
X116619398Y-111666679D01*
X116467852Y-111712650D01*
X116328186Y-111787303D01*
X116205769Y-111887769D01*
X116105303Y-112010186D01*
X116030650Y-112149852D01*
X115984679Y-112301398D01*
X115969157Y-112459000D01*
X115934843Y-112459000D01*
X115919321Y-112301398D01*
X115873350Y-112149852D01*
X115798697Y-112010186D01*
X115698231Y-111887769D01*
X115575814Y-111787303D01*
X115436148Y-111712650D01*
X115284602Y-111666679D01*
X115127000Y-111651157D01*
X114277000Y-111651157D01*
X114119398Y-111666679D01*
X113967852Y-111712650D01*
X113828186Y-111787303D01*
X113705769Y-111887769D01*
X113605303Y-112010186D01*
X113530650Y-112149852D01*
X113484679Y-112301398D01*
X113469157Y-112459000D01*
X100406000Y-112459000D01*
X100406000Y-111736000D01*
X105049928Y-111736000D01*
X105053000Y-112046250D01*
X105211750Y-112205000D01*
X106407000Y-112205000D01*
X106407000Y-112185000D01*
X107169000Y-112185000D01*
X107169000Y-112205000D01*
X108364250Y-112205000D01*
X108523000Y-112046250D01*
X108526072Y-111736000D01*
X108513812Y-111611518D01*
X108477502Y-111491820D01*
X108418537Y-111381506D01*
X108339185Y-111284815D01*
X108242494Y-111205463D01*
X108132180Y-111146498D01*
X108012482Y-111110188D01*
X108001485Y-111109105D01*
X108034231Y-111082231D01*
X108134697Y-110959814D01*
X108209350Y-110820148D01*
X108255321Y-110668602D01*
X108270843Y-110511000D01*
X108270843Y-109661000D01*
X108255321Y-109503398D01*
X108209350Y-109351852D01*
X108134697Y-109212186D01*
X108034231Y-109089769D01*
X107911814Y-108989303D01*
X107772148Y-108914650D01*
X107620602Y-108868679D01*
X107463000Y-108853157D01*
X106113000Y-108853157D01*
X105955398Y-108868679D01*
X105803852Y-108914650D01*
X105664186Y-108989303D01*
X105541769Y-109089769D01*
X105441303Y-109212186D01*
X105366650Y-109351852D01*
X105320679Y-109503398D01*
X105305157Y-109661000D01*
X105305157Y-110511000D01*
X105320679Y-110668602D01*
X105366650Y-110820148D01*
X105441303Y-110959814D01*
X105541769Y-111082231D01*
X105574515Y-111109105D01*
X105563518Y-111110188D01*
X105443820Y-111146498D01*
X105333506Y-111205463D01*
X105236815Y-111284815D01*
X105157463Y-111381506D01*
X105098498Y-111491820D01*
X105062188Y-111611518D01*
X105049928Y-111736000D01*
X100406000Y-111736000D01*
X100406000Y-107161000D01*
X105305157Y-107161000D01*
X105305157Y-108011000D01*
X105320679Y-108168602D01*
X105366650Y-108320148D01*
X105441303Y-108459814D01*
X105541769Y-108582231D01*
X105664186Y-108682697D01*
X105803852Y-108757350D01*
X105955398Y-108803321D01*
X106113000Y-108818843D01*
X107463000Y-108818843D01*
X107620602Y-108803321D01*
X107772148Y-108757350D01*
X107911814Y-108682697D01*
X108034231Y-108582231D01*
X108134697Y-108459814D01*
X108209350Y-108320148D01*
X108255321Y-108168602D01*
X108270843Y-108011000D01*
X108270843Y-107161000D01*
X108255321Y-107003398D01*
X108209350Y-106851852D01*
X108134697Y-106712186D01*
X108034231Y-106589769D01*
X107911814Y-106489303D01*
X107772148Y-106414650D01*
X107620602Y-106368679D01*
X107463000Y-106353157D01*
X106113000Y-106353157D01*
X105955398Y-106368679D01*
X105803852Y-106414650D01*
X105664186Y-106489303D01*
X105541769Y-106589769D01*
X105441303Y-106712186D01*
X105366650Y-106851852D01*
X105320679Y-107003398D01*
X105305157Y-107161000D01*
X100406000Y-107161000D01*
X100406000Y-99538962D01*
X102319000Y-99538962D01*
X102319000Y-100461038D01*
X102498889Y-101365397D01*
X102851752Y-102217285D01*
X103364030Y-102983963D01*
X104016037Y-103635970D01*
X104782715Y-104148248D01*
X105634603Y-104501111D01*
X106538962Y-104681000D01*
X107461038Y-104681000D01*
X108365397Y-104501111D01*
X108823354Y-104311419D01*
X122037190Y-104311419D01*
X122037190Y-104461519D01*
X122066473Y-104608736D01*
X122123914Y-104747411D01*
X122207306Y-104872216D01*
X122313443Y-104978353D01*
X122438248Y-105061745D01*
X122576923Y-105119186D01*
X122724140Y-105148469D01*
X122874240Y-105148469D01*
X123021457Y-105119186D01*
X123160132Y-105061745D01*
X123284937Y-104978353D01*
X123355290Y-104908000D01*
X126630369Y-104908000D01*
X126714253Y-104991884D01*
X126839058Y-105075276D01*
X126977733Y-105132717D01*
X127124950Y-105162000D01*
X127275050Y-105162000D01*
X127422267Y-105132717D01*
X127560942Y-105075276D01*
X127685747Y-104991884D01*
X127791884Y-104885747D01*
X127875276Y-104760942D01*
X127932717Y-104622267D01*
X127940625Y-104582512D01*
X128000415Y-104600649D01*
X128075053Y-104608000D01*
X128075055Y-104608000D01*
X128099999Y-104610457D01*
X128124943Y-104608000D01*
X128730369Y-104608000D01*
X128814253Y-104691884D01*
X128939058Y-104775276D01*
X129077733Y-104832717D01*
X129224950Y-104862000D01*
X129375050Y-104862000D01*
X129522267Y-104832717D01*
X129660942Y-104775276D01*
X129785747Y-104691884D01*
X129891884Y-104585747D01*
X129975276Y-104460942D01*
X130032717Y-104322267D01*
X130062000Y-104175050D01*
X130062000Y-104024950D01*
X130032717Y-103877733D01*
X129975276Y-103739058D01*
X129891884Y-103614253D01*
X129785747Y-103508116D01*
X129660942Y-103424724D01*
X129522267Y-103367283D01*
X129375050Y-103338000D01*
X129224950Y-103338000D01*
X129077733Y-103367283D01*
X128939058Y-103424724D01*
X128814253Y-103508116D01*
X128730369Y-103592000D01*
X128310421Y-103592000D01*
X125927059Y-101208639D01*
X125927059Y-101124950D01*
X128038000Y-101124950D01*
X128038000Y-101275050D01*
X128067283Y-101422267D01*
X128124724Y-101560942D01*
X128208116Y-101685747D01*
X128314253Y-101791884D01*
X128439058Y-101875276D01*
X128577733Y-101932717D01*
X128724950Y-101962000D01*
X128875050Y-101962000D01*
X129022267Y-101932717D01*
X129160942Y-101875276D01*
X129285747Y-101791884D01*
X129391884Y-101685747D01*
X129475276Y-101560942D01*
X129532717Y-101422267D01*
X129562000Y-101275050D01*
X129562000Y-101155514D01*
X129587083Y-101124950D01*
X129605428Y-101102597D01*
X129647209Y-101024429D01*
X129652600Y-101014344D01*
X129681648Y-100918586D01*
X129686733Y-100866950D01*
X130156000Y-100866950D01*
X130156000Y-101017050D01*
X130185283Y-101164267D01*
X130242724Y-101302942D01*
X130326116Y-101427747D01*
X130410000Y-101511631D01*
X130410001Y-111040368D01*
X130326116Y-111124253D01*
X130242724Y-111249058D01*
X130185283Y-111387733D01*
X130156000Y-111534950D01*
X130156000Y-111685050D01*
X130185283Y-111832267D01*
X130242724Y-111970942D01*
X130326116Y-112095747D01*
X130432253Y-112201884D01*
X130557058Y-112285276D01*
X130695733Y-112342717D01*
X130842950Y-112372000D01*
X130993050Y-112372000D01*
X131140267Y-112342717D01*
X131278942Y-112285276D01*
X131403747Y-112201884D01*
X131509884Y-112095747D01*
X131593276Y-111970942D01*
X131650717Y-111832267D01*
X131680000Y-111685050D01*
X131680000Y-111534950D01*
X131650717Y-111387733D01*
X131593276Y-111249058D01*
X131509884Y-111124253D01*
X131426000Y-111040369D01*
X131426000Y-105373711D01*
X131500000Y-105381000D01*
X136700000Y-105381000D01*
X136774329Y-105373679D01*
X136845802Y-105351998D01*
X136911672Y-105316790D01*
X136969408Y-105269408D01*
X137016790Y-105211672D01*
X137051998Y-105145802D01*
X137073679Y-105074329D01*
X137081000Y-105000000D01*
X137081000Y-103858956D01*
X137104657Y-103871601D01*
X137200415Y-103900649D01*
X137275053Y-103908000D01*
X137275055Y-103908000D01*
X137299999Y-103910457D01*
X137324943Y-103908000D01*
X137430369Y-103908000D01*
X137514253Y-103991884D01*
X137639058Y-104075276D01*
X137777733Y-104132717D01*
X137924950Y-104162000D01*
X137974172Y-104162000D01*
X141872000Y-108059829D01*
X141872001Y-113272963D01*
X141872000Y-113272973D01*
X141872000Y-113377996D01*
X141796903Y-113409102D01*
X141595283Y-113543820D01*
X141423820Y-113715283D01*
X141289102Y-113916903D01*
X141196307Y-114140931D01*
X141149000Y-114378757D01*
X141149000Y-114621243D01*
X141196307Y-114859069D01*
X141289102Y-115083097D01*
X141423820Y-115284717D01*
X141595283Y-115456180D01*
X141796903Y-115590898D01*
X142020931Y-115683693D01*
X142258757Y-115731000D01*
X142501243Y-115731000D01*
X142739069Y-115683693D01*
X142963097Y-115590898D01*
X143164717Y-115456180D01*
X143336180Y-115284717D01*
X143470898Y-115083097D01*
X143563693Y-114859069D01*
X143611000Y-114621243D01*
X143611000Y-114378757D01*
X143689000Y-114378757D01*
X143689000Y-114621243D01*
X143736307Y-114859069D01*
X143829102Y-115083097D01*
X143963820Y-115284717D01*
X144135283Y-115456180D01*
X144336903Y-115590898D01*
X144560931Y-115683693D01*
X144798757Y-115731000D01*
X145041243Y-115731000D01*
X145279069Y-115683693D01*
X145503097Y-115590898D01*
X145704717Y-115456180D01*
X145876180Y-115284717D01*
X146010898Y-115083097D01*
X146103693Y-114859069D01*
X146151000Y-114621243D01*
X146151000Y-114378757D01*
X146229000Y-114378757D01*
X146229000Y-114621243D01*
X146276307Y-114859069D01*
X146369102Y-115083097D01*
X146503820Y-115284717D01*
X146675283Y-115456180D01*
X146876903Y-115590898D01*
X147100931Y-115683693D01*
X147338757Y-115731000D01*
X147581243Y-115731000D01*
X147819069Y-115683693D01*
X148043097Y-115590898D01*
X148244717Y-115456180D01*
X148416180Y-115284717D01*
X148550898Y-115083097D01*
X148634608Y-114881002D01*
X148723442Y-114881002D01*
X148641966Y-115100841D01*
X148785279Y-115354235D01*
X148975273Y-115574801D01*
X149204646Y-115754063D01*
X149399162Y-115858020D01*
X149619000Y-115770346D01*
X149619000Y-114881000D01*
X149599000Y-114881000D01*
X149599000Y-114119000D01*
X149619000Y-114119000D01*
X149619000Y-113229654D01*
X150381000Y-113229654D01*
X150381000Y-114119000D01*
X150401000Y-114119000D01*
X150401000Y-114881000D01*
X150381000Y-114881000D01*
X150381000Y-115770346D01*
X150600838Y-115858020D01*
X150795354Y-115754063D01*
X151024727Y-115574801D01*
X151214721Y-115354235D01*
X151358034Y-115100841D01*
X151276558Y-114881002D01*
X151365392Y-114881002D01*
X151449102Y-115083097D01*
X151583820Y-115284717D01*
X151755283Y-115456180D01*
X151956903Y-115590898D01*
X152180931Y-115683693D01*
X152418757Y-115731000D01*
X152661243Y-115731000D01*
X152899069Y-115683693D01*
X153123097Y-115590898D01*
X153324717Y-115456180D01*
X153496180Y-115284717D01*
X153630898Y-115083097D01*
X153723693Y-114859069D01*
X153771000Y-114621243D01*
X153771000Y-114378757D01*
X153849000Y-114378757D01*
X153849000Y-114621243D01*
X153896307Y-114859069D01*
X153989102Y-115083097D01*
X154123820Y-115284717D01*
X154295283Y-115456180D01*
X154496903Y-115590898D01*
X154720931Y-115683693D01*
X154958757Y-115731000D01*
X155201243Y-115731000D01*
X155439069Y-115683693D01*
X155663097Y-115590898D01*
X155864717Y-115456180D01*
X156036180Y-115284717D01*
X156170898Y-115083097D01*
X156263693Y-114859069D01*
X156311000Y-114621243D01*
X156311000Y-114378757D01*
X156389000Y-114378757D01*
X156389000Y-114621243D01*
X156436307Y-114859069D01*
X156529102Y-115083097D01*
X156663820Y-115284717D01*
X156835283Y-115456180D01*
X157036903Y-115590898D01*
X157260931Y-115683693D01*
X157498757Y-115731000D01*
X157741243Y-115731000D01*
X157979069Y-115683693D01*
X158203097Y-115590898D01*
X158404717Y-115456180D01*
X158576180Y-115284717D01*
X158710898Y-115083097D01*
X158803693Y-114859069D01*
X158851000Y-114621243D01*
X158851000Y-114378757D01*
X158929000Y-114378757D01*
X158929000Y-114621243D01*
X158976307Y-114859069D01*
X159069102Y-115083097D01*
X159203820Y-115284717D01*
X159375283Y-115456180D01*
X159576903Y-115590898D01*
X159800931Y-115683693D01*
X160038757Y-115731000D01*
X160281243Y-115731000D01*
X160519069Y-115683693D01*
X160743097Y-115590898D01*
X160944717Y-115456180D01*
X161116180Y-115284717D01*
X161250898Y-115083097D01*
X161343693Y-114859069D01*
X161391000Y-114621243D01*
X161391000Y-114378757D01*
X161343693Y-114140931D01*
X161250898Y-113916903D01*
X161116180Y-113715283D01*
X160944717Y-113543820D01*
X160743097Y-113409102D01*
X160519069Y-113316307D01*
X160281243Y-113269000D01*
X160038757Y-113269000D01*
X159800931Y-113316307D01*
X159576903Y-113409102D01*
X159375283Y-113543820D01*
X159203820Y-113715283D01*
X159069102Y-113916903D01*
X158976307Y-114140931D01*
X158929000Y-114378757D01*
X158851000Y-114378757D01*
X158803693Y-114140931D01*
X158710898Y-113916903D01*
X158576180Y-113715283D01*
X158404717Y-113543820D01*
X158203097Y-113409102D01*
X157979069Y-113316307D01*
X157741243Y-113269000D01*
X157498757Y-113269000D01*
X157260931Y-113316307D01*
X157036903Y-113409102D01*
X156835283Y-113543820D01*
X156663820Y-113715283D01*
X156529102Y-113916903D01*
X156436307Y-114140931D01*
X156389000Y-114378757D01*
X156311000Y-114378757D01*
X156263693Y-114140931D01*
X156170898Y-113916903D01*
X156036180Y-113715283D01*
X155864717Y-113543820D01*
X155663097Y-113409102D01*
X155439069Y-113316307D01*
X155201243Y-113269000D01*
X154958757Y-113269000D01*
X154720931Y-113316307D01*
X154496903Y-113409102D01*
X154295283Y-113543820D01*
X154123820Y-113715283D01*
X153989102Y-113916903D01*
X153896307Y-114140931D01*
X153849000Y-114378757D01*
X153771000Y-114378757D01*
X153723693Y-114140931D01*
X153630898Y-113916903D01*
X153496180Y-113715283D01*
X153324717Y-113543820D01*
X153123097Y-113409102D01*
X152899069Y-113316307D01*
X152661243Y-113269000D01*
X152418757Y-113269000D01*
X152180931Y-113316307D01*
X151956903Y-113409102D01*
X151755283Y-113543820D01*
X151583820Y-113715283D01*
X151449102Y-113916903D01*
X151365392Y-114118998D01*
X151276558Y-114118998D01*
X151358034Y-113899159D01*
X151214721Y-113645765D01*
X151024727Y-113425199D01*
X150795354Y-113245937D01*
X150600838Y-113141980D01*
X150381000Y-113229654D01*
X149619000Y-113229654D01*
X149399162Y-113141980D01*
X149204646Y-113245937D01*
X148975273Y-113425199D01*
X148785279Y-113645765D01*
X148641966Y-113899159D01*
X148723442Y-114118998D01*
X148634608Y-114118998D01*
X148550898Y-113916903D01*
X148416180Y-113715283D01*
X148244717Y-113543820D01*
X148043097Y-113409102D01*
X147819069Y-113316307D01*
X147581243Y-113269000D01*
X147338757Y-113269000D01*
X147100931Y-113316307D01*
X146876903Y-113409102D01*
X146675283Y-113543820D01*
X146503820Y-113715283D01*
X146369102Y-113916903D01*
X146276307Y-114140931D01*
X146229000Y-114378757D01*
X146151000Y-114378757D01*
X146103693Y-114140931D01*
X146010898Y-113916903D01*
X145876180Y-113715283D01*
X145704717Y-113543820D01*
X145503097Y-113409102D01*
X145279069Y-113316307D01*
X145041243Y-113269000D01*
X144798757Y-113269000D01*
X144560931Y-113316307D01*
X144336903Y-113409102D01*
X144135283Y-113543820D01*
X143963820Y-113715283D01*
X143829102Y-113916903D01*
X143736307Y-114140931D01*
X143689000Y-114378757D01*
X143611000Y-114378757D01*
X143563693Y-114140931D01*
X143470898Y-113916903D01*
X143336180Y-113715283D01*
X143164717Y-113543820D01*
X142963097Y-113409102D01*
X142888000Y-113377996D01*
X142888000Y-112459000D01*
X171127157Y-112459000D01*
X171127157Y-113809000D01*
X171142679Y-113966602D01*
X171188650Y-114118148D01*
X171263303Y-114257814D01*
X171363769Y-114380231D01*
X171486186Y-114480697D01*
X171625852Y-114555350D01*
X171777398Y-114601321D01*
X171935000Y-114616843D01*
X172785000Y-114616843D01*
X172942602Y-114601321D01*
X173094148Y-114555350D01*
X173233814Y-114480697D01*
X173356231Y-114380231D01*
X173456697Y-114257814D01*
X173531350Y-114118148D01*
X173577321Y-113966602D01*
X173592843Y-113809000D01*
X173592843Y-112459000D01*
X173627157Y-112459000D01*
X173627157Y-113809000D01*
X173642679Y-113966602D01*
X173688650Y-114118148D01*
X173763303Y-114257814D01*
X173863769Y-114380231D01*
X173986186Y-114480697D01*
X174125852Y-114555350D01*
X174277398Y-114601321D01*
X174435000Y-114616843D01*
X175285000Y-114616843D01*
X175442602Y-114601321D01*
X175594148Y-114555350D01*
X175733814Y-114480697D01*
X175856231Y-114380231D01*
X175883105Y-114347485D01*
X175884188Y-114358482D01*
X175920498Y-114478180D01*
X175979463Y-114588494D01*
X176058815Y-114685185D01*
X176155506Y-114764537D01*
X176265820Y-114823502D01*
X176385518Y-114859812D01*
X176510000Y-114872072D01*
X176820250Y-114869000D01*
X176979000Y-114710250D01*
X176979000Y-113515000D01*
X177741000Y-113515000D01*
X177741000Y-114710250D01*
X177899750Y-114869000D01*
X178210000Y-114872072D01*
X178334482Y-114859812D01*
X178454180Y-114823502D01*
X178564494Y-114764537D01*
X178661185Y-114685185D01*
X178740537Y-114588494D01*
X178799502Y-114478180D01*
X178835812Y-114358482D01*
X178848072Y-114234000D01*
X178845000Y-113673750D01*
X178686250Y-113515000D01*
X177741000Y-113515000D01*
X176979000Y-113515000D01*
X176959000Y-113515000D01*
X176959000Y-112753000D01*
X176979000Y-112753000D01*
X176979000Y-111557750D01*
X177741000Y-111557750D01*
X177741000Y-112753000D01*
X178686250Y-112753000D01*
X178845000Y-112594250D01*
X178847847Y-112075000D01*
X191665157Y-112075000D01*
X191665157Y-112925000D01*
X191680679Y-113082602D01*
X191726650Y-113234148D01*
X191801303Y-113373814D01*
X191901769Y-113496231D01*
X192024186Y-113596697D01*
X192163852Y-113671350D01*
X192315398Y-113717321D01*
X192473000Y-113732843D01*
X193823000Y-113732843D01*
X193980602Y-113717321D01*
X194132148Y-113671350D01*
X194271814Y-113596697D01*
X194394231Y-113496231D01*
X194494697Y-113373814D01*
X194569350Y-113234148D01*
X194615321Y-113082602D01*
X194630843Y-112925000D01*
X194630843Y-112075000D01*
X194615321Y-111917398D01*
X194569350Y-111765852D01*
X194494697Y-111626186D01*
X194394231Y-111503769D01*
X194271814Y-111403303D01*
X194132148Y-111328650D01*
X193980602Y-111282679D01*
X193823000Y-111267157D01*
X192473000Y-111267157D01*
X192315398Y-111282679D01*
X192163852Y-111328650D01*
X192024186Y-111403303D01*
X191901769Y-111503769D01*
X191801303Y-111626186D01*
X191726650Y-111765852D01*
X191680679Y-111917398D01*
X191665157Y-112075000D01*
X178847847Y-112075000D01*
X178848072Y-112034000D01*
X178835812Y-111909518D01*
X178799502Y-111789820D01*
X178740537Y-111679506D01*
X178661185Y-111582815D01*
X178564494Y-111503463D01*
X178454180Y-111444498D01*
X178334482Y-111408188D01*
X178210000Y-111395928D01*
X177899750Y-111399000D01*
X177741000Y-111557750D01*
X176979000Y-111557750D01*
X176820250Y-111399000D01*
X176510000Y-111395928D01*
X176385518Y-111408188D01*
X176265820Y-111444498D01*
X176155506Y-111503463D01*
X176058815Y-111582815D01*
X175979463Y-111679506D01*
X175920498Y-111789820D01*
X175884188Y-111909518D01*
X175883105Y-111920515D01*
X175856231Y-111887769D01*
X175733814Y-111787303D01*
X175594148Y-111712650D01*
X175442602Y-111666679D01*
X175285000Y-111651157D01*
X174435000Y-111651157D01*
X174277398Y-111666679D01*
X174125852Y-111712650D01*
X173986186Y-111787303D01*
X173863769Y-111887769D01*
X173763303Y-112010186D01*
X173688650Y-112149852D01*
X173642679Y-112301398D01*
X173627157Y-112459000D01*
X173592843Y-112459000D01*
X173577321Y-112301398D01*
X173531350Y-112149852D01*
X173456697Y-112010186D01*
X173356231Y-111887769D01*
X173233814Y-111787303D01*
X173094148Y-111712650D01*
X172942602Y-111666679D01*
X172785000Y-111651157D01*
X171935000Y-111651157D01*
X171777398Y-111666679D01*
X171625852Y-111712650D01*
X171486186Y-111787303D01*
X171363769Y-111887769D01*
X171263303Y-112010186D01*
X171188650Y-112149852D01*
X171142679Y-112301398D01*
X171127157Y-112459000D01*
X142888000Y-112459000D01*
X142888000Y-107874351D01*
X142890457Y-107849407D01*
X142887997Y-107824429D01*
X142880649Y-107749823D01*
X142851601Y-107654065D01*
X142851600Y-107654063D01*
X142804429Y-107565812D01*
X142756850Y-107507837D01*
X142740948Y-107488460D01*
X142721571Y-107472558D01*
X139957012Y-104708000D01*
X143575054Y-104708000D01*
X143599998Y-104710457D01*
X143624942Y-104708000D01*
X143624945Y-104708000D01*
X143699583Y-104700649D01*
X143795341Y-104671601D01*
X143883593Y-104624429D01*
X143960946Y-104560948D01*
X143976853Y-104541565D01*
X144156420Y-104361998D01*
X144275050Y-104361998D01*
X144422267Y-104332715D01*
X144560942Y-104275274D01*
X144685747Y-104191882D01*
X144791884Y-104085745D01*
X144875276Y-103960940D01*
X144932717Y-103822265D01*
X144962000Y-103675048D01*
X144962000Y-103524948D01*
X144932717Y-103377731D01*
X144875276Y-103239056D01*
X144791884Y-103114251D01*
X144685747Y-103008114D01*
X144560942Y-102924722D01*
X144422267Y-102867281D01*
X144275050Y-102837998D01*
X144124950Y-102837998D01*
X143977733Y-102867281D01*
X143839058Y-102924722D01*
X143714253Y-103008114D01*
X143608116Y-103114251D01*
X143524724Y-103239056D01*
X143467283Y-103377731D01*
X143438000Y-103524948D01*
X143438000Y-103643578D01*
X143389578Y-103692000D01*
X141554524Y-103692000D01*
X141575276Y-103660942D01*
X141632717Y-103522267D01*
X141662000Y-103375050D01*
X141662000Y-103224950D01*
X141643429Y-103131585D01*
X141724950Y-103147800D01*
X141875050Y-103147800D01*
X142022267Y-103118517D01*
X142160942Y-103061076D01*
X142285747Y-102977684D01*
X142391884Y-102871547D01*
X142475276Y-102746742D01*
X142532717Y-102608067D01*
X142562000Y-102460850D01*
X142562000Y-102342220D01*
X143796220Y-101108000D01*
X146830369Y-101108000D01*
X146914253Y-101191884D01*
X147039058Y-101275276D01*
X147177733Y-101332717D01*
X147324950Y-101362000D01*
X147475050Y-101362000D01*
X147622267Y-101332717D01*
X147760942Y-101275276D01*
X147885747Y-101191884D01*
X147991884Y-101085747D01*
X148075276Y-100960942D01*
X148132717Y-100822267D01*
X148162000Y-100675050D01*
X148162000Y-100524950D01*
X148132717Y-100377733D01*
X148075276Y-100239058D01*
X147991884Y-100114253D01*
X147885747Y-100008116D01*
X147760942Y-99924724D01*
X147674694Y-99888999D01*
X148170579Y-99888999D01*
X151506200Y-103224620D01*
X151506199Y-106589255D01*
X151503742Y-106614199D01*
X151506199Y-106639143D01*
X151506199Y-106639145D01*
X151513550Y-106713783D01*
X151542598Y-106809541D01*
X151589770Y-106897794D01*
X151653251Y-106975147D01*
X151672634Y-106991054D01*
X152038000Y-107356420D01*
X152038000Y-107475050D01*
X152067283Y-107622267D01*
X152124724Y-107760942D01*
X152208116Y-107885747D01*
X152314253Y-107991884D01*
X152439058Y-108075276D01*
X152577733Y-108132717D01*
X152724950Y-108162000D01*
X152875050Y-108162000D01*
X153022267Y-108132717D01*
X153160942Y-108075276D01*
X153285747Y-107991884D01*
X153391884Y-107885747D01*
X153475276Y-107760942D01*
X153532717Y-107622267D01*
X153561109Y-107479529D01*
X157038000Y-110956421D01*
X157038000Y-111075050D01*
X157067283Y-111222267D01*
X157124724Y-111360942D01*
X157208116Y-111485747D01*
X157314253Y-111591884D01*
X157439058Y-111675276D01*
X157577733Y-111732717D01*
X157724950Y-111762000D01*
X157875050Y-111762000D01*
X158022267Y-111732717D01*
X158160942Y-111675276D01*
X158285747Y-111591884D01*
X158391884Y-111485747D01*
X158475276Y-111360942D01*
X158532717Y-111222267D01*
X158562000Y-111075050D01*
X158562000Y-110924950D01*
X158532717Y-110777733D01*
X158475276Y-110639058D01*
X158391884Y-110514253D01*
X158285747Y-110408116D01*
X158160942Y-110324724D01*
X158022267Y-110267283D01*
X157875050Y-110238000D01*
X157756421Y-110238000D01*
X155868421Y-108350000D01*
X191409928Y-108350000D01*
X191422188Y-108474482D01*
X191458498Y-108594180D01*
X191517463Y-108704494D01*
X191596815Y-108801185D01*
X191693506Y-108880537D01*
X191803820Y-108939502D01*
X191923518Y-108975812D01*
X191934515Y-108976895D01*
X191901769Y-109003769D01*
X191801303Y-109126186D01*
X191726650Y-109265852D01*
X191680679Y-109417398D01*
X191665157Y-109575000D01*
X191665157Y-110425000D01*
X191680679Y-110582602D01*
X191726650Y-110734148D01*
X191801303Y-110873814D01*
X191901769Y-110996231D01*
X192024186Y-111096697D01*
X192163852Y-111171350D01*
X192315398Y-111217321D01*
X192473000Y-111232843D01*
X193823000Y-111232843D01*
X193980602Y-111217321D01*
X194132148Y-111171350D01*
X194271814Y-111096697D01*
X194394231Y-110996231D01*
X194494697Y-110873814D01*
X194569350Y-110734148D01*
X194615321Y-110582602D01*
X194630843Y-110425000D01*
X194630843Y-109575000D01*
X194615321Y-109417398D01*
X194569350Y-109265852D01*
X194494697Y-109126186D01*
X194394231Y-109003769D01*
X194361485Y-108976895D01*
X194372482Y-108975812D01*
X194492180Y-108939502D01*
X194602494Y-108880537D01*
X194699185Y-108801185D01*
X194778537Y-108704494D01*
X194837502Y-108594180D01*
X194873812Y-108474482D01*
X194886072Y-108350000D01*
X194883000Y-108039750D01*
X194724250Y-107881000D01*
X193529000Y-107881000D01*
X193529000Y-107901000D01*
X192767000Y-107901000D01*
X192767000Y-107881000D01*
X191571750Y-107881000D01*
X191413000Y-108039750D01*
X191409928Y-108350000D01*
X155868421Y-108350000D01*
X153462000Y-105943580D01*
X153462000Y-105824950D01*
X153432717Y-105677733D01*
X153375276Y-105539058D01*
X153291884Y-105414253D01*
X153185747Y-105308116D01*
X153060942Y-105224724D01*
X152922267Y-105167283D01*
X152775050Y-105138000D01*
X152624950Y-105138000D01*
X152522199Y-105158438D01*
X152522199Y-103039143D01*
X152524656Y-103014199D01*
X152521544Y-102982606D01*
X152514848Y-102914614D01*
X152485800Y-102818856D01*
X152438628Y-102730604D01*
X152375147Y-102653251D01*
X152355764Y-102637344D01*
X149126420Y-99408000D01*
X149189580Y-99408000D01*
X156823145Y-107041565D01*
X156839052Y-107060948D01*
X156916405Y-107124429D01*
X157004657Y-107171601D01*
X157100415Y-107200649D01*
X157175053Y-107208000D01*
X157175056Y-107208000D01*
X157200000Y-107210457D01*
X157224944Y-107208000D01*
X166030369Y-107208000D01*
X166114253Y-107291884D01*
X166239058Y-107375276D01*
X166377733Y-107432717D01*
X166524950Y-107462000D01*
X166675050Y-107462000D01*
X166822267Y-107432717D01*
X166960942Y-107375276D01*
X167085747Y-107291884D01*
X167191884Y-107185747D01*
X167275276Y-107060942D01*
X167332717Y-106922267D01*
X167362000Y-106775050D01*
X167362000Y-106650000D01*
X191409928Y-106650000D01*
X191413000Y-106960250D01*
X191571750Y-107119000D01*
X192767000Y-107119000D01*
X192767000Y-106173750D01*
X193529000Y-106173750D01*
X193529000Y-107119000D01*
X194724250Y-107119000D01*
X194883000Y-106960250D01*
X194886072Y-106650000D01*
X194873812Y-106525518D01*
X194837502Y-106405820D01*
X194778537Y-106295506D01*
X194699185Y-106198815D01*
X194602494Y-106119463D01*
X194492180Y-106060498D01*
X194372482Y-106024188D01*
X194248000Y-106011928D01*
X193687750Y-106015000D01*
X193529000Y-106173750D01*
X192767000Y-106173750D01*
X192608250Y-106015000D01*
X192048000Y-106011928D01*
X191923518Y-106024188D01*
X191803820Y-106060498D01*
X191693506Y-106119463D01*
X191596815Y-106198815D01*
X191517463Y-106295506D01*
X191458498Y-106405820D01*
X191422188Y-106525518D01*
X191409928Y-106650000D01*
X167362000Y-106650000D01*
X167362000Y-106624950D01*
X167332717Y-106477733D01*
X167275276Y-106339058D01*
X167191884Y-106214253D01*
X167085747Y-106108116D01*
X166960942Y-106024724D01*
X166822267Y-105967283D01*
X166675050Y-105938000D01*
X166524950Y-105938000D01*
X166377733Y-105967283D01*
X166239058Y-106024724D01*
X166114253Y-106108116D01*
X166030369Y-106192000D01*
X157410420Y-106192000D01*
X150757382Y-99538962D01*
X188319000Y-99538962D01*
X188319000Y-100461038D01*
X188498889Y-101365397D01*
X188851752Y-102217285D01*
X189364030Y-102983963D01*
X190016037Y-103635970D01*
X190782715Y-104148248D01*
X191634603Y-104501111D01*
X192538962Y-104681000D01*
X193461038Y-104681000D01*
X194365397Y-104501111D01*
X195217285Y-104148248D01*
X195983963Y-103635970D01*
X196635970Y-102983963D01*
X197148248Y-102217285D01*
X197501111Y-101365397D01*
X197681000Y-100461038D01*
X197681000Y-99538962D01*
X197501111Y-98634603D01*
X197148248Y-97782715D01*
X196635970Y-97016037D01*
X195983963Y-96364030D01*
X195217285Y-95851752D01*
X194365397Y-95498889D01*
X193461038Y-95319000D01*
X192538962Y-95319000D01*
X191634603Y-95498889D01*
X190782715Y-95851752D01*
X190016037Y-96364030D01*
X189364030Y-97016037D01*
X188851752Y-97782715D01*
X188498889Y-98634603D01*
X188319000Y-99538962D01*
X150757382Y-99538962D01*
X149776855Y-98558435D01*
X149760948Y-98539052D01*
X149683595Y-98475571D01*
X149595343Y-98428399D01*
X149499585Y-98399351D01*
X149424947Y-98392000D01*
X149424944Y-98392000D01*
X149400000Y-98389543D01*
X149375056Y-98392000D01*
X149020567Y-98392000D01*
X149060942Y-98375276D01*
X149185747Y-98291884D01*
X149291884Y-98185747D01*
X149375276Y-98060942D01*
X149432717Y-97922267D01*
X149462000Y-97775050D01*
X149462000Y-97656420D01*
X149910420Y-97208000D01*
X169230369Y-97208000D01*
X169314253Y-97291884D01*
X169439058Y-97375276D01*
X169577733Y-97432717D01*
X169724950Y-97462000D01*
X169875050Y-97462000D01*
X170022267Y-97432717D01*
X170160942Y-97375276D01*
X170285747Y-97291884D01*
X170391884Y-97185747D01*
X170475276Y-97060942D01*
X170532717Y-96922267D01*
X170562000Y-96775050D01*
X170562000Y-96624950D01*
X170532717Y-96477733D01*
X170475276Y-96339058D01*
X170391884Y-96214253D01*
X170285747Y-96108116D01*
X170160942Y-96024724D01*
X170022267Y-95967283D01*
X169875050Y-95938000D01*
X169724950Y-95938000D01*
X169577733Y-95967283D01*
X169439058Y-96024724D01*
X169314253Y-96108116D01*
X169230369Y-96192000D01*
X149724944Y-96192000D01*
X149700000Y-96189543D01*
X149675056Y-96192000D01*
X149675053Y-96192000D01*
X149600415Y-96199351D01*
X149504657Y-96228399D01*
X149416405Y-96275571D01*
X149339052Y-96339052D01*
X149323145Y-96358435D01*
X148743580Y-96938000D01*
X148624950Y-96938000D01*
X148477733Y-96967283D01*
X148339058Y-97024724D01*
X148214253Y-97108116D01*
X148108116Y-97214253D01*
X148024724Y-97339058D01*
X147967283Y-97477733D01*
X147938000Y-97624950D01*
X147938000Y-97775050D01*
X147967283Y-97922267D01*
X148024724Y-98060942D01*
X148108116Y-98185747D01*
X148214253Y-98291884D01*
X148339058Y-98375276D01*
X148379433Y-98392000D01*
X140638737Y-98392000D01*
X140662000Y-98275050D01*
X140662000Y-98124950D01*
X140632717Y-97977733D01*
X140575276Y-97839058D01*
X140491884Y-97714253D01*
X140385747Y-97608116D01*
X140260942Y-97524724D01*
X140122267Y-97467283D01*
X139975050Y-97438000D01*
X139856421Y-97438000D01*
X138791046Y-96372626D01*
X138775139Y-96353243D01*
X138697786Y-96289762D01*
X138609534Y-96242590D01*
X138513776Y-96213542D01*
X138439138Y-96206191D01*
X138439135Y-96206191D01*
X138414191Y-96203734D01*
X138389247Y-96206191D01*
X134010753Y-96206191D01*
X133985809Y-96203734D01*
X133960865Y-96206191D01*
X133960862Y-96206191D01*
X133886224Y-96213542D01*
X133790466Y-96242590D01*
X133702214Y-96289762D01*
X133624861Y-96353243D01*
X133608954Y-96372626D01*
X132943580Y-97038000D01*
X132824950Y-97038000D01*
X132677733Y-97067283D01*
X132539058Y-97124724D01*
X132414253Y-97208116D01*
X132308116Y-97314253D01*
X132224724Y-97439058D01*
X132167283Y-97577733D01*
X132138000Y-97724950D01*
X132138000Y-97875050D01*
X132167283Y-98022267D01*
X132224724Y-98160942D01*
X132308116Y-98285747D01*
X132414253Y-98391884D01*
X132539058Y-98475276D01*
X132677733Y-98532717D01*
X132803459Y-98557725D01*
X131230592Y-100130592D01*
X131183210Y-100188328D01*
X131166256Y-100220048D01*
X131140267Y-100209283D01*
X130993050Y-100180000D01*
X130842950Y-100180000D01*
X130695733Y-100209283D01*
X130557058Y-100266724D01*
X130432253Y-100350116D01*
X130326116Y-100456253D01*
X130242724Y-100581058D01*
X130185283Y-100719733D01*
X130156000Y-100866950D01*
X129686733Y-100866950D01*
X129688999Y-100843948D01*
X129688999Y-100843945D01*
X129691456Y-100819001D01*
X129688999Y-100794057D01*
X129688999Y-95057136D01*
X129708116Y-95085747D01*
X129814253Y-95191884D01*
X129939058Y-95275276D01*
X130077733Y-95332717D01*
X130224950Y-95362000D01*
X130375050Y-95362000D01*
X130522267Y-95332717D01*
X130660942Y-95275276D01*
X130785747Y-95191884D01*
X130891884Y-95085747D01*
X130975276Y-94960942D01*
X131032717Y-94822267D01*
X131062000Y-94675050D01*
X131062000Y-94556420D01*
X131393465Y-94224955D01*
X137837999Y-94224955D01*
X137837999Y-94375055D01*
X137867282Y-94522272D01*
X137924723Y-94660947D01*
X138008115Y-94785752D01*
X138114252Y-94891889D01*
X138239057Y-94975281D01*
X138377732Y-95032722D01*
X138524949Y-95062005D01*
X138675049Y-95062005D01*
X138822266Y-95032722D01*
X138960941Y-94975281D01*
X139085746Y-94891889D01*
X139101616Y-94876019D01*
X139108116Y-94885747D01*
X139214253Y-94991884D01*
X139339058Y-95075276D01*
X139477733Y-95132717D01*
X139624950Y-95162000D01*
X139775050Y-95162000D01*
X139922267Y-95132717D01*
X140060942Y-95075276D01*
X140185747Y-94991884D01*
X140291884Y-94885747D01*
X140375276Y-94760942D01*
X140432717Y-94622267D01*
X140462000Y-94475050D01*
X140462000Y-94324950D01*
X140432717Y-94177733D01*
X140375276Y-94039058D01*
X140291884Y-93914253D01*
X140208000Y-93830369D01*
X140208000Y-91110420D01*
X141493470Y-89824950D01*
X162038000Y-89824950D01*
X162038000Y-89975050D01*
X162067283Y-90122267D01*
X162124724Y-90260942D01*
X162208116Y-90385747D01*
X162314253Y-90491884D01*
X162439058Y-90575276D01*
X162577733Y-90632717D01*
X162724950Y-90662000D01*
X162843580Y-90662000D01*
X164323145Y-92141565D01*
X164339052Y-92160948D01*
X164416405Y-92224429D01*
X164504657Y-92271601D01*
X164600415Y-92300649D01*
X164675053Y-92308000D01*
X164675056Y-92308000D01*
X164700000Y-92310457D01*
X164724944Y-92308000D01*
X180775056Y-92308000D01*
X180800000Y-92310457D01*
X180824944Y-92308000D01*
X180824947Y-92308000D01*
X180899585Y-92300649D01*
X180995343Y-92271601D01*
X181083595Y-92224429D01*
X181160948Y-92160948D01*
X181176855Y-92141565D01*
X181223420Y-92095000D01*
X191665157Y-92095000D01*
X191665157Y-92945000D01*
X191680679Y-93102602D01*
X191726650Y-93254148D01*
X191801303Y-93393814D01*
X191901769Y-93516231D01*
X192024186Y-93616697D01*
X192163852Y-93691350D01*
X192315398Y-93737321D01*
X192473000Y-93752843D01*
X193823000Y-93752843D01*
X193980602Y-93737321D01*
X194132148Y-93691350D01*
X194271814Y-93616697D01*
X194394231Y-93516231D01*
X194494697Y-93393814D01*
X194569350Y-93254148D01*
X194615321Y-93102602D01*
X194630843Y-92945000D01*
X194630843Y-92095000D01*
X194615321Y-91937398D01*
X194569350Y-91785852D01*
X194494697Y-91646186D01*
X194394231Y-91523769D01*
X194271814Y-91423303D01*
X194132148Y-91348650D01*
X193980602Y-91302679D01*
X193823000Y-91287157D01*
X192473000Y-91287157D01*
X192315398Y-91302679D01*
X192163852Y-91348650D01*
X192024186Y-91423303D01*
X191901769Y-91523769D01*
X191801303Y-91646186D01*
X191726650Y-91785852D01*
X191680679Y-91937398D01*
X191665157Y-92095000D01*
X181223420Y-92095000D01*
X181256420Y-92062000D01*
X181375050Y-92062000D01*
X181522267Y-92032717D01*
X181660942Y-91975276D01*
X181785747Y-91891884D01*
X181891884Y-91785747D01*
X181975276Y-91660942D01*
X182032717Y-91522267D01*
X182062000Y-91375050D01*
X182062000Y-91224950D01*
X182032717Y-91077733D01*
X181975276Y-90939058D01*
X181891884Y-90814253D01*
X181785747Y-90708116D01*
X181660942Y-90624724D01*
X181522267Y-90567283D01*
X181375050Y-90538000D01*
X181224950Y-90538000D01*
X181077733Y-90567283D01*
X180939058Y-90624724D01*
X180814253Y-90708116D01*
X180708116Y-90814253D01*
X180624724Y-90939058D01*
X180567283Y-91077733D01*
X180538000Y-91224950D01*
X180538000Y-91292000D01*
X164910420Y-91292000D01*
X163562000Y-89943580D01*
X163562000Y-89824950D01*
X163532717Y-89677733D01*
X163475276Y-89539058D01*
X163391884Y-89414253D01*
X163285747Y-89308116D01*
X163160942Y-89224724D01*
X163022267Y-89167283D01*
X162875050Y-89138000D01*
X162724950Y-89138000D01*
X162577733Y-89167283D01*
X162439058Y-89224724D01*
X162314253Y-89308116D01*
X162208116Y-89414253D01*
X162124724Y-89539058D01*
X162067283Y-89677733D01*
X162038000Y-89824950D01*
X141493470Y-89824950D01*
X142948420Y-88370000D01*
X191409928Y-88370000D01*
X191422188Y-88494482D01*
X191458498Y-88614180D01*
X191517463Y-88724494D01*
X191596815Y-88821185D01*
X191693506Y-88900537D01*
X191803820Y-88959502D01*
X191923518Y-88995812D01*
X191934515Y-88996895D01*
X191901769Y-89023769D01*
X191801303Y-89146186D01*
X191726650Y-89285852D01*
X191680679Y-89437398D01*
X191665157Y-89595000D01*
X191665157Y-90445000D01*
X191680679Y-90602602D01*
X191726650Y-90754148D01*
X191801303Y-90893814D01*
X191901769Y-91016231D01*
X192024186Y-91116697D01*
X192163852Y-91191350D01*
X192315398Y-91237321D01*
X192473000Y-91252843D01*
X193823000Y-91252843D01*
X193980602Y-91237321D01*
X194132148Y-91191350D01*
X194271814Y-91116697D01*
X194394231Y-91016231D01*
X194494697Y-90893814D01*
X194569350Y-90754148D01*
X194615321Y-90602602D01*
X194630843Y-90445000D01*
X194630843Y-89595000D01*
X194615321Y-89437398D01*
X194569350Y-89285852D01*
X194494697Y-89146186D01*
X194394231Y-89023769D01*
X194361485Y-88996895D01*
X194372482Y-88995812D01*
X194492180Y-88959502D01*
X194602494Y-88900537D01*
X194699185Y-88821185D01*
X194778537Y-88724494D01*
X194837502Y-88614180D01*
X194873812Y-88494482D01*
X194886072Y-88370000D01*
X194883000Y-88059750D01*
X194724250Y-87901000D01*
X193529000Y-87901000D01*
X193529000Y-87921000D01*
X192767000Y-87921000D01*
X192767000Y-87901000D01*
X191571750Y-87901000D01*
X191413000Y-88059750D01*
X191409928Y-88370000D01*
X142948420Y-88370000D01*
X145210420Y-86108000D01*
X145630369Y-86108000D01*
X145714253Y-86191884D01*
X145839058Y-86275276D01*
X145977733Y-86332717D01*
X146124950Y-86362000D01*
X146275050Y-86362000D01*
X146422267Y-86332717D01*
X146560942Y-86275276D01*
X146685747Y-86191884D01*
X146791884Y-86085747D01*
X146875276Y-85960942D01*
X146932717Y-85822267D01*
X146962000Y-85675050D01*
X146962000Y-85524950D01*
X146932717Y-85377733D01*
X146875276Y-85239058D01*
X146854524Y-85208000D01*
X147389580Y-85208000D01*
X147938000Y-85756420D01*
X147938000Y-85875050D01*
X147967283Y-86022267D01*
X148024724Y-86160942D01*
X148108116Y-86285747D01*
X148214253Y-86391884D01*
X148339058Y-86475276D01*
X148477733Y-86532717D01*
X148624950Y-86562000D01*
X148775050Y-86562000D01*
X148922267Y-86532717D01*
X149060942Y-86475276D01*
X149185747Y-86391884D01*
X149291884Y-86285747D01*
X149375276Y-86160942D01*
X149432717Y-86022267D01*
X149462000Y-85875050D01*
X149462000Y-85724950D01*
X149432717Y-85577733D01*
X149375276Y-85439058D01*
X149291884Y-85314253D01*
X149185747Y-85208116D01*
X149060942Y-85124724D01*
X148922267Y-85067283D01*
X148775050Y-85038000D01*
X148656420Y-85038000D01*
X148026420Y-84408000D01*
X153689580Y-84408000D01*
X155338000Y-86056420D01*
X155338000Y-86175050D01*
X155367283Y-86322267D01*
X155424724Y-86460942D01*
X155508116Y-86585747D01*
X155614253Y-86691884D01*
X155739058Y-86775276D01*
X155877733Y-86832717D01*
X156024950Y-86862000D01*
X156175050Y-86862000D01*
X156322267Y-86832717D01*
X156460942Y-86775276D01*
X156585747Y-86691884D01*
X156607631Y-86670000D01*
X191409928Y-86670000D01*
X191413000Y-86980250D01*
X191571750Y-87139000D01*
X192767000Y-87139000D01*
X192767000Y-86193750D01*
X193529000Y-86193750D01*
X193529000Y-87139000D01*
X194724250Y-87139000D01*
X194883000Y-86980250D01*
X194886072Y-86670000D01*
X194873812Y-86545518D01*
X194837502Y-86425820D01*
X194778537Y-86315506D01*
X194699185Y-86218815D01*
X194602494Y-86139463D01*
X194492180Y-86080498D01*
X194372482Y-86044188D01*
X194248000Y-86031928D01*
X193687750Y-86035000D01*
X193529000Y-86193750D01*
X192767000Y-86193750D01*
X192608250Y-86035000D01*
X192048000Y-86031928D01*
X191923518Y-86044188D01*
X191803820Y-86080498D01*
X191693506Y-86139463D01*
X191596815Y-86218815D01*
X191517463Y-86315506D01*
X191458498Y-86425820D01*
X191422188Y-86545518D01*
X191409928Y-86670000D01*
X156607631Y-86670000D01*
X156691884Y-86585747D01*
X156775276Y-86460942D01*
X156832717Y-86322267D01*
X156862000Y-86175050D01*
X156862000Y-86024950D01*
X156832717Y-85877733D01*
X156775276Y-85739058D01*
X156691884Y-85614253D01*
X156585747Y-85508116D01*
X156460942Y-85424724D01*
X156322267Y-85367283D01*
X156175050Y-85338000D01*
X156056420Y-85338000D01*
X154276855Y-83558435D01*
X154260948Y-83539052D01*
X154183595Y-83475571D01*
X154095343Y-83428399D01*
X153999585Y-83399351D01*
X153924947Y-83392000D01*
X153924944Y-83392000D01*
X153900000Y-83389543D01*
X153875056Y-83392000D01*
X144524944Y-83392000D01*
X144500000Y-83389543D01*
X144475056Y-83392000D01*
X144475053Y-83392000D01*
X144400415Y-83399351D01*
X144304657Y-83428399D01*
X144216405Y-83475571D01*
X144139052Y-83539052D01*
X144123145Y-83558435D01*
X140443580Y-87238000D01*
X140324950Y-87238000D01*
X140177733Y-87267283D01*
X140039058Y-87324724D01*
X139914253Y-87408116D01*
X139808116Y-87514253D01*
X139724724Y-87639058D01*
X139667283Y-87777733D01*
X139638000Y-87924950D01*
X139638000Y-88075050D01*
X139667283Y-88222267D01*
X139724724Y-88360942D01*
X139808116Y-88485747D01*
X139914253Y-88591884D01*
X140039058Y-88675276D01*
X140086608Y-88694972D01*
X138258434Y-90523146D01*
X138239051Y-90539053D01*
X138175570Y-90616406D01*
X138128398Y-90704659D01*
X138099350Y-90800417D01*
X138092121Y-90873814D01*
X138089542Y-90900001D01*
X138091999Y-90924945D01*
X138092000Y-93730373D01*
X138008115Y-93814258D01*
X137924723Y-93939063D01*
X137867282Y-94077738D01*
X137837999Y-94224955D01*
X131393465Y-94224955D01*
X133656420Y-91962000D01*
X133675050Y-91962000D01*
X133822267Y-91932717D01*
X133960942Y-91875276D01*
X134085747Y-91791884D01*
X134191884Y-91685747D01*
X134275276Y-91560942D01*
X134332717Y-91422267D01*
X134362000Y-91275050D01*
X134362000Y-91124950D01*
X134332717Y-90977733D01*
X134275276Y-90839058D01*
X134191884Y-90714253D01*
X134085747Y-90608116D01*
X133960942Y-90524724D01*
X133822267Y-90467283D01*
X133675050Y-90438000D01*
X133524950Y-90438000D01*
X133377733Y-90467283D01*
X133239058Y-90524724D01*
X133114253Y-90608116D01*
X133008116Y-90714253D01*
X132961560Y-90783929D01*
X132885747Y-90708116D01*
X132760942Y-90624724D01*
X132622267Y-90567283D01*
X132475050Y-90538000D01*
X132324950Y-90538000D01*
X132177733Y-90567283D01*
X132039058Y-90624724D01*
X131914253Y-90708116D01*
X131808116Y-90814253D01*
X131724724Y-90939058D01*
X131667283Y-91077733D01*
X131638000Y-91224950D01*
X131638000Y-91343580D01*
X128839429Y-94142151D01*
X128820052Y-94158053D01*
X128804150Y-94177430D01*
X128804149Y-94177431D01*
X128756570Y-94235406D01*
X128744264Y-94258430D01*
X128709399Y-94323658D01*
X128692996Y-94377733D01*
X128680351Y-94419417D01*
X128670542Y-94519001D01*
X128673000Y-94543955D01*
X128672999Y-96943947D01*
X128673000Y-96943957D01*
X128672999Y-100448334D01*
X128577733Y-100467283D01*
X128439058Y-100524724D01*
X128314253Y-100608116D01*
X128208116Y-100714253D01*
X128124724Y-100839058D01*
X128067283Y-100977733D01*
X128038000Y-101124950D01*
X125927059Y-101124950D01*
X125927059Y-101090009D01*
X125897776Y-100942792D01*
X125840335Y-100804117D01*
X125756943Y-100679312D01*
X125650806Y-100573175D01*
X125526001Y-100489783D01*
X125387326Y-100432342D01*
X125240109Y-100403059D01*
X125090009Y-100403059D01*
X124942792Y-100432342D01*
X124804117Y-100489783D01*
X124679312Y-100573175D01*
X124573175Y-100679312D01*
X124489783Y-100804117D01*
X124432342Y-100942792D01*
X124403059Y-101090009D01*
X124403059Y-101240109D01*
X124432342Y-101387326D01*
X124489783Y-101526001D01*
X124573175Y-101650806D01*
X124679312Y-101756943D01*
X124804117Y-101840335D01*
X124942792Y-101897776D01*
X125090009Y-101927059D01*
X125208639Y-101927059D01*
X126957318Y-103675739D01*
X126839058Y-103724724D01*
X126714253Y-103808116D01*
X126630369Y-103892000D01*
X123382352Y-103892000D01*
X123284937Y-103794585D01*
X123160132Y-103711193D01*
X123021457Y-103653752D01*
X122874240Y-103624469D01*
X122724140Y-103624469D01*
X122576923Y-103653752D01*
X122438248Y-103711193D01*
X122313443Y-103794585D01*
X122207306Y-103900722D01*
X122123914Y-104025527D01*
X122066473Y-104164202D01*
X122037190Y-104311419D01*
X108823354Y-104311419D01*
X109217285Y-104148248D01*
X109983963Y-103635970D01*
X110635970Y-102983963D01*
X111148248Y-102217285D01*
X111501111Y-101365397D01*
X111681000Y-100461038D01*
X111681000Y-99538962D01*
X111501111Y-98634603D01*
X111148248Y-97782715D01*
X110635970Y-97016037D01*
X109983963Y-96364030D01*
X109217285Y-95851752D01*
X108365397Y-95498889D01*
X107461038Y-95319000D01*
X106538962Y-95319000D01*
X105634603Y-95498889D01*
X104782715Y-95851752D01*
X104016037Y-96364030D01*
X103364030Y-97016037D01*
X102851752Y-97782715D01*
X102498889Y-98634603D01*
X102319000Y-99538962D01*
X100406000Y-99538962D01*
X100406000Y-93350000D01*
X105049928Y-93350000D01*
X105062188Y-93474482D01*
X105098498Y-93594180D01*
X105157463Y-93704494D01*
X105236815Y-93801185D01*
X105333506Y-93880537D01*
X105443820Y-93939502D01*
X105563518Y-93975812D01*
X105688000Y-93988072D01*
X106248250Y-93985000D01*
X106407000Y-93826250D01*
X106407000Y-92881000D01*
X107169000Y-92881000D01*
X107169000Y-93826250D01*
X107327750Y-93985000D01*
X107888000Y-93988072D01*
X108012482Y-93975812D01*
X108132180Y-93939502D01*
X108242494Y-93880537D01*
X108339185Y-93801185D01*
X108418537Y-93704494D01*
X108477502Y-93594180D01*
X108513812Y-93474482D01*
X108526072Y-93350000D01*
X108523000Y-93039750D01*
X108364250Y-92881000D01*
X107169000Y-92881000D01*
X106407000Y-92881000D01*
X105211750Y-92881000D01*
X105053000Y-93039750D01*
X105049928Y-93350000D01*
X100406000Y-93350000D01*
X100406000Y-91650000D01*
X105049928Y-91650000D01*
X105053000Y-91960250D01*
X105211750Y-92119000D01*
X106407000Y-92119000D01*
X106407000Y-92099000D01*
X107169000Y-92099000D01*
X107169000Y-92119000D01*
X108364250Y-92119000D01*
X108523000Y-91960250D01*
X108526072Y-91650000D01*
X108513812Y-91525518D01*
X108477502Y-91405820D01*
X108418537Y-91295506D01*
X108339185Y-91198815D01*
X108242494Y-91119463D01*
X108132180Y-91060498D01*
X108012482Y-91024188D01*
X108001485Y-91023105D01*
X108034231Y-90996231D01*
X108134697Y-90873814D01*
X108209350Y-90734148D01*
X108255321Y-90582602D01*
X108270843Y-90425000D01*
X108270843Y-89575000D01*
X108255321Y-89417398D01*
X108209350Y-89265852D01*
X108134697Y-89126186D01*
X108034231Y-89003769D01*
X107911814Y-88903303D01*
X107772148Y-88828650D01*
X107620602Y-88782679D01*
X107463000Y-88767157D01*
X106113000Y-88767157D01*
X105955398Y-88782679D01*
X105803852Y-88828650D01*
X105664186Y-88903303D01*
X105541769Y-89003769D01*
X105441303Y-89126186D01*
X105366650Y-89265852D01*
X105320679Y-89417398D01*
X105305157Y-89575000D01*
X105305157Y-90425000D01*
X105320679Y-90582602D01*
X105366650Y-90734148D01*
X105441303Y-90873814D01*
X105541769Y-90996231D01*
X105574515Y-91023105D01*
X105563518Y-91024188D01*
X105443820Y-91060498D01*
X105333506Y-91119463D01*
X105236815Y-91198815D01*
X105157463Y-91295506D01*
X105098498Y-91405820D01*
X105062188Y-91525518D01*
X105049928Y-91650000D01*
X100406000Y-91650000D01*
X100406000Y-87075000D01*
X105305157Y-87075000D01*
X105305157Y-87925000D01*
X105320679Y-88082602D01*
X105366650Y-88234148D01*
X105441303Y-88373814D01*
X105541769Y-88496231D01*
X105664186Y-88596697D01*
X105803852Y-88671350D01*
X105955398Y-88717321D01*
X106113000Y-88732843D01*
X107463000Y-88732843D01*
X107620602Y-88717321D01*
X107772148Y-88671350D01*
X107911814Y-88596697D01*
X108034231Y-88496231D01*
X108134697Y-88373814D01*
X108209350Y-88234148D01*
X108255321Y-88082602D01*
X108270843Y-87925000D01*
X108270843Y-87724950D01*
X122538000Y-87724950D01*
X122538000Y-87875050D01*
X122567283Y-88022267D01*
X122624724Y-88160942D01*
X122708116Y-88285747D01*
X122814253Y-88391884D01*
X122939058Y-88475276D01*
X123077733Y-88532717D01*
X123224950Y-88562000D01*
X123343580Y-88562000D01*
X125692000Y-90910421D01*
X125692001Y-94030368D01*
X125608116Y-94114253D01*
X125524724Y-94239058D01*
X125467283Y-94377733D01*
X125438000Y-94524950D01*
X125438000Y-94675050D01*
X125467283Y-94822267D01*
X125524724Y-94960942D01*
X125608116Y-95085747D01*
X125714253Y-95191884D01*
X125839058Y-95275276D01*
X125977733Y-95332717D01*
X126124950Y-95362000D01*
X126275050Y-95362000D01*
X126422267Y-95332717D01*
X126560942Y-95275276D01*
X126685747Y-95191884D01*
X126791884Y-95085747D01*
X126875276Y-94960942D01*
X126932717Y-94822267D01*
X126962000Y-94675050D01*
X126962000Y-94524950D01*
X126932717Y-94377733D01*
X126875276Y-94239058D01*
X126791884Y-94114253D01*
X126708000Y-94030369D01*
X126708000Y-90724943D01*
X126710457Y-90699999D01*
X126703830Y-90632717D01*
X126700649Y-90600415D01*
X126671601Y-90504657D01*
X126651624Y-90467283D01*
X126624429Y-90416404D01*
X126576850Y-90358429D01*
X126560948Y-90339052D01*
X126541571Y-90323150D01*
X124062000Y-87843580D01*
X124062000Y-87724950D01*
X124032717Y-87577733D01*
X123975276Y-87439058D01*
X123891884Y-87314253D01*
X123785747Y-87208116D01*
X123660942Y-87124724D01*
X123522267Y-87067283D01*
X123375050Y-87038000D01*
X123224950Y-87038000D01*
X123077733Y-87067283D01*
X122939058Y-87124724D01*
X122814253Y-87208116D01*
X122708116Y-87314253D01*
X122624724Y-87439058D01*
X122567283Y-87577733D01*
X122538000Y-87724950D01*
X108270843Y-87724950D01*
X108270843Y-87075000D01*
X108255321Y-86917398D01*
X108209350Y-86765852D01*
X108134697Y-86626186D01*
X108034231Y-86503769D01*
X107911814Y-86403303D01*
X107772148Y-86328650D01*
X107620602Y-86282679D01*
X107463000Y-86267157D01*
X106113000Y-86267157D01*
X105955398Y-86282679D01*
X105803852Y-86328650D01*
X105664186Y-86403303D01*
X105541769Y-86503769D01*
X105441303Y-86626186D01*
X105366650Y-86765852D01*
X105320679Y-86917398D01*
X105305157Y-87075000D01*
X100406000Y-87075000D01*
X100406000Y-81481750D01*
X109865000Y-81481750D01*
X109876723Y-81586609D01*
X109915350Y-81705579D01*
X109976445Y-81814728D01*
X110057660Y-81909860D01*
X110155874Y-81987320D01*
X110267312Y-82044131D01*
X110387692Y-82078111D01*
X110468250Y-82085000D01*
X110627000Y-81926250D01*
X110627000Y-81323000D01*
X110023750Y-81323000D01*
X109865000Y-81481750D01*
X100406000Y-81481750D01*
X100406000Y-80419854D01*
X100407241Y-80407192D01*
X100418580Y-80406000D01*
X109879123Y-80406000D01*
X109876723Y-80413391D01*
G36*
X133777733Y-98632717D02*
G01*
X133924950Y-98662000D01*
X133982394Y-98662000D01*
X134410197Y-99089803D01*
X134429443Y-99105597D01*
X134451399Y-99117333D01*
X134475224Y-99124560D01*
X134500000Y-99127000D01*
X134521215Y-99127000D01*
X134604657Y-99171601D01*
X134700415Y-99200649D01*
X134775053Y-99208000D01*
X134775056Y-99208000D01*
X134800000Y-99210457D01*
X134824944Y-99208000D01*
X136189580Y-99208000D01*
X136492001Y-99510422D01*
X136492000Y-103075056D01*
X136489543Y-103100000D01*
X136492000Y-103124944D01*
X136492000Y-103124946D01*
X136499351Y-103199584D01*
X136528399Y-103295342D01*
X136573000Y-103378785D01*
X136573000Y-104873000D01*
X136533192Y-104873000D01*
X136460942Y-104824724D01*
X136322267Y-104767283D01*
X136175050Y-104738000D01*
X136024950Y-104738000D01*
X135877733Y-104767283D01*
X135739058Y-104824724D01*
X135666808Y-104873000D01*
X131627000Y-104873000D01*
X131627000Y-101221525D01*
X131650717Y-101164267D01*
X131680000Y-101017050D01*
X131680000Y-100866950D01*
X131650717Y-100719733D01*
X131627000Y-100662475D01*
X131627000Y-100452606D01*
X133452606Y-98627000D01*
X133763931Y-98627000D01*
X133777733Y-98632717D01*
G37*
X133777733Y-98632717D02*
X133924950Y-98662000D01*
X133982394Y-98662000D01*
X134410197Y-99089803D01*
X134429443Y-99105597D01*
X134451399Y-99117333D01*
X134475224Y-99124560D01*
X134500000Y-99127000D01*
X134521215Y-99127000D01*
X134604657Y-99171601D01*
X134700415Y-99200649D01*
X134775053Y-99208000D01*
X134775056Y-99208000D01*
X134800000Y-99210457D01*
X134824944Y-99208000D01*
X136189580Y-99208000D01*
X136492001Y-99510422D01*
X136492000Y-103075056D01*
X136489543Y-103100000D01*
X136492000Y-103124944D01*
X136492000Y-103124946D01*
X136499351Y-103199584D01*
X136528399Y-103295342D01*
X136573000Y-103378785D01*
X136573000Y-104873000D01*
X136533192Y-104873000D01*
X136460942Y-104824724D01*
X136322267Y-104767283D01*
X136175050Y-104738000D01*
X136024950Y-104738000D01*
X135877733Y-104767283D01*
X135739058Y-104824724D01*
X135666808Y-104873000D01*
X131627000Y-104873000D01*
X131627000Y-101221525D01*
X131650717Y-101164267D01*
X131680000Y-101017050D01*
X131680000Y-100866950D01*
X131650717Y-100719733D01*
X131627000Y-100662475D01*
X131627000Y-100452606D01*
X133452606Y-98627000D01*
X133763931Y-98627000D01*
X133777733Y-98632717D01*
M02*
