M48
; DRILL file {KiCad 5.1.6} date Sun Oct 25 14:50:07 2020
; FORMAT={-:-/ absolute / inch / decimal}
; #@! TF.CreationDate,2020-10-25T14:50:07-05:00
; #@! TF.GenerationSoftware,Kicad,Pcbnew,5.1.6
FMAT,2
INCH
T1C0.0160
T2C0.0236
T3C0.0354
T4C0.0394
T5C0.1693
T6C0.1260
%
G90
G05
T1
X4.5669Y-3.2283
X4.8346Y-4.1097
X4.8543Y-3.4567
X4.9278Y-3.9829
X4.9685Y-3.7244
X5.0079Y-4.1102
X5.0709Y-3.9843
X5.0906Y-4.0984
X5.1299Y-3.7244
X5.1543Y-3.9741
X5.1543Y-4.3941
X5.2126Y-3.5945
X5.2323Y-3.8504
X5.2598Y-3.5906
X5.2756Y-3.8543
X5.3268Y-3.8346
X5.3583Y-3.2559
X5.3588Y-3.8583
X5.4213Y-4.0276
X5.4265Y-3.9494
X5.4331Y-4.0709
X5.4567Y-3.7126
X5.4744Y-4.0768
X5.5Y-3.7165
X5.5079Y-3.8661
X5.5276Y-3.4646
X5.5472Y-4.0669
X5.5512Y-3.9488
X5.5827Y-4.0309
X5.6772Y-4.0787
X5.7559Y-3.3701
X5.8031Y-3.9606
X5.8543Y-3.378
X5.8543Y-3.8465
X6.0118Y-4.1693
X6.0157Y-4.2283
X6.1457Y-3.3898
X6.2126Y-4.3701
X6.4094Y-3.5394
X6.4843Y-3.2441
X6.5591Y-4.2008
X6.5643Y-4.6041
X6.685Y-3.8071
X7.1378Y-3.5945
X7.1743Y-4.4941
X7.3228Y-3.2559
X4.4685Y-4.2126
X6.0315Y-3.8858
X7.4843Y-3.252
X6.4331Y-3.2441
X5.2598Y-3.9016
X5.3268Y-4.2598
X7.3425Y-4.4449
X5.9016Y-4.0945
X6.6929Y-4.1339
X6.3189Y-4.2913
X6.9685Y-3.4449
X5.3583Y-3.9173
X5.5354Y-3.189
X4.7835Y-4.1929
X5.2047Y-4.1063
X6.815Y-4.0709
X6.9291Y-3.4882
X5.3583Y-4.1535
X6.0315Y-3.9764
X5.9213Y-4.374
X6.8346Y-3.9606
X5.9016Y-4.2087
X6.815Y-4.2441
X7.3425Y-3.6614
X4.9606Y-3.4882
X4.4882Y-3.2402
X5.0039Y-3.4449
X4.5039Y-3.4646
X5.4528Y-4.2717
T2
X4.0856Y-3.937
X4.1228Y-3.8472
X4.1228Y-4.0268
X4.2126Y-3.81
X4.2126Y-4.064
X4.3024Y-3.8472
X4.3024Y-4.0268
X4.3396Y-3.937
X7.4715Y-3.937
X7.5086Y-3.8472
X7.5086Y-4.0268
X7.5984Y-3.81
X7.5984Y-4.064
X7.6882Y-3.8472
X7.6882Y-4.0268
X7.7254Y-3.937
T3
X4.5158Y-4.4541
X4.6143Y-4.4541
X4.7127Y-4.4541
X6.7858Y-4.4541
X6.8843Y-4.4541
X6.9827Y-4.4541
X4.2043Y-4.2357
X4.2043Y-4.3341
X4.2043Y-4.4325
X7.6043Y-4.2323
X7.6043Y-4.3307
X7.6043Y-4.4291
X7.6043Y-3.4457
X7.6043Y-3.5441
X7.6043Y-3.6425
X4.2043Y-3.4449
X4.2043Y-3.5433
X4.2043Y-3.6417
T4
X5.5055Y-4.5079
X5.6055Y-4.5079
X5.7055Y-4.5079
X5.8055Y-4.5079
X5.9055Y-4.5079
X6.0055Y-4.5079
X6.1055Y-4.5079
X6.2055Y-4.5079
X6.3055Y-4.5079
T5
X4.2126Y-3.937
X7.5984Y-3.937
T6
X5.2743Y-4.5641
X4.9843Y-4.5641
T0
M30
